<svg xmlns="http://www.w3.org/2000/svg" width="106mm" height="44mm" viewBox="0 0 106 44"><path d="M19.735 43.77a22.035 22.035 0 0 1-11.248-4.61c-.926-.733-2.407-2.18-3.208-3.134-1.48-1.763-2.99-4.388-3.775-6.562-.413-1.14-.878-2.973-1.086-4.276-.24-1.5-.219-5.139.04-6.638.553-3.211 1.622-5.974 3.293-8.516 3.19-4.85 7.98-8.172 13.614-9.437 2.897-.65 6.436-.664 9.347-.035 7.318 1.58 13.333 6.802 15.958 13.856 1.632 4.386 1.762 9.667.348 14.134a22.076 22.076 0 0 1-8.397 11.42c-4.274 2.992-9.67 4.368-14.886 3.798zm5.418-1.384a20.412 20.412 0 0 0 8.262-3.15c1.886-1.232 3.835-3.047 5.115-4.761l.242-.324-2.025-2.026C35.633 31.011 34.7 30.1 34.675 30.1c-.025 0-.291.334-.59.741-.73.993-2.317 2.558-3.303 3.257-1.662 1.179-3.697 2.063-5.75 2.499-.96.204-1.243.226-2.884.23-2.08.003-2.966-.129-4.734-.71-4.929-1.618-8.741-5.85-9.865-10.949l-.052-.233h12.534v-5.926H7.497l.056-.233c.812-3.4 2.584-6.249 5.197-8.36 5.403-4.368 13.05-4.425 18.541-.14 1.2.936 2.02 1.82 3.26 3.517l.17.231 1.014-.958c2.67-2.52 3.136-2.967 3.157-3.022.05-.132-1.463-1.893-2.451-2.854-2.615-2.542-5.686-4.27-9.17-5.161-1.982-.507-2.712-.589-5.208-.586-1.923.002-2.395.029-3.302.187-4.52.792-8.316 2.792-11.473 6.044-3.94 4.06-5.953 9.293-5.774 15.018.272 8.705 5.973 16.247 14.326 18.954 1.301.422 3.226.797 4.784.934.868.076 3.476-.035 4.53-.193zM29.98 26.23c.442-.233.668-.483.905-1 .168-.367.193-.56.195-1.48.001-1.263-.147-1.686-.715-2.036-.381-.236-.413-.302-.178-.376.539-.171.923-1.15.81-2.066-.173-1.404-.973-2.083-2.456-2.083-1.157 0-1.876.398-2.247 1.244-.155.354-.196.599-.195 1.167 0 .874.136 1.229.613 1.612l.348.28-.332.198c-.217.13-.4.335-.529.6-.176.356-.198.52-.196 1.46 0 .92.026 1.113.194 1.48.224.49.463.768.82.953.458.238.667.27 1.651.248.8-.018 1.034-.054 1.312-.2zm-1.874-1.607c-.193-.462-.134-1.89.088-2.135.09-.098.245-.178.347-.178.376 0 .506.285.537 1.179.038 1.092-.093 1.445-.537 1.445-.271 0-.32-.034-.435-.311zm.177-3.872c-.133-.097-.17-.248-.195-.807-.043-.965.152-1.368.597-1.227.235.074.322.382.322 1.143 0 .559-.029.7-.17.841-.2.2-.332.212-.554.05zm6.995 5.475c.553-.281.95-.777 1.158-1.445.114-.369.148-.778.148-1.752 0-1.146-.019-1.31-.194-1.692-.356-.771-.773-1.06-1.533-1.06-.514 0-.824.111-1.13.403l-.233.222v-.78c0-.87.134-1.319.42-1.41.27-.085.578.157.644.507l.056.297h.907c.5 0 .928-.02.952-.044.084-.084-.094-.906-.278-1.286-.342-.706-1.415-1.134-2.51-1.001-1.06.129-1.661.635-1.986 1.671-.183.582-.195.753-.195 2.988 0 2.212.013 2.41.188 2.963.23.73.597 1.187 1.161 1.45.351.163.57.2 1.197.2.671.001.826-.028 1.228-.231zm-1.587-1.514c-.221-.338-.224-2.093-.004-2.428.174-.265.564-.311.749-.088.166.2.209 1.909.06 2.358-.097.29-.152.342-.383.364-.216.021-.3-.02-.422-.206zm6.957 1.589c1.048-.478 1.482-1.799 1.482-4.512 0-2.29-.364-3.696-1.092-4.214-.377-.27-1.236-.458-1.806-.399-1.723.18-2.28 1.298-2.285 4.583-.004 3.616.596 4.7 2.6 4.697.556-.001.855-.043 1.101-.155zm-1.277-1.37c-.37-.137-.416-.471-.416-3.002 0-1.304.03-2.514.068-2.689.118-.559.674-.732.927-.29.145.254.202 4.833.067 5.443-.104.472-.326.656-.646.538zm-14.09-3.214v-4.572H23.875l-.112.318c-.259.735-.835 1.121-1.673 1.121h-.28v1.524h1.439v6.181H25.28zm22.183.17V10.626H58.64v4.741H52.374v3.895H58.216v4.572h-5.842v4.487h6.522l-.023 2.392-.022 2.392-5.694.022-5.694.021zm12.277 0V10.624l3.489.022 3.489.022.365 2.455.826 5.546c.253 1.7.527 3.557.609 4.128.082.57.174 1.037.203 1.037.03 0 .077-.181.105-.402.09-.714 1.833-12.419 1.88-12.616l.044-.19h6.981l.026 11.155c.014 6.212-.007 11.202-.049 11.262-.056.083-.58.102-2.31.084l-2.239-.022-.042-8.333-.042-8.333-.358 2.322c-.62 4.03-1.54 9.946-1.888 12.154a158.23 158.23 0 0 0-.337 2.18c0 .029-.796.052-1.77.052h-1.77l-.05-.317-.43-2.773c-.338-2.192-.591-3.821-1.796-11.55l-.322-2.067-.042 8.332-.043 8.333-2.264.022-2.265.023V21.887zm22.352 2.499v-8.762l-1.842-.022-1.841-.023-.023-2.477-.022-2.476H90.73l-.022 2.476-.022 2.477-1.842.023-1.841.022v17.523h-4.911zm12.963 8.317c-.048-.245-.468-2.56-.933-5.144-2.375-13.194-2.985-16.568-3.028-16.743l-.046-.19h5.242l.18 1.545.605 5.186c.997 8.548 1.188 10.145 1.216 10.174.032.032.069-.273.946-7.804.904-7.774 1.057-9.043 1.088-9.074.016-.016 1.19-.02 2.608-.007l2.58.022-.62 3.43-1.209 6.688c-.324 1.793-.801 4.44-1.06 5.884-.834 4.646-1.148 6.331-1.194 6.405-.024.04-1.449.072-3.166.072h-3.122l-.087-.444z" fill="#000144" stroke-width=".085"/></svg>