<svg width="590" height="316" viewBox="0 0 590 316" xmlns="http://www.w3.org/2000/svg" xmlns:xlink="http://www.w3.org/1999/xlink"><title>Slice 1</title><defs><path id="a" d="M.06.238h523.262V218H.06"/></defs><g fill="none" fill-rule="evenodd"><g transform="translate(16 47)"><mask id="b" fill="#fff"><use xlink:href="#a"/></mask><path d="M217.764 109.118c0 60.136-48.748 108.882-108.881 108.882C48.748 218 0 169.254 0 109.118 0 48.986 48.748.238 108.883.238c60.133 0 108.881 48.748 108.881 108.88" stroke="#FFF" stroke-width="2" stroke-linecap="square" stroke-linejoin="bevel" fill="#201F4B" mask="url(#b)"/></g><path d="M187.222 196.168c-13.184 20.477-36.178 34.04-62.339 34.04-40.918 0-74.089-33.174-74.089-74.09 0-40.917 33.171-74.087 74.089-74.087 26.343 0 49.473 13.752 62.61 34.465l20.858-19.746c-18.569-26.058-49.035-43.053-83.468-43.053-56.566 0-102.424 45.856-102.424 102.421 0 56.567 45.858 102.425 102.424 102.425 34.007 0 64.138-16.581 82.767-42.094l-20.428-20.281" fill="#FFF"/><path d="M39.055 141.296h75.609v29.408H39.055v-29.408zM130.781 177.55v-30.846h-7.171v-7.423c6.101-.064 8.669-1.536 9.954-7.04h7.17v45.309h-9.953M156.844 150.608c1.391 0 2.569-1.024 2.569-5.504 0-4.415-1.178-5.439-2.569-5.439s-2.569 1.024-2.569 5.439c0 4.48 1.178 5.504 2.569 5.504zm0 20.415c1.82 0 2.943-1.344 2.943-6.72 0-5.312-1.123-6.655-2.943-6.655s-2.943 1.343-2.943 6.655c0 5.376 1.123 6.72 2.943 6.72zm-12.897-6.912c0-5.503 2.141-9.791 6.315-10.431v-.128c-4.442-1.28-5.619-5.184-5.619-9.151 0-7.232 3.425-12.16 12.201-12.16s12.201 4.928 12.201 12.16c0 3.967-1.177 7.871-5.619 9.151v.128c4.549.96 6.314 5.375 6.314 10.431 0 11.199-4.762 14.335-12.896 14.335-8.08 0-12.897-3.136-12.897-14.335zM184.299 171.023c1.873 0 2.783-1.6 2.783-7.424 0-5.823-.696-7.423-2.783-7.423-1.873 0-2.783 1.6-2.783 7.423 0 5.824.696 7.424 2.783 7.424zm2.676-27.135c-.054-1.535-.268-2.623-.749-3.327-.429-.64-1.071-.896-1.98-.896-1.445 0-2.73 1.408-2.73 4.287v7.232h.107c.856-2.176 3.479-3.584 6.368-3.584 5.405 0 9.044 3.136 9.044 13.759 0 12.287-4.549 17.087-12.682 17.087-8.669 0-13.111-4.48-13.111-19.263v-5.055c0-13.951 1.766-21.887 13.057-21.887 9.793 0 11.933 5.632 11.987 11.647h-9.311zM208.49 162.831c0 6.463.856 8.192 2.943 8.192s2.943-1.729 2.943-8.192v-14.975c0-6.463-.856-8.191-2.943-8.191s-2.943 1.728-2.943 8.191v14.975zm2.943-30.59c8.883 0 12.896 4.8 12.896 23.102 0 18.303-4.013 23.103-12.896 23.103-8.883 0-12.897-4.8-12.897-23.103 0-18.302 4.014-23.102 12.897-23.102zM250.936 99.532h55.45v23.827h-31.068v19.124h29.102v22.885h-29.102v22.259h32.248v23.826h-56.63V99.532M311.628 99.532h34.87l9.831 66.307h.262l9.832-66.307h34.869v111.921h-22.809v-83.392h-.262l-12.978 83.392h-17.566L334.7 128.061h-.262v83.392h-22.81V99.532M422.918 124.299h-18.351V99.532h61.087v24.767h-18.353v87.154h-24.383v-87.154M467.486 99.532h25.955l9.832 84.332h.262l9.832-84.332h25.955l-20.188 111.921h-31.461L467.486 99.532" fill="#FFF"/></g></svg>