<svg xmlns="http://www.w3.org/2000/svg" width="256" height="256" viewBox="0 0 256 256"><path d="M0 0v256h256V0H0zm160.991 86.626c.02 2.732-1.062 4.115-3.987 3.999a129.43 129.43 0 0 0-10.18.014c-5.623.221-7.563 2.203-7.693 7.747-.079 3.392-.028 6.788-.021 10.182.001.582.071 1.163.147 2.319 5.198 0 10.404-.003 15.61.001 5.071.004 5.314.247 5.32 5.385.006 5.267-.047 10.534.019 15.8.033 2.667-1.214 3.842-3.872 3.815-5.596-.055-11.334-.017-17.334-.017v4.05c0 14.747.08 29.493.067 44.24-.004 4.216-.455 4.704-4.548 4.715-5.501.015-10.984.013-16.484 0-4.232-.01-4.844-.414-4.851-4.575-.024-14.746-.184-29.492-.184-44.239v-4.186c-4 0-9.016.018-13.426-.005-4.26-.022-4.618-.445-4.637-4.556-.026-5.618.079-11.236.02-16.853-.026-2.509 1.059-3.631 3.597-3.593 4.775.071 9.563.021 14.789.021 0-3.969-.105-7.674.037-11.37.135-3.497.173-7.06.887-10.461 2.727-13.003 12.373-21.173 25.681-21.802 5.722-.271 11.468-.036 17.2-.142 2.651-.049 3.886 1.001 3.851 3.713-.068 5.264-.046 10.532-.008 15.798z"/></svg>