<svg xmlns="http://www.w3.org/2000/svg" width="258.195" height="258.195" viewBox="0 0 258.19501 258.19501">
    <defs>
        <path id="a" d="M0 0h800v800H0z"/>
    </defs>
    <path d="M0 0v258.195h258.195V0zm129.098 67.6c16.701 0 18.796.07 25.355.37 6.546.299 11.018 1.338 14.93 2.858 4.044 1.571 7.473 3.675 10.892 7.094 3.42 3.418 5.52 6.849 7.092 10.892 1.52 3.913 2.561 8.382 2.86 14.928.299 6.56.369 8.654.369 25.355 0 16.703-.07 18.797-.37 25.356-.298 6.546-1.338 11.015-2.859 14.928-1.571 4.044-3.673 7.473-7.092 10.892-3.42 3.42-6.848 5.522-10.892 7.094-3.912 1.52-8.384 2.56-14.93 2.86-6.559.298-8.654.368-25.355.368-16.702 0-18.797-.07-25.356-.369-6.546-.299-11.016-1.339-14.928-2.86-4.044-1.57-7.473-3.674-10.892-7.093-3.419-3.42-5.52-6.848-7.092-10.892-1.52-3.913-2.56-8.382-2.86-14.928-.299-6.56-.37-8.653-.37-25.356 0-16.701.071-18.795.37-25.355.3-6.546 1.34-11.015 2.86-14.928 1.571-4.043 3.673-7.474 7.092-10.892 3.419-3.42 6.848-5.523 10.892-7.094 3.912-1.52 8.382-2.559 14.928-2.858 6.56-.3 8.653-.37 25.356-.37zm0 11.08c-16.421 0-18.365.063-24.85.359-5.996.273-9.253 1.275-11.42 2.117-2.87 1.116-4.918 2.45-7.07 4.601-2.152 2.152-3.486 4.2-4.602 7.07-.842 2.168-1.844 5.423-2.117 11.419-.296 6.485-.357 8.43-.357 24.851s.061 18.367.357 24.852c.273 5.996 1.275 9.251 2.117 11.418 1.116 2.87 2.45 4.92 4.602 7.072s4.2 3.484 7.07 4.6c2.167.842 5.424 1.844 11.42 2.117 6.484.296 8.427.36 24.85.36 16.422 0 18.367-.064 24.851-.36 5.996-.273 9.25-1.275 11.418-2.117 2.871-1.116 4.92-2.448 7.072-4.6 2.153-2.152 3.485-4.202 4.6-7.072.842-2.167 1.844-5.422 2.117-11.418.296-6.485.36-8.43.36-24.852 0-16.42-.064-18.366-.36-24.851-.273-5.996-1.275-9.25-2.117-11.418-1.115-2.871-2.447-4.919-4.6-7.07-2.152-2.152-4.2-3.486-7.072-4.602-2.167-.842-5.422-1.843-11.418-2.117-6.485-.296-8.43-.36-24.851-.36zm32.828 10.21a7.38 7.38 0 0 1 7.38 7.38 7.38 7.38 0 1 1-7.38-7.379zm-32.828 8.627c17.44 0 31.58 14.14 31.58 31.58 0 17.442-14.14 31.58-31.58 31.58-17.442 0-31.58-14.138-31.58-31.58 0-17.44 14.138-31.58 31.58-31.58zm0 11.08c-11.322 0-20.498 9.179-20.498 20.5 0 11.322 9.176 20.5 20.498 20.5 11.321 0 20.5-9.178 20.5-20.5 0-11.321-9.179-20.5-20.5-20.5z"
          fill="#ffd100" fill-rule="evenodd" stroke-width=".734"/>
</svg>