<svg xmlns="http://www.w3.org/2000/svg" width="1000" height="750" viewBox="0 0 1000 750"><path d="M732.788 305.694l-31.017 1.281 7.642-3.303h27.776l-4.401 2.022zm-18.41 22.416l5.007 2.981-18.686-1.101 2.337-1.556 11.343-.324zM295.35 307.066l-38.303.209 5.405-4.152 35.407 2.122-2.509 1.821zm-18.235-8.073l11.342-.32 5.01 2.98-18.692-1.1 2.34-1.56zm470.712 1.033l-39.82-1.491-8.808-2.385 61.97-1.905v-4.432H238.834v4.19l35.591 1.505-5.23 2.337-30.361 1.633v4.038l.466.468 11.315.885-1.286 1.717-7.024.4 4.482 4.483 19.29 1.621 2.172 3.022 16.381.497-1.739 2.662-27.484.819 2.055 2.051 41.322 2.133-2.753 2.336-33.31.791 2.039 2.041 16.148.745-1.337 1.103-11.679 1.281 3.797 3.8H728.31l3.864-3.862-10.289-1.308 1.281-2.017 12.694-.359 3.445-3.453-26.523-.412-4.776-2.201 25.666-1.303 4.094-2.427 8.449-.562 3.271-3.275-30.101-.417-1.65-2.661 37.469-2.637 5.256-5.253h-11.163l-1.47-4.198" fill="#ffd100"/><path d="M344.826 328.11h-22.57v-.772l2.348-3.51v-22.063l-2.348-3.507v-.777h22.257v9.68h-.75l-3.532-2.249h-7.063v4.813h5.442l2.395-.846h.776v7.789h-.776l-2.395-.845h-5.442v4.86h8.296l2.612-2.032h.75v9.459M387.801 328.11h-23.926v-.772l2.346-3.51v-22.063l-2.346-3.507v-.777h13.258v.776l-2.348 3.508v18.919h8.734l3.507-3.385h.775v10.811M431.368 328.11v-.772l2.103-3.194-.702-14.008-7.621 11.95h-1.355l-7.62-11.95-.34 13.84 2.25 3.361v.773h-12.798v-.773l2.155-3.245 1.546-22.06-2.926-3.775v-.776h10.79l7.621 12.17 8.055-12.17h10.404v.776l-2.467 3.775 1.525 22.06 2.175 3.245v.773h-12.795M471.201 304.961c-.654.384-.979.873-.979 1.461 0 .588.52 1.177 1.56 1.768a44.738 44.738 0 0 0 3.362 1.704 66.56 66.56 0 0 1 2.965 1.427c1.74.87 3.08 1.9 4.015 3.086.936 1.183 1.403 2.72 1.403 4.608 0 2.934-1.218 5.298-3.655 7.089-2.435 1.791-5.445 2.682-9.033 2.682-3.589 0-6.796-.813-9.616-2.44v-8.492h.773c1.29.982 2.788 1.852 4.5 2.599 1.712.75 3.144 1.127 4.305 1.127 1.162 0 2.078-.189 2.745-.569.673-.379 1.007-.877 1.007-1.489 0-.612-.174-1.09-.52-1.44a9.636 9.636 0 0 0-.897-.807c-.25-.195-.61-.415-1.076-.656a24.939 24.939 0 0 0-1.246-.605c-.363-.159-.874-.4-1.536-.714-.662-.315-1.217-.576-1.67-.784-2.014-.987-3.575-2.089-4.68-3.315-1.105-1.227-1.66-2.821-1.66-4.792 0-2.498 1.067-4.723 3.193-6.674 2.13-1.952 4.939-2.933 8.422-2.933 2.758 0 5.63.65 8.61 1.938l.05 8.519h-.774c-.871-.94-1.96-1.65-3.265-2.143-1.306-.493-2.52-.738-3.643-.738-1.12 0-2.008.195-2.66.583M520.074 328.11v-.772l2.346-3.51v-7.015h-9.92v7.016l2.349 3.509v.772h-13.26v-.772l2.346-3.51v-22.063l-2.346-3.507v-.777h13.26v.776l-2.349 3.508v7.599h9.92v-7.599l-2.346-3.507v-.777h13.232v.776l-2.345 3.508v22.064l2.345 3.509v.772h-13.232M561.648 307.161c-1.467 1.501-2.202 3.38-2.202 5.636 0 2.26.735 4.14 2.202 5.637 1.468 1.502 3.297 2.25 5.49 2.25s4.023-.748 5.49-2.25c1.468-1.498 2.212-3.378 2.226-5.636.016-2.257-.713-4.135-2.201-5.637-1.482-1.5-3.322-2.249-5.514-2.249-2.194 0-4.023.75-5.491 2.25zm17.103-5.661c3.032 3.129 4.557 6.904 4.572 11.321 0 4.421-1.517 8.178-4.548 11.271-3.047 3.13-6.928 4.694-11.636 4.694-4.714 0-8.58-1.563-11.612-4.693-3.032-3.128-4.552-6.9-4.552-11.32 0-4.417 1.52-8.175 4.552-11.273 3.032-3.131 6.898-4.697 11.612-4.697 4.708 0 8.581 1.566 11.612 4.697M618.533 328.11l-6.095-12.87v-2.925h.822c2.614 0 3.921-1.235 3.921-3.705 0-2.465-1.604-3.697-4.812-3.697h-1.455v18.965l2.297 3.46v.772h-13.206v-.773l2.345-3.508v-22.064l-2.345-3.507v-.777h12.846c3.659 0 6.78.729 9.363 2.18 1.352.74 2.428 1.793 3.228 3.159.8 1.36 1.198 3.006 1.198 4.934 0 1.926-.53 3.595-1.586 5.006-1.056 1.414-2.496 2.328-4.316 2.748l5.225 7.692 3.7 4.138v.772h-11.13M677.746 298.257l-2.343 3.508v26.345h-2.253l-16.668-16.136v11.855l2.348 3.509v.772h-12.801v-.772l2.347-3.51v-21.75l-2.302-3.652v-.992h8.762l12.46 13.96v-9.629l-2.345-3.507v-.777h12.795v.776" fill="#0c2340"/><path d="M584.746 440.091H596.8v-92.18h-19.294v2.746l7.24 7.242v82.192M634.95 406.228h-10.39v-48.19h10.39v48.19zm12.053 9.928V355.29l-7.198-7.379h-34.537v2.746l7.24 7.242v48.065h-7.24v2.745l7.24 7.241v24.141h12.052V416.11h4.536l7.12 23.982h11.709l-6.827-23.935h5.905M684.558 405.964h-10.39v-47.926h10.39v47.926zm12.056-50.674l-7.198-7.379h-34.545v2.746l7.244 7.242v48.065h-7.244v2.745l7.244 7.241v24.141h12.053V416.11h10.39v23.982h12.056v-24.147l7.232-7.235v-2.745h-7.232V355.29M558.77 405.964h-12.783v-47.926h12.783v47.926zm-32.078-58.053v2.746l7.24 7.242v48.065h-7.24v2.745l7.24 7.241v44.237h12.055V416.35h24.837v-61.064l-7.379-7.375h-36.753M748.536 347.911v2.746l7.239 7.242v26.211h-7.239v2.747l7.239 7.24v45.994h35.1v-28.896l-7.009-7.381h-5.045v25.91H767.83v-35.488h15.669l7.377-7.379v-2.747h-23.046v-25.836h10.992v16.773h12.054v-19.76l-7.371-7.376h-34.968M815.966 383.391v-25.354h12.668v16.83h12.056v-19.58l-7.38-7.376h-36.606v2.746l7.211 7.21v29.072l7.619 7.297h17.04v55.831h-12.608v-46.253h-19.291v2.745l7.24 7.241v39.013l7.619 7.375h29.095v-69.5l-7.378-7.297h-17.285M391.701 440.091h12.055v-92.18H384.46v2.746l7.242 7.242v82.192M336.389 347.911v2.746l7.379 7.38h10.416v82.054h12.054v-82.054h13.12v-2.746l-7.012-7.38H336.39M701.04 347.911v2.746l7.379 7.38h10.416v82.054h12.052v-82.054h13.12v-2.746l-7.01-7.38H701.04M444.331 368.577l-20.517-20.668h-12.061v2.749l7.24 7.24v82.193h12.053V370.09l13.285 13.381v56.62h12.05V347.91H437.09v2.748l7.242 7.242v10.678M463.42 347.909v2.749l7.24 7.24v74.814l7.378 7.38h28.658V391.49l-7.379-7.38H487.26v2.748l7.38 7.382v35.484h-11.921v-71.45h11.92v16.774h12.058v-19.762l-7.379-7.377H463.42M235.192 347.909v2.749l7.24 7.24v74.814l7.38 7.38h28.657V391.49l-7.375-7.38h-12.061v2.748l7.38 7.382v35.484h-11.92v-71.45h11.92v16.774h12.056v-19.762l-7.375-7.377h-35.901M216.149 440.091h12.054v-92.18h-19.297v2.746l7.243 7.242v82.192M328.723 347.909h-12.057v36.201h-11.721v-36.201h-19.296v2.749l7.244 7.24v26.212h-7.244v2.747l7.244 7.244v45.99h12.052v-45.855h11.721v45.855h12.057v-45.987l7.243-7.247v-2.747h-7.244v-36.201M159.31 347.909v2.749l7.242 7.24v25.95h-7.242v2.743l7.242 7.239v66.357h12.057v-65.95h17.196l7.638-7.646v-2.744h-24.834v-25.81h12.776v17.01h12.057v-19.76l-7.375-7.378H159.31" fill="#fff"/></svg>