<svg xmlns="http://www.w3.org/2000/svg" width="100mm" height="325.406" viewBox="0 0 100 86.097"><g stroke-width=".01"><path d="M90.696 2.846c2.34 7.9-2.322 13.109-6.202 13.109-3.959 0-7.165-3.46-7.165-8.455 0-3.123 1.253-5.876 3.16-7.5l-.342.103C45.226-1.547 29.018 19.565 26.31 23.389l-.037-.026c-3.076 4.281-3.502 3.693-2.689.253.713-3.026-4.924 1.768-4.924 1.768-1.197 11.55 4.255 18.417 8.566 21.161-5.253.614-9.662-1.94-9.662-1.94-.006 1.503.649 2.918.689 2.977-2.976-1.933-11.391-2.787-15.95 4.503-2.749 4.396-2.271 8.71-2.271 8.71s2.699-5 10.967-4.858c-1.757 1.656-1.563 3.227-1.563 3.227 2.536-1.398 6.29-.536 11.24 3.715 6.707 5.765 13.893 4.727 14.114 4.689-1.891 1.087-4.208 1.064-4.208 1.064 4.946 3.59 10.777 3.099 13.188 2.548 3.438 4.19 6.257 6.731 6.257 6.731 7.869-3.532 27.806 8.186 27.806 8.186s8.72-15.737 8.72-20.377c0-5.302-4.264-9.926-4.264-9.926 2.644-3.772 3.558-7.18 3.558-7.18h-1.515c.79-1.688 1.843-4.294 1.843-4.294s12.144-9.096 13.598-20.792c1.403-11.278-3.945-17.426-9.076-20.682" fill="#ffd100"/><path d="M96.936 20.464c-.058-4.58-1.63-8.757-3.591-12.205a12.255 12.255 0 0 1-.255 3.506c-.193.87-.483 1.714-.86 2.505-.399.833-.908 1.63-1.52 2.347a9.77 9.77 0 0 1-2.435 2.057c-.075.045-.15.086-.225.13a7.006 7.006 0 0 1-.232.123c-.078.043-.156.08-.236.12a8.984 8.984 0 0 1-3.686.904 9.358 9.358 0 0 1-4.104-.844c-1.518-.687-2.933-1.785-4.077-3.286-1.25-1.643-2.114-3.684-2.385-5.993-.251-2.131.039-4.164.763-5.96-28.184-.09-43.892 20.582-46.486 24.26-2.289 3.245-4.83 1.594-5.414 1.146.95 12.113 10.805 15.568 10.805 15.568.331-.332-.085-.685-.204-1.94-.584-5.967 2.44-9.125 6.48-11.143 5.607-2.805 13.691-1.354 20.826.316 8.61 2.013 21.196 4.577 21.196 4.577 1.01-.503.13-.64-.61-.919-1.62-.61-1.12-1.023-1.12-1.023s12.479-4.55 14.361-16.4l.002.075c0 12.009-12.05 19.938-12.05 19.938-12.182-2.019-17.655-4.244-30.966-5.318-8.77-.706-13.435 3.902-13.716 8.115v.01c0 .062.003.507.054 1.26v.006c.043.656.125 1.546.27 2.62-2.225 2.377-6.306 3.638-9.85 3.748-3.094.095-6.138-.72-6.138-.72 4.74 6.205 13.211 5.153 13.501 5.115-3.848 1.199-7.627 1.226-12.87-1.264C15.685 48.818 9.88 47.98 5.878 51.2c-2.564 2.062-3.811 5.201-3.85 5.3 5.114-6.561 13.255-3.469 16.41-2.521 4.265 1.277 12.654 5.6 22.535-.442 5.674-3.47 8.497-7.943 9.782-10.67.706-1.49-1.673.547-2.896 1.773-8.438 8.454-16.668 5.677-16.668 5.677s6.123.38 12.498-5.934c4.916-4.868 8.636-3.532 8.901-2.083.253 1.39.635-.053.635-.053 0-.576.719.109.719 1.078 0 .47-.087.903-.266 1.38-.182.488-.463.386-.537.225-.381-.823-.868-.294-.868-.294-7.195 18.873-21.286 15.716-29.415 12.562-8.46-3.283-9.974.127-9.974.127 2.462-.884 5.931.203 10.92 3.225 15.266 9.237 21.93-.12 22.069-.32-1.343 4.984-8.568 6.815-8.568 6.815s4.272 2.29 9.835.482c.23.28.465.56.706.838a41.135 41.135 0 0 0 4.775 4.71c1.259-.357 3.637-.368 8.111 1.068 6.135 1.97 15.97 6.664 15.97 6.664S83.9 68.654 83.9 65.435c0-4.45-3.693-8.869-3.693-8.869V54.59c2.004-2.68 2.5-4.494 2.5-4.494H81.24c1.597-2.644 2.022-4.355 2.022-4.355h-1.243l1.123-2.84s1.04 0 1.045-.003c.018-.02.14-.116.34-.287.067-.06.145-.126.232-.2 2.378-2.093 11.373-10.565 12.112-19.869.055-.707.076-1.398.067-2.08" fill="#0c2340"/><path d="M93.929 18.385s-.293 9.852-11.435 16.6c0 0-.863.628 2.04 1.138.038.006.077.012.116.015 3.558-3.141 9.279-9.478 9.279-17.753" fill="#fff"/><path d="M37.25 42.39a20.372 20.372 0 0 1-.054-1.261c-.031.426-.01.848.054 1.26M33.565 44.652l.015-.008c-.006.002-.009.005-.015.008M34.218 44.33c.006-.003.015-.007.018-.012-.006.002-.012.008-.018.011" fill="#1a2846"/><path d="M50.888 38.796c.786-.034 1.939.128 2.254 1.283.064.234.367.582.615.055.185-.395.305-.994.228-1.462-.196-1.201-1.66-1.642-2.964-.555-.336.282-.571.697-.133.68M53.194 49.37c-.466 3.329-.786 7.803-4.932 13.716 0 0 7.808-6.092 5.531-15.294-.115-.458-.338-.264-.599 1.578" fill="#ffd100"/><path d="M64.732 44.952h-3.747c-.695-.946-1.768-4.104-1.768-4.104h6.185l-2.21 1.39 1.202.758h4.48l3.158 1.389c-1.2 0-1.706.756-1.706.756l-1.262 2.84H66.92c-3.6 1.768-6.29 5.556-6.29 5.556-.757-1.515-1.451-5.303-1.451-5.303l4.938-2.587s.616-.254.616-.695M76.829 62.948s-4.482-2.222-9.343-.935c0 0-3.03-2.354.316-7.406l10.794-2.858s-.441 1.128-2.398 3.035l-5.09 1.346s-1.476.265-1.476 2.031l2.147.948s.507-.987 1.352-1.21c.845-.224 2.647.136 3.698 5.05M78.287 48.819h-1.206s.686-1.231-1.007-1.231h-3.538s0-1.988 1.744-1.988h1.97v-.391c0-.722-.905-1.078-.905-1.078l-1.839-.923 2.984-1.61v1.09l.01-.011s1.787.767 1.787 2.093v1.87h1.516s-.315.994-1.516 2.178" fill="#f2bf9b"/><path d="M52.423 38.135c-1.007-.288-1.632.218-1.632.219-.181.231-.226.456.097.443.097-.006.202-.006.309-.003 1.46-.186 2.047.477 2.047.477.441.102.035-.891-.82-1.136M47.197 41.76c-1.065.535-2.247 1.376-3.508 2.623-6.375 6.315-12.498 5.935-12.498 5.935s.456.153 1.262.279c.006 0 5.373 1.11 11.385-3.553 2.808-2.177 4.973-5.14 6.726-5.536-1.104-1.003-3.367.252-3.367.252M23.317 56.717l-.008-.001.006.001" fill="#fff"/><path d="M49.266 45.54c-1.621 2.506-4.343 5.323-8.293 7.998-4.312 2.92-9.782 4.86-17.655 3.18 1.519.534 4.169 1.293 7.622 1.427 3.278.126 7.56-.768 9.743-2.02 9.326-5.35 11.251-13.89 11.251-13.89-.41-.319-2.028 2.318-2.668 3.305M78.287 46.642V44.77c0-1.304-1.725-2.065-1.784-2.09-.01.003-.013.006-.013.006v.4c.52.324 1.055.89 1.055 1.84v2.654h1.766c.374-.564.492-.94.492-.94h-1.516M75.013 45.6c-.885 0-1.32.512-1.535 1.017h2.773V45.6h-1.238M75.308 52.62c-1.054.279-1.573 1.028-1.83 1.697l4.157-1.1c.754-.941.961-1.468.961-1.468l-3.288.87" fill="#fff"/><path d="M68.401 41.347l1.888.911s.475.276 1.131-.023c.424-.194.357-.159.753-.374l-3.772-.514" fill="#ffd100"/><path d="M74.058 50.765h-6.274s-1.305.67-1.788 1.94l8.062-1.94" fill="#fff"/></g></svg>