<svg xmlns="http://www.w3.org/2000/svg" xmlns:xlink="http://www.w3.org/1999/xlink" width="256" height="256" viewBox="0 0 256 256"><path d="M0 0h256v256H0V0zm68.273 90.887c26.885.769 49.678 10.111 68.281 28.747 18.693 18.725 27.791 41.781 28.539 68.083h22.349c1.893-66.992-58.341-121.974-119.169-119.034v22.204zm.04 40.867c15.54.39 28.634 5.808 39.352 16.483 10.846 10.803 16.021 24.164 16.581 39.735h22.515c1.132-44.678-38.792-80.581-78.449-78.571l.001 22.353zM99.98 171.75c-.118-8.701-7.341-15.779-16.037-15.714-8.941.067-16.114 7.478-15.868 16.396.238 8.643 7.662 15.708 16.298 15.51 8.675-.198 15.725-7.511 15.607-16.192z"/><image overflow="visible" width="36" height="36" xlink:href="C1650E4BBFD9B764.jpg" transform="translate(1640 -29) scale(7.1111)"/></svg>