<svg xmlns="http://www.w3.org/2000/svg" width="256" height="256" viewBox="0 0 256 256"><path d="M178 156.516v5.469c-.142.413-.314.819-.42 1.241-1.71 6.823-5.867 11.44-12.482 13.827-1.019.368-2.075.635-3.114.948h-5.469c-.285-.123-.558-.298-.855-.363-9.499-2.08-15.557-9.91-15.057-19.638.063-1.231-.527-1.54-1.372-1.96-9.238-4.597-18.476-9.195-27.684-13.851-1.197-.605-1.945-.576-3.053.331-9.52 7.795-23.809 4.377-28.827-6.861-.703-1.575-1.119-3.279-1.667-4.924v-5.469c.103-.157.271-.304.3-.474 2.415-14.217 19.751-20.721 30.994-10.758.409.362 1.457.44 1.97.181 9.383-4.745 18.724-9.572 28.092-14.346.917-.467 1.292-.926 1.227-2.063-.492-8.541 4.763-16.219 12.811-18.87 1.031-.34 2.081-.626 3.122-.937h5.469c.415.141.822.311 1.246.417 6.825 1.709 11.44 5.867 13.826 12.482.368 1.02.631 2.077.943 3.116v5.469c-.114.221-.283.43-.335.664-3.188 14.365-18.708 20.004-30.338 10.971-.929-.722-1.529-.554-2.4-.104-9.292 4.797-18.557 9.651-27.936 14.273-2.047 1.009-1.51 2.497-1.467 3.882.019.625.865 1.454 1.537 1.793 9.215 4.658 18.479 9.222 27.692 13.884 1.22.618 1.955.509 3.036-.34 10.158-7.965 24.998-3.508 29.187 8.711.374 1.09.684 2.199 1.024 3.299z"/></svg>