<?xml version="1.0" standalone="no"?>
<!DOCTYPE svg PUBLIC "-//W3C//DTD SVG 20010904//EN"
 "http://www.w3.org/TR/2001/REC-SVG-20010904/DTD/svg10.dtd">
<svg version="1.0" xmlns="http://www.w3.org/2000/svg"
 width="708.000000pt" height="708.000000pt" viewBox="0 0 708.000000 708.000000"
 preserveAspectRatio="xMidYMid meet">
<metadata>
Created by potrace 1.11, written by Peter Selinger 2001-2013
</metadata>
<g transform="translate(0.000000,708.000000) scale(0.100000,-0.100000)"
fill="#000000" stroke="none">
<path d="M5148 6585 c-2 -2 -48 -6 -103 -9 -136 -8 -208 -15 -285 -26 -36 -5
-87 -12 -115 -16 -27 -3 -59 -8 -70 -10 -11 -2 -38 -6 -60 -10 -22 -3 -80 -14
-128 -25 -48 -11 -105 -22 -125 -25 -20 -3 -40 -8 -45 -11 -4 -2 -17 -6 -30
-9 -12 -2 -62 -15 -112 -29 -49 -14 -94 -27 -100 -29 -79 -22 -132 -40 -142
-48 -7 -6 -13 -8 -13 -5 0 4 -30 -6 -67 -20 -38 -14 -96 -36 -129 -49 -72 -27
-136 -55 -218 -95 -32 -16 -65 -29 -72 -29 -7 0 -14 -3 -16 -7 -1 -5 -48 -30
-102 -58 -144 -71 -446 -258 -531 -327 -5 -5 -28 -22 -50 -39 -106 -82 -97
-74 -176 -140 -134 -112 -346 -323 -444 -443 -22 -27 -45 -54 -50 -60 -6 -6
-33 -40 -59 -76 -27 -36 -54 -69 -61 -75 -6 -5 -20 -23 -31 -40 -27 -43 -92
-116 -127 -144 -13 -10 -20 -11 -31 -2 -15 13 -14 57 5 146 5 28 12 58 14 68
6 29 -23 49 -59 41 -17 -3 -32 -10 -34 -15 -2 -5 -8 -9 -13 -9 -19 0 -174
-104 -214 -144 -8 -8 -20 -16 -27 -18 -15 -5 -22 -364 -8 -438 4 -25 10 -65
13 -90 3 -25 8 -52 11 -60 3 -8 7 -31 10 -50 7 -49 69 -233 102 -305 37 -80
106 -197 157 -265 53 -71 198 -216 261 -260 l48 -35 -33 -5 c-39 -6 -125 -4
-219 5 -36 4 -66 7 -67 7 -2 -1 -17 4 -35 9 -18 6 -55 16 -83 24 -67 17 -181
60 -210 79 -12 8 -25 13 -28 10 -8 -8 3 -74 23 -142 l18 -63 -23 15 c-97 64
-351 97 -513 67 -85 -16 -208 -58 -254 -87 -21 -13 -41 -24 -44 -24 -23 0
-214 -169 -214 -189 0 -6 -4 -11 -9 -11 -12 0 -84 -113 -124 -195 -34 -71 -72
-182 -82 -244 -3 -19 -8 -38 -11 -42 -2 -4 -7 -56 -11 -115 l-6 -108 34 39
c79 92 145 145 244 195 75 39 186 76 250 86 11 1 36 5 55 8 56 10 190 14 190
7 0 -4 -11 -18 -25 -31 -14 -13 -25 -29 -25 -36 0 -7 -3 -14 -7 -16 -14 -6
-43 -78 -43 -107 l0 -29 50 18 c28 10 50 16 50 14 0 -3 9 0 19 6 13 7 22 7 26
0 4 -7 12 -7 24 0 10 5 20 8 22 5 2 -2 22 -6 44 -8 66 -8 126 -27 211 -68 70
-33 239 -138 254 -158 3 -3 23 -19 45 -36 22 -16 42 -31 45 -35 18 -20 110
-90 118 -90 6 0 12 -4 14 -8 12 -28 246 -146 363 -183 47 -15 40 -13 135 -34
108 -24 276 -39 285 -25 2 3 20 4 40 2 36 -4 36 -4 12 -17 -51 -26 -112 -42
-194 -52 -29 -3 -53 -9 -53 -13 0 -6 147 -94 160 -96 3 0 23 -8 44 -17 34 -15
128 -46 161 -53 113 -25 145 -28 290 -28 124 0 238 9 256 20 4 2 24 -18 45
-44 74 -91 183 -209 304 -331 105 -107 101 -104 142 -87 51 22 120 30 236 29
208 -1 469 -66 847 -211 49 -18 149 -61 253 -108 56 -25 367 -179 392 -194 59
-35 202 -111 204 -108 1 2 17 32 35 68 19 36 51 97 71 135 63 118 144 280 145
287 0 4 6 13 13 19 6 7 12 17 12 21 0 5 24 59 54 121 44 93 132 290 165 372 5
11 14 34 21 50 8 17 15 37 16 45 2 8 7 23 12 35 17 37 51 159 62 224 23 129
-15 305 -101 475 -50 99 -105 188 -121 194 -4 2 -8 8 -8 13 0 6 -14 28 -31 49
l-32 39 34 53 c18 29 36 55 39 58 3 3 14 23 25 45 11 22 22 42 25 45 7 7 65
131 65 139 0 3 4 12 8 18 4 7 16 36 26 65 11 29 22 60 25 69 6 13 -2 15 -48
14 l-54 0 12 30 c106 251 118 275 164 312 160 133 414 392 450 459 7 13 16 24
20 24 5 0 33 35 62 78 30 42 56 79 60 82 13 12 143 235 143 247 0 7 4 13 7 13
4 0 24 39 44 88 21 48 41 96 46 107 8 18 19 52 26 80 2 6 10 35 19 65 8 30 18
71 21 90 3 19 7 37 9 40 9 15 20 183 20 310 0 185 -9 260 -45 400 -6 25 -14
57 -17 73 -3 15 -9 30 -14 33 -5 3 -9 13 -9 22 0 25 -95 215 -138 276 -79 113
-184 228 -271 296 -24 19 -52 43 -63 53 -10 9 -21 17 -24 17 -3 0 -17 9 -31
20 -36 28 -43 25 -32 -12 5 -18 11 -44 13 -58 3 -14 8 -45 12 -70 38 -234 -42
-495 -195 -638 -32 -30 -108 -83 -124 -86 -7 -2 -25 -9 -42 -16 -40 -17 -156
-22 -213 -9 -186 41 -348 218 -388 421 -26 131 -21 265 12 378 8 30 18 65 21
78 3 12 9 22 13 22 4 0 11 12 15 27 7 31 32 68 91 139 l43 51 -269 0 c-148 1
-270 0 -272 -2z"/>
</g>
</svg>
