<svg version="1" xmlns="http://www.w3.org/2000/svg" width="785.333" height="785.333" viewBox="0 0 589.000000 589.000000"><path d="M408 65.1c-50.1 4.4-96.5 19.5-140 45.7-40.9 24.6-73.7 54.5-106.1 96.9-7.6 9.9-17.8 13-27.1 8.2l-4.1-2.1.8 5.9c3.3 27.1 17.9 53.8 38.2 70.3 9 7.2 23.8 15.6 24.8 14 .3-.5.1-2.7-.4-4.7-1.4-5-1.4-21.8 0-28.5 5.2-25.2 31.5-46.1 63.9-50.9 11.9-1.7 42.3-.6 58 2.1 6.9 1.2 31.6 6.4 55 11.6 62.7 13.8 107.3 23.2 108.8 22.6 2.5-.9 1.1-2.2-5.3-5.1-3.6-1.6-6.5-3.6-6.5-4.3 0-.7 3.8-3 8.5-5.2 17.2-7.9 36.9-22.5 49.2-36.5 12.5-14.3 21-29.9 25.3-46.4l1.8-7.2.1 5.2c.1 2.8-.5 8.5-1.3 12.5-6.3 33-29.5 67.2-62.7 92.7l-6.5 5.1-18.6-3.5c-10.2-1.9-32.4-6.4-49.4-9.9-51-10.7-73.5-14.3-109.9-17.6-30.8-2.9-54.2 3.3-70.2 18.3-7.8 7.4-11.5 13.5-13.9 22.7-1.4 5.5-1.4 7.9-.4 17.7.9 8.9.9 11.7-.1 12.9-2.8 3.4-16.3 11.4-24.2 14.2-14 5.1-24 6.5-40.7 5.9-8-.3-17.3-1.2-20.7-2-3.5-.7-6.3-1.1-6.3-.7 0 .4 2.6 3.2 5.7 6.2 15.7 14.8 32.4 21.4 57.3 22.7 12.7.6 13.2.7 9.5 1.9-6.8 2-21.6 3.5-29.3 2.8-11.2-1-24.4-4.8-38.7-11.1-27.9-12.2-43.7-16.5-61.2-16.5-10.9 0-18.6 1.6-26.8 5.6-10.3 5.1-20.7 15.6-27.6 27.9l-3.4 6 5.3-4.5c8-7 16.4-11.6 25.5-14 7.2-2 9.9-2.2 22.2-1.7 16.2.5 22.3 1.9 55 12.7 26 8.5 38.7 11 55.5 11.1 19.9.1 35.7-3.4 52.4-11.7 25.8-12.8 56.4-42.5 67.7-65.8 4.5-9.1 1.2-7.4-16.4 8.6-18.3 16.6-30 24-47.5 29.8-11.6 3.8-23.3 5.4-35.3 4.7-12.5-.7-15.8-2.2-6.8-3.2 8.7-1 21.4-4.8 30.4-9 10.8-5.2 20.8-12.2 33.7-23.6 13.5-12.2 21.1-17.2 29.7-19.9 11.8-3.7 21.7-1.5 24.7 5.5 1.4 3.4 3.4 4 3.4.9 0-2.3 2.6-1.6 3.8 1.1 1.5 3.2 1.5 5.9.1 10.7-1.1 4.2-2.3 4.7-5.1 2.2-2.3-2.1-3.9-.9-5.7 4.3-2.5 7.1-12.2 25.7-17.8 34.1-6.7 10.1-19.2 23.4-28.2 30.2-3.8 2.7-11.1 7-16.2 9.4-29.1 13.6-62.5 12.6-105.7-3.1-18.4-6.7-25.5-8.4-36.8-9-11.3-.6-18.5 1-22.2 5l-2.1 2.2 7.8-.3c13.6-.7 29.5 5.2 55.5 20.3 18.8 10.9 34.8 17.6 51.6 21.7 3.4.8 11.5 1.3 21.5 1.3 14.9-.1 16.6-.3 23.9-2.8 9.9-3.5 19.4-9.1 26.9-15.8l5.8-5.2-1.5 3.6c-5.5 13.2-19.8 24.9-39.5 32.3l-8.6 3.3 3.9 1.6c11.5 4.8 31 6.1 45.2 3l8.2-1.7 3.7 4.3c2.1 2.4 9 9.5 15.4 15.8l11.6 11.4 12.5.2c10.3.2 14.5.8 24.1 3.3 19.7 5.2 54.1 18.7 89.9 35.1 8.5 3.9 16 6.9 16.6 6.7 3-1.1 34.3-61.9 39.5-76.6 5.7-16 1.1-35.5-13.6-57.5-4.9-7.4-5.5-8.9-5.5-13.5 0-4.3.6-6 4-11.1 2.3-3.2 5.7-9.2 7.6-13.2l3.4-7.2-4-.3c-2.2-.2-4-.6-4-1s1-2.3 2.1-4.2c1.9-3.1 8.9-18.5 8.9-19.6 0-.2-1.3-.4-2.9-.4-1.7 0-3.2-.3-3.4-.8-.3-.4.9-4.3 2.7-8.7 3.1-7.8 3.3-8 6.8-8.3 2.9-.3 5.3-1.9 13.2-9.4 26.2-24.6 48.3-56.1 57.4-81.8 5.4-15.3 6.7-23.1 6.6-39-.2-22.2-4.2-39-14.8-61.5l-5.1-10.9-.7 9.1c-1.7 21.3-11.9 39.7-28 50.1-9.3 6-17.5 8.4-28.3 8.5-23.1.1-43.4-13.2-54.9-36-8.2-16.5-9.5-39.8-3-56.8.5-1.3-.7-1.5-8.7-1.4-5.2.1-13.7.5-18.9 1zm-92.3 199.5c2.2 2.2 2.5 3.2 2.1 7.5-.6 6-2.4 8.4-4.2 5.5-3.2-5.4-5.4-7-10.1-7.5-2.7-.3-5-1.1-5.2-1.8-.2-.6 1.3-2.3 3.4-3.7 5.1-3.5 10.5-3.5 14 0zm68.3 17.2c0 .4-2.5 2.3-5.6 4.2l-5.6 3.4 2.8 2.3c2.7 2.1 3.8 2.3 16.4 2.3 13.4 0 13.6 0 22.2 3.7s10.7 5.3 6.9 5.3c-3.5 0-6.7 3.8-10.5 12.4l-3.9 8.6h-6.4c-4 0-7.6.6-9.6 1.7-8.1 4.1-21.2 15.6-30 26.2l-3.7 4.4-1.5-3.7c-1.8-4.3-6.5-23.2-6.5-26.1 0-1.6 3.2-3.7 14.6-9.5 7.9-4.1 15.2-8.3 16.1-9.3 1.5-1.6 1-1.7-9.5-1.7H359l-2-3.9c-2.4-4.8-8-18.8-8-20.1 0-.6 6.8-1 17.5-1 9.6 0 17.5.4 17.5.8zm37 5.1l3.5.8-3.8 1.8-3.8 1.9-6.2-3.2-6.2-3.2 6.5.5c3.6.4 8.1 1 10 1.4zm30 1.7c0 1.8 1.5 4 5 7.3l5 4.7V315h4.5c5.8 0 5.8 1.3.2 8.2-3.6 4.5-4.9 5.3-8.1 5.6-3.3.3-3.7.1-3.2-1.5.3-1.1 0-2.8-.8-3.9-1.3-1.7-2.9-1.9-14-2.3-6.9-.1-12.6-.7-12.6-1.2s.7-2.5 1.5-4.5c1.8-4.4 6.3-6.4 14.5-6.4 5.1 0 6-.3 6-1.8 0-2.5-3.4-5.4-10.4-8.9l-5.9-3 8.4-4.6c4.6-2.5 8.7-4.6 9.2-4.6.4-.1.7 1.1.7 2.5zM318.7 345c-.5 14.9-2.5 22.6-9.1 35.8-5.2 10.3-20.8 30.2-23.7 30.2-.5 0 1.1-3 3.5-6.8 12.2-18.8 18.5-36.8 22.6-64.7 1.1-7.7 2.6-15.1 3.2-16.5 1.1-2.4 1.2-2.2 2.5 3 1 3.8 1.2 9.6 1 19zm97.3 0c-30.3 7.5-30.4 7.5-22.7-.5l4.4-4.5 18.9.1 18.9.1L416 345zm45.6 3.7c-.8 1.6-3.9 5.5-6.9 8.9l-5.5 6-12.4 3.3c-22.5 5.9-23.9 6.6-25.8 13-.9 3.3-.9 3.3 5.2 6.1l6.2 2.7 3.2-3.3c6.3-6.7 15.3-3.4 20.9 7.7 2.7 5.3 6.1 16.6 5.3 17.5-.3.3-3.4-.5-6.9-1.7-13.5-4.5-29.5-6-41.5-3.8l-5.9 1.1-2.6-3.2c-6.4-7.6-6.3-19.3 0-32.4l3.9-8.1 9.4-2.4c5.1-1.4 18.8-5 30.3-8.2 11.6-3.2 21.8-5.8 22.8-5.8 1.6-.1 1.6.1.3 2.6z"/></svg>