<?xml version="1.0" encoding="utf-8"?>
<!-- Generator: Adobe Illustrator 17.0.0, SVG Export Plug-In . SVG Version: 6.00 Build 0)  -->
<!DOCTYPE svg PUBLIC "-//W3C//DTD SVG 1.1//EN" "http://www.w3.org/Graphics/SVG/1.1/DTD/svg11.dtd">
<svg version="1.1" id="close" xmlns="http://www.w3.org/2000/svg" xmlns:xlink="http://www.w3.org/1999/xlink" x="0px" y="0px"
	 width="256px" height="256px" viewBox="0 0 256 256" enable-background="new 0 0 256 256" xml:space="preserve">
<g id="MXbAkz.tif">
	<g>
		<path fill="#FFFFFF" d="M71.327,83.504c15.152,14.956,30.161,29.77,45.82,45.227c-15.041,15.022-29.945,29.907-44.402,44.346
			c3.278,3.617,6.612,7.294,10.3,11.362c15.086-15.192,29.943-30.153,45.478-45.796c15.212,15.378,30.035,30.363,44.096,44.578
			c3.968-3.451,7.788-6.773,12.054-10.484c-15.209-15.072-30.102-29.83-45.502-45.091c15.062-15.033,29.985-29.928,44.627-44.541
			c-3.618-3.855-7.084-7.548-10.835-11.544c-15.027,15.112-29.82,29.989-44.928,45.183c-14.958-15.118-29.797-30.114-44.674-45.15
			C79.281,75.631,75.649,79.226,71.327,83.504z"/>
		<path d="M71.327,83.504c4.322-4.279,7.954-7.873,12.033-11.911c14.877,15.036,29.716,30.032,44.674,45.15
			c15.108-15.194,29.901-30.071,44.928-45.183c3.751,3.996,7.217,7.689,10.835,11.544c-14.641,14.613-29.565,29.508-44.627,44.541
			c15.4,15.261,30.292,30.019,45.502,45.091c-4.267,3.711-8.087,7.033-12.054,10.484c-14.061-14.215-28.885-29.2-44.096-44.578
			c-15.535,15.643-30.392,30.605-45.478,45.796c-3.688-4.069-7.021-7.746-10.3-11.362c14.458-14.44,29.362-29.324,44.402-44.346
			C101.488,113.275,86.479,98.46,71.327,83.504z"/>
	</g>
</g>
</svg>
