<?xml version="1.0" encoding="UTF-8" standalone="no"?>
<!-- Created with Inkscape (http://www.inkscape.org/) -->

<svg
   xmlns:dc="http://purl.org/dc/elements/1.1/"
   xmlns:cc="http://creativecommons.org/ns#"
   xmlns:rdf="http://www.w3.org/1999/02/22-rdf-syntax-ns#"
   xmlns:svg="http://www.w3.org/2000/svg"
   xmlns="http://www.w3.org/2000/svg"
   xmlns:sodipodi="http://sodipodi.sourceforge.net/DTD/sodipodi-0.dtd"
   xmlns:inkscape="http://www.inkscape.org/namespaces/inkscape"
   width="106mm"
   height="44mm"
   viewBox="0 0 106 44"
   version="1.1"
   id="svg10138"
   inkscape:version="0.92.2 (5c3e80d, 2017-08-06)"
   sodipodi:docname="emtv.svg">
  <defs
     id="defs10132" />
  <sodipodi:namedview
     id="base"
     pagecolor="#ffffff"
     bordercolor="#666666"
     borderopacity="1.0"
     inkscape:pageopacity="0.0"
     inkscape:pageshadow="2"
     inkscape:zoom="11.2"
     inkscape:cx="25.629324"
     inkscape:cy="24.203477"
     inkscape:document-units="mm"
     inkscape:current-layer="layer1"
     showgrid="false"
     inkscape:window-width="1920"
     inkscape:window-height="986"
     inkscape:window-x="1600"
     inkscape:window-y="27"
     inkscape:window-maximized="1" />
  <metadata
     id="metadata10135">
    <rdf:RDF>
      <cc:Work
         rdf:about="">
        <dc:format>image/svg+xml</dc:format>
        <dc:type
           rdf:resource="http://purl.org/dc/dcmitype/StillImage" />
        <dc:title></dc:title>
      </cc:Work>
    </rdf:RDF>
  </metadata>
  <g
     inkscape:label="Layer 1"
     inkscape:groupmode="layer"
     id="layer1"
     transform="translate(0,-253)">
    <path
       style="fill:#000144;fill-opacity:1;stroke-width:0.08466667"
       d="m 19.734776,296.76989 c -4.098733,-0.4482 -8.016544,-2.05406 -11.2477788,-4.61031 -0.926424,-0.7329 -2.4067831,-2.17883 -3.2083601,-3.13375 -1.479584,-1.76263 -2.989767,-4.38757 -3.775062,-6.56167 -0.412122,-1.14097 -0.87754902,-2.97336 -1.08601402,-4.27566 -0.240223,-1.5007 -0.218201,-5.13922 0.04018,-6.63811 0.55364202,-3.21178 1.62203202,-5.9745 3.29349602,-8.51656 3.18907,-4.85013 7.9806199,-8.17137 13.6140939,-9.43652 2.897136,-0.65063 6.435422,-0.66416 9.346412,-0.0357 7.318074,1.57982 13.333232,6.80272 15.958218,13.85633 1.632375,4.38635 1.762434,9.66746 0.348082,14.13402 -1.462803,4.61956 -4.411189,8.62914 -8.397376,11.41978 -4.27373,2.99194 -9.669267,4.36863 -14.885888,3.79819 z m 5.418667,-1.38416 c 2.993515,-0.44982 5.726349,-1.49151 8.261371,-3.14906 1.885826,-1.23306 3.834761,-3.04739 5.115231,-4.76194 l 0.241549,-0.32344 -2.024747,-2.02606 c -1.113611,-1.11434 -2.045781,-2.02607 -2.071489,-2.02607 -0.02571,0 -0.291637,0.33338 -0.590954,0.74084 -0.729559,0.99314 -2.315931,2.55777 -3.302409,3.25713 -1.662131,1.17838 -3.697165,2.06265 -5.750611,2.49879 -0.958861,0.20366 -1.24203,0.22619 -2.883608,0.2295 -2.080405,0.004 -2.965475,-0.12838 -4.733713,-0.70901 -4.928672,-1.61844 -8.7411578,-5.84966 -9.8655098,-10.94908 l -0.05134,-0.23283 h 6.2669458 6.266946 v -2.96334 -2.96333 H 13.764159 7.4972132 l 0.05566,-0.23283 c 0.812545,-3.39907 2.5840028,-6.24896 5.1969008,-8.36069 5.403538,-4.36709 13.049951,-4.4247 18.541458,-0.13969 1.200413,0.93668 2.019541,1.82031 3.26021,3.51692 l 0.169333,0.23156 1.014284,-0.9578 c 2.669182,-2.52055 3.135979,-2.96752 3.156852,-3.02279 0.04983,-0.13196 -1.462681,-1.89269 -2.45103,-2.85326 -2.615291,-2.54179 -5.68624,-4.27009 -9.170773,-5.16123 -1.980782,-0.50657 -2.711052,-0.58879 -5.207001,-0.58628 -1.923117,0.002 -2.394869,0.0288 -3.302,0.18769 -4.520345,0.79199 -8.316405,2.79171 -11.4730728,6.04389 -3.9408031,4.06004 -5.9526261,9.29284 -5.7736941,15.01751 0.272103,8.70554 5.9725301,16.24766 14.3257669,18.95414 1.301047,0.42154 3.2263,0.79752 4.783667,0.93419 0.86859,0.0762 3.476131,-0.0351 4.529667,-0.19343 z m 4.826,-16.15526 c 0.441744,-0.23326 0.668025,-0.48359 0.904538,-1.0007 0.1679,-0.36709 0.193338,-0.56059 0.194635,-1.48061 0.0018,-1.26182 -0.14687,-1.68507 -0.714906,-2.03552 -0.381208,-0.23518 -0.412506,-0.30134 -0.177815,-0.37582 0.539114,-0.17111 0.922804,-1.14972 0.810073,-2.06611 -0.172681,-1.40373 -0.973202,-2.08258 -2.455858,-2.08258 -1.156649,0 -1.876309,0.39832 -2.24674,1.24352 -0.155192,0.35409 -0.196282,0.59926 -0.195734,1.16785 8.47e-4,0.87319 0.135901,1.22809 0.613369,1.61179 l 0.347922,0.2796 -0.331557,0.19772 c -0.217529,0.12972 -0.3996,0.33588 -0.529408,0.59947 -0.175712,0.35679 -0.197686,0.52018 -0.196359,1.46008 0.0013,0.92002 0.02674,1.11352 0.194635,1.48061 0.224026,0.4898 0.463222,0.7681 0.819324,0.95327 0.458436,0.23838 0.667148,0.26971 1.651548,0.24787 0.799802,-0.0178 1.034141,-0.0535 1.312333,-0.20044 z m -1.874448,-1.60745 c -0.193169,-0.46231 -0.134074,-1.88962 0.0884,-2.13517 0.08871,-0.0979 0.244729,-0.17802 0.346711,-0.17802 0.37553,0 0.50555,0.28563 0.536627,1.17888 0.03801,1.09237 -0.09317,1.44579 -0.536627,1.44579 -0.271337,0 -0.319328,-0.0344 -0.435115,-0.31148 z m 0.177101,-3.87199 c -0.132793,-0.0971 -0.169227,-0.24822 -0.19461,-0.80718 -0.04383,-0.96519 0.151994,-1.36808 0.596401,-1.22703 0.235215,0.0746 0.32189,0.38248 0.32189,1.14319 0,0.55893 -0.02845,0.70027 -0.169334,0.84115 -0.200173,0.20017 -0.332511,0.21208 -0.554347,0.0499 z m 6.994418,5.47463 c 0.553986,-0.28095 0.951239,-0.77663 1.158033,-1.44496 0.11408,-0.36868 0.148897,-0.77817 0.148897,-1.7512 0,-1.14613 -0.01898,-1.31119 -0.194636,-1.69228 -0.355462,-0.77121 -0.772425,-1.05939 -1.5328,-1.05939 -0.513747,0 -0.824309,0.11054 -1.130065,0.40223 l -0.232833,0.22212 v -0.78056 c 0,-0.86868 0.133938,-1.31827 0.41975,-1.40899 0.270463,-0.0858 0.578381,0.15618 0.64405,0.50622 l 0.05571,0.29698 h 0.907799 c 0.499291,0 0.927421,-0.0196 0.9514,-0.0436 0.08378,-0.0838 -0.09376,-0.90596 -0.277665,-1.28585 -0.342163,-0.70682 -1.415421,-1.13481 -2.511083,-1.00137 -1.058622,0.12893 -1.660035,0.63505 -1.98557,1.67096 -0.182978,0.58226 -0.19406,0.7529 -0.19406,2.98819 0,2.21224 0.01253,2.41028 0.187472,2.96334 0.23057,0.72891 0.597525,1.18695 1.161196,1.44942 0.351265,0.16357 0.56898,0.20007 1.197318,0.20075 0.671009,7.6e-4 0.825955,-0.0286 1.227085,-0.23201 z m -1.586908,-1.5141 c -0.220856,-0.33707 -0.223212,-2.09213 -0.0033,-2.42782 0.17376,-0.26519 0.563664,-0.31109 0.748698,-0.0881 0.16557,0.1995 0.208779,1.90895 0.0596,2.3579 -0.0964,0.2901 -0.151241,0.34241 -0.38249,0.3648 -0.216519,0.021 -0.300159,-0.02 -0.422549,-0.20674 z m 6.957838,1.58898 c 1.04784,-0.47723 1.481667,-1.79819 1.481667,-4.51153 0,-2.29008 -0.364412,-3.69626 -1.09219,-4.21448 -0.377193,-0.26858 -1.235663,-0.45797 -1.805827,-0.39837 -1.723365,0.18013 -2.280443,1.29768 -2.284694,4.58334 -0.0047,3.61555 0.595245,4.69902 2.600377,4.69631 0.555016,-7.6e-4 0.853993,-0.0429 1.100667,-0.15527 z m -1.277701,-1.3698 c -0.369354,-0.13664 -0.415633,-0.47089 -0.415633,-3.00191 0,-1.30387 0.03036,-2.51383 0.06746,-2.68881 0.118427,-0.55853 0.674302,-0.73231 0.927467,-0.28996 0.145292,0.25387 0.201993,4.83313 0.0674,5.44322 -0.103978,0.4713 -0.32623,0.65601 -0.64669,0.53746 z m -14.0893,-3.21358 v -4.572 h -0.702658 -0.702658 l -0.111876,0.3175 c -0.259112,0.73536 -0.835529,1.12184 -1.673175,1.12184 h -0.280967 v 0.762 0.762 h 0.719667 0.719667 v 3.09033 3.09033 h 1.016 1.016 z m 22.182663,0.16993 v -11.26127 h 5.588 5.588 v 2.37068 2.37066 h -3.13266 -3.13267 v 1.94734 1.94733 h 2.921 2.921 v 2.286 2.286 h -2.921 -2.921 v 2.24367 2.24366 h 3.26099 3.26098 l -0.0225,2.39183 -0.0225,2.39184 -5.69383,0.0218 -5.69384,0.0218 z m 12.27667,-1.7e-4 v -11.26299 l 3.48902,0.0221 3.48901,0.0221 0.36536,2.45534 c 0.20095,1.35043 0.57238,3.84598 0.82539,5.54566 0.25302,1.69969 0.52727,3.55706 0.60943,4.1275 0.0822,0.57045 0.17372,1.03717 0.20346,1.03717 0.0297,0 0.0768,-0.18097 0.10462,-0.40217 0.0897,-0.71388 1.83319,-12.41833 1.87916,-12.61533 l 0.0444,-0.1905 3.49089,10e-6 3.49089,10e-6 0.0252,11.15482 c 0.0141,6.21234 -0.007,11.20236 -0.0482,11.2621 -0.0568,0.083 -0.5796,0.10215 -2.31125,0.0847 l -2.23778,-0.0226 -0.0423,-8.33284 -0.0423,-8.33284 -0.35755,2.32151 c -0.6207,4.03015 -1.54002,9.94637 -1.8887,12.15468 -0.18485,1.17068 -0.33608,2.15175 -0.33608,2.18017 0,0.0284 -0.79675,0.0517 -1.77056,0.0517 h -1.77056 l -0.0495,-0.3175 c -0.0272,-0.17462 -0.2202,-1.4224 -0.42891,-2.77283 -0.33874,-2.19181 -0.59222,-3.8213 -1.7967,-11.54975 l -0.32216,-2.06707 -0.0423,8.33241 -0.0423,8.33241 -2.26484,0.0226 -2.26483,0.0225 v -11.26297 z m 22.352,2.49889 v -8.76135 l -1.8415,-0.0228 -1.8415,-0.0228 -0.0224,-2.4765 -0.0225,-2.47651 h 6.18323 6.18322 l -0.0224,2.47651 -0.0224,2.4765 -1.8415,0.0228 -1.8415,0.0228 v 8.76135 8.76135 h -2.45533 -2.45534 z m 12.96308,8.31685 c -0.0482,-0.24447 -0.46815,-2.55905 -0.93328,-5.1435 -2.3745,-13.19374 -2.98467,-16.56864 -3.0271,-16.74284 l -0.0464,-0.1905 h 2.62086 2.62087 l 0.18061,1.54517 c 0.0993,0.84985 0.37158,3.18347 0.604971,5.18584 0.99628,8.54804 1.18717,10.14534 1.21586,10.17403 0.0319,0.032 0.0688,-0.27248 0.94529,-7.80336 0.904873,-7.77476 1.057003,-9.04366 1.087973,-9.07463 0.0162,-0.0162 1.19016,-0.0195 2.6087,-0.007 l 2.57917,0.0224 -0.61936,3.429 c -0.34064,1.88595 -0.88455,4.89585 -1.20868,6.68867 -0.32413,1.79282 -0.80132,4.44077 -1.06042,5.88433 -0.83395,4.64622 -1.14791,6.33101 -1.19352,6.40482 -0.0245,0.0397 -1.449364,0.0722 -3.166293,0.0722 h -3.121671 l -0.0876,-0.4445 z"
       id="path10795"
       inkscape:connector-curvature="0" />
  </g>
</svg>
