<?xml version="1.0" encoding="UTF-8"?>
<svg width="590px" height="316px" viewBox="0 0 590 316" version="1.1" xmlns="http://www.w3.org/2000/svg" xmlns:xlink="http://www.w3.org/1999/xlink" xmlns:sketch="http://www.bohemiancoding.com/sketch/ns">
    <title>Slice 1</title>
    <description>Created with Sketch (http://www.bohemiancoding.com/sketch)</description>
    <defs>
        <path id="path-1" d="M0.06,0.238 L523.322,0.238 L523.322,218 L0.06,218"></path>
    </defs>
    <g id="Page-1" stroke="none" stroke-width="1" fill="none" fill-rule="evenodd" sketch:type="MSPage">
        <g id="emtv_cs3" sketch:type="MSLayerGroup" transform="translate(16.000000, 47.000000)">
            <g id="Group-3">
                <mask id="mask-2" sketch:name="Clip 2" fill="white">
                    <use xlink:href="#path-1"></use>
                </mask>
                <g id="Clip-2"></g>
                <path d="M217.764,109.118 C217.764,169.254 169.016,218 108.883,218 C48.748,218 0,169.254 0,109.118 C0,48.986 48.748,0.238 108.883,0.238 C169.016,0.238 217.764,48.986 217.764,109.118" id="Fill-1" stroke="#FFFFFF" stroke-width="2" stroke-linecap="square" stroke-linejoin="bevel" fill="#201F4B" sketch:type="MSShapeGroup" mask="url(#mask-2)"></path>
            </g>
            <path d="M171.222,149.168 C158.038,169.645 135.044,183.208 108.883,183.208 C67.965,183.208 34.794,150.034 34.794,109.118 C34.794,68.201 67.965,35.031 108.883,35.031 C135.226,35.031 158.356,48.783 171.493,69.496 L192.351,49.75 C173.782,23.692 143.316,6.697 108.883,6.697 C52.317,6.697 6.459,52.553 6.459,109.118 C6.459,165.685 52.317,211.543 108.883,211.543 C142.89,211.543 173.021,194.962 191.65,169.449 L171.222,149.168" id="Fill-4" fill="#FFFFFF" sketch:type="MSShapeGroup"></path>
            <path d="M23.055,94.296 L98.664,94.296 L98.664,123.704 L23.055,123.704 L23.055,94.296 Z" id="Fill-5" fill="#FFFFFF" sketch:type="MSShapeGroup"></path>
            <path d="M114.781,130.55 L114.781,99.704 L107.61,99.704 L107.61,92.281 C113.711,92.217 116.279,90.745 117.564,85.241 L124.734,85.241 L124.734,130.55 L114.781,130.55" id="Fill-6" fill="#FFFFFF" sketch:type="MSShapeGroup"></path>
            <path d="M140.844,103.608 C142.235,103.608 143.413,102.584 143.413,98.104 C143.413,93.689 142.235,92.665 140.844,92.665 C139.453,92.665 138.275,93.689 138.275,98.104 C138.275,102.584 139.453,103.608 140.844,103.608 L140.844,103.608 Z M140.844,124.023 C142.664,124.023 143.787,122.679 143.787,117.303 C143.787,111.991 142.664,110.648 140.844,110.648 C139.024,110.648 137.901,111.991 137.901,117.303 C137.901,122.679 139.024,124.023 140.844,124.023 L140.844,124.023 Z M127.947,117.111 C127.947,111.608 130.088,107.32 134.262,106.68 L134.262,106.552 C129.82,105.272 128.643,101.368 128.643,97.401 C128.643,90.169 132.068,85.241 140.844,85.241 C149.62,85.241 153.045,90.169 153.045,97.401 C153.045,101.368 151.868,105.272 147.426,106.552 L147.426,106.68 C151.975,107.64 153.74,112.055 153.74,117.111 C153.74,128.31 148.978,131.446 140.844,131.446 C132.764,131.446 127.947,128.31 127.947,117.111 L127.947,117.111 Z" id="Fill-7" fill="#FFFFFF" sketch:type="MSShapeGroup"></path>
            <path d="M168.299,124.023 C170.172,124.023 171.082,122.423 171.082,116.599 C171.082,110.776 170.386,109.176 168.299,109.176 C166.426,109.176 165.516,110.776 165.516,116.599 C165.516,122.423 166.212,124.023 168.299,124.023 L168.299,124.023 Z M170.975,96.888 C170.921,95.353 170.707,94.265 170.226,93.561 C169.797,92.921 169.155,92.665 168.246,92.665 C166.801,92.665 165.516,94.073 165.516,96.952 L165.516,104.184 L165.623,104.184 C166.479,102.008 169.102,100.6 171.991,100.6 C177.396,100.6 181.035,103.736 181.035,114.359 C181.035,126.646 176.486,131.446 168.353,131.446 C159.684,131.446 155.242,126.966 155.242,112.183 L155.242,107.128 C155.242,93.177 157.008,85.241 168.299,85.241 C178.092,85.241 180.232,90.873 180.286,96.888 L170.975,96.888 L170.975,96.888 Z" id="Fill-8" fill="#FFFFFF" sketch:type="MSShapeGroup"></path>
            <path d="M192.49,115.831 C192.49,122.294 193.346,124.023 195.433,124.023 C197.52,124.023 198.376,122.294 198.376,115.831 L198.376,100.856 C198.376,94.393 197.52,92.665 195.433,92.665 C193.346,92.665 192.49,94.393 192.49,100.856 L192.49,115.831 L192.49,115.831 Z M195.433,85.241 C204.316,85.241 208.329,90.041 208.329,108.343 C208.329,126.646 204.316,131.446 195.433,131.446 C186.55,131.446 182.536,126.646 182.536,108.343 C182.536,90.041 186.55,85.241 195.433,85.241 L195.433,85.241 Z" id="Fill-9" fill="#FFFFFF" sketch:type="MSShapeGroup"></path>
            <path d="M234.936,52.532 L290.386,52.532 L290.386,76.359 L259.318,76.359 L259.318,95.483 L288.42,95.483 L288.42,118.368 L259.318,118.368 L259.318,140.627 L291.566,140.627 L291.566,164.453 L234.936,164.453 L234.936,52.532" id="Fill-10" fill="#FFFFFF" sketch:type="MSShapeGroup"></path>
            <path d="M295.628,52.532 L330.498,52.532 L340.329,118.839 L340.591,118.839 L350.423,52.532 L385.292,52.532 L385.292,164.453 L362.483,164.453 L362.483,81.061 L362.221,81.061 L349.243,164.453 L331.677,164.453 L318.7,81.061 L318.438,81.061 L318.438,164.453 L295.628,164.453 L295.628,52.532" id="Fill-11" fill="#FFFFFF" sketch:type="MSShapeGroup"></path>
            <path d="M406.918,77.299 L388.567,77.299 L388.567,52.532 L449.654,52.532 L449.654,77.299 L431.301,77.299 L431.301,164.453 L406.918,164.453 L406.918,77.299" id="Fill-12" fill="#FFFFFF" sketch:type="MSShapeGroup"></path>
            <path d="M451.486,52.532 L477.441,52.532 L487.273,136.864 L487.535,136.864 L497.367,52.532 L523.322,52.532 L503.134,164.453 L471.673,164.453 L451.486,52.532" id="Fill-13" fill="#FFFFFF" sketch:type="MSShapeGroup"></path>
        </g>
    </g>
</svg>