<?xml version="1.0" encoding="utf-8"?>
<!-- Generator: Adobe Illustrator 17.0.0, SVG Export Plug-In . SVG Version: 6.00 Build 0)  -->
<!DOCTYPE svg PUBLIC "-//W3C//DTD SVG 1.1//EN" "http://www.w3.org/Graphics/SVG/1.1/DTD/svg11.dtd">
<svg version="1.1" id="facebook" xmlns="http://www.w3.org/2000/svg" xmlns:xlink="http://www.w3.org/1999/xlink" x="0px" y="0px"
	 width="256px" height="256px" fill="#ffd100" viewBox="0 0 256 256" enable-background="new 0 0 256 256" xml:space="preserve">
<path d="M0,0v256h256V0H0z M160.991,86.626c0.02,2.732-1.062,4.115-3.987,3.999c-3.388-0.134-6.791-0.119-10.18,0.014
	c-5.623,0.221-7.563,2.203-7.693,7.747c-0.079,3.392-0.028,6.788-0.021,10.182c0.001,0.582,0.071,1.163,0.147,2.319
	c5.198,0,10.404-0.003,15.61,0.001c5.071,0.004,5.314,0.247,5.32,5.385c0.006,5.267-0.047,10.534,0.019,15.8
	c0.033,2.667-1.214,3.842-3.872,3.815c-5.596-0.055-11.334-0.017-17.334-0.017c0,1.56,0,2.805,0,4.05
	c0,14.747,0.08,29.493,0.067,44.24c-0.004,4.216-0.455,4.704-4.548,4.715c-5.501,0.015-10.984,0.013-16.484,0
	c-4.232-0.01-4.844-0.414-4.851-4.575C113.16,169.555,113,154.809,113,140.062c0-1.257,0-2.514,0-4.186
	c-4,0-9.016,0.018-13.426-0.005c-4.26-0.022-4.618-0.445-4.637-4.556c-0.026-5.618,0.079-11.236,0.02-16.853
	c-0.026-2.509,1.059-3.631,3.597-3.593c4.775,0.071,9.563,0.021,14.789,0.021c0-3.969-0.105-7.674,0.037-11.37
	c0.135-3.497,0.173-7.06,0.887-10.461c2.727-13.003,12.373-21.173,25.681-21.802c5.722-0.271,11.468-0.036,17.2-0.142
	c2.651-0.049,3.886,1.001,3.851,3.713C160.931,76.092,160.953,81.36,160.991,86.626z"/>
</svg>
