<svg xmlns="http://www.w3.org/2000/svg" xmlns:xlink="http://www.w3.org/1999/xlink" viewBox="0 0 441.43 380.05"><defs><style>.cls-1{fill:none;}.cls-2{clip-path:url(#clip-path);}.cls-3{fill:#ffd100;}.cls-4{fill:#0c2340;}.cls-5{fill:#fff;}.cls-6{fill:#1a2846;}.cls-7{fill:#f2bf9b;}</style><clipPath id="clip-path" transform="translate(-0.53 -0.17)"><rect class="cls-1" width="442" height="381"/></clipPath></defs><title>Element 1</title><g id="Ebene_2" data-name="Ebene 2"><g id="Ebene_1-2" data-name="Ebene 1"><g class="cls-2"><path class="cls-3" d="M400.89,12.73c10.33,34.88-10.25,57.87-27.38,57.87-17.47,0-31.62-15.28-31.62-37.32,0-13.79,5.53-25.93,13.94-33.11l-1.5.45C200.17-6.65,128.63,86.54,116.67,103.42l-.16-.12c-13.58,18.9-15.46,16.3-11.87,1.12,3.15-13.36-21.74,7.81-21.74,7.81-5.28,51,18.79,81.29,37.82,93.41-23.19,2.71-42.65-8.57-42.65-8.57a33.25,33.25,0,0,0,3,13.14C68,201.68,30.82,197.91,10.7,230.09a65.61,65.61,0,0,0-10,38.45s11.92-22.07,48.41-21.45c-7.76,7.31-6.9,14.25-6.9,14.25,11.19-6.18,27.76-2.37,49.61,16.39,29.61,25.45,61.33,20.87,62.31,20.7-8.35,4.79-18.58,4.7-18.58,4.7,21.84,15.84,47.58,13.68,58.22,11.25a299.85,299.85,0,0,0,27.62,29.71c34.73-15.59,122.74,36.14,122.74,36.14s38.5-69.47,38.5-90c0-23.41-18.83-43.81-18.83-43.81a112.32,112.32,0,0,0,15.7-31.7h-6.69c3.49-7.45,8.14-19,8.14-19s53.6-40.15,60-91.79c6.19-49.78-17.41-76.92-40.07-91.3" transform="translate(-0.53 -0.17)"/></g><path class="cls-4" d="M428.43,90.51c-.26-20.22-7.2-38.66-15.86-53.88.09,1.2.13,2.4.14,3.62a54.23,54.23,0,0,1-1.26,11.86,51.66,51.66,0,0,1-3.8,11.05,47.46,47.46,0,0,1-6.71,10.36A42.94,42.94,0,0,1,390.2,82.6l-1,.57-1,.55-1,.53-1.06.5a39.6,39.6,0,0,1-15.21,3.49,41.31,41.31,0,0,1-18.12-3.73,47.09,47.09,0,0,1-18-14.5,53.84,53.84,0,0,1-10.54-26.45,53.33,53.33,0,0,1,3.37-26.3c-124.41-.4-193.75,90.85-205.2,107.08-10.1,14.32-21.32,7-23.9,5.06,4.2,53.47,47.7,68.72,47.7,68.72,1.46-1.47-.37-3-.9-8.57-2.58-26.34,10.77-40.27,28.61-49.19,24.75-12.38,60.43-6,91.93,1.4,38,8.88,93.57,20.21,93.57,20.21,4.45-2.23.57-2.83-2.69-4.06-7.15-2.7-4.95-4.51-4.95-4.51S406.83,133.3,415.15,81c0,.11,0,.22,0,.33,0,53-53.19,88-53.19,88-53.77-8.91-77.94-18.73-136.69-23.47-38.71-3.12-59.3,17.22-60.55,35.82v0c0,.28,0,2.24.23,5.57a.08.08,0,0,0,0,0c.19,2.9.55,6.82,1.2,11.57-9.82,10.49-27.84,16.05-43.48,16.54a107.14,107.14,0,0,1-27.09-3.18c20.91,27.38,58.31,22.74,59.59,22.57-17,5.29-33.67,5.41-56.82-5.58C69.77,215.67,44.14,212,26.48,226.19c-11.32,9.1-16.82,23-17,23.4,22.57-29,58.5-15.32,72.43-11.14,18.82,5.64,55.85,24.73,99.47-1.95,25-15.31,37.51-35.06,43.18-47.1,3.11-6.58-7.39,2.42-12.79,7.83-37.25,37.32-73.57,25.06-73.57,25.06s27,1.68,55.16-26.2c21.71-21.48,38.13-15.59,39.29-9.2,1.11,6.14,2.8-.23,2.8-.23,0-2.54,3.18.48,3.18,4.77a16.87,16.87,0,0,1-1.17,6.09c-.8,2.16-2,1.7-2.38,1-1.68-3.63-3.83-1.3-3.83-1.3-31.76,83.31-94,69.38-129.84,55.45-37.34-14.49-44,.56-44,.56,10.87-3.91,26.18.9,48.21,14.24,67.38,40.77,96.8-.54,97.41-1.41-5.92,22-37.82,30.08-37.82,30.08s18.85,10.1,43.42,2.13q1.52,1.85,3.11,3.7a182.61,182.61,0,0,0,21.07,20.79c5.55-1.58,16.06-1.62,35.81,4.71,27.08,8.69,70.49,29.41,70.49,29.41s31.77-53.65,31.77-67.86c0-19.64-16.3-39.15-16.3-39.15v-8.72c8.84-11.83,11-19.84,11-19.84h-6.49c7.05-11.67,8.93-19.22,8.93-19.22h-5.49l5-12.54s4.59,0,4.61,0,.62-.51,1.5-1.27l1-.88c10.5-9.24,50.21-46.64,53.47-87.71q.36-4.68.3-9.18" transform="translate(-0.53 -0.17)"/><path class="cls-5" d="M415.15,81.33s-1.29,43.49-50.47,73.28c0,0-3.81,2.77,9,5l.51.07c15.71-13.87,41-41.84,41-78.37" transform="translate(-0.53 -0.17)"/><path class="cls-6" d="M165,187.29c-.22-3.33-.23-5.29-.23-5.57a25.46,25.46,0,0,0,.23,5.57" transform="translate(-0.53 -0.17)"/><path class="cls-6" d="M148.7,197.28l.07,0-.07,0" transform="translate(-0.53 -0.17)"/><path class="cls-6" d="M151.57,195.86l.09,0-.09,0" transform="translate(-0.53 -0.17)"/><path class="cls-3" d="M225.16,171.43c3.47-.15,8.57.56,10,5.66.28,1,1.62,2.57,2.71.25a12.16,12.16,0,0,0,1-6.46c-.87-5.3-7.33-7.25-13.08-2.45-1.49,1.24-2.53,3.08-.6,3" transform="translate(-0.53 -0.17)"/><path class="cls-3" d="M235.35,218.11c-2.06,14.69-3.47,34.44-21.78,60.54,0,0,34.47-26.89,24.42-67.5-.5-2-1.5-1.16-2.64,7" transform="translate(-0.53 -0.17)"/><path class="cls-7" d="M286.28,198.61H269.73c-3.07-4.18-7.8-18.12-7.8-18.12h27.3l-9.75,6.13,5.31,3.34h19.78l13.93,6.13c-5.29,0-7.52,3.34-7.52,3.34L305.4,212h-9.47c-15.89,7.8-27.76,24.52-27.76,24.52-3.35-6.69-6.41-23.41-6.41-23.41l21.8-11.43s2.72-1.11,2.72-3.06" transform="translate(-0.53 -0.17)"/><path class="cls-7" d="M339.67,278s-19.79-9.81-41.24-4.13c0,0-13.37-10.39,1.39-32.69l47.65-12.61s-2,5-10.59,13.39l-22.46,5.95s-6.52,1.17-6.52,9l9.48,4.18s2.23-4.36,6-5.34,11.69.6,16.32,22.29" transform="translate(-0.53 -0.17)"/><path class="cls-7" d="M346.11,215.67h-5.33s3-5.44-4.44-5.44H320.72s0-8.77,7.7-8.77h8.7v-1.73c0-3.19-4-4.75-4-4.75L325,190.91l13.17-7.11v4.81l0,0s7.89,3.39,7.89,9.24v8.25h6.69s-1.39,4.39-6.69,9.61" transform="translate(-0.53 -0.17)"/><path class="cls-5" d="M231.94,168.51a8.19,8.19,0,0,0-7.21,1c-.8,1-1,2,.43,2,.43,0,.89,0,1.37,0,6.45-.82,9,2.11,9,2.11,2,.45.16-3.93-3.62-5" transform="translate(-0.53 -0.17)"/><path class="cls-5" d="M208.87,184.51a62,62,0,0,0-15.48,11.58c-28.14,27.87-55.17,26.2-55.17,26.2a36.85,36.85,0,0,0,5.57,1.23s23.72,4.89,50.26-15.68c12.39-9.61,21.95-22.69,29.69-24.44-4.88-4.43-14.87,1.11-14.87,1.11" transform="translate(-0.53 -0.17)"/><path class="cls-5" d="M103.46,250.54h0" transform="translate(-0.53 -0.17)"/><path class="cls-5" d="M218,201.2c-7.16,11.06-19.18,23.5-36.61,35.31-19,12.89-43.18,21.45-77.94,14a114.74,114.74,0,0,0,33.65,6.3c14.46.56,33.37-3.39,43-8.91,41.17-23.62,49.67-61.31,49.67-61.31-1.81-1.41-9,10.23-11.77,14.59" transform="translate(-0.53 -0.17)"/><path class="cls-5" d="M346.11,206.06V197.8c0-5.76-7.62-9.12-7.87-9.23l-.06,0v1.77a9.23,9.23,0,0,1,4.66,8.12v11.72h7.8a19.06,19.06,0,0,0,2.17-4.16h-6.69" transform="translate(-0.53 -0.17)"/><path class="cls-5" d="M331.66,201.46a6.9,6.9,0,0,0-6.78,4.49h12.24v-4.49h-5.46" transform="translate(-0.53 -0.17)"/><path class="cls-5" d="M333,232.45a11.65,11.65,0,0,0-8.08,7.49l18.35-4.85a29.21,29.21,0,0,0,4.25-6.48L333,232.45" transform="translate(-0.53 -0.17)"/><path class="cls-3" d="M302.47,182.69l8.34,4a5.65,5.65,0,0,0,5-.11,34.15,34.15,0,0,0,3.32-1.65l-16.65-2.27" transform="translate(-0.53 -0.17)"/><path class="cls-5" d="M327.45,224.27h-27.7s-5.76,3-7.89,8.55l35.59-8.55" transform="translate(-0.53 -0.17)"/></g></g></svg>