<?xml version="1.0" encoding="UTF-8" standalone="no"?>
<svg
   xmlns:dc="http://purl.org/dc/elements/1.1/"
   xmlns:cc="http://creativecommons.org/ns#"
   xmlns:rdf="http://www.w3.org/1999/02/22-rdf-syntax-ns#"
   xmlns:svg="http://www.w3.org/2000/svg"
   xmlns="http://www.w3.org/2000/svg"
   xmlns:xlink="http://www.w3.org/1999/xlink"
   xmlns:sodipodi="http://sodipodi.sourceforge.net/DTD/sodipodi-0.dtd"
   xmlns:inkscape="http://www.inkscape.org/namespaces/inkscape"
   version="1.1"
   id="Layer_1"
   x="0px"
   y="0px"
   width="258.19501"
   height="258.19501"
   viewBox="0 0 258.19501 258.19501"
   enable-background="new 0 0 800 800"
   xml:space="preserve"
   sodipodi:docname="instagram.svg"
   inkscape:version="0.92.2 (5c3e80d, 2017-08-06)"><metadata
     id="metadata914"><rdf:RDF><cc:Work
         rdf:about=""><dc:format>image/svg+xml</dc:format><dc:type
           rdf:resource="http://purl.org/dc/dcmitype/StillImage" /><dc:title></dc:title></cc:Work></rdf:RDF></metadata><defs
     id="defs912"><defs
       id="defs896"><rect
         y="0"
         x="0"
         height="800"
         width="800"
         id="SVGID_1_" /></defs><clipPath
       id="SVGID_2_"><use
         height="100%"
         width="100%"
         y="0"
         x="0"
         style="overflow:visible"
         id="use898"
         overflow="visible"
         xlink:href="#SVGID_1_" /></clipPath></defs><sodipodi:namedview
     pagecolor="#ffffff"
     bordercolor="#666666"
     borderopacity="1"
     objecttolerance="10"
     gridtolerance="10"
     guidetolerance="10"
     inkscape:pageopacity="0"
     inkscape:pageshadow="2"
     inkscape:window-width="1920"
     inkscape:window-height="986"
     id="namedview910"
     showgrid="false"
     showguides="true"
     inkscape:guide-bbox="true"
     inkscape:zoom="0.98375"
     inkscape:cx="425.6049"
     inkscape:cy="237.39585"
     inkscape:window-x="1600"
     inkscape:window-y="27"
     inkscape:window-maximized="1"
     inkscape:current-layer="Layer_1"><sodipodi:guide
       position="396.44219,719.69504"
       orientation="0,1"
       id="guide1556"
       inkscape:locked="false" /></sodipodi:namedview><g
     id="g1574"><path
       id="rect1539"
       d="M 0,-3.12e-4 V 258.195 H 258.19532 V -3.12e-4 Z M 129.09766,67.5993 c 16.70181,0 18.79639,0.0714 25.35547,0.37109 6.54616,0.29857 11.0181,1.33734 14.92969,2.85742 4.04411,1.57143 7.47328,3.67492 10.89258,7.09375 3.41883,3.41884 5.52021,6.84908 7.09179,10.89258 1.5207,3.91251 2.5608,8.3817 2.85938,14.92774 0.29934,6.55954 0.36914,8.65366 0.36914,25.35546 0,16.70227 -0.0698,18.79639 -0.36914,25.35547 -0.29873,6.54647 -1.33868,11.01569 -2.85938,14.92774 -1.57158,4.04396 -3.67314,7.47343 -7.09179,10.89257 -3.41945,3.419 -6.84847,5.52216 -10.89258,7.09376 -3.91174,1.52007 -8.38353,2.56034 -14.92969,2.85937 -6.55908,0.29903 -8.65366,0.36914 -25.35547,0.36914 -16.70211,0 -18.79624,-0.0701 -25.35547,-0.36914 -6.546014,-0.29919 -11.016154,-1.3393 -14.927734,-2.85937 -4.04412,-1.5716 -7.4739,-3.67492 -10.89258,-7.09376 -3.41883,-3.41928 -5.52067,-6.84861 -7.0918,-10.89257 -1.521,-3.9122 -2.5608,-8.38127 -2.85937,-14.92774 -0.2995,-6.55908 -0.3711,-8.6532 -0.3711,-25.35547 0,-16.70165 0.0716,-18.79579 0.3711,-25.35546 0.29857,-6.54617 1.33837,-11.01508 2.85937,-14.92774 1.57113,-4.0435 3.67297,-7.47374 7.0918,-10.89258 3.41868,-3.41883 6.84846,-5.52216 10.89258,-7.09375 3.91158,-1.52008 8.38172,-2.55885 14.927734,-2.85742 6.55908,-0.29965 8.6532,-0.37109 25.35547,-0.37109 z m 0,11.08008 c -16.42107,0 -18.36433,0.0636 -24.84961,0.35937 -5.995604,0.27367 -9.252574,1.27528 -11.419924,2.11719 -2.87027,1.11573 -4.91834,2.44959 -7.07031,4.60156 -2.15182,2.15197 -3.48584,4.19958 -4.60157,7.07031 -0.8419,2.16735 -1.84382,5.42221 -2.11718,11.41797 -0.29581,6.48513 -0.35743,8.4305 -0.35743,24.85156 1e-5,16.42107 0.0616,18.36675 0.35743,24.85157 0.27336,5.99606 1.27528,9.25106 2.11718,11.41797 1.11573,2.87026 2.44975,4.91983 4.60157,7.07226 2.15197,2.15182 4.20004,3.48388 7.07031,4.59961 2.16735,0.84176 5.42432,1.84383 11.419924,2.11719 6.48436,0.29626 8.42731,0.35937 24.84961,0.35937 16.42199,0 18.36736,-0.0631 24.85156,-0.35937 5.99561,-0.27336 9.25063,-1.27528 11.41797,-2.11719 2.87089,-1.11573 4.9203,-2.44779 7.07227,-4.59961 2.15228,-2.15243 3.48434,-4.20201 4.59961,-7.07226 0.84191,-2.16674 1.84383,-5.42191 2.11718,-11.41797 0.29581,-6.48482 0.35938,-8.4305 0.35938,-24.85157 0,-16.42106 -0.0636,-18.36643 -0.35938,-24.85156 -0.27335,-5.99576 -1.27512,-9.25062 -2.11718,-11.41797 -1.11527,-2.87088 -2.44733,-4.91834 -4.59961,-7.07031 -2.15197,-2.15197 -4.20138,-3.48583 -7.07227,-4.60156 -2.16719,-0.84191 -5.42236,-1.84337 -11.41797,-2.11719 -6.48528,-0.29581 -8.43095,-0.35937 -24.85156,-0.35937 z m 32.82813,10.21093 c 4.0764,0 7.38085,3.30251 7.38085,7.37891 0,4.07532 -3.30445,7.38086 -7.38085,7.38086 -4.07548,0 -7.37891,-3.30554 -7.37891,-7.38086 0,-4.0764 3.30343,-7.37891 7.37891,-7.37891 z m -32.82813,8.62696 c 17.44071,0 31.58008,14.13891 31.58008,31.58007 0,17.44117 -14.13937,31.58008 -31.58008,31.58008 -17.44117,0 -31.580084,-14.13891 -31.580084,-31.58008 0,-17.44116 14.138914,-31.58007 31.580084,-31.58007 z m 0,11.08007 c -11.32164,0 -20.49805,9.17836 -20.49805,20.5 0,11.32165 9.17641,20.5 20.49805,20.5 11.32165,0 20.5,-9.17835 20.5,-20.5 0,-11.32164 -9.17835,-20.5 -20.5,-20.5 z"
       style="opacity:1;fill:#ffd100;fill-opacity:1;fill-rule:evenodd;stroke:none;stroke-width:0.73410398;stroke-linecap:butt;stroke-linejoin:miter;stroke-miterlimit:4;stroke-dasharray:none;stroke-opacity:1"
       inkscape:connector-curvature="0" /></g></svg>