<?xml version="1.0" encoding="utf-8"?>
<!-- Generator: Adobe Illustrator 17.0.0, SVG Export Plug-In . SVG Version: 6.00 Build 0)  -->
<!DOCTYPE svg PUBLIC "-//W3C//DTD SVG 1.1//EN" "http://www.w3.org/Graphics/SVG/1.1/DTD/svg11.dtd">
<svg version="1.1" xmlns="http://www.w3.org/2000/svg" xmlns:xlink="http://www.w3.org/1999/xlink" x="0px" y="0px" width="256px"
	 height="256px" viewBox="0 0 256 256" enable-background="new 0 0 256 256" xml:space="preserve">
<g id="close" display="none">
	<g id="MXbAkz.tif" display="inline">
		<g>
			<path fill="#FFFFFF" d="M71.327,83.504c15.152,14.956,30.161,29.77,45.82,45.227c-15.041,15.022-29.945,29.907-44.402,44.346
				c3.278,3.617,6.612,7.294,10.3,11.362c15.086-15.192,29.943-30.153,45.478-45.796c15.212,15.378,30.035,30.363,44.096,44.578
				c3.968-3.451,7.788-6.773,12.054-10.484c-15.209-15.072-30.102-29.83-45.502-45.091c15.062-15.033,29.985-29.928,44.627-44.541
				c-3.618-3.855-7.084-7.548-10.835-11.544c-15.027,15.112-29.82,29.989-44.928,45.183c-14.958-15.118-29.797-30.114-44.674-45.15
				C79.281,75.631,75.649,79.226,71.327,83.504z"/>
			<path d="M71.327,83.504c4.322-4.279,7.954-7.873,12.033-11.911c14.877,15.036,29.716,30.032,44.674,45.15
				c15.108-15.194,29.901-30.071,44.928-45.183c3.751,3.996,7.217,7.689,10.835,11.544c-14.641,14.613-29.565,29.508-44.627,44.541
				c15.4,15.261,30.292,30.019,45.502,45.091c-4.267,3.711-8.087,7.033-12.054,10.484c-14.061-14.215-28.885-29.2-44.096-44.578
				c-15.535,15.643-30.392,30.605-45.478,45.796c-3.688-4.069-7.021-7.746-10.3-11.362c14.458-14.44,29.362-29.324,44.402-44.346
				C101.488,113.275,86.479,98.46,71.327,83.504z"/>
		</g>
	</g>
</g>
<g id="menu">
	<g>
		<path fill-rule="evenodd" clip-rule="evenodd" d="M52.747,137.406h150.506v-18.812H52.747V137.406z M52.747,71.56v18.811h150.506
			V71.56H52.747z M52.747,184.44h150.506v-18.814H52.747V184.44z"/>
	</g>
</g>
<g id="arrow-left" display="none">
	<path display="inline" fill-rule="evenodd" clip-rule="evenodd" d="M158.999,184.827L97.001,128l61.999-56.827"/>
</g>
<g id="arrow-right" display="none">
	<path display="inline" fill-rule="evenodd" clip-rule="evenodd" d="M97.001,71.173L158.999,128l-61.999,56.827"/>
</g>
<g id="share" display="none">
	<g id="Nw08Sp.tif" display="inline">
		<g>
			<path d="M178,156.516c0,1.823,0,3.646,0,5.469c-0.142,0.413-0.314,0.819-0.42,1.241c-1.71,6.823-5.867,11.44-12.482,13.827
				c-1.019,0.368-2.075,0.635-3.114,0.948c-1.823,0-3.646,0-5.469,0c-0.285-0.123-0.558-0.298-0.855-0.363
				c-9.499-2.08-15.557-9.91-15.057-19.638c0.063-1.231-0.527-1.54-1.372-1.96c-9.238-4.597-18.476-9.195-27.684-13.851
				c-1.197-0.605-1.945-0.576-3.053,0.331c-9.52,7.795-23.809,4.377-28.827-6.861c-0.703-1.575-1.119-3.279-1.667-4.924
				c0-1.823,0-3.646,0-5.469c0.103-0.157,0.271-0.304,0.3-0.474c2.415-14.217,19.751-20.721,30.994-10.758
				c0.409,0.362,1.457,0.44,1.97,0.181c9.383-4.745,18.724-9.572,28.092-14.346c0.917-0.467,1.292-0.926,1.227-2.063
				c-0.492-8.541,4.763-16.219,12.811-18.87c1.031-0.34,2.081-0.626,3.122-0.937c1.823,0,3.646,0,5.469,0
				c0.415,0.141,0.822,0.311,1.246,0.417c6.825,1.709,11.44,5.867,13.826,12.482c0.368,1.02,0.631,2.077,0.943,3.116
				c0,1.823,0,3.646,0,5.469c-0.114,0.221-0.283,0.43-0.335,0.664c-3.188,14.365-18.708,20.004-30.338,10.971
				c-0.929-0.722-1.529-0.554-2.4-0.104c-9.292,4.797-18.557,9.651-27.936,14.273c-2.047,1.009-1.51,2.497-1.467,3.882
				c0.019,0.625,0.865,1.454,1.537,1.793c9.215,4.658,18.479,9.222,27.692,13.884c1.22,0.618,1.955,0.509,3.036-0.34
				c10.158-7.965,24.998-3.508,29.187,8.711C177.35,154.307,177.66,155.416,178,156.516z"/>
		</g>
	</g>
</g>
<g id="rss" display="none">
	<g id="z2NY9v.tif" display="inline">
		<g>
			<path d="M0,0c85.333,0,170.667,0,256,0c0,85.333,0,170.667,0,256c-85.333,0-170.667,0-256,0C0,170.667,0,85.333,0,0z
				 M68.273,90.887c26.885,0.769,49.678,10.111,68.281,28.747c18.693,18.725,27.791,41.781,28.539,68.083c7.833,0,15.096,0,22.349,0
				c1.893-66.992-58.341-121.974-119.169-119.034C68.273,75.94,68.273,83.203,68.273,90.887z M68.313,131.754
				c15.54,0.39,28.634,5.808,39.352,16.483c10.846,10.803,16.021,24.164,16.581,39.735c3.978,0,7.608,0,11.237,0
				c3.77,0,7.539,0,11.278,0c1.132-44.678-38.792-80.581-78.449-78.571C68.313,116.633,68.313,123.881,68.313,131.754z
				 M99.98,171.75c-0.118-8.701-7.341-15.779-16.037-15.714c-8.941,0.067-16.114,7.478-15.868,16.396
				c0.238,8.643,7.662,15.708,16.298,15.51C93.048,187.744,100.098,180.431,99.98,171.75z"/>
		</g>
	</g>
	<g id="twzfzY_1_" display="inline">
		
			<image overflow="visible" width="36" height="36" id="twzfzY" xlink:href="203851169BD121E8.jpg"  transform="matrix(7.1111 0 0 7.1111 1640 -29)">
		</image>
	</g>
</g>
<g id="facebook" display="none">
	<path display="inline" d="M0,0v256h256V0H0z M160.991,86.626c0.02,2.732-1.062,4.115-3.987,3.999
		c-3.388-0.134-6.791-0.119-10.18,0.014c-5.623,0.221-7.563,2.203-7.693,7.747c-0.079,3.392-0.028,6.788-0.021,10.182
		c0.001,0.582,0.071,1.163,0.147,2.319c5.198,0,10.404-0.003,15.61,0.001c5.071,0.004,5.314,0.247,5.32,5.385
		c0.006,5.267-0.047,10.534,0.019,15.8c0.033,2.667-1.214,3.842-3.872,3.815c-5.596-0.055-11.334-0.017-17.334-0.017
		c0,1.56,0,2.805,0,4.05c0,14.747,0.08,29.493,0.067,44.24c-0.004,4.216-0.455,4.704-4.548,4.715
		c-5.501,0.015-10.984,0.013-16.484,0c-4.232-0.01-4.844-0.414-4.851-4.575C113.16,169.555,113,154.809,113,140.062
		c0-1.257,0-2.514,0-4.186c-4,0-9.016,0.018-13.426-0.005c-4.26-0.022-4.618-0.445-4.637-4.556
		c-0.026-5.618,0.079-11.236,0.02-16.853c-0.026-2.509,1.059-3.631,3.597-3.593c4.775,0.071,9.563,0.021,14.789,0.021
		c0-3.969-0.105-7.674,0.037-11.37c0.135-3.497,0.173-7.06,0.887-10.461c2.727-13.003,12.373-21.173,25.681-21.802
		c5.722-0.271,11.468-0.036,17.2-0.142c2.651-0.049,3.886,1.001,3.851,3.713C160.931,76.092,160.953,81.36,160.991,86.626z"/>
</g>
</svg>
