<?xml version="1.0" encoding="UTF-8" standalone="no"?>
<!-- Created with Inkscape (http://www.inkscape.org/) -->

<svg
   xmlns:dc="http://purl.org/dc/elements/1.1/"
   xmlns:cc="http://creativecommons.org/ns#"
   xmlns:rdf="http://www.w3.org/1999/02/22-rdf-syntax-ns#"
   xmlns:svg="http://www.w3.org/2000/svg"
   xmlns="http://www.w3.org/2000/svg"
   xmlns:sodipodi="http://sodipodi.sourceforge.net/DTD/sodipodi-0.dtd"
   xmlns:inkscape="http://www.inkscape.org/namespaces/inkscape"
   id="svg2"
   version="1.1"
   inkscape:version="0.91 r13725"
   xml:space="preserve"
   width="1000"
   height="750"
   viewBox="0 0 1000 750"
   sodipodi:docname="EFP_W_LightBG.svg"><metadata
     id="metadata8"><rdf:RDF><cc:Work
         rdf:about=""><dc:format>image/svg+xml</dc:format><dc:type
           rdf:resource="http://purl.org/dc/dcmitype/StillImage" /><dc:title></dc:title></cc:Work></rdf:RDF></metadata><defs
     id="defs6" /><sodipodi:namedview
     pagecolor="#ffffff"
     bordercolor="#666666"
     borderopacity="1"
     objecttolerance="10"
     gridtolerance="10"
     guidetolerance="10"
     inkscape:pageopacity="0"
     inkscape:pageshadow="2"
     inkscape:window-width="1600"
     inkscape:window-height="836"
     id="namedview4"
     showgrid="false"
     inkscape:zoom="1.2586667"
     inkscape:cx="509.27465"
     inkscape:cy="318.83131"
     inkscape:window-x="0"
     inkscape:window-y="27"
     inkscape:window-maximized="1"
     inkscape:current-layer="g10" /><g
     id="g10"
     inkscape:groupmode="layer"
     inkscape:label="ink_ext_XXXXXX"
     transform="matrix(1.25,0,0,-1.25,0,750)"><g
       id="g12"
       transform="scale(0.1,0.1)"><path
         d="m 5862.3,3554.45 -248.13,-10.25 61.13,26.42 222.21,0 -35.21,-16.17 z m -147.27,-179.33 40.05,-23.85 -149.49,8.81 18.7,12.45 90.74,2.59 z m -3352.23,168.35 -306.42,-1.67 43.24,33.22 283.25,-16.98 -20.07,-14.57 z m -145.88,64.59 90.74,2.55 40.07,-23.83 -149.53,8.79 18.72,12.49 z m 3765.7,-8.27 -318.57,11.93 -70.46,19.08 495.76,15.24 0,35.46 -4178.68,0 0,-33.52 284.73,-12.04 -41.84,-18.7 -242.89,-13.06 0,-32.31 3.73,-3.74 90.52,-7.08 -10.29,-13.74 -56.19,-3.2 35.86,-35.86 154.31,-12.97 17.38,-24.18 131.05,-3.97 -13.91,-21.3 -219.87,-6.55 16.44,-16.41 330.57,-17.06 -22.02,-18.69 -266.48,-6.33 16.31,-16.33 129.18,-5.96 -10.69,-8.82 -93.43,-10.25 30.37,-30.4 3652.97,0 30.91,30.9 -82.31,10.46 10.25,16.14 101.55,2.87 27.56,27.62 -212.18,3.3 -38.21,17.61 205.33,10.42 32.75,19.42 67.59,4.49 26.17,26.2 -240.81,3.34 -13.2,21.29 299.75,21.09 42.05,42.03 -89.3,0 -11.76,33.58"
         style="fill:#ffd100;fill-opacity:1;fill-rule:nonzero;stroke:none"
         id="path16"
         inkscape:connector-curvature="0" /><path
         d="m 2758.61,3375.12 -180.56,0 0,6.18 18.78,28.07 0,176.51 -18.78,28.06 0,6.21 178.05,0 0,-77.44 -6,0 -28.25,17.99 -56.51,0 0,-38.5 43.54,0 19.16,6.77 6.21,0 0,-62.31 -6.21,0 -19.16,6.76 -43.54,0 0,-38.89 66.37,0 20.9,16.26 6,0 0,-75.67"
         style="fill:#0c2340;fill-opacity:1;fill-rule:nonzero;stroke:none"
         id="path18"
         inkscape:connector-curvature="0" /><path
         d="m 3102.41,3375.12 -191.41,0 0,6.18 18.77,28.07 0,176.51 -18.77,28.06 0,6.21 106.06,0 0,-6.21 -18.78,-28.06 0,-151.35 69.87,0 28.06,27.08 6.2,0 0,-86.49"
         style="fill:#0c2340;fill-opacity:1;fill-rule:nonzero;stroke:none"
         id="path20"
         inkscape:connector-curvature="0" /><path
         d="m 3450.94,3375.12 0,6.18 16.83,25.55 -5.62,112.06 -60.97,-95.6 -10.84,0 -60.96,95.6 -2.71,-110.72 18,-26.89 0,-6.18 -102.39,0 0,6.18 17.24,25.96 12.37,176.48 -23.41,30.2 0,6.21 86.32,0 60.97,-97.36 64.44,97.36 83.23,0 0,-6.21 -19.74,-30.2 12.2,-176.48 17.4,-25.96 0,-6.18 -102.36,0"
         style="fill:#0c2340;fill-opacity:1;fill-rule:nonzero;stroke:none"
         id="path22"
         inkscape:connector-curvature="0" /><path
         d="m 3769.61,3560.31 c -5.23,-3.07 -7.83,-6.98 -7.83,-11.69 0,-4.7 4.15,-9.41 12.48,-14.14 8.32,-4.69 17.29,-9.24 26.89,-13.63 9.62,-4.4 17.52,-8.19 23.72,-11.42 13.92,-6.96 24.64,-15.2 32.12,-24.69 7.49,-9.46 11.23,-21.75 11.23,-36.86 0,-23.47 -9.75,-42.38 -29.24,-56.71 -19.48,-14.33 -43.56,-21.46 -72.27,-21.46 -28.71,0 -54.37,6.51 -76.93,19.52 l 0,67.94 6.19,0 c 10.32,-7.86 22.3,-14.82 36,-20.79 13.69,-6.01 25.15,-9.02 34.44,-9.02 9.29,0 16.62,1.51 21.96,4.55 5.38,3.03 8.05,7.02 8.05,11.91 0,4.9 -1.39,8.73 -4.16,11.52 -2.78,2.77 -5.16,4.92 -7.17,6.46 -2,1.56 -4.88,3.32 -8.61,5.25 -3.74,1.93 -7.06,3.54 -9.97,4.84 -2.9,1.27 -6.99,3.2 -12.29,5.71 -5.29,2.52 -9.73,4.61 -13.36,6.27 -16.11,7.9 -28.6,16.71 -37.44,26.52 -8.84,9.82 -13.27,22.57 -13.27,38.34 0,19.98 8.53,37.78 25.54,53.39 17.04,15.62 39.51,23.46 67.37,23.46 22.07,0 45.04,-5.19 68.89,-15.5 l 0.39,-68.15 -6.19,0 c -6.97,7.52 -15.68,13.2 -26.12,17.14 -10.45,3.95 -20.16,5.91 -29.14,5.91 -8.96,0 -16.07,-1.56 -21.28,-4.67"
         style="fill:#0c2340;fill-opacity:1;fill-rule:nonzero;stroke:none"
         id="path24"
         inkscape:connector-curvature="0" /><path
         d="m 4160.59,3375.12 0,6.18 18.77,28.07 0,56.13 -79.36,0 0,-56.13 18.79,-28.07 0,-6.18 -106.08,0 0,6.18 18.77,28.07 0,176.51 -18.77,28.06 0,6.21 106.08,0 0,-6.21 -18.79,-28.06 0,-60.79 79.36,0 0,60.79 -18.77,28.06 0,6.21 105.86,0 0,-6.21 -18.76,-28.06 0,-176.51 18.76,-28.07 0,-6.18 -105.86,0"
         style="fill:#0c2340;fill-opacity:1;fill-rule:nonzero;stroke:none"
         id="path26"
         inkscape:connector-curvature="0" /><path
         d="m 4493.18,3542.71 c -11.73,-12.01 -17.61,-27.04 -17.61,-45.09 0,-18.07 5.88,-33.11 17.61,-45.09 11.75,-12.02 26.38,-18 43.93,-18 17.54,0 32.18,5.98 43.92,18 11.74,11.98 17.69,27.02 17.8,45.09 0.13,18.05 -5.7,33.08 -17.61,45.09 -11.85,12 -26.57,17.99 -44.11,17.99 -17.55,0 -32.18,-5.99 -43.93,-17.99 z m 136.83,45.29 c 24.25,-25.03 36.45,-55.23 36.57,-90.57 0,-35.37 -12.13,-65.42 -36.38,-90.17 -24.38,-25.04 -55.42,-37.55 -93.09,-37.55 -37.71,0 -68.64,12.51 -92.89,37.55 -24.26,25.02 -36.42,55.19 -36.42,90.56 0,35.33 12.16,65.4 36.42,90.18 24.25,25.05 55.18,37.58 92.89,37.58 37.67,0 68.65,-12.53 92.9,-37.58"
         style="fill:#0c2340;fill-opacity:1;fill-rule:nonzero;stroke:none"
         id="path28"
         inkscape:connector-curvature="0" /><path
         d="m 4948.26,3375.12 -48.76,102.96 0,23.4 6.58,0 c 20.91,0 31.37,9.88 31.37,29.64 0,19.72 -12.83,29.58 -38.5,29.58 l -11.64,0 0,-151.72 18.38,-27.68 0,-6.18 -105.65,0 0,6.18 18.76,28.07 0,176.51 -18.76,28.06 0,6.21 102.77,0 c 29.27,0 54.24,-5.83 74.9,-17.44 10.82,-5.92 19.43,-14.34 25.83,-25.27 6.4,-10.88 9.58,-24.05 9.58,-39.47 0,-15.41 -4.24,-28.76 -12.69,-40.05 -8.45,-11.31 -19.97,-18.62 -34.53,-21.98 l 41.8,-61.54 29.6,-33.1 0,-6.18 -89.04,0"
         style="fill:#0c2340;fill-opacity:1;fill-rule:nonzero;stroke:none"
         id="path30"
         inkscape:connector-curvature="0" /><path
         d="m 5421.97,3613.94 -18.75,-28.06 0,-210.76 -18.02,0 -133.34,129.09 0,-94.84 18.78,-28.07 0,-6.18 -102.41,0 0,6.18 18.78,28.07 0,174 -18.42,29.22 0,7.94 70.1,0 99.68,-111.68 0,77.03 -18.76,28.06 0,6.21 102.36,0 0,-6.21"
         style="fill:#0c2340;fill-opacity:1;fill-rule:nonzero;stroke:none"
         id="path32"
         inkscape:connector-curvature="0" /><path
         d="m 4677.97,2479.27 96.43,0 0,737.44 -154.35,0 0,-21.97 57.92,-57.93 0,-657.54"
         style="fill:#ffffff;fill-opacity:1;fill-rule:nonzero;stroke:none"
         id="path34"
         inkscape:connector-curvature="0" /><path
         d="m 5079.6,2750.18 -83.12,0 0,385.52 83.12,0 0,-385.52 z m 96.42,-79.43 0,486.93 -57.58,59.03 -276.3,0 0,-21.97 57.93,-57.93 0,-384.52 -57.93,0 0,-21.96 57.93,-57.93 0,-193.13 96.41,0 0,191.86 36.29,0 56.96,-191.86 93.67,0 -54.62,191.48 47.24,0"
         style="fill:#ffffff;fill-opacity:1;fill-rule:nonzero;stroke:none"
         id="path36"
         inkscape:connector-curvature="0" /><path
         d="m 5476.46,2752.29 -83.12,0 0,383.41 83.12,0 0,-383.41 z m 96.45,405.39 -57.58,59.03 -276.36,0 0,-21.97 57.95,-57.93 0,-384.52 -57.95,0 0,-21.96 57.95,-57.93 0,-193.13 96.42,0 0,191.86 83.12,0 0,-191.86 96.45,0 0,193.18 57.86,57.88 0,21.96 -57.86,0 0,405.39"
         style="fill:#ffffff;fill-opacity:1;fill-rule:nonzero;stroke:none"
         id="path38"
         inkscape:connector-curvature="0" /><path
         d="m 4470.16,2752.29 -102.26,0 0,383.41 102.26,0 0,-383.41 z m -256.62,464.42 0,-21.97 57.92,-57.93 0,-384.52 -57.92,0 0,-21.96 57.92,-57.93 0,-353.9 96.44,0 0,350.7 198.69,0 0,488.51 -59.03,59 -294.02,0"
         style="fill:#ffffff;fill-opacity:1;fill-rule:nonzero;stroke:none"
         id="path40"
         inkscape:connector-curvature="0" /><path
         d="m 5988.29,3216.71 0,-21.97 57.91,-57.93 0,-209.69 -57.91,0 0,-21.98 57.91,-57.92 0,-367.95 280.8,0 0,231.17 -56.07,59.05 -40.36,0 0,-207.28 -87.94,0 0,283.9 125.35,0 59.02,59.03 0,21.98 -184.37,0 0,206.69 87.94,0 0,-134.19 96.43,0 0,158.09 -58.97,59 -279.74,0"
         style="fill:#ffffff;fill-opacity:1;fill-rule:nonzero;stroke:none"
         id="path42"
         inkscape:connector-curvature="0" /><path
         d="m 6527.73,2932.87 0,202.83 101.34,0 0,-134.64 96.45,0 0,156.65 -59.04,59 -292.85,0 0,-21.97 57.69,-57.68 0,-232.57 60.95,-58.38 136.32,0 0,-446.65 -100.86,0 0,370.03 -154.33,0 0,-21.96 57.92,-57.93 0,-312.1 60.95,-59 232.76,0 0,555.99 -59.02,58.38 -138.28,0"
         style="fill:#ffffff;fill-opacity:1;fill-rule:nonzero;stroke:none"
         id="path44"
         inkscape:connector-curvature="0" /><path
         d="m 3133.61,2479.27 96.44,0 0,737.44 -154.38,0 0,-21.97 57.94,-57.93 0,-657.54"
         style="fill:#ffffff;fill-opacity:1;fill-rule:nonzero;stroke:none"
         id="path46"
         inkscape:connector-curvature="0" /><path
         d="m 2691.11,3216.71 0,-21.97 59.03,-59.04 83.33,0 0,-656.43 96.43,0 0,656.43 104.96,0 0,21.97 -56.09,59.04 -287.66,0"
         style="fill:#ffffff;fill-opacity:1;fill-rule:nonzero;stroke:none"
         id="path48"
         inkscape:connector-curvature="0" /><path
         d="m 5608.32,3216.71 0,-21.97 59.03,-59.04 83.33,0 0,-656.43 96.42,0 0,656.43 104.96,0 0,21.97 -56.08,59.04 -287.66,0"
         style="fill:#ffffff;fill-opacity:1;fill-rule:nonzero;stroke:none"
         id="path50"
         inkscape:connector-curvature="0" /><path
         d="m 3554.65,3051.38 -164.14,165.35 -96.49,0 0,-21.99 57.92,-57.93 0,-657.54 96.43,0 0,560.01 106.28,-107.05 0,-452.96 96.4,0 0,737.46 -154.34,0 0,-21.99 57.94,-57.93 0,-85.43"
         style="fill:#ffffff;fill-opacity:1;fill-rule:nonzero;stroke:none"
         id="path52"
         inkscape:connector-curvature="0" /><path
         d="m 3707.36,3216.73 0,-21.99 57.92,-57.93 0,-598.51 59.02,-59.03 229.27,0 0,388.81 -59.03,59.04 -96.47,0 0,-21.98 59.04,-59.06 0,-283.87 -95.37,0 0,571.6 95.37,0 0,-134.19 96.46,0 0,158.09 -59.03,59.02 -287.18,0"
         style="fill:#ffffff;fill-opacity:1;fill-rule:nonzero;stroke:none"
         id="path54"
         inkscape:connector-curvature="0" /><path
         d="m 1881.54,3216.73 0,-21.99 57.92,-57.93 0,-598.51 59.03,-59.03 229.26,0 0,388.81 -59,59.04 -96.49,0 0,-21.98 59.05,-59.06 0,-283.87 -95.37,0 0,571.6 95.37,0 0,-134.19 96.44,0 0,158.09 -59,59.02 -287.21,0"
         style="fill:#ffffff;fill-opacity:1;fill-rule:nonzero;stroke:none"
         id="path56"
         inkscape:connector-curvature="0" /><path
         d="m 1729.19,2479.27 96.43,0 0,737.44 -154.37,0 0,-21.97 57.94,-57.93 0,-657.54"
         style="fill:#ffffff;fill-opacity:1;fill-rule:nonzero;stroke:none"
         id="path58"
         inkscape:connector-curvature="0" /><path
         d="m 2629.78,3216.73 -96.45,0 0,-289.61 -93.77,0 0,289.61 -154.37,0 0,-21.99 57.95,-57.93 0,-209.69 -57.95,0 0,-21.98 57.95,-57.95 0,-367.92 96.42,0 0,366.84 93.77,0 0,-366.84 96.45,0 0,367.9 57.95,57.97 0,21.98 -57.95,0 0,289.61"
         style="fill:#ffffff;fill-opacity:1;fill-rule:nonzero;stroke:none"
         id="path60"
         inkscape:connector-curvature="0" /><path
         d="m 1274.48,3216.73 0,-21.99 57.94,-57.93 0,-207.59 -57.94,0 0,-21.95 57.94,-57.91 0,-530.86 96.45,0 0,527.61 137.57,0 61.1,61.16 0,21.95 -198.67,0 0,206.48 102.21,0 0,-136.08 96.46,0 0,158.09 -59,59.02 -294.06,0"
         style="fill:#ffffff;fill-opacity:1;fill-rule:nonzero;stroke:none"
         id="path62"
         inkscape:connector-curvature="0" /></g></g></svg>
