<?xml version="1.0" encoding="UTF-8" standalone="no"?>
<!-- Created with Inkscape (http://www.inkscape.org/) -->

<svg
   xmlns:dc="http://purl.org/dc/elements/1.1/"
   xmlns:cc="http://creativecommons.org/ns#"
   xmlns:rdf="http://www.w3.org/1999/02/22-rdf-syntax-ns#"
   xmlns:svg="http://www.w3.org/2000/svg"
   xmlns="http://www.w3.org/2000/svg"
   xmlns:sodipodi="http://sodipodi.sourceforge.net/DTD/sodipodi-0.dtd"
   xmlns:inkscape="http://www.inkscape.org/namespaces/inkscape"
   width="100mm"
   height="86.097mm"
   viewBox="0 0 100 86.097"
   version="1.1"
   id="svg1083"
   inkscape:version="0.92.2 (5c3e80d, 2017-08-06)"
   sodipodi:docname="pirates-head.svg">
  <defs
     id="defs1077" />
  <sodipodi:namedview
     id="base"
     pagecolor="#ffffff"
     bordercolor="#666666"
     borderopacity="1.0"
     inkscape:pageopacity="0.0"
     inkscape:pageshadow="2"
     inkscape:zoom="0.35"
     inkscape:cx="-145.71429"
     inkscape:cy="560"
     inkscape:document-units="mm"
     inkscape:current-layer="layer1"
     showgrid="false"
     inkscape:window-width="1920"
     inkscape:window-height="986"
     inkscape:window-x="1600"
     inkscape:window-y="27"
     inkscape:window-maximized="1" />
  <metadata
     id="metadata1080">
    <rdf:RDF>
      <cc:Work
         rdf:about="">
        <dc:format>image/svg+xml</dc:format>
        <dc:type
           rdf:resource="http://purl.org/dc/dcmitype/StillImage" />
        <dc:title></dc:title>
      </cc:Work>
    </rdf:RDF>
  </metadata>
  <g
     inkscape:label="Layer 1"
     inkscape:groupmode="layer"
     id="layer1"
     transform="translate(0,-210.903)">
    <g
       id="g8689"
       transform="matrix(2.9260316,0,0,2.926045,-88.43599,-131.29112)"
       inkscape:export-filename="/tmp/flyer.png"
       inkscape:export-xdpi="96"
       inkscape:export-ydpi="96">
      <path
         d="m 61.220281,117.92033 c 0.799475,2.70018 -0.793886,4.4801 -2.11989,4.4801 -1.352735,0 -2.448465,-1.18275 -2.448465,-2.88943 0,-1.06746 0.428123,-2.00823 1.079577,-2.56334 l -0.116537,0.0352 c -11.934678,-0.56372 -17.473744,6.65136 -18.399487,7.95831 l -0.0125,-0.009 c -1.051297,1.46316 -1.196936,1.26199 -0.918917,0.0866 0.243533,-1.0343 -1.682857,0.60412 -1.682857,0.60412 -0.40916,3.94756 1.45425,6.29399 2.927452,7.23197 -1.795355,0.20965 -3.302221,-0.66316 -3.302221,-0.66316 -0.0021,0.51389 0.221769,0.99743 0.235551,1.01763 -1.016906,-0.66078 -3.892992,-0.95248 -5.450787,1.53887 -0.939643,1.50231 -0.776494,2.97686 -0.776494,2.97686 0,0 0.922517,-1.70876 3.748037,-1.66059 -0.600471,0.566 -0.534072,1.10299 -0.534072,1.10299 0.866684,-0.47785 2.149826,-0.18335 3.841177,1.26976 2.292259,1.9701 4.748384,1.61532 4.824002,1.60237 -0.646581,0.37136 -1.438395,0.36369 -1.438395,0.36369 1.690528,1.22687 3.683316,1.05896 4.507138,0.87085 1.175077,1.43197 2.138534,2.30034 2.138534,2.30034 2.689198,-1.20709 9.502783,2.79755 9.502783,2.79755 0,0 2.980593,-5.3784 2.980593,-6.9641 0,-1.81193 -1.457562,-3.39203 -1.457562,-3.39203 0.903575,-1.28923 1.215995,-2.45416 1.215995,-2.45416 h -0.517619 c 0.269942,-0.57656 0.629701,-1.4672 0.629701,-1.4672 0,0 4.150274,-3.10872 4.647179,-7.10611 0.4795,-3.85413 -1.348269,-5.95537 -3.101884,-7.0682"
         style="fill:#ffd100;fill-opacity:1;fill-rule:nonzero;stroke:none;stroke-width:0.01035861"
         id="path7813"
         inkscape:connector-curvature="0" />
      <path
         d="m 63.352704,123.94127 c -0.01987,-1.56508 -0.557192,-2.9926 -1.227288,-4.17089 0.0064,0.0922 0.01068,0.18573 0.01068,0.27958 0.0011,0.31966 -0.03355,0.62762 -0.09786,0.91849 -0.06602,0.2974 -0.165115,0.58589 -0.294183,0.85625 -0.135906,0.28444 -0.309931,0.55719 -0.519073,0.80196 -0.227891,0.26622 -0.504981,0.50861 -0.832422,0.70283 -0.02543,0.0154 -0.05096,0.0295 -0.07682,0.0445 -0.02628,0.0145 -0.05267,0.0287 -0.07927,0.0421 -0.02671,0.0146 -0.05342,0.0276 -0.08055,0.0409 -0.02703,0.0133 -0.05459,0.0263 -0.08173,0.0388 -0.370624,0.16625 -0.767979,0.25927 -1.177876,0.27025 -0.46448,0.0121 -0.942731,-0.0805 -1.402862,-0.28848 -0.518763,-0.23473 -1.002302,-0.60981 -1.393129,-1.12288 -0.42729,-0.56164 -0.722723,-1.25919 -0.815329,-2.04821 -0.08579,-0.72841 0.01335,-1.42317 0.260936,-2.0366 -9.632268,-0.0308 -15.000515,7.03381 -15.887113,8.29062 -0.782178,1.10909 -1.65085,0.54496 -1.850355,0.39166 0.324952,4.13982 3.692632,5.32049 3.692632,5.32049 0.113332,-0.11332 -0.02874,-0.2339 -0.06955,-0.66316 -0.199505,-2.03899 0.833876,-3.11815 2.214473,-3.80803 1.916336,-0.95859 4.679187,-0.46251 7.117502,0.10804 2.942986,0.68791 7.244187,1.56436 7.244187,1.56436 0.344738,-0.17206 0.04412,-0.21857 -0.208415,-0.31408 -0.553869,-0.20872 -0.38275,-0.3496 -0.38275,-0.3496 0,0 4.264439,-1.55535 4.907815,-5.60494 0,0.009 8.23e-4,0.0166 8.23e-4,0.0255 0,4.10418 -4.118373,6.814 -4.118373,6.814 -4.163341,-0.68989 -6.033898,-1.45021 -10.582777,-1.81721 -2.997163,-0.24157 -4.591763,1.33325 -4.68768,2.77341 v 0.003 c 0,0.0214 8.22e-4,0.17361 0.01827,0.43092 v 0.002 c 0.01496,0.22416 0.04284,0.5284 0.09263,0.8954 -0.760746,0.81253 -2.155424,1.24345 -3.366558,1.28105 -1.057301,0.0324 -2.097616,-0.24601 -2.097616,-0.24601 1.619782,2.1203 4.514906,1.76096 4.614039,1.74801 -1.315022,0.40958 -2.606646,0.4188 -4.398786,-0.43216 -2.213735,-1.05161 -4.19803,-1.33802 -5.565262,-0.23742 -0.876428,0.7048 -1.302511,1.77754 -1.315459,1.81152 1.74761,-2.24254 4.52983,-1.18565 5.608167,-0.86184 1.457455,0.43651 4.3243,1.91386 7.701424,-0.15103 1.939029,-1.18596 2.904034,-2.71468 3.343033,-3.64654 0.24115,-0.50944 -0.571689,0.18697 -0.989663,0.60577 -2.883842,2.88953 -5.69651,1.94017 -5.69651,1.94017 0,0 2.092434,0.12989 4.271373,-2.02801 1.680058,-1.66339 2.951373,-1.20699 3.042012,-0.71174 0.08622,0.47504 0.216909,-0.0182 0.216909,-0.0182 0,-0.19661 0.245605,0.0373 0.245605,0.36866 0,0.16067 -0.02949,0.30838 -0.0906,0.47142 -0.06239,0.16668 -0.158278,0.13187 -0.183769,0.0769 -0.130201,-0.28123 -0.296566,-0.10037 -0.296566,-0.10037 -2.458923,6.44989 -7.274539,5.37115 -10.052721,4.29323 -2.891502,-1.12204 -3.409015,0.0433 -3.409015,0.0433 0.841632,-0.30226 2.027179,0.0695 3.732311,1.10216 5.217009,3.15699 7.494665,-0.0412 7.542004,-0.10929 -0.458892,1.70317 -2.927965,2.32914 -2.927965,2.32914 0,0 1.459933,0.78218 3.361259,0.1647 0.07852,0.0955 0.158694,0.19132 0.241257,0.28642 0.477845,0.55522 1.019182,1.09656 1.631896,1.60962 0.430089,-0.12213 1.243036,-0.12575 2.772071,0.36504 2.096472,0.67331 5.457742,2.27724 5.457742,2.27724 0,0 2.459757,-4.15319 2.459757,-5.25338 0,-1.52054 -1.262095,-3.03103 -1.262095,-3.03103 v -0.67538 c 0.684701,-0.91612 0.85458,-1.53598 0.85458,-1.53598 H 57.988026 C 58.533819,133.16464 58.679051,132.58 58.679051,132.58 H 58.25424 l 0.383989,-0.9707 c 0,0 0.355614,0 0.356864,-8.3e-4 0.0064,-0.007 0.04776,-0.0397 0.11612,-0.0983 0.02308,-0.0203 0.04979,-0.0429 0.07938,-0.0681 0.812936,-0.71536 3.88686,-3.6109 4.139399,-6.79048 0.01891,-0.24156 0.02628,-0.47795 0.02308,-0.7106"
         style="fill:#0c2340;fill-opacity:1;fill-rule:nonzero;stroke:none;stroke-width:0.01035861"
         id="path7815"
         inkscape:connector-curvature="0" />
      <path
         d="m 62.324921,123.23078 c 0,0 -0.1,3.36696 -3.907992,5.67341 0,0 -0.295016,0.21442 0.697233,0.38876 0.01293,0.002 0.02618,0.004 0.03953,0.005 1.216006,-1.07346 3.171188,-3.23903 3.171188,-6.06704"
         style="fill:#ffffff;fill-opacity:1;fill-rule:nonzero;stroke:none;stroke-width:0.01035861"
         id="path7817"
         inkscape:connector-curvature="0" />
      <path
         d="m 42.954318,131.43469 c -0.01741,-0.2573 -0.01827,-0.40947 -0.01827,-0.43092 -0.01068,0.14565 -0.0032,0.28973 0.01827,0.43092"
         style="fill:#1a2846;fill-opacity:1;fill-rule:nonzero;stroke:none;stroke-width:0.01035861"
         id="path7819"
         inkscape:connector-curvature="0" />
      <path
         d="m 41.695022,132.20796 c 0,0 0.0021,-0.001 0.0053,-0.003 -0.0021,8.2e-4 -0.0032,0.002 -0.0053,0.003"
         style="fill:#1a2846;fill-opacity:1;fill-rule:nonzero;stroke:none;stroke-width:0.01035861"
         id="path7821"
         inkscape:connector-curvature="0" />
      <path
         d="m 41.918042,132.09754 c 0.0021,-8.3e-4 0.0053,-0.002 0.0064,-0.004 -0.0021,0.001 -0.0043,0.003 -0.0064,0.004"
         style="fill:#1a2846;fill-opacity:1;fill-rule:nonzero;stroke:none;stroke-width:0.01035861"
         id="path7823"
         inkscape:connector-curvature="0" />
      <path
         d="m 47.615278,130.20668 c 0.268596,-0.0118 0.662746,0.0437 0.770372,0.43817 0.0219,0.0802 0.125436,0.19909 0.210072,0.0191 0.06346,-0.13518 0.104271,-0.33987 0.0781,-0.4997 -0.0672,-0.41072 -0.567342,-0.56123 -1.012869,-0.18977 -0.114869,0.0962 -0.195466,0.23825 -0.04572,0.23224"
         style="fill:#ffd100;fill-opacity:1;fill-rule:nonzero;stroke:none;stroke-width:0.01035861"
         id="path7825"
         inkscape:connector-curvature="0" />
      <path
         d="m 48.40346,133.82038 c -0.15941,1.13748 -0.268703,2.66662 -1.685657,4.68728 0,0 2.668483,-2.08177 1.89045,-5.22665 -0.03931,-0.15652 -0.115703,-0.0902 -0.204793,0.53937"
         style="fill:#ffd100;fill-opacity:1;fill-rule:nonzero;stroke:none;stroke-width:0.01035861"
         id="path7827"
         inkscape:connector-curvature="0" />
      <path
         d="m 52.346676,132.31031 h -1.280738 c -0.237518,-0.3233 -0.604114,-1.40246 -0.604114,-1.40246 h 2.113779 l -0.755041,0.47505 0.41072,0.25897 h 1.531108 l 1.07916,0.47463 c -0.410197,0 -0.582982,0.25855 -0.582982,0.25855 l -0.43134,0.9707 H 53.09395 c -1.230087,0.60412 -2.14941,1.89863 -2.14941,1.89863 -0.25897,-0.51793 -0.496081,-1.81244 -0.496081,-1.81244 l 1.687729,-0.88411 c 0,0 0.210488,-0.0866 0.210488,-0.23752"
         style="fill:#f2bf9b;fill-opacity:1;fill-rule:nonzero;stroke:none;stroke-width:0.01035861"
         id="path7829"
         inkscape:connector-curvature="0" />
      <path
         d="m 56.480796,138.46073 c 0,0 -1.531513,-0.75949 -3.193035,-0.31966 0,0 -1.035454,-0.80435 0.108032,-2.53092 l 3.689118,-0.97682 c 0,0 -0.150928,0.38565 -0.819773,1.0371 l -1.739118,0.46003 c 0,0 -0.504671,0.0906 -0.504671,0.69434 l 0.733706,0.3237 c 0,0 0.173096,-0.33707 0.461991,-0.41351 0.289012,-0.0764 0.904825,0.0465 1.26375,1.72574"
         style="fill:#f2bf9b;fill-opacity:1;fill-rule:nonzero;stroke:none;stroke-width:0.01035861"
         id="path7831"
         inkscape:connector-curvature="0" />
      <path
         d="m 56.979261,133.63186 h -0.41228 c 0,0 0.234622,-0.42077 -0.344012,-0.42077 h -1.20936 c 0,0 0,-0.67942 0.596347,-0.67942 h 0.673301 v -0.13352 c 0,-0.24685 -0.309514,-0.36825 -0.309514,-0.36825 l -0.628355,-0.31563 1.019705,-0.54983 v 0.37229 l 0.0032,-0.004 c 0,0 0.610952,0.26228 0.610952,0.71547 v 0.63933 h 0.517929 c 0,0 -0.107626,0.33945 -0.517929,0.74406"
         style="fill:#f2bf9b;fill-opacity:1;fill-rule:nonzero;stroke:none;stroke-width:0.01035861"
         id="path7833"
         inkscape:connector-curvature="0" />
      <path
         d="m 48.140045,129.98045 c -0.344321,-0.0983 -0.558014,0.0745 -0.558014,0.0749 -0.06186,0.0792 -0.07724,0.15579 0.03323,0.15134 0.03312,-0.002 0.06923,-0.002 0.105554,-8.3e-4 0.499383,-0.0635 0.699614,0.16304 0.699614,0.16304 0.150927,0.0348 0.01207,-0.30464 -0.280401,-0.38844"
         style="fill:#ffffff;fill-opacity:1;fill-rule:nonzero;stroke:none;stroke-width:0.01035861"
         id="path7835"
         inkscape:connector-curvature="0" />
      <path
         d="m 46.354017,131.21944 c -0.364215,0.18293 -0.76799,0.47018 -1.198913,0.89664 -2.178928,2.15791 -4.271372,2.02801 -4.271372,2.02801 0,0 0.155798,0.0526 0.431339,0.0955 0.0021,0 1.836263,0.37923 3.891005,-1.21423 0.959407,-0.74417 1.699427,-1.75693 2.29867,-1.89211 -0.377462,-0.34276 -1.150729,0.0862 -1.150729,0.0862"
         style="fill:#ffffff;fill-opacity:1;fill-rule:nonzero;stroke:none;stroke-width:0.01035861"
         id="path7837"
         inkscape:connector-curvature="0" />
      <path
         d="m 38.192568,136.33121 h 4.17e-4 c -0.0011,0 -0.0021,-4.2e-4 -0.0032,-4.2e-4 l 0.0021,4.2e-4"
         style="fill:#ffffff;fill-opacity:1;fill-rule:nonzero;stroke:none;stroke-width:0.01035861"
         id="path7839"
         inkscape:connector-curvature="0" />
      <path
         d="m 47.060885,132.51147 c -0.553879,0.85614 -1.484185,1.81918 -2.834013,2.73322 -1.473716,0.99785 -3.34314,1.6607 -6.033887,1.08652 0.519169,0.18283 1.42472,0.44221 2.604979,0.48799 1.120078,0.0429 2.583644,-0.26259 3.329775,-0.69029 3.187245,-1.8282 3.845226,-4.74684 3.845226,-4.74684 -0.140468,-0.10918 -0.693205,0.79192 -0.91208,1.1294"
         style="fill:#ffffff;fill-opacity:1;fill-rule:nonzero;stroke:none;stroke-width:0.01035861"
         id="path7841"
         inkscape:connector-curvature="0" />
      <path
         d="m 56.979261,132.8878 v -0.63933 c 0,-0.44553 -0.58951,-0.70574 -0.60982,-0.71423 -0.0032,10e-4 -0.0043,0.002 -0.0043,0.002 v 0.13673 c 0.177967,0.11084 0.360486,0.30392 0.360486,0.62877 v 0.90721 h 0.603697 c 0.127509,-0.19299 0.167914,-0.32164 0.167914,-0.32164 h -0.51793"
         style="fill:#ffffff;fill-opacity:1;fill-rule:nonzero;stroke:none;stroke-width:0.01035861"
         id="path7843"
         inkscape:connector-curvature="0" />
      <path
         d="m 55.860422,132.53167 c -0.30257,0 -0.451531,0.17516 -0.524767,0.34764 h 0.947602 v -0.34764 h -0.422835"
         style="fill:#ffffff;fill-opacity:1;fill-rule:nonzero;stroke:none;stroke-width:0.01035861"
         id="path7845"
         inkscape:connector-curvature="0" />
      <path
         d="m 55.961211,134.93072 c -0.360475,0.0955 -0.537716,0.35168 -0.625556,0.58029 l 1.420682,-0.37591 c 0.25772,-0.32174 0.328574,-0.50177 0.328574,-0.50177 l -1.1237,0.29739"
         style="fill:#ffffff;fill-opacity:1;fill-rule:nonzero;stroke:none;stroke-width:0.01035861"
         id="path7847"
         inkscape:connector-curvature="0" />
      <path
         d="m 53.600587,131.07825 0.645342,0.31159 c 0,0 0.162316,0.0943 0.386479,-0.008 0.144816,-0.0664 0.121814,-0.0543 0.257314,-0.12793 l -1.289135,-0.17558"
         style="fill:#ffd100;fill-opacity:1;fill-rule:nonzero;stroke:none;stroke-width:0.01035861"
         id="path7849"
         inkscape:connector-curvature="0" />
      <path
         d="m 55.533921,134.29709 h -2.144132 c 0,0 -0.445933,0.22903 -0.611058,0.66274 l 2.75519,-0.66274"
         style="fill:#ffffff;fill-opacity:1;fill-rule:nonzero;stroke:none;stroke-width:0.01035861"
         id="path7851"
         inkscape:connector-curvature="0" />
    </g>
  </g>
</svg>
