<?xml version="1.0" encoding="utf-8"?>
<!-- Generator: Adobe Illustrator 17.0.0, SVG Export Plug-In . SVG Version: 6.00 Build 0)  -->
<!DOCTYPE svg PUBLIC "-//W3C//DTD SVG 1.1//EN" "http://www.w3.org/Graphics/SVG/1.1/DTD/svg11.dtd">
<svg version="1.1" id="rss" xmlns="http://www.w3.org/2000/svg" xmlns:xlink="http://www.w3.org/1999/xlink" x="0px" y="0px"
	 width="256px" height="256px" fill="#ffd100" viewBox="0 0 256 256" enable-background="new 0 0 256 256" xml:space="preserve">
<g id="z2NY9v.tif">
	<g>
		<path d="M0,0c85.333,0,170.667,0,256,0c0,85.333,0,170.667,0,256c-85.333,0-170.667,0-256,0C0,170.667,0,85.333,0,0z
			 M68.273,90.887c26.885,0.769,49.678,10.111,68.281,28.747c18.693,18.725,27.791,41.781,28.539,68.083c7.833,0,15.096,0,22.349,0
			c1.893-66.992-58.341-121.974-119.169-119.034C68.273,75.94,68.273,83.203,68.273,90.887z M68.313,131.754
			c15.54,0.39,28.634,5.808,39.352,16.483c10.846,10.803,16.021,24.164,16.581,39.735c3.978,0,7.608,0,11.237,0
			c3.77,0,7.539,0,11.278,0c1.132-44.678-38.792-80.581-78.449-78.571C68.313,116.633,68.313,123.881,68.313,131.754z M99.98,171.75
			c-0.118-8.701-7.341-15.779-16.037-15.714c-8.941,0.067-16.114,7.478-15.868,16.396c0.238,8.643,7.662,15.708,16.298,15.51
			C93.048,187.744,100.098,180.431,99.98,171.75z"/>
	</g>
</g>
<g id="twzfzY_1_">
	
		<image overflow="visible" width="36" height="36" id="twzfzY" xlink:href="C1650E4BBFD9B764.jpg"  transform="matrix(7.1111 0 0 7.1111 1640 -29)">
	</image>
</g>
</svg>
