<?xml version="1.0" encoding="utf-8"?>
<!-- Generator: Adobe Illustrator 17.0.0, SVG Export Plug-In . SVG Version: 6.00 Build 0)  -->
<!DOCTYPE svg PUBLIC "-//W3C//DTD SVG 1.1//EN" "http://www.w3.org/Graphics/SVG/1.1/DTD/svg11.dtd">
<svg version="1.1" id="share" xmlns="http://www.w3.org/2000/svg" xmlns:xlink="http://www.w3.org/1999/xlink" x="0px" y="0px"
	 width="256px" height="256px" viewBox="0 0 256 256" enable-background="new 0 0 256 256" xml:space="preserve">
<g id="Nw08Sp.tif">
	<g>
		<path d="M178,156.516c0,1.823,0,3.646,0,5.469c-0.142,0.413-0.314,0.819-0.42,1.241c-1.71,6.823-5.867,11.44-12.482,13.827
			c-1.019,0.368-2.075,0.635-3.114,0.948c-1.823,0-3.646,0-5.469,0c-0.285-0.123-0.558-0.298-0.855-0.363
			c-9.499-2.08-15.557-9.91-15.057-19.638c0.063-1.231-0.527-1.54-1.372-1.96c-9.238-4.597-18.476-9.195-27.684-13.851
			c-1.197-0.605-1.945-0.576-3.053,0.331c-9.52,7.795-23.809,4.377-28.827-6.861c-0.703-1.575-1.119-3.279-1.667-4.924
			c0-1.823,0-3.646,0-5.469c0.103-0.157,0.271-0.304,0.3-0.474c2.415-14.217,19.751-20.721,30.994-10.758
			c0.409,0.362,1.457,0.44,1.97,0.181c9.383-4.745,18.724-9.572,28.092-14.346c0.917-0.467,1.292-0.926,1.227-2.063
			c-0.492-8.541,4.763-16.219,12.811-18.87c1.031-0.34,2.081-0.626,3.122-0.937c1.823,0,3.646,0,5.469,0
			c0.415,0.141,0.822,0.311,1.246,0.417c6.825,1.709,11.44,5.867,13.826,12.482c0.368,1.02,0.631,2.077,0.943,3.116
			c0,1.823,0,3.646,0,5.469c-0.114,0.221-0.283,0.43-0.335,0.664c-3.188,14.365-18.708,20.004-30.338,10.971
			c-0.929-0.722-1.529-0.554-2.4-0.104c-9.292,4.797-18.557,9.651-27.936,14.273c-2.047,1.009-1.51,2.497-1.467,3.882
			c0.019,0.625,0.865,1.454,1.537,1.793c9.215,4.658,18.479,9.222,27.692,13.884c1.22,0.618,1.955,0.509,3.036-0.34
			c10.158-7.965,24.998-3.508,29.187,8.711C177.35,154.307,177.66,155.416,178,156.516z"/>
	</g>
</g>
</svg>
