<?xml version="1.0" standalone="no"?>
<!DOCTYPE svg PUBLIC "-//W3C//DTD SVG 1.1//EN" "http://www.w3.org/Graphics/SVG/1.1/DTD/svg11.dtd" >
<svg>
<metadata>
Created by FontForge 20090622 at Sat Feb  3 11:41:43 2018
 By deploy user
Dramaturg &#194;&#169; nowak.tv 2016. All Rights Reserved
</metadata>
<defs>
<font id="Dramaturg" horiz-adv-x="468" >
  <font-face 
    font-family="Dramaturg"
    font-weight="400"
    font-stretch="normal"
    units-per-em="2048"
    panose-1="2 0 5 0 0 0 0 0 0 0"
    ascent="1638"
    descent="-410"
    x-height="549"
    cap-height="1000"
    bbox="-1957 -1196 3258 1393"
    underline-thickness="150"
    underline-position="-142"
    unicode-range="U+001D-U+E132"
  />
<missing-glyph horiz-adv-x="1334" 
 />
    <glyph glyph-name="a_z" unicode="a&#x7a;" horiz-adv-x="1079" 
d="M640 414q-168 -468 -256 -468q-96 5 -117 71q2 68 46 242q-31 -65 -67 -116q-144 -197 -192 -197q-70 0 -108 108q1 63 119.5 275t254.5 232q133 -27 138 -86l-19 -10q-25 31 -61 31q-127 -33 -279 -356q-48 -115 -48 -149q20 0 76.5 65.5t131 172.5t124.5 201
q11 15 30 15q12 0 37.5 -30t27.5 -50q-73 -229 -75 -237q-23 -86 -26 -140q90 0 250 439q0 15 7 24l185 51q139 61 181 61q53 -24 63 -84v-16q-45 -24 -215 -203t-170 -229q125 55 203 55q83 0 109 -24.5t26 -41.5q0 -12 -6 -17l-13 1q-9 39 -48 39q-79 0 -195.5 -43.5
t-137.5 -46.5q-63 57 -63 118q1 39 161.5 218t231.5 223l-4 3q-180 -58 -295 -103z" />
    <glyph glyph-name="a_zdotaccent" unicode="a&#x17c;" horiz-adv-x="1079" 
d="M640 414q-168 -468 -256 -468q-96 5 -117 71q2 68 46 242q-31 -65 -67 -116q-144 -197 -192 -197q-70 0 -108 108q1 63 119.5 275t254.5 232q133 -27 138 -86l-19 -10q-25 31 -61 31q-127 -33 -279 -356q-48 -115 -48 -149q20 0 76.5 65.5t131 172.5t124.5 201
q11 15 30 15q12 0 37.5 -30t27.5 -50q-73 -229 -75 -237q-23 -86 -26 -140q90 0 250 439q0 15 7 24l185 51q139 61 181 61q53 -24 63 -84v-16q-45 -24 -215 -203t-170 -229q125 55 203 55q83 0 109 -24.5t26 -41.5q0 -12 -6 -17l-13 1q-9 39 -48 39q-79 0 -195.5 -43.5
t-137.5 -46.5q-63 57 -63 118q1 39 161.5 218t231.5 223l-4 3q-180 -58 -295 -103zM860 736q24 -49 37 -100l-12 -13q-69 -16 -137 -39l-15 12q0 50 -3 85q53 31 130 55z" />
    <glyph glyph-name="a_zacute" unicode="a&#x17a;" horiz-adv-x="1079" 
d="M640 414q-168 -468 -256 -468q-96 5 -117 71q2 68 46 242q-31 -65 -67 -116q-144 -197 -192 -197q-70 0 -108 108q1 63 119.5 275t254.5 232q133 -27 138 -86l-19 -10q-25 31 -61 31q-127 -33 -279 -356q-48 -115 -48 -149q20 0 76.5 65.5t131 172.5t124.5 201
q11 15 30 15q12 0 37.5 -30t27.5 -50q-73 -229 -75 -237q-23 -86 -26 -140q90 0 250 439q0 15 7 24l185 51q139 61 181 61q53 -24 63 -84v-16q-45 -24 -215 -203t-170 -229q125 55 203 55q83 0 109 -24.5t26 -41.5q0 -12 -6 -17l-13 1q-9 39 -48 39q-79 0 -195.5 -43.5
t-137.5 -46.5q-63 57 -63 118q1 39 161.5 218t231.5 223l-4 3q-180 -58 -295 -103zM748 620q-10 3 -15 22q123 111 188 180q8 3 16 3q44 -40 47 -67q-7 -14 -107 -69q-98 -68 -129 -69z" />
    <glyph glyph-name="aogonek_z" unicode="&#x105;&#x7a;" horiz-adv-x="1079" 
d="M320 -41q-40 18 -53 58q2 68 46 242q-31 -65 -67 -116q-144 -197 -192 -197q-70 0 -108 108q1 63 119.5 275t254.5 232q133 -27 138 -86l-19 -10q-25 31 -61 31q-127 -33 -279 -356q-48 -115 -48 -149q20 0 76.5 65.5t131 172.5t124.5 201q11 15 30 15q12 0 37.5 -30
t27.5 -50q-73 -229 -75 -237q-23 -86 -26 -140q90 0 250 439q0 15 7 24l185 51q139 61 181 61q53 -24 63 -84v-16q-45 -24 -215 -203t-170 -229q125 55 203 55q83 0 109 -24.5t26 -41.5q0 -12 -6 -17l-13 1q-9 39 -48 39q-79 0 -195.5 -43.5t-137.5 -46.5q-63 57 -63 118
q1 39 161.5 218t231.5 223l-4 3q-180 -58 -295 -103l-7 2q-150 -417 -236 -462q-35 -56 -63 -126q-31 -75 -31 -160q0 -53 23 -63q38 0 64.5 26.5t42.5 53.5q19 -2 19 -17q-26 -53 -56.5 -75t-60.5 -24q-128 20 -131 131q0 51 31 126q26 65 78 135z" />
    <glyph glyph-name="aogonek_zdotaccent" unicode="&#x105;&#x17c;" horiz-adv-x="1079" 
d="M860 736q24 -49 37 -100l-12 -13q-69 -16 -137 -39l-15 12q0 50 -3 85q53 31 130 55zM315 -38q-36 17 -48 55q2 68 46 242q-31 -65 -67 -116q-144 -197 -192 -197q-70 0 -108 108q1 63 119.5 275t254.5 232q133 -27 138 -86l-19 -10q-25 31 -61 31q-127 -33 -279 -356
q-48 -115 -48 -149q20 0 76.5 65.5t131 172.5t124.5 201q11 15 30 15q12 0 37.5 -30t27.5 -50q-73 -229 -75 -237q-23 -86 -26 -140q90 0 250 439q0 15 7 24l185 51q139 61 181 61q53 -24 63 -84v-16q-45 -24 -215 -203t-170 -229q125 55 203 55q83 0 109 -24.5t26 -41.5
q0 -12 -6 -17l-13 1q-9 39 -48 39q-79 0 -195.5 -43.5t-137.5 -46.5q-63 57 -63 118q1 39 161.5 218t231.5 223l-4 3q-180 -58 -295 -103l-7 2q-157 -437 -244 -466q-34 -54 -61 -122q-31 -75 -31 -160q0 -53 23 -63q38 0 64.5 26.5t42.5 53.5q19 -2 19 -17
q-26 -53 -56.5 -75t-60.5 -24q-128 20 -131 131q0 51 31 126q26 66 79 138z" />
    <glyph glyph-name="aogonek_zacute" unicode="&#x105;&#x17a;" horiz-adv-x="1079" 
d="M739 613q-10 3 -15 22q123 111 188 180q8 3 16 3q44 -40 47 -67q-7 -14 -107 -69q-98 -68 -129 -69zM319 -40q-39 18 -52 57q2 68 46 242q-31 -65 -67 -116q-144 -197 -192 -197q-70 0 -108 108q1 63 119.5 275t254.5 232q133 -27 138 -86l-19 -10q-25 31 -61 31
q-127 -33 -279 -356q-48 -115 -48 -149q20 0 76.5 65.5t131 172.5t124.5 201q11 15 30 15q12 0 37.5 -30t27.5 -50q-73 -229 -75 -237q-23 -86 -26 -140q90 0 250 439q0 15 7 24l185 51q139 61 181 61q53 -24 63 -84v-16q-45 -24 -215 -203t-170 -229q125 55 203 55
q83 0 109 -24.5t26 -41.5q0 -12 -6 -17l-13 1q-9 39 -48 39q-79 0 -195.5 -43.5t-137.5 -46.5q-63 57 -63 118q1 39 161.5 218t231.5 223l-4 3q-180 -58 -295 -103l-7 2q-152 -424 -239 -464q-37 -57 -66 -130q-31 -75 -31 -160q0 -53 23 -63q38 0 64.5 26.5t42.5 53.5
q19 -2 19 -17q-26 -53 -56.5 -75t-60.5 -24q-128 20 -131 131q0 51 31 126q27 68 83 142z" />
    <glyph glyph-name="a_x" unicode="ax" horiz-adv-x="930" 
d="M638 180q-205 -234 -254 -234q-96 5 -117 71q2 68 46 242q-31 -65 -67 -116q-144 -197 -192 -197q-70 0 -108 108q1 63 119.5 275t254.5 232q133 -27 138 -86l-19 -10q-25 31 -61 31q-127 -33 -279 -356q-48 -115 -48 -149q20 0 76.5 65.5t131 172.5t124.5 201
q11 15 30 15q12 0 37.5 -30t27.5 -50q-73 -229 -75 -237q-23 -86 -26 -140q51 0 255 222q-57 205 -106 346l7 11q82 -18 131 -55q16 -43 58 -199q238 262 283 268q48 -19 81 -88l-7 -7l-56 52q-41 0 -288 -262q17 -73 86 -325l-1 -5q-59 4 -121 33q-26 23 -61 201z" />
    <glyph glyph-name="aogonek_g" unicode="&#x105;g" horiz-adv-x="1034" 
d="M680 -460q7 -101 35 -101q45 0 105.5 87t60.5 231q0 86 -14 244q-187 -209 -187 -461zM514 145q-145 -199 -170 -199h-4q-30 -50 -54 -111q-31 -75 -31 -160q0 -53 23 -63q38 0 64.5 26.5t42.5 53.5q19 -2 19 -17q-26 -53 -56.5 -75t-60.5 -24q-128 20 -131 131
q0 51 31 126q29 74 93 155q-8 13 -13 29q2 68 46 242q-31 -65 -67 -116q-144 -197 -192 -197q-70 0 -98 108q1 63 114.5 275t222.5 232q157 -36 165 -86l-19 -10q-25 31 -61 31q-127 -33 -279 -356q-48 -115 -48 -149q20 0 76.5 65.5t131 172.5t124.5 201q11 15 30 15
q12 0 37.5 -30t27.5 -50q-73 -229 -75 -237q-23 -86 -26 -110q10 0 160 202h1q38 96 117 214q75 85 145 85q121 0 121 -60q0 -15 -15 -15q0 25 -20 25q-96 0 -212 -237q-60 -141 -60 -240h11q108 56 241 392q42 40 85 40q45 -11 45 -20q-60 -79 -60 -196q0 -47 9 -109
q51 51 87 105l17 -12q-36 -56 -95 -116q37 -148 37 -275q0 -192 -80.5 -299.5t-145.5 -107.5q-131 34 -131 161q0 202 223 473q-25 71 -28 201l-109 -187q-36 -56 -80 -85q-136 15 -136 105q0 39 10 83z" />
    <glyph glyph-name="d_r" unicode="dr" horiz-adv-x="1029" 
d="M503 -255q-105 5 -174 59q-57 50 -61 147q2 73 28 205q-54 -77 -96.5 -124.5t-71.5 -47.5q-117 0 -147 102q0 87 44.5 178.5t95.5 140.5q78 95 142 100q81 -1 132 -40q152 280 202 345.5t55 65.5q77 -23 82 -71q-24 -46 -82 -137q-209 -339 -261 -615q-13 -86 -13 -133
q0 -71 37.5 -105.5t97.5 -50.5q-2 -13 -10 -19zM107 64q0 -40 29 -40q68 1 235 366q-3 22 -31 22q-82 0 -157.5 -139t-75.5 -209zM1084 -158l1 -8h9l-1 8h-9zM676 451q24 52 42 70q15 0 48.5 -26.5t35.5 -45.5l-105 -209q80 113 187 237q55 64 81 64h15q33 -16 55 -49l2 -15
q-128 -263 -128 -313q3 -14 44 -14q34 0 78 57l18 -13q-57 -72 -103 -72q-101 4 -116 64q0 116 77 272q0 4 -5 5q-171 -196 -307 -479l-18 -15q-71 15 -92 53l97 234l22 48q-35 -45 -93 -132l-15 15q80 120 120 175.5t60 88.5z" />
    <glyph glyph-name="d_z" unicode="d&#x7a;" horiz-adv-x="1060" 
d="M674 847q48 -1 90 -65q0 -15 -160 -355q-148 -308 -148 -480q0 -125 48 -136q33 0 78 39l10 -15q-45 -64 -80 -64q-108 0 -152 112q-16 52 -16 80q0 169 68 348h-4q-43 -73 -139 -198.5t-183 -125.5q-75 0 -120 100q7 122 167 302q134 150 177 150q49 -3 173 -62
q80 180 129 275t62 95zM80 32h4q90 2 257 253q105 148 116 162q-5 14 -74 27q-141 -131 -237 -275q-66 -86 -66 -167zM1006 547q22 0 53 -57v-26q-345 -407 -356 -438q134 72 235 75q51 -16 65 -81q0 -22 -6 -34h-12q-20 40 -69 40t-259 -86q-28 0 -53 35t-34 59
q1 59 339 440q-1 8 -10 8q-90 -18 -230 -68q-32 0 -36 14v11q0 10 155.5 52t217.5 56z" />
    <glyph glyph-name="d_zdotaccent" unicode="d&#x17c;" horiz-adv-x="1060" 
d="M884 712q24 -49 37 -100l-12 -13q-69 -16 -137 -39l-15 12q0 50 -3 85q53 31 130 55zM674 847q48 -1 90 -65q0 -15 -160 -355q-148 -308 -148 -480q0 -125 48 -136q33 0 78 39l10 -15q-45 -64 -80 -64q-108 0 -152 112q-16 52 -16 80q0 169 68 348h-4
q-43 -73 -139 -198.5t-183 -125.5q-75 0 -120 100q7 122 167 302q134 150 177 150q49 -3 173 -62q80 180 129 275t62 95zM80 32h4q90 2 257 253q105 148 116 162q-5 14 -74 27q-141 -131 -237 -275q-66 -86 -66 -167zM1006 547q22 0 53 -57v-26q-345 -407 -356 -438
q134 72 235 75q51 -16 65 -81q0 -22 -6 -34h-12q-20 40 -69 40t-259 -86q-28 0 -53 35t-34 59q1 59 339 440q-1 8 -10 8q-90 -18 -230 -68q-32 0 -36 14v11q0 10 155.5 52t217.5 56z" />
    <glyph glyph-name="d_zacute" unicode="d&#x17a;" horiz-adv-x="1060" 
d="M763 593q-10 3 -15 22q123 111 188 180q8 3 16 3q44 -40 47 -67q-7 -14 -107 -69q-98 -68 -129 -69zM674 847q48 -1 90 -65q0 -15 -160 -355q-148 -308 -148 -480q0 -125 48 -136q33 0 78 39l10 -15q-45 -64 -80 -64q-108 0 -152 112q-16 52 -16 80q0 169 68 348h-4
q-43 -73 -139 -198.5t-183 -125.5q-75 0 -120 100q7 122 167 302q134 150 177 150q49 -3 173 -62q80 180 129 275t62 95zM80 32h4q90 2 257 253q105 148 116 162q-5 14 -74 27q-141 -131 -237 -275q-66 -86 -66 -167zM1006 547q22 0 53 -57v-26q-345 -407 -356 -438
q134 72 235 75q51 -16 65 -81q0 -22 -6 -34h-12q-20 40 -69 40t-259 -86q-28 0 -53 35t-34 59q1 59 339 440q-1 8 -10 8q-90 -18 -230 -68q-32 0 -36 14v11q0 10 155.5 52t217.5 56z" />
    <glyph glyph-name="eogonek_g" unicode="&#x119;g" horiz-adv-x="894" 
d="M166 255q15 -10 41 -10q49 0 104.5 89.5t55.5 143.5q-146 -116 -201 -223zM540 -460q7 -101 35 -101q45 0 105.5 87t60.5 231q0 86 -14 244q-187 -209 -187 -461zM377 154q-133 -157 -242 -191l1 -1q-38 -58 -68.5 -133t-30.5 -160q0 -53 23 -63q38 0 64.5 26.5
t42.5 53.5q19 -2 19 -17q-26 -53 -56.5 -75t-60.5 -24q-128 20 -131 131q0 51 31 126q26 65 78 136q-41 23 -81 112q4 91 93 251q115 189 218 225q119 -28 119 -74q0 -61 -58 -158t-132 -97q-24 0 -50 6q-70 -131 -70 -209q1 -28 18 -28q108 0 292 223q37 99 119 220
q75 85 145 85q121 0 121 -60q0 -15 -15 -15q0 25 -20 25q-96 0 -212 -237q-60 -141 -60 -240h11q108 56 241 392q42 40 85 40q45 -11 45 -20q-60 -79 -60 -196q0 -47 9 -109q51 51 87 105l17 -12q-36 -56 -95 -116q37 -148 37 -275q0 -192 -80.5 -299.5t-145.5 -107.5
q-131 34 -131 161q0 202 223 473q-25 71 -28 201l-109 -187q-36 -56 -80 -85q-136 15 -136 105q0 43 13 92z" />
    <glyph glyph-name="f_f" unicode="ff" horiz-adv-x="728" 
d="M238 373q-80 -183 -108 -339q-31 -168 -31 -277q0 -146 34 -310q-18 -15 -44 -15q-63 0 -103 94q-17 96 -17 180q0 169 31.5 322.5t97.5 337.5q-38 -5 -97 -16l2 27q49 15 111 24q71 206 226 369q83 83 158 86q153 -28 153 -64q-19 -62 -49 -79h-5q-10 0 -10 10l5 59
l-10 5q-202 -80 -330 -376q65 0 166 -7q25 49 51 85q132 201 247 213q115 -10 134 -84q-5 -74 -66 -128l-10 10q36 55 38 105q-4 13 -38 19q-78 -33 -143 -110q-49 -58 -88 -130q108 -12 214 -55l-13 -22q-110 28 -219 40q-79 -184 -109 -317.5t-30 -250.5q12 -179 59 -189
q17 0 27 17l9 -2q-13 -47 -28 -54q-175 22 -188 266q4 170 50.5 320t84.5 231q-87 4 -162 5z" />
    <glyph glyph-name="f_f_r" unicode="ffr" horiz-adv-x="1110" 
d="M713 302q-85 34 -188 45q-79 -184 -109 -317.5t-30 -250.5q12 -179 59 -189q17 0 27 17l9 -2q-13 -47 -28 -54q-175 22 -188 266q4 170 50.5 320t84.5 231q-87 4 -162 5q-80 -183 -108 -339q-31 -168 -31 -277q0 -146 34 -310q-18 -15 -44 -15q-63 0 -103 94
q-17 96 -17 180q0 169 31.5 322.5t97.5 337.5q-38 -5 -97 -16l2 27q49 15 111 24q71 206 226 369q83 83 158 86q153 -28 153 -64q-19 -62 -49 -79h-5q-10 0 -10 10l5 59l-10 5q-202 -80 -330 -376q65 0 166 -7q25 49 71 121q156 219 271 231q115 -10 134 -84
q-5 -74 -66 -128l-10 10q36 55 38 105q-4 13 -38 19q-78 -33 -157 -127.5t-118 -166.5q102 -11 181 -58q44 95 62 125q24 52 42 70q15 0 48.5 -26.5t35.5 -45.5l-105 -209q80 113 187 237q55 64 81 64h15q33 -16 55 -49l2 -15q-128 -263 -128 -313q3 -14 24 -14q24 0 68 57
l18 -13q-57 -72 -93 -72q-81 4 -96 64q0 116 77 272q0 4 -5 5q-171 -196 -307 -479l-18 -15q-71 15 -92 53l97 234q10 24 21 46z" />
    <glyph glyph-name="f_r" unicode="fr" horiz-adv-x="901" 
d="M177 -60q0 72 -31 154q-36 -83 -85.5 -238t-50.5 -268q0 -51 8 -51q45 23 101.5 151t57.5 252zM362 534l112 103t44 76q-16 0 -36 -16q-60 -67 -120 -163zM374 148q-52 -41 -110 -46q-83 2 -102 14q51 -64 53 -176q0 -129 -71 -284q-80 -163 -171 -163q-97 45 -97 111
q2 142 51 293q42 133 138 357q-39 -45 -69 -92l-19 13q51 76 126 163q92 195 252 402q22 29 47 30q140 -14 140 -56q0 -22 -3.5 -34.5t-14.5 -26.5q-104 -110 -227 -220q-61 -111 -127 -288q33 -17 95 -17q63 11 120 62q38 138 116 295q34 58 55 58q61 -21 87 -53v-8
q-54 -86 -106 -231h4q100 212 199 321q85 100 117 100q107 -24 110 -64q-2 -17 -99 -186q-56 -103 -67 -181q0 -79 30 -97q30 0 74 63l15 -14q-46 -68 -94 -69q-119 32 -126 143q1 69 35 153t94 192q-39 -20 -137 -153q-157 -258 -211 -507q-11 -12 -49 -12q-49 14 -81 72
q6 65 23 136z" />
    <glyph glyph-name="g_g" unicode="gg" horiz-adv-x="1102" 
d="M563 185q-97 -104 -151 -143q4 -36 4 -83q-1 -83 -21 -207h26q140 0 246 -15q68 187 144 359v4q-128 -153 -158 -153q-112 15 -112 132q0 46 22 106zM253 -359q-105 -14 -202 -41q-9 -22 -9 -76q0 -64 27 -64q44 0 111 67q45 45 73 114zM283 -254q14 84 30 239
q-153 -118 -223 -271l10 2q88 21 183 30zM590 246q10 21 23 44q71 128 165 199q86 54 146 54q121 -15 121 -67q-1 -8 -13 -12l-19 12q-120 0 -245 -160t-125 -288q1 -56 9 -56q99 75 223 268q73 135 145 195q17 3 25 3q39 0 104 -42v-4q-78 -65 -124 -136
q-158 -243 -238 -536q71 -36 104 -76q57 -92 57 -100q0 -50 -105 -73q0 3 -3 3q57 65 57 95q0 29 -140 57q-16 -50 -16 -152q0 -52 16 -73q-3 -13 -16 -13q-75 0 -99.5 41.5t-24.5 60.5q0 45 19 152q-57 13 -162 13q-54 0 -106 -3q-38 -105 -104 -166q-81 -78 -163 -79
q-97 27 -102 143q0 19 2 34q-123 -40 -233 -104q-25 -17 -25 -44q-1 -6 -8 -7q-43 27 -43 83q0 98 348 189q73 149 268 312q-5 32 -5 64q0 55 14 139l-141 -164q-46 -49 -95 -69q-112 38 -114 128q27 146 217 338q86 71 159 71q103 -4 107 -95q-3 -10 -18 -12q-2 20 -28 30
q-88 0 -239 -196q-85 -127 -103 -225l11 -2q117 35 309 341q36 24 78 26q39 -6 53 -30q-73 -67 -95 -182q-8 -46 -11 -108q57 38 183 179z" />
    <glyph glyph-name="g_j" unicode="gj" horiz-adv-x="825" 
d="M-173 -466q1 -65 30 -81t70 -16q69 38 138 154t120 271q-90 -81 -223 -165.5t-135 -162.5zM752 570q-83 20 -83 43q0 20 33 74.5t66 96.5q42 0 102 -37q0 -55 -48 -116t-70 -61zM312 -67q-50 -182 -102.5 -294t-121 -172t-165.5 -64q-68 3 -100.5 41t-35.5 91
q4 88 142.5 182t258.5 186q34 103 48 174q-62 -103 -122 -117q-111 40 -134 129q3 80 30 165q59 137 130.5 211.5t122.5 77.5q102 -23 116 -119q-5 -20 -30 -28l-12 3q0 69 -17 72q-74 -40 -140 -138q-92 -152 -99 -293q2 -42 24 -43q72 14 161 201q77 151 113 153
q38 -7 75 -48l-1 -4q-52 -86 -88 -186q-17 -44 -39 -126q203 233 325 529q55 0 106 -76v-5q-68 -369 -121 -566.5t-181 -413.5q-174 -265 -447 -265q-187 0 -320 165q0 16 10 16q143 -103 217 -103q402 0 603 641q59 189 118 491l-2 10q-112 -257 -322 -477z" />
    <glyph glyph-name="g_r" unicode="gr" horiz-adv-x="983" 
d="M93 53q1 -27 22 -28q66 11 158 238q59 123 99 198q-1 15 -28 22q-100 -60 -164 -166q-59 -108 -73 -159t-14 -105zM-2 -426q20 -17 56 -171q19 149 30 213q-30 -9 -86 -42zM352 130q-64 -160 -122 -379q138 49 268 49q87 -2 148 -39t64 -104q-1 -31 -68 -85l-10 1
q-6 3 -6 13q10 14 10 30q0 23 -36.5 53.5t-105.5 32.5q-135 0 -286 -51q-39 -237 -40 -320q-3 -19 -20 -20q-81 15 -102 62q-53 178 -74 185q-44 0 -171 -96q-15 -6 -23 -6q-31 5 -38 89q60 51 164 102q126 59 198 82q40 164 73 275q-33 -19 -92 -32q-24 0 -92 61
q-15 31 -16 89q30 173 166 332q75 94 160 94q75 -27 111 -60q22 16 34 17q79 -25 81 -63q-58 -64 -96 -140q-23 -43 -45 -92q148 163 217 215q99 90 102 93q35 -5 58.5 -29t25.5 -43l-109 -206q80 113 164 198q55 64 81 64h15q33 -16 55 -49l2 -15q-135 -224 -135 -274
q13 -11 24 -11q54 0 103 59l17 -12q-53 -78 -137 -78q-79 0 -86 64q0 76 30 154q0 4 -5 5q-113 -92 -251 -386l-18 -15q-71 15 -92 53q5 43 27 94q29 85 66 150q65 119 104 182q-98 -72 -292 -293z" />
    <glyph glyph-name="i_t" unicode="it" horiz-adv-x="760" 
d="M338 13q-103 -135 -182 -143q-50 2 -101.5 44t-53.5 98q1 82 93 277l-94 -119l-17 14q85 106 142 197l99 159l15 12q55 -12 86 -67l4 -11q-221 -428 -221 -500q0 -44 8.5 -60t27.5 -18q72 5 189 128q-10 25 -11 53q3 143 163 394l41 63q-16 3 -80.5 24.5t-117.5 49.5v1
q-30 13 -49 26q3 61 50 109l11 2q35 -6 97 -34l2 -6q-27 -47 -47 -92q23 -6 41 -9q70 -28 119 -33q108 156 161 180q90 -37 92 -63q-3 -10 -95 -109l-29 -35q63 -12 127 -22l-5 -16q-68 0 -143 8q-197 -265 -229 -466q0 -105 51 -105q69 0 286 272q15 0 15 -18
q-219 -286 -324 -287q-36 8 -85 56q-23 21 -36 46z" />
    <glyph glyph-name="i_t_t" unicode="itt" horiz-adv-x="1069" 
d="M650 -48q4 44 42 177q117 351 178 485l-149 31q-49 -85 -126 -241q-118 -303 -120 -415q3 -51 55 -51q39 2 120 14zM282 630l14 6q56 -6 87 -61l4 -11q-221 -428 -221 -500q0 -44 8.5 -60t27.5 -18q17 0 50 37l5 -6q-10 -41 -43 -57q-50 2 -101.5 44t-53.5 98
q1 82 93 277l-153 -212l-17 14q144 199 201 290zM369 836l5 1q54 -1 103 -32l4 -8q-5 -27 -23 -57q98 -22 133 -29l35 82q7 25 32 27q74 -23 95 -66q-2 -25 -14 -68l147 -31q59 165 147 307q15 14 37 16q97 -35 101 -76q-102 -192 -137 -277q140 -26 179 -34q27 -6 33 -19
l12 -30l-5 -16q-108 23 -249 47q-64 -118 -138.5 -369.5t-79.5 -409.5q4 -80 46 -89q33 2 67 48l14 -9q-16 -78 -109 -97q-148 59 -159 220q0 32 3 75q-7 -20 -67.5 -43.5t-105.5 -25.5q-120 45 -121 195q3 116 219 608l-135 24l-103 39q3 25 10 41z" />
    <glyph glyph-name="j_j" unicode="jj" horiz-adv-x="607" 
d="M313 749q74 -18 74 -38q0 -18 -29.5 -66.5t-58.5 -85.5q-37 0 -90 33q0 49 42.5 103t61.5 54zM561 776q96 -22 96 -48v-21q-29 -37 -67 -118l-22 -1q-45 16 -58 70q22 67 51 118zM186 155q-43 -192 -77 -317q68 -14 132 -22q22 53 38 106q55 187 75 301q-51 -48 -168 -68
zM194 -287q-66 6 -127 15q-79 -157 -167 -236q-99 -77 -220 -81q-69 0 -109.5 39t-54.5 74l18 10q55 -49 147 -49q74 0 150 83t118 183q-78 14 -169 14q-177 0 -234.5 -54.5t-57.5 -92.5t46 -59q0 -7 -7 -7q-71 0 -103 138q0 63 99 119t260 62q110 0 198 -15q63 171 113 449
q-57 -86 -111 -152l-13 14q62 84 128.5 224t81.5 141q42 -6 78 -64q-8 -39 -23 -86l-44 -205q103 21 134 53q36 37 46 66q38 154 81 206q38 13 67 13q58 -2 62 -27q-19 -87 -72 -163q-69 -333 -135 -519h31q122 3 235 17.5t187 55t74 64.5q-1 25 -57 39l13 15
q102 -26 114 -77q0 -47 -25 -87q-40 -56 -164 -88q-170 -45 -298 -45q-78 0 -151 4q-15 -31 -29 -55q-148 -273 -360 -373q-104 -39 -190 -39q-137 0 -299 104l-4 10q0 5 6 5q130 -64 213 -64q223 0 424 259q57 81 100 162z" />
    <glyph glyph-name="j_s" unicode="js" horiz-adv-x="813" 
d="M-184 -635q76 11 194 189q84 120 92 373q-95 -91 -208.5 -223.5t-113.5 -270.5q1 -63 36 -68zM315 578q-83 20 -83 43q0 20 33 74.5t66 96.5q42 0 102 -37q0 -55 -48 -116t-70 -61zM542 284l173 119v1q27 20 27 47q0 9 -29 9q-28 0 -129.5 -49t-101.5 -91q2 -11 60 -36z
M538 251q-144 -95 -312 -227q-9 -377 -109 -521q-46 -73 -126.5 -126t-165.5 -54q-20 3 -51 38t-33 70q4 141 118.5 277t240.5 256q-14 90 -14 167q0 76 28 202q-59 -100 -117 -167l-13 17q28 38 116 185q49 96 81 140l18 6q92 -17 105 -38l-3 -17q-86 -180 -86 -279l8 -124
q160 130 290 207q-76 39 -91 65q-20 32 -22 64q4 68 117 116.5t152 48.5q37 0 80.5 -36t44.5 -56q-18 -62 -61 -73l-166 -120l18 -6q101 -41 122 -82q27 -45 33 -108q-3 -57 -107 -102t-185 -46q-68 6 -86 40.5t-18 62.5q16 68 67 75l8 -14q-28 -21 -28 -47q8 -9 41 -9
q40 0 139.5 42.5t115.5 75.5q-5 32 -125 87q-13 5 -24 10z" />
    <glyph glyph-name="k_eogonek" unicode="k&#x119;" horiz-adv-x="980" 
d="M212 209q106 8 278 247q12 31 12 48q-106 -11 -302 -287q0 -8 12 -8zM756 255q15 -10 41 -10q49 0 104.5 89.5t55.5 143.5q-146 -116 -201 -223zM572 41q-78 -216 -186 -216q-85 0 -140 124q-68 175 -80 196q-8 0 -96 -188l-16 -4q-100 33 -100 88q0 63 87 240.5
t253 399.5q68 96 188 208q64 -22 86 -65l-190 -215q-175 -229 -276 -472h12q33 85 188 272q114 128 172 128q54 0 104 -80q0 -105 -101 -205.5t-186 -119.5q86 -259 163 -259q27 0 103 199q0 2 -1 3q4 91 93 251q115 189 218 225q119 -28 119 -74q0 -61 -58 -158t-132 -97
q-24 0 -50 6q-70 -131 -70 -209q1 -28 18 -28q108 0 292 223l15 -18q-153 -195 -276 -233l1 -1q-38 -58 -68.5 -133t-30.5 -160q0 -53 23 -63q38 0 64.5 26.5t42.5 53.5q19 -2 19 -17q-26 -53 -56.5 -75t-60.5 -24q-128 20 -131 131q0 51 31 126q26 65 78 136q-33 18 -65 78
z" />
    <glyph glyph-name="k_r" unicode="kr" horiz-adv-x="1100" 
d="M212 209q106 8 278 247q12 31 12 48q-106 -11 -302 -287q0 -8 12 -8zM556 -15q-62 -160 -170 -160q-85 0 -140 124q-68 175 -80 196q-8 0 -96 -188l-16 -4q-100 33 -100 88q0 63 87 240.5t253 399.5q68 96 188 208q64 -22 86 -65l-190 -215q-175 -229 -276 -472h12
q33 85 188 272q114 128 172 128q54 0 104 -80q0 -105 -101 -205.5t-186 -119.5q86 -259 163 -259q27 0 86 138l-1 1q20 211 150 473q34 58 55 58q61 -21 87 -53v-8q-54 -86 -106 -231h4q99 195 209 322q85 100 117 100q107 -24 110 -64q-2 -17 -99 -186q-56 -103 -67 -181
q0 -79 30 -97q30 0 70 61l15 -15q-46 -65 -90 -66q-119 32 -126 143q1 69 35 153t93 197q-63 -43 -141 -153q-162 -264 -216 -513q-11 -12 -49 -12q-37 10 -64 45z" />
    <glyph glyph-name="k_s" unicode="ks" horiz-adv-x="1019" 
d="M212 209q106 8 278 247q12 31 12 48q-106 -11 -302 -287q0 -8 12 -8zM556 -16q-62 -159 -170 -159q-85 0 -140 124q-68 175 -80 196q-8 0 -96 -188l-16 -4q-100 33 -100 88q0 63 87 240.5t253 399.5q68 96 188 208q64 -22 86 -65l-190 -215q-175 -229 -276 -472h12
q33 85 188 272q114 128 172 128q54 0 104 -80q0 -105 -101 -205.5t-186 -119.5q86 -259 163 -259q28 0 91 151l3 -1q16 68 67 75l8 -14q-28 -21 -28 -47q8 -9 41 -9q40 0 139.5 42.5t115.5 75.5q-5 32 -125.5 86.5t-140 87t-21.5 64.5q4 68 117 116.5t152 48.5
q37 0 80.5 -36t44.5 -56q-20 -68 -71 -75l-8 14q27 20 27 47q0 9 -29 9q-28 0 -129.5 -49t-101.5 -91q2 -14 103 -54.5t122 -81.5q27 -45 33 -108q-3 -57 -107 -102t-185 -46q-68 6 -86 41q-6 11 -10 23z" />
    <glyph glyph-name="lslash_lslash" unicode="&#x142;&#x142;" horiz-adv-x="770" 
d="M791 645q49 3 178 9l8 -25q-145 -7 -211 -13q-5 -7 -10 -13q-76 -92 -160.5 -234.5t-85.5 -280.5q0 -50 15 -78.5t56 -28.5q29 0 192 228q15 0 15 -15q-165 -245 -220 -246q-76 10 -125.5 57.5t-51.5 110.5q1 35 6 71q-75 -116 -133 -171q-63 -58 -105 -65
q-110 35 -124 111q0 105 57 257q-28 -56 -83 -136l-18 13q65 94 139 237q8 16 16 30l-103 -40l-7 29l130 51q84 160 121 207q95 120 116 120q66 0 101 -53q-85 -78 -117 -130q-27 -42 -53 -88q148 44 285 66q51 69 101 127q144 148 192 150q84 -21 86 -47q-3 -10 -94 -86
q-55 -57 -113 -124zM595 591q-136 -25 -281 -70q-147 -280 -147 -526q32 11 78.5 46t164.5 211q11 57 69 165q58 94 116 174z" />
    <glyph glyph-name="lslash_t" unicode="&#x142;t" horiz-adv-x="693" 
d="M372 99q-120 -150 -224 -151q-56 10 -105.5 57.5t-51.5 110.5q3 143 87.5 300.5t241.5 335.5q144 148 192 150q84 -21 86 -47q-3 -10 -94 -86q-110 -113 -247 -314q-15 -22 -48 -76q74 62 235 150l14 -21q-169 -95 -300 -224q-47 -104 -58 -196q0 -50 20 -78.5t41 -28.5
q85 0 211 155q13 140 162 374l41 63q-16 3 -63 14t-100 39l11 18q58 -14 93.5 -21t84.5 -12q108 156 161 180q90 -37 92 -63q-3 -10 -95 -109l-29 -35q63 -12 127 -22l-5 -16q-68 0 -143 8q-197 -265 -229 -466q0 -105 21 -105q29 0 188 222q15 0 15 -18
q-161 -236 -216 -237q-16 8 -65 56q-43 40 -51 93z" />
    <glyph glyph-name="m_b" unicode="mb" horiz-adv-x="1453" 
d="M244 567q63 -6 104 -89q0 -86 -73 -239l2 -7q241 312 301 313q56 -2 80 -92q-50 -85 -101.5 -188t-58.5 -187h4q130 208 231 317q125 -24 125 -46v-5q-12 -29 -12 -79q0 -318 163 -426q95 0 184 129q8 0 8 -4q-27 -95 -89 -155q-32 -25 -53 -25q-58 0 -155 25
q-97 43 -150 189q-35 83 -36 317l-5 4q-175 -190 -214 -334q-37 0 -83 47q-38 28 -38 91q33 145 169 364v4q-134 -127 -278 -330q-134 -220 -155 -226q-30 0 -79 117q180 338 180 409q0 21 -8 21t-86 -127q-61 -105 -121 -190l-21 14q62 84 115 184q102 201 150 204z
M1056 17q3 -1 5 -1q55 4 150 170q112 221 114 297q-3 14 -15 25q-55 -13 -125 -96q-37 -44 -83 -109q-21 -76 -33 -141.5t-13 -144.5zM1054 -18v-23l-10 -7q-89 41 -101 126q0 178 91 397t153 319.5t84 101.5q38 -7 96 -86q-55 -61 -135 -189q-66 -124 -108 -243
q47 61 76 89q65 63 123 65q25 -3 57 -53.5t33 -89.5q-16 -152 -168 -362q-74 -73 -122 -75q-31 3 -69 30z" />
    <glyph glyph-name="m_m" unicode="mm" horiz-adv-x="1770" 
d="M1565 -56q-95 27 -95 132q0 75 194 371l-5 6q-71 -68 -345 -455l-23 -24h-12q-54 0 -90 72q0 61 225 468v5q-72 -68 -193 -242.5t-176 -278.5q-11 -17 -23 -24q-99 40 -99 83q2 58 43 148t107 200q73 119 96 119q42 -3 85 -60l-3 -13q-110 -165 -170 -334
q169 256 238.5 338.5t108.5 104.5q107 0 107 -59q-94 -168 -200 -411h5l186 245t176 195q103 -40 103 -72q-18 -46 -129 -208q-108 -173 -111 -267q3 -7 10 -8q107 118 200 236l15 -15l-134.5 -165t-90.5 -87zM244 567q63 -6 104 -89q0 -86 -73 -239l2 -7q241 312 301 313
q56 -2 80 -92q-50 -85 -101.5 -188t-58.5 -187h4q130 208 231 317q125 -24 125 -46v-5q-12 -29 -12 -79q0 -318 163 -426q95 0 184 129q8 0 8 -4q-27 -95 -89 -155q-32 -25 -53 -25q-58 0 -155 25q-97 43 -150 189q-35 83 -36 317l-5 4q-175 -190 -214 -334q-37 0 -83 47
q-38 28 -38 91q33 145 169 364v4q-134 -127 -278 -330q-134 -220 -155 -226q-30 0 -79 117q180 338 180 409q0 21 -8 21t-86 -127q-61 -105 -121 -190l-21 14q62 84 115 184q102 201 150 204z" />
    <glyph glyph-name="m_p" unicode="mp" horiz-adv-x="1485" 
d="M998 -12q99 30 186 148q59 70 145 252q29 67 36 113q-2 10 -15 18q-79 -1 -255 -348q-40 -67 -97 -183zM1010 538q-237 -426 -308 -513q-72 -87 -91 -87q-95 27 -95 132q0 75 194 371l-5 6q-71 -68 -345 -455l-23 -24h-12q-54 0 -90 72q0 61 225 468v5
q-72 -68 -193 -242.5t-176 -278.5q-11 -17 -23 -24q-99 40 -99 83q2 58 43 148t107 200q73 119 96 119q42 -3 85 -60l-3 -13q-110 -165 -170 -334q169 256 238.5 338.5t108.5 104.5q107 0 107 -59q-94 -168 -200 -411h5l186 245t176 195q103 -40 103 -72q-18 -46 -129 -208
q-108 -173 -111 -267q3 -7 10 -8q107 118 241 352t140 243q8 13 27 14q29 -6 60.5 -40.5t35.5 -78.5q0 -40 -18 -99t-97 -268l3 -4q238 469 322 471q98 -20 120 -127q-15 -136 -127 -314q-117 -186 -284 -188q-33 0 -63 16l-61 -146q-65 -193 -133 -348q-7 -14 -28 -15
q-49 7 -98 62l1 7q80 193 137 349q45 100 132 370q72 198 83 281q0 15 -4 32z" />
    <glyph glyph-name="m_r" unicode="mr" horiz-adv-x="1415" 
d="M282 628q29 0 42 -34q-21 -76 -165 -502q-21 -56 -39 -163l158 324q118 193 177 257q97 -21 97 -59q-102 -386 -102 -422q0 -8 5 -8q43 26 202 325q25 37 38 37q88 -11 88 -46q0 -418 136 -503q79 0 127 88l8 -4q-18 -96 -126 -118q-197 0 -246 309l-25 156
q-13 -4 -69 -109q-98 -165 -121 -169q-130 27 -135 76q29 126 103 357h-5q-50 -49 -292 -534q-21 -34 -42 -34q-122 34 -122 64q25 99 145 433h-4l-121 -192l-19 17q156 232 227 432q34 22 80 22zM1367 672q107 -24 110 -64q-2 -17 -99 -186q-56 -103 -67 -181q0 -79 30 -97
q30 0 74 63l15 -14q-46 -68 -94 -69q-119 32 -126 143q1 69 35 153t94 192q-39 -20 -137 -153q-157 -258 -211 -507q-11 -12 -49 -12q-49 14 -81 72q20 211 150 473q34 58 55 58q61 -21 87 -53v-8q-54 -86 -106 -231h4q100 212 199 321q85 100 117 100z" />
    <glyph glyph-name="m_s" unicode="ms" horiz-adv-x="1206" 
d="M782 -251q95 0 151.5 102t64.5 202q-221 -109 -230 -265q0 -37 14 -39zM822 194q-51 -85 -120 -169q-72 -87 -91 -87q-95 27 -95 132q0 75 194 371l-5 6q-71 -68 -345 -455l-23 -24h-12q-54 0 -90 72q0 61 225 468v5q-72 -68 -193 -242.5t-176 -278.5q-11 -17 -23 -24
q-99 40 -99 83q2 58 43 148t107 200q73 119 96 119q42 -3 85 -60l-3 -13q-110 -165 -170 -334q169 256 238.5 338.5t108.5 104.5q107 0 107 -59q-94 -168 -200 -411h5l186 245t176 195q103 -40 103 -72q-18 -46 -129 -208q-108 -173 -111 -267q3 -7 10 -8q97 107 173 220
q33 50 42.5 79.5t12.5 65.5q12 154 208 225q55 -5 111 -88q-19 -89 -82 -128l-5 12q18 26 26 117q-161 -98 -164 -235q0 -74 85 -140q100 35 159 90l32 35l16 -16l-30 -38q-56 -47 -158 -91q50 -62 50 -147q-16 -117 -113 -221q-57 -55 -107 -56q-144 44 -146 135
q10 178 260 290q-96 66 -129 169q-16 -23 -40 -53z" />
    <glyph glyph-name="r_l" unicode="rl" horiz-adv-x="903" 
d="M800 483q300 334 303 441l-1 10q-55 -7 -136 -134t-166 -317zM552 214q-81 -89 -116 -90q-119 32 -126 143q1 69 35 153t94 192q-39 -20 -137 -153q-157 -258 -211 -507q-11 -12 -49 -12q-49 14 -81 72q20 211 150 473q34 58 55 58q61 -21 87 -53v-8q-54 -86 -106 -231h4
q100 212 199 321q85 100 117 100q107 -24 110 -64q-2 -17 -99 -186q-56 -103 -67 -181q0 -79 30 -97q26 0 131 125q24 65 59 149q179 418 300 515q62 42 186 48q28 0 31 -35q-5 -142 -374 -525q-80 -152 -112 -274.5t-32 -174.5q83 0 284 248l18 -16q-109 -135 -184 -203.5
t-130 -68.5q-87 27 -108 130q2 35 19 84q9 30 23 68z" />
    <glyph glyph-name="r_p" unicode="rp" horiz-adv-x="1089" 
d="M667 41q99 30 149 95q59 70 125 232q29 67 36 113q-2 10 -15 18q-79 -1 -225 -328q-40 -67 -70 -130zM624 371q23 73 27 100q5 47 5 77q0 11 -12 16q8 13 27 14q29 -6 60.5 -40.5t35.5 -78.5q0 -40 -18 -99t-97 -268l3 -4q208 449 292 451q98 -20 120 -127
q-15 -136 -107 -294q-90 -133 -184 -153q-96 18 -126 34l-88 -199q-65 -193 -133 -348q-7 -14 -28 -15q-49 7 -98 62l1 7q80 193 137 349q45 100 132 370l26 73q-124 -176 -176 -176q-89 0 -96 64q0 76 63 210q0 4 -5 5q-146 -148 -273 -417l-18 -15q-71 15 -92 53
q5 43 16 84q29 70 66 135l82 149q-74 -87 -112 -150q-43 -53 -70 -93l-14 22l71 89q40 63 121.5 161.5t89.5 106.5q15 0 48.5 -26.5t35.5 -45.5l-112 -214q80 113 179 227q55 64 81 64h15q33 -16 55 -49l2 -15q-150 -253 -150 -303q3 -11 24 -11q42 0 194 218z" />
    <glyph glyph-name="r_r" unicode="rr" horiz-adv-x="1023" 
d="M502 179q-59 -57 -86 -57q-81 4 -96 64q0 116 77 272q0 4 -5 5q-171 -196 -307 -479l-18 -15q-71 15 -92 53l97 234l22 48q-35 -45 -93 -132l-15 15q80 120 120 175.5t60 88.5q24 52 42 70q15 0 48.5 -26.5t35.5 -45.5l-105 -209q80 113 187 237q55 64 81 64h15
q33 -16 55 -49l2 -15q-128 -263 -128 -313q3 -14 24 -14q20 0 92 75q38 123 106 260q34 58 55 58q61 -21 87 -53v-8q-54 -86 -106 -231h4q100 212 199 321q85 100 117 100q107 -24 110 -64q-2 -17 -99 -186q-56 -103 -67 -181q0 -79 30 -97q30 0 74 63l15 -14
q-46 -68 -94 -69q-119 32 -126 143q1 69 35 153t94 192q-39 -20 -137 -153q-157 -258 -211 -507q-11 -12 -49 -12q-49 14 -81 72q8 80 31 167z" />
    <glyph glyph-name="r_s" unicode="rs" horiz-adv-x="780" 
d="M276 -365q0 -23 23 -29q105 0 203 358l8 40q-197 -156 -234 -369zM528 190q-45 -65 -92 -66q-119 32 -126 143q1 69 35 153t67 146q-39 -20 -116 -123q-151 -242 -205 -491q-11 -12 -49 -12q-49 14 -81 72q20 211 150 473q34 58 55 58q61 -21 87 -53v-8
q-54 -86 -106 -231h4q89 173 145 237q112 138 144 138q107 -24 110 -64q-2 -17 -72 -140q-56 -103 -67 -181q0 -79 30 -97q26 0 53 36t38 55q10 87 38 140q78 150 162 150q108 0 138 -58q-4 -35 -24 -48h-6l-35 54h-6q-131 -107 -134 -369q61 35 116 104l14 -20
q-78 -91 -137 -118q-104 -510 -255 -510q-162 17 -162 58q0 190 269 425q16 51 18 147z" />
    <glyph glyph-name="r_t" unicode="rt" horiz-adv-x="785" 
d="M473 169q-59 -47 -87 -47q-81 4 -96 64q0 76 59 201q0 4 -5 5q-123 -125 -259 -408l-18 -15q-71 15 -92 53l97 234l22 48q-35 -45 -93 -132l-15 15q80 120 120 175.5t60 88.5q24 52 42 70q15 0 48.5 -26.5t35.5 -45.5l-105 -209q80 113 187 237q55 64 81 64h15
q33 -16 55 -49l2 -15q-158 -263 -158 -313q3 -14 24 -14q23 0 94 58q35 99 100 239q38 80 72 145q-50 1 -118 17q-94 21 -151 68t-60 82q0 26 29 43t49 17v-5q-50 -31 -52 -64q18 -25 104 -59t234 -35l83 120q72 104 105 119q39 -4 89 -59l6 -20q-63 -69 -124 -157
q89 6 195 21q175 25 298 58l7 -22q-122 -58 -287 -90q-130 -25 -257 -34q-81 -129 -158 -292q-79 -195 -86 -311q0 -12 10 -12q50 2 216 239l19 -10q-189 -275 -250 -277q-76 18 -116 98q0 52 29 142z" />
    <glyph glyph-name="r_z" unicode="r&#x7a;" horiz-adv-x="939" 
d="M557 385q-14 -24 -43 -29q-121 22 -124 77q1 66 19.5 109t55.5 109q-39 -20 -122 -134q-198 -316 -252 -565q-11 -12 -49 -12q-49 14 -81 72q20 211 150 473q34 58 55 58q61 -21 87 -53v-8q-54 -86 -106 -231h4q100 212 238 393q85 100 117 100q107 -24 110 -64
q-2 -17 -44 -73q-79 -123 -81 -163q0 -39 30 -57q9 0 16 5q-4 5 -5 12v11q0 10 143 49q184 68 226 68q53 -24 83 -84v-16q-499 -344 -499 -394q190 37 268 37q83 0 109 -24.5t26 -41.5q0 -12 -6 -17l-13 1q-9 39 -48 39q-79 0 -251 -53.5t-193 -56.5q-73 57 -73 118
q1 59 497 414q-4 11 -13 12q-216 -78 -222 -82q-5 0 -9 1z" />
    <glyph glyph-name="s_f" unicode="sf" horiz-adv-x="916" 
d="M315 172q-5 32 -125.5 86.5t-140 87t-21.5 64.5q4 68 117 116.5t152 48.5q37 0 80.5 -36t44.5 -56q-20 -68 -71 -75l-8 14q27 20 27 47q0 9 -29 9q-28 0 -129.5 -49t-101.5 -91q2 -14 103 -54.5t122 -81.5q27 -45 33 -108q-3 -57 -107 -102t-185 -46q-68 6 -86 40.5
t-18 62.5q16 68 67 75l8 -14q-28 -21 -28 -47q8 -9 41 -9q40 0 139.5 42.5t115.5 75.5zM543 82q-46 -158 -51 -285q1 -179 48 -192q32 125 32 250q-1 105 -29 227zM404 207l1 8l64 29l14 28q54 130 134 229q143 193 259 198q114 -17 129 -92q-10 -73 -74 -124l-9 11
q39 53 44 102q-3 14 -37 22q-80 -29 -150 -102.5t-123 -173.5l-18 -33q39 16 112 39.5t132 24.5q63 -3 70 -35q-2 -17 -16 -23l-5 -1q-8 24 -48 29q-54 0 -123 -22.5t-142 -57.5q-35 -75 -55 -134q50 -84 56 -276q-17 -264 -74 -288q-173 33 -175 217q1 181 71 384
q-12 17 -37 41z" />
    <glyph glyph-name="s_p" unicode="sp" horiz-adv-x="986" 
d="M315 172q-5 32 -125.5 86.5t-140 87t-21.5 64.5q4 68 117 116.5t152 48.5q37 0 80.5 -36t44.5 -56q-20 -68 -71 -75l-8 14q27 20 27 47q0 9 -29 9q-28 0 -129.5 -49t-101.5 -91q2 -14 103 -54.5t122 -81.5q27 -45 33 -108q-3 -57 -107 -102t-185 -46q-68 6 -86 40.5
t-18 62.5q16 68 67 75l8 -14q-28 -21 -28 -47q8 -9 41 -9q40 0 139.5 42.5t115.5 75.5zM317 -548q-7 -14 -28 -15q-49 7 -98 62l1 7q80 193 137 349q45 100 132 370q72 198 83 281q0 27 -12 58q8 13 27 14q29 -6 60.5 -40.5t35.5 -78.5q0 -40 -18 -99t-97 -268l3 -4
q238 469 322 471q98 -20 120 -127q-15 -136 -127 -314q-117 -186 -284 -188q-33 0 -63 16l-61 -146q-65 -193 -133 -348zM528 -12q99 30 186 148q59 70 145 252q29 67 36 113q-2 10 -15 18q-79 -1 -255 -348q-40 -67 -97 -183z" />
    <glyph glyph-name="s_s" unicode="ss" horiz-adv-x="745" 
d="M-22 -252q95 0 151.5 102t64.5 202q-221 -159 -230 -265q0 -37 14 -39zM296 -357q1 -25 26 -41q75 16 145 169.5t70 189.5q-2 17 -16 35q-204 -196 -225 -353zM368 183q-49 -73 -125 -107q50 -62 50 -147q-16 -117 -113 -221q-57 -55 -107 -56q-144 44 -146 135
q10 128 258 287q-94 69 -127 172q-21 -29 -54 -71l-16 15q44 57 49 82t8 61q12 154 208 225q55 -5 111 -88q-19 -89 -82 -128l-5 12q18 26 26 117q-161 -98 -164 -235q0 -74 91 -139q82 46 128 104q-10 23 -10 54q0 102 118 181t195 81q86 -42 91 -90q-14 -50 -31 -50
q-15 0 -15 35q0 12 -20 15q-109 -61 -168 -119t-59 -143q0 -35 88 -115q29 21 95 63.5t103 93.5l14 -15q-35 -54 -104 -100t-90 -61q60 -57 60 -130q0 -118 -106 -281q-60 -91 -136 -97q-76 16 -120 120q0 133 242 376q-99 111 -137 164z" />
    <glyph glyph-name="s_z" unicode="s&#x7a;" horiz-adv-x="802" 
d="M-179 -284q0 -23 23 -29q105 0 203 358q-1 13 -8 14q-181 -180 -218 -343zM439 395q-148 -115 -226 -193q-107 -561 -265 -561q-162 17 -162 58q0 140 272 437q15 44 17 128l-5 -2q-19 -24 -58 -82l-16 20q38 50 119 226q78 150 162 150q108 0 138 -58q-4 -35 -24 -48h-6
l-35 54h-6q-131 -107 -132 -274q86 72 161 126q-7 3 -9 9v11q0 10 157.5 83t219.5 87q22 0 53 -57v-26q-372 -449 -383 -480q134 72 235 75q51 -16 65 -111q0 -22 -6 -34h-12q-20 40 -69 40t-245 -90q-28 0 -64.5 33.5t-36.5 94.5q1 59 366 482q-1 8 -10 8
q-81 -34 -195 -106z" />
    <glyph glyph-name="t_h" unicode="th" horiz-adv-x="917" 
d="M316 89q-122 -158 -236 -160q-76 18 -116 98q1 115 143 420q38 80 72 145q-50 1 -118 17q-94 21 -151 68t-60 82q0 26 29 43t49 17v-5q-50 -31 -52 -64q18 -25 104 -59t234 -35l83 120q72 104 105 119q39 -4 89 -59l6 -20q-63 -69 -124 -157q89 6 195 21q41 6 83 17
l18 22q110 140 166 140q128 -13 128 -38v-13q-4 -1 -8 -1l1 -2q-69 -49 -133 -85q-107 -110 -212 -285q-136 -226 -152 -322l8 -9q68 139 228 326q31 13 89 13q30 0 30 -51q0 -413 47 -503q37 -54 68 -54q19 0 60 83l25 -7q-40 -106 -132 -106q-143 0 -191 323
q-10 89 -11 196q0 22 -8 22q-60 -57 -135 -191q-96 -199 -114 -200q-115 49 -115 97zM599 629q-7 -2 -13 -3q-130 -25 -257 -34q-81 -129 -158 -292q-79 -195 -86 -311q0 -12 10 -12q120 2 240 174q38 115 111 243q73 127 153 235z" />
    <glyph glyph-name="t_l" unicode="tl" horiz-adv-x="736" 
d="M630 483q300 334 303 441l-1 10q-55 -7 -136 -134t-166 -317zM371 183q-216 -232 -263 -233q-16 8 -65.5 55.5t-51.5 110.5q3 143 163 394l41 63q-16 3 -63 14t-100 39l11 18q58 -14 93.5 -21t84.5 -12q108 156 161 180q90 -37 92 -63q-3 -10 -95 -109l-29 -35
q63 -12 127 -22l-5 -16q-68 0 -143 8q-197 -265 -229 -466q0 -105 21 -105q27 0 271 259q27 74 69 176q179 418 300 515q62 42 186 48q28 0 31 -35q-5 -142 -374 -525q-80 -152 -112 -274.5t-32 -174.5q93 0 284 248l18 -16q-110 -137 -181 -203.5t-133 -68.5
q-87 27 -108 130q2 35 19 84q5 17 12 37z" />
    <glyph glyph-name="t_r" unicode="tr" horiz-adv-x="892" 
d="M373 183q-187 -252 -293 -254q-76 18 -116 98q1 115 143 420q38 80 72 145l10 19q-124 9 -230 48l8 17q104 -12 252 -13l78 113q72 104 105 119q39 -4 89 -59l6 -20q-63 -69 -124 -157q89 6 160 17t103 23q86 34 104 59q-2 33 -52 64v5q20 0 49 -17t29 -43
q-3 -25 -44 -66q-61 -55 -163.5 -77.5t-229.5 -31.5q-81 -129 -158 -292q-79 -195 -86 -311q0 -12 40 -12q70 2 259 256q35 107 107 252q34 58 55 58q61 -21 87 -53v-8q-54 -86 -106 -231h4q100 212 199 321q85 100 117 100q107 -24 110 -64q-2 -17 -99 -186
q-56 -103 -67 -181q0 -79 30 -97q30 0 74 63l15 -14q-46 -68 -94 -69q-119 32 -126 143q1 69 35 153t94 192q-39 -20 -137 -153q-157 -258 -211 -507q-11 -12 -49 -12q-49 14 -81 72q8 81 32 171z" />
    <glyph glyph-name="t_t" unicode="tt" horiz-adv-x="704" 
d="M299 56q7 28 17 73q117 351 176 497l-145 25q-51 -91 -128 -247q-94 -211 -96 -323q4 -69 56 -69q47 8 120 44zM638 605q-74 -150 -148.5 -401.5t-79.5 -409.5q4 -80 46 -89q33 2 67 48l14 -9q-16 -78 -109 -97q-148 59 -159 170q0 82 27 217q-76 -61 -173 -69
q-120 45 -121 195q3 116 197 523l-318 54l9 35q210 -43 327 -54l33 75q7 25 32 27q74 -23 95 -66q-2 -25 -12 -62l145 -23q59 151 147 293q15 14 37 16q97 -35 101 -76q-102 -192 -133 -259q135 -22 196 -35q13 -1 24 -8l-9 -41l-8 -10q-110 32 -227 56z" />
    <glyph glyph-name="v_i" unicode="vi" horiz-adv-x="623" 
d="M64 -33q-79 0 -128 55q152 405 152 476q0 33 -17 45l5 9q133 -26 133 -103q-68 -203 -121 -394q97 184 231.5 370t269.5 345l13 3q39 -7 137 -109l-1 -16q-45 -88 -71 -100q-23 7 -125 93q-38 -19 -172.5 -209.5t-290.5 -461.5zM465 -78q-36 6 -85 60q-47 61 -47 126
q0 145 166 406q13 16 24 17q46 0 100 -75v-4q-89 -100 -138 -220.5t-49 -221.5q0 -34 20 -37l171 240l19 -9q-35 -58 -89 -137t-92 -145z" />
    <glyph glyph-name="v_r" unicode="vr" horiz-adv-x="693" 
d="M342 632q0 -50 31 -80.5t72 -34.5q8 24 8 59q0 111 -72 111q-39 -19 -39 -55zM50 -85q-110 63 -113 112q142 366 147 464q0 43 -18 59l4 9q123 -14 129 -87q-6 -69 -121 -412l-25 -88l12 -16q24 14 54 42q37 35 157 205t157 286q-59 9 -100 44q-42 34 -42 104q7 67 90 67
q94 0 94 -150l-6 -35q46 12 142 16q63 -4 118 -66l1 -15q-176 -261 -256 -471q-57 -136 -58 -203q11 -46 39 -46q32 0 73 28l5 -11q-38 -50 -95 -50q-125 47 -130 134q22 227 294 671q-101 -8 -141 -22q-33 -116 -140 -273.5t-173 -224.5q-65 -65 -84 -69z" />
    <glyph glyph-name="w_r" unicode="wr" horiz-adv-x="933" 
d="M592 632q0 -50 31 -80.5t72 -34.5q8 24 8 59q0 111 -72 111q-39 -19 -39 -55zM714 490q-49 -141 -158 -318.5t-160 -238.5q-15 -12 -54 -13q-111 26 -111 92q35 142 124 404l-9 6q-131 -174 -276 -472q-11 -21 -30 -21q-100 49 -103 98q142 366 147 464q0 43 -18 59l4 9
q123 -14 129 -87q-6 -69 -121 -412l10 -1q225 398 256 401q35 0 86 -12t52 -41v-4q-108 -270 -117 -402q1 -18 6 -18q38 16 150 193.5t162 312.5q-59 9 -100 44q-42 34 -42 104q7 67 90 67q94 0 94 -150l-7 -39q93 20 133 20q63 -4 118 -66l1 -15q-176 -261 -256 -471
q-57 -136 -58 -203q11 -46 39 -46q32 0 73 28l5 -11q-38 -50 -95 -50q-125 47 -130 134q22 227 294 671q-35 0 -128 -16z" />
    <glyph glyph-name="x_p" unicode="xp" horiz-adv-x="1063" 
d="M588 -12q99 30 186 148q59 70 145 252q29 67 36 113q-2 10 -15 18q-79 -1 -255 -348q-40 -67 -97 -183zM560 597q-41 0 -312 -316q17 -73 112 -383l-1 -5q-59 4 -115 26q-34 31 -97 290q-173 -223 -227 -268q-30 -25 -49 -29q-41 3 -59 58l9 4q18 -31 38 -36
q47 2 272 306q-69 201 -88 302l7 11q93 -13 128 -51q15 -32 57 -188q262 316 307 322q39 -15 72.5 -41.5t65 -61t35.5 -78.5q0 -40 -18 -99t-97 -268l3 -4q238 469 322 471q98 -20 120 -127q-15 -136 -127 -314q-117 -186 -284 -188q-33 0 -63 16l-61 -146
q-65 -193 -133 -348q-7 -14 -28 -15q-49 7 -98 62l1 7q80 193 137 349q45 100 132 370q72 198 83 281q0 27 -13.5 51t-30.5 40z" />
    <glyph glyph-name="y_j" unicode="yj" horiz-adv-x="952" 
d="M386 -635q76 11 194 189q84 120 92 373q-95 -91 -208.5 -223.5t-113.5 -270.5q1 -63 36 -68zM400 46q-13 -35 -26 -74q-70 -206 -212.5 -447.5t-383.5 -241.5q-149 0 -200.5 58.5t-51.5 125.5q0 178 152 303q126 100 288 121l10 -14q-145 -21 -257 -150
q-109 -122 -109 -284q7 -116 96 -116q175 0 335 240.5t271 603.5h-8q-164 -200 -236 -200q-62 0 -105 127q0 54 56.5 161.5t171.5 259.5h4q30 0 88 -68v-16q-196 -246 -214 -419v-4q43 0 179 163q96 96 226 350l15 8q56 -3 80 -88l-2 -15q-64 -104 -152 -344
q176 150 255 282q49 96 81 140l18 6q92 -17 105 -38l-3 -17q-86 -180 -86 -279l8 -124q65 52 127 110l34 41l16 -12l-31 -42q-69 -75 -143 -129q-9 -377 -109 -521q-46 -73 -126.5 -126t-165.5 -54q-20 3 -51 38t-33 70q4 141 118.5 277t240.5 256q-14 90 -14 167
q0 76 28 202q-57 -97 -284 -287zM885 578q-83 20 -83 43q0 20 33 74.5t66 96.5q42 0 102 -37q0 -55 -48 -116t-70 -61z" />
    <glyph glyph-name="y_y" unicode="yy" horiz-adv-x="1069" 
d="M708 524q7 9 16 10q58 -21 88 -76q-59 -104 -105.5 -240t-46.5 -245h12q80 101 147.5 222t157.5 315q8 12 19 12q83 -41 87 -72v-16q-21 -34 -77 -143q-94 -213 -121.5 -314t-41.5 -169q60 26 138 54.5t154 28.5q87 0 134 -21q35 -18 38 -38l-8 -4q-52 19 -152 19
q-129 0 -316 -108q-118 -385 -196 -448q-47 -40 -112 -40q-47 0 -96 12q-48 29 -48 72q0 41 55 127.5t253 252.5q36 59 93 360q-25 -40 -71 -104q-25 -30 -57 -30q-100 53 -108 122q3 97 52.5 226.5t111.5 234.5zM435 -685q0 -26 12 -32q43 0 92 52q76 97 146 325
q-46 -39 -101 -95q-149 -155 -149 -250zM191 519h4q30 0 88 -68v-16q-196 -246 -214 -419v-4q43 0 179 163q96 96 226 350l15 8q56 -3 80 -88l-2 -15q-78 -127 -193 -458q-70 -206 -212.5 -447.5t-383.5 -241.5q-149 0 -200.5 58.5t-51.5 125.5q0 178 152 303
q126 100 288 121l10 -14q-145 -21 -257 -150q-109 -122 -109 -284q7 -116 96 -116q175 0 335 240.5t271 603.5h-8q-164 -200 -236 -200q-62 0 -105 127q0 54 56.5 161.5t171.5 259.5z" />
    <glyph glyph-name="y_s" unicode="ys" horiz-adv-x="1016" 
d="M191 519h4q30 0 88 -68v-16q-196 -246 -214 -419v-4q43 0 179 163q96 96 226 350l15 8q56 -3 80 -88l-2 -15q-78 -127 -193 -458q-70 -206 -212.5 -447.5t-383.5 -241.5q-149 0 -200.5 58.5t-51.5 125.5q0 178 152 303q126 100 288 121l10 -14q-145 -21 -257 -150
q-109 -122 -109 -284q7 -116 96 -116q175 0 335 240.5t271 603.5h-8q-164 -200 -236 -200q-62 0 -105 127q0 54 56.5 161.5t171.5 259.5zM880 166q-5 32 -125.5 86.5t-140 87t-21.5 64.5q4 68 117 116.5t152 48.5q37 0 80.5 -36t44.5 -56q-20 -68 -71 -75l-8 14q27 20 27 47
q0 9 -29 9q-28 0 -129.5 -49t-101.5 -91q2 -14 103 -54.5t122 -81.5q27 -45 33 -108q-3 -57 -107 -102t-185 -46q-68 6 -86 40.5t-18 62.5q16 68 67 75l8 -14q-28 -21 -28 -47q8 -9 41 -9q40 0 139.5 42.5t115.5 75.5z" />
    <glyph glyph-name="y_s_z" unicode="ys&#x7a;" horiz-adv-x="1372" 
d="M391 -284q0 -23 23 -29q105 0 203 358q-1 13 -8 14q-181 -180 -218 -343zM422 104l-48 -132q-70 -206 -212.5 -447.5t-383.5 -241.5q-149 0 -200.5 58.5t-51.5 125.5q0 178 152 303q126 100 288 121l10 -14q-145 -21 -257 -150q-109 -122 -109 -284q7 -116 96 -116
q175 0 335 240.5t271 603.5h-8q-164 -200 -236 -200q-62 0 -105 127q0 54 56.5 161.5t171.5 259.5h4q30 0 88 -68v-16q-196 -246 -214 -419v-4q43 0 179 163q96 96 226 350l15 8q56 -3 80 -88l-2 -15q-55 -90 -130 -284q180 132 248 280q78 150 162 150q108 0 138 -58
q-4 -35 -24 -48h-6l-35 54h-6q-131 -107 -132 -274q86 72 161 126q-7 3 -9 9v11q0 10 157.5 83t219.5 87q22 0 53 -57v-26q-372 -449 -383 -480q134 72 235 75q51 -16 65 -111q0 -22 -6 -34h-12q-20 40 -69 40t-245 -90q-28 0 -64.5 33.5t-36.5 94.5q1 59 366 482
q-1 8 -10 8q-81 -34 -195 -106q-148 -115 -226 -193q-107 -561 -265 -561q-162 17 -162 58q0 140 272 437q15 44 25 188l-5 -2q-25 -77 -226 -218z" />
    <glyph glyph-name="K_aogonek" unicode="K&#x105;" horiz-adv-x="1124" 
d="M0 25q0 58 67 279q124 355 172 444t91 103q81 48 162 50q24 0 47 -28v-9q-28 -1 -89 -36q-78 -82 -131 -193q-92 -213 -159 -443l129 191q153 221 323.5 410.5t308 321.5t159.5 134q83 -50 124 -120q0 -14 -11 -18l-120 46q-62 -31 -374 -348q-153 -167 -303 -374
q50 -21 50 -36q-49 -126 -49 -293q0 -202 87 -238q26 0 41.5 19t18.5 19q5 0 5 -11q-37 -60 -92 -60q-153 0 -179 228q-5 38 -5 65l3 102q-96 -175 -136 -237q-17 -35 -23 -96q-8 -13 -35 -16q-61 66 -82 144zM816 -9q-8 13 -13 29q2 68 46 242q-31 -65 -67 -116
q-144 -197 -192 -197q-70 0 -98 108q1 63 114.5 275t222.5 232q157 -36 165 -86l-19 -10q-25 31 -61 31q-127 -33 -279 -356q-48 -115 -48 -149q20 0 76.5 65.5t131 172.5t124.5 201q11 15 30 15q12 0 37.5 -30t27.5 -50q-73 -229 -75 -237q-23 -86 -24 -140q68 22 221 232
q14 -3 15 -16q-183 -258 -271 -258h-4q-30 -50 -54 -111q-31 -75 -31 -160q0 -53 23 -63q38 0 64.5 26.5t42.5 53.5q19 -2 19 -17q-26 -53 -56.5 -75t-60.5 -24q-128 20 -131 131q0 51 31 126q29 74 93 155z" />
    <glyph glyph-name="K_eogonek" unicode="K&#x119;" horiz-adv-x="960" 
d="M0 25q0 58 67 279q124 355 172 444t91 103q81 48 162 50q24 0 47 -28v-9q-28 -1 -89 -36q-78 -82 -131 -193q-92 -213 -159 -443l129 191q153 221 323.5 410.5t308 321.5t159.5 134q83 -50 124 -120q0 -14 -11 -18l-120 46q-62 -31 -374 -348q-153 -167 -303 -374
q50 -21 50 -36q-49 -126 -49 -293q0 -202 87 -238q26 0 41.5 19t18.5 19q5 0 5 -11q-37 -60 -92 -60q-153 0 -179 228q-5 38 -5 65l3 102q-96 -175 -136 -237q-17 -35 -23 -96q-8 -13 -35 -16q-61 66 -82 144zM736 255q15 -10 41 -10q49 0 104.5 89.5t55.5 143.5
q-146 -116 -201 -223zM617 -37q-41 23 -81 112q4 91 93 251q115 189 218 225q119 -28 119 -74q0 -61 -58 -158t-132 -97q-24 0 -50 6q-70 -131 -70 -209q1 -28 18 -28q108 0 292 223l15 -18q-153 -195 -276 -233l1 -1q-38 -58 -68.5 -133t-30.5 -160q0 -53 23 -63
q38 0 64.5 26.5t42.5 53.5q19 -2 19 -17q-26 -53 -56.5 -75t-60.5 -24q-128 20 -131 131q0 51 31 126q26 65 78 136z" />
    <glyph glyph-name="S_l" unicode="Sl" horiz-adv-x="885" 
d="M40 -320q0 -22 20 -32q82 0 204 215q19 40 19 74q0 68 -9 119l-150 -195q-84 -131 -84 -181zM867 604q-200 -361 -200 -609q32 11 78.5 46t146.5 177l15 -16q-81 -128 -143.5 -186t-104.5 -65q-110 35 -124 111q0 105 28 188q19 58 44 124q-211 -190 -284 -267
q65 -151 65 -216q0 -168 -200 -316q-16 -8 -44 -8q-124 35 -144 108q0 75 115 228.5l141 187.5q-46 72 -156 216q-52 73 -52 156q0 110 252 304q167 108 268 116q109 -14 196 -124l8 -28q-4 -11 -8 -12q-16 17 -32 28q-19 12 -76 12q-119 0 -276 -100q-248 -170 -248 -316
q0 -32 164 -216q85 92 337 312q98 200 190 316q95 120 116 120q66 0 101 -53q8 -16 11 -26q0 -35 -49 -77zM912 673q121 93 121 122q0 4 -8 13q-13 0 -113 -135z" />
    <glyph glyph-name="maz.ss01" unicode="&#x2d;&#x2d;&#x31;" horiz-adv-x="2409" 
d="M2265 172q144 -73 144 -199q0 -44 -55 -44q-50 5 -50 16q50 36 50 50q-6 58 -293 138q-292 55 -591 55q-644 0 -1260 -215q-66 -28 -156 -73l-15 1q-27 0 -39 78q0 35 144 105q232 75 447 121q260 53 387 66q220 28 448 28q237 -1 472 -33t367 -94z" />
    <glyph glyph-name="maz.ss02" unicode="&#x2d;&#x2d;&#x32;" horiz-adv-x="1064" 
d="M789 303q114 0 168.5 -20.5t84.5 -55.5q22 -40 22 -73q-9 -53 -38 -95l-13 4q-3 28 -23 50q-32 48 -220 52q-288 0 -571 -88q-78 -36 -146 -76q-42 31 -46 124q54 65 206 107q240 68 576 71z" />
    <glyph glyph-name="maz.ss03" unicode="&#x2d;&#x2d;&#x33;" horiz-adv-x="1647" 
d="M1019 422q432 0 574 -141q45 -104 45 -152q0 -90 -107 -90q-18 0 -73 17v12q112 60 112 106q-140 102 -548 102q-278 0 -517 -78t-454 -198h-6q-45 52 -45 146q165 109 472.5 191t546.5 85z" />
    <glyph glyph-name="maz.ss04" unicode="&#x2d;&#x2d;&#x34;" horiz-adv-x="2237" 
d="M1535 332q529 0 647 -95q39 -35 55 -146q0 -46 -130 -85l-5 10q65 49 65 75q0 80 -276.5 98t-351.5 18q-358 0 -705 -50.5t-764 -200.5q-24 -13 -30 -40q-40 22 -40 100q0 94 171 130q618 186 1364 186z" />
    <glyph glyph-name="maz.ss05" unicode="&#x2d;&#x2d;&#x35;" horiz-adv-x="3258" 
d="M3014 408q122 -4 200 -60q43 -33 44 -81q-1 -9 -11 -34h-9q-48 69 -230 69q-157 -2 -586.5 -109.5t-997.5 -204.5q-683 -122 -1036 -122q-388 0 -388 239q0 52 60 82q36 -17 36 -29q-48 -34 -48 -53q147 -96 510 -96q245 0 951 107q180 28 766.5 159.5t738.5 132.5z
M66 56q18 -41 102 -61.5t143 -22.5l5 13q-64 4 -149.5 25t-90.5 45zM351 -21q0 -9 73 -17q80 0 193 1l5 11h-165q-34 0 -106 5z" />
    <glyph glyph-name="maz.ss06" unicode="&#x2d;&#x2d;&#x36;" horiz-adv-x="1900" 
d="M1498 400q250 0 326 -72t76 -97q-1 -90 -221 -169q-59 -19 -105 -29q-30 7 -30 17q0 6 175 105q67 42 82 76q0 45 -315 52q-690 0 -1299 -367q-82 -65 -111 -99q-51 0 -76 117q0 59 338 227q545 239 1160 239z" />
    <glyph glyph-name="maz.ss07" unicode="&#x2d;&#x2d;&#x37;" horiz-adv-x="1680" 
d="M1160 344q248 -1 395 -68q125 -83 125 -197q0 -46 -52 -78q-5 0 -5 5q31 60 31 104q-65 109 -416 109q-485 0 -1176 -322q-44 0 -62 130q0 62 432 182q138 43 348 87t380 48z" />
    <glyph glyph-name="maz.ss08" unicode="&#x2d;&#x2d;&#x38;" horiz-adv-x="1811" 
d="M1193 276q464 -14 583 -140q30 -72 35 -113q0 -52 -44 -84q-44 4 -75 28v7q56 30 56 77q-142 92 -618 92q-567 0 -1011 -260q-68 -37 -84 -91q-35 0 -35 84q0 75 125 167q136 91 446 161t622 72z" />
    <glyph glyph-name=".notdef" horiz-adv-x="1334" 
 />
    <glyph glyph-name="NULL" horiz-adv-x="0" 
 />
    <glyph glyph-name="NULL" horiz-adv-x="0" 
 />
    <glyph glyph-name="nonmarkingreturn" horiz-adv-x="569" 
 />
    <glyph glyph-name="space" unicode=" " horiz-adv-x="301" 
 />
    <glyph glyph-name="space" unicode="&#xa0;" horiz-adv-x="301" 
 />
    <glyph glyph-name="exclam" unicode="!" horiz-adv-x="587" 
d="M585 972q78 -41 84 -91q-178 -271 -260 -464q-37 -85 -41 -210q-5 -10 -38 -12q-70 51 -77 137q0 73 53 190q203 438 279 450zM340 12q-12 -46 -88 -49q-57 10 -64 82q1 53 97 66q45 -7 55 -99z" />
    <glyph glyph-name="quotedbl" unicode="&#x22;" horiz-adv-x="412" 
d="M219 834q-26 -46 -65 -85q-10 2 -23 24t-13 31q36 55 77 166q13 43 21 89l9 1q24 -14 53 -83q-36 -101 -59 -143zM255 688q-20 9 -27.5 25.5t-8.5 27.5q44 61 83 151q17 47 40 103l9 1q29 -26 58 -73q-49 -88 -154 -235z" />
    <glyph glyph-name="numbersign" unicode="#" horiz-adv-x="948" 
d="M269 296l40 96q-140 3 -200 3q8 59 54 70q88 0 178 -2q1 3 3 6q98 208 230 329q108 -15 108 -60q-8 -4 -12 -4q-12 8 -28 8q-64 -47 -128 -148q-40 -64 -76 -134q84 -3 160 -6q0 1 1 2q98 208 230 329q60 -17 68 -56q-64 -47 -128 -148q-39 -63 -75 -131q96 -5 178 -11
q-12 -41 -48 -59q-76 4 -161 5h-1q-24 -49 -45 -101q128 -5 233 -13q-12 -41 -48 -59q-77 4 -162 5q-23 1 -50 1q-14 -36 -27 -74q-88 -247 -104 -345q-72 29 -72 92q59 184 113 329q-62 2 -136 3q-14 0 -27 1q-13 -34 -24 -69q-82 -249 -94 -312q-66 22 -87 61
q57 179 110 321q-105 2 -155 2q7 59 54 70q64 0 128 -1zM405 391q-22 -47 -42 -97q10 -1 20 -1q75 -2 143 -5q21 53 42 99q-72 2 -163 4z" />
    <glyph glyph-name="dollar" unicode="$" horiz-adv-x="804" 
d="M388 469l23 89q7 30 15 59q-9 -5 -18 -11q-93 -63 -110 -123q0 -18 25 -24q21 0 65 10zM406 147q16 10 33 22q126 94 146 197q0 86 -41 109q-30 0 -75 -11zM295 21l-31 4q-113 26 -200 129l18 9q73 -74 150 -77q23 0 78 15q31 167 72 336q-28 -9 -48 -9q-50 3 -73 46.5
t-26 95.5q4 71 160 153q34 14 67 20q74 235 163 356q101 -23 109 -60l-12 -6q-6 8 -26 11q-59 -64 -105 -174q-24 -54 -46 -123q12 -1 25 -3q52 -10 86.5 -33.5t35.5 -75.5q-8 -69 -105 -72q-4 5 -5 15q59 25 64 50q-7 33 -41 40q-44 0 -87 -11q-22 -77 -43 -167q40 7 70 8
q91 -24 112 -67q17 -31 19 -79q-8 -166 -151 -266q-65 -48 -141 -61q-40 -230 -40 -300q-75 17 -85 79q16 108 36 217z" />
    <glyph glyph-name="percent" unicode="%" horiz-adv-x="833" 
d="M165 -419q-72 29 -72 92q113 356 268.5 719.5t287.5 484.5q108 -15 108 -60q-8 -4 -12 -4q-12 8 -28 8q-51 -31 -130 -169q-131 -219 -268.5 -596t-153.5 -475zM403 707q0 -62 -51 -164t-86 -139q-45 -42 -74 -43q-131 38 -131 110q0 155 152 295q34 28 69 38
q41 -5 87 -22q23 -21 28.5 -41.5t5.5 -33.5zM157 452q0 -67 28 -67q58 12 139 173q8 17 25.5 63t17.5 84q0 28 -19 47h-11q-112 -82 -169 -242q-11 -27 -11 -58zM744 310q0 -62 -51 -164t-86 -139q-45 -42 -74 -43q-131 38 -131 110q0 155 152 295q34 28 69 38q41 -5 87 -22
q23 -21 28.5 -41.5t5.5 -33.5zM498 55q0 -67 28 -67q58 12 139 173q8 17 25.5 63t17.5 84q0 28 -19 47h-11q-112 -82 -169 -242q-11 -27 -11 -58z" />
    <glyph glyph-name="ampersand" unicode="&#x26;" horiz-adv-x="981" 
d="M455 708q0 -71 10 -179q231 221 231 278q-30 24 -77 24q-36 0 -99.5 -40.5t-64.5 -82.5zM391 292q-142 -136 -206 -272q-21 -50 -21 -70q0 -16 18 -26q130 0 288 86q26 14 46 26q-26 39 -60.5 103.5t-64.5 152.5zM597 94q48 37 96 82l12 -10q-25 -34 -93 -98
q23 -38 50 -74q62 -84 145 -84q36 0 46.5 31.5t10.5 62.5q0 60 -29 120.5t-91.5 128.5t-156.5 103q25 25 59 25q69 0 139.5 -71.5t100.5 -147t30 -142.5q-1 -70 -36 -102q-39 -42 -126 -42q-118 0 -221 137q-29 -17 -72 -39q-169 -89 -303 -89q-43 0 -79.5 46.5t-36.5 79.5
q50 170 316 416q-24 136 -27 302q2 42 92.5 107t165.5 67q62 -1 131.5 -58.5t71.5 -109.5q-12 -79 -294 -343q15 -111 46 -184t53 -114z" />
    <glyph glyph-name="quotesingle" unicode="'" horiz-adv-x="299" 
d="M219 834q-26 -46 -65 -85q-10 2 -23 24t-13 31q36 55 77 166q13 43 21 89l9 1q24 -14 53 -83q-36 -101 -59 -143z" />
    <glyph glyph-name="parenleft" unicode="(" horiz-adv-x="620" 
d="M87 32q3 178 54.5 393t148.5 409t153 269.5t126 122.5q15 11 66 11q7 -3 8 -9q-107 -93 -242 -343q-138 -279 -191 -499.5t-54 -363.5q0 -141 9 -288q-1 -11 -9 -14q-40 33 -46 71q-21 77 -23 241z" />
    <glyph glyph-name="parenright" unicode=")" horiz-adv-x="620" 
d="M533 926q-3 -178 -54.5 -393.5t-148.5 -409t-152.5 -269.5t-125.5 -123q-16 -10 -66 -11q-8 3 -9 10q108 92 243 342q137 279 190.5 499.5t54.5 364.5q0 141 -9 287q1 12 9 14q40 -32 46 -71q20 -76 22 -240z" />
    <glyph glyph-name="asterisk" unicode="*" horiz-adv-x="704" 
d="M366 949q57 94 95 143q6 2 11 2q38 -38 38 -54q-5 -10 -42 -42.5t-69 -72.5q92 -25 149 -44q5 -5 6 -10q-23 -48 -38 -54q-12 2 -51.5 27.5t-83.5 44.5q-2 -21 -9 -52q-10 -105 -18 -114q-23 1 -65 12q-2 4 -3 10q16 53 55 148q-17 -9 -42 -19q-92 -39 -112 -41
q-14 8 -28 59q3 5 8 10q60 7 160 29q-11 11 -25 27q-75 79 -78 90q2 16 46 47q6 -1 11 -4q29 -54 85 -142z" />
    <glyph glyph-name="plus" unicode="+" horiz-adv-x="763" 
d="M370 329q-20 -121 -31 -288q-62 17 -66 38l8 81q10 92 24 171q-161 4 -220 4q6 65 43 78q95 0 192 -4q32 143 80 227q82 -3 93 -39q-2 -5 -9 -7l-29 -4q-35 -49 -61 -146q-4 -16 -8 -34q150 -7 304 -22q-22 -57 -38 -66q-61 4 -128 6q-84 3 -154 5z" />
    <glyph glyph-name="comma" unicode="," horiz-adv-x="349" 
d="M168 -75q-86 32 -101 56q7 90 45 161q112 -10 134 -32l6 -23q-10 -73 -43 -156q-59 -121 -129 -124q-15 2 -45 16q1 12 10 16q17 -2 27 -5q51 2 96 91z" />
    <glyph glyph-name="hyphen" unicode="-" horiz-adv-x="741" 
d="M290 343q-138 5 -189 5q5 71 37 85q81 0 165 -4q185 -11 317 -28q-19 -62 -33 -72q-52 4 -109 7q-72 3 -188 7z" />
    <glyph glyph-name="hyphen" unicode="&#xad;" horiz-adv-x="741" 
d="M290 343q-138 5 -189 5q5 71 37 85q81 0 165 -4q185 -11 317 -28q-19 -62 -33 -72q-52 4 -109 7q-72 3 -188 7z" />
    <glyph glyph-name="period" unicode="." horiz-adv-x="375" 
d="M140 102q107 -32 107 -58v-21q-46 -57 -87 -128l-22 -1q-45 16 -66 70q22 67 68 138z" />
    <glyph glyph-name="slash" unicode="/" horiz-adv-x="669" 
d="M124 -119q-72 29 -72 92q113 356 268.5 719.5t287.5 484.5q108 -15 108 -60q-8 -4 -12 -4q-12 8 -28 8q-64 -47 -128 -148q-119 -190 -263.5 -592t-160.5 -500z" />
    <glyph glyph-name="zero" unicode="0" horiz-adv-x="692" 
d="M451 897q81 -1 175 -73q66 -58 66 -120q-9 -213 -168 -463q-163 -264 -321 -269q-190 31 -203 190q1 274 246 592q123 138 205 143zM117 49l13 -7q152 21 364 414q90 181 91 310q-3 34 -29 44q-136 0 -316 -294q-123 -197 -123 -467z" />
    <glyph glyph-name="one" unicode="1" horiz-adv-x="408" 
d="M405 896h9q82 -66 82 -91q0 -9 -147 -238q-238 -443 -238 -533q0 -55 18 -76v-13l-23 -5q-51 0 -131 77v9q75 223 181 426q63 135 152 264l-4 5q-72 -64 -106 -64q-72 25 -123 76l7 15q22 -15 43 -15q63 4 280 163z" />
    <glyph glyph-name="two" unicode="2" horiz-adv-x="578" 
d="M441 898q46 0 98.5 -51t52.5 -99q0 -87 -173 -330q-177 -219 -297 -345q112 37 235 39q93 -1 134 -27q35 -26 35 -69q-1 -10 -10 -11q-5 10 -15 19t-32 10q-239 0 -461 -129h-10q-21 11 -36 79q0 11 36 42q-11 25 -11 36q510 617 531 754q0 32 -25 32q-119 0 -253 -190
q-75 -131 -80 -173q0 -8 4 -33q-4 -5 -11 -7q-82 57 -82 107q86 213 215 301q66 45 155 45z" />
    <glyph glyph-name="three" unicode="3" horiz-adv-x="614" 
d="M413 875q173 0 173 -139q-5 -60 -71.5 -126.5t-126.5 -97.5q173 -29 173 -191q-7 -132 -169 -264t-362 -137q-57 19 -71 125q0 64 86 100l16 -9q-43 -60 -43 -102q185 0 335.5 149t150.5 233q-33 22 -91 22q-91 0 -166 -41q-30 2 -84 79l7 13q38 9 187 97
q182 140 182 195q0 22 -37 22q-146 -15 -262 -109q-70 -56 -98 -90q-13 26 -82 63l4 14q166 194 349 194z" />
    <glyph glyph-name="four" unicode="4" horiz-adv-x="602" 
d="M595 -311l-6 7l-2 -3l5 -8zM-3 305q-20 2 -21 15q76 87 153 258q100 215 100 324l16 5q77 -33 85 -85q-20 -125 -85 -265q-54 -108 -101 -191q42 17 88 26t68 12l97 209q-3 -4 -6 -7l58 129q8 4 18 4q54 -7 93 -65q-31 -50 -131 -261q90 0 151 -76l-6 -10q-70 25 -169 37
q-108 -222 -171.5 -332t-86.5 -121q-90 22 -94 60q83 133 209 368q-43 -8 -128.5 -36.5t-132.5 -49.5q-21 20 -21 27q0 13 17 25z" />
    <glyph glyph-name="five" unicode="5" horiz-adv-x="706" 
d="M684 849q34 -17 76 -88l-7 -14q-108 -7 -318 -37l-164 -190q64 17 127 17q115 0 169.5 -79t54.5 -150q0 -133 -185.5 -232.5t-338.5 -100.5q-80 11 -119 103q0 129 215 200q17 0 18 -21q-59 -25 -95 -78.5t-36 -93.5q192 0 340.5 111t148.5 197q-75 52 -218 52
q-80 0 -156 -21q-70 34 -70 82q173 235 242 286z" />
    <glyph glyph-name="six" unicode="6" horiz-adv-x="646" 
d="M499 875q45 0 92 -77v-5q-147 -63 -330 -337q139 114 211 115q33 0 82.5 -42t52.5 -90q-3 -163 -256 -384q-130 -107 -212 -110q-87 0 -167 126q-5 25 -5 41q0 221 316 579q172 184 216 184zM197 317q-11 0 -21 6q-89 -134 -101 -281q0 -23 9 -23q91 0 318 234
q119 132 119 226q-1 53 -15 53q-141 0 -286 -192q-14 -22 -23 -23z" />
    <glyph glyph-name="seven" unicode="7" horiz-adv-x="518" 
d="M20 821q276 19 398.5 32t145.5 13q33 -23 38 -97q-268 -308 -510 -774l-51 -68h-10q-21 0 -51 92q0 73 464 729q-231 -30 -361 -30q-58 37 -71 91z" />
    <glyph glyph-name="eight" unicode="8" horiz-adv-x="625" 
d="M555 876q125 -30 147 -140q-212 -175 -299 -235q42 -94 55 -271q-4 -114 -105 -202.5t-221 -93.5q-172 0 -211 174q0 87 361 379q-43 92 -47 149v10q0 80 104.5 153t215.5 77zM349 661q6 -46 34 -104q265 209 267 222q-16 24 -55 27q-246 -75 -246 -145zM-39 77
q36 -41 142 -41q89 0 164 56.5t75 120.5q0 143 -37 226q-344 -266 -344 -362z" />
    <glyph glyph-name="nine" unicode="9" horiz-adv-x="594" 
d="M469 890q81 -22 115 -62l44 56q55 -1 91 -69l2 -9q-311 -499 -459 -903l-8 -2q-54 7 -79 49q9 79 69 227.5t106 222.5q-114 -86 -193 -103q-57 2 -87.5 42t-32.5 96q3 125 176 285.5t256 169.5zM129 363l12 -11q48 5 116.5 45t202.5 227l107 180q-17 13 -44 13
q-34 -1 -209.5 -167.5t-184.5 -286.5z" />
    <glyph glyph-name="colon" unicode=":" horiz-adv-x="450" 
d="M204 147q107 -32 107 -58v-21q-66 -102 -107 -173l-22 -1q-45 16 -66 70q22 67 88 183zM258 623q107 -32 107 -58v-21q-38 -36 -79 -107l-22 -1q-45 16 -66 70q22 67 60 117z" />
    <glyph glyph-name="semicolon" unicode=";" horiz-adv-x="349" 
d="M168 -75q-86 32 -101 56q7 70 45 141q112 -10 134 -32l6 -23q-10 -53 -43 -136q-59 -121 -129 -124q-15 2 -45 16q1 12 10 16q17 -2 27 -5q51 2 96 91zM213 635q123 -32 123 -58v-21q-44 -36 -91 -107l-25 -1q-52 16 -76 70q25 67 69 117z" />
    <glyph glyph-name="less" unicode="&#x3c;" horiz-adv-x="595" 
d="M228 380q108 -12 213 -59q77 -37 101 -74q10 -16 11 -55q-13 -20 -21 -22q0 10 -5 21.5t-23 20.5q-194 73 -450 74l-8 8q1 44 14 74q4 9 47 21q0 26 4 35q208 99 358 178q20 -3 37 -28t17 -62q-177 -85 -295 -132z" />
    <glyph glyph-name="equal" unicode="=" horiz-adv-x="741" 
d="M290 287q-135 5 -185 5q5 76 36 91q80 0 162 -5q182 -11 312 -29q-8 -53 -32 -77q-51 5 -108 7q-71 4 -185 8zM305 454q-135 5 -185 5q5 76 36 91q80 0 162 -5q182 -11 312 -29q-8 -53 -32 -77q-51 5 -108 7q-71 4 -185 8z" />
    <glyph glyph-name="greater" unicode="&#x3e;" horiz-adv-x="595" 
d="M371 392q-108 13 -212 59q-78 37 -102 74q-9 16 -11 55q14 20 21 22q0 -10 5.5 -21.5t23.5 -20.5q193 -73 450 -73l7 -9q0 -44 -14 -73q-4 -10 -46 -22q0 -26 -5 -35q-208 -99 -358 -178q-20 3 -36.5 28t-16.5 62q176 85 294 132z" />
    <glyph glyph-name="question" unicode="?" horiz-adv-x="706" 
d="M226 139q-33 41 -35 92q25 92 184 273q157 200 185 298q0 25 -14 25q-53 -1 -158 -31q-90 -37 -132 -85t-57 -99q1 -13 12 -14q46 2 139 31l3 -11q-89 -69 -154 -71q-62 32 -68 150q41 146 211 202q74 28 132 29q95 -1 141 -67.5t46 -86.5q-1 -25 -7 -56
q-32 -115 -198 -314q-141 -191 -161 -262l8 -6q14 -4 45 -5l6 -24q-36 -27 -60 -31q-35 16 -68 63zM200 45q107 -32 107 -58v-21q-38 -36 -79 -107l-22 -1q-45 16 -66 70q22 67 60 117z" />
    <glyph glyph-name="at" unicode="@" horiz-adv-x="1365" 
d="M140 173q7 252 210 449t438 199q184 -3 299 -124.5t118 -334.5q-2 -103 -42 -194t-110.5 -148.5t-145.5 -60.5q-153 10 -153 149q0 41 7 81q-142 -178 -239 -178q-74 0 -112 109q0 156 227 363q124 105 194 105q92 -13 159 -113l-10 -10q-48 36 -91 48q-83 0 -242 -196
q-126 -159 -126 -268l13 -6q120 44 265 274q55 84 104 137l21 -4q60 -19 72 -51q-14 -21 -43 -57q-46 -62 -74 -152.5t-29 -161.5q0 -25 36 -25q59 0 119.5 36t103 122.5t50.5 201.5q-1 188 -119.5 291.5t-227.5 103.5q-191 -3 -369 -198.5t-178 -377.5q3 -167 127 -255.5
t280 -88.5q0 54 -31 98q3 13 12 14q103 -46 107 -94q0 -52 -38.5 -83t-114.5 -32q-167 0 -311 108t-156 324z" />
    <glyph glyph-name="A" unicode="A" horiz-adv-x="763" 
d="M946 1141q108 -15 108 -60q-8 -4 -12 -4q-12 8 -28 8q-64 -47 -128 -148q-53 -83 -182 -393q96 -13 96 -76q0 -24 -84 -148q-116 -223 -125 -375l-16 -8q-15 0 -47 15q-65 43 -72 92q0 38 104 404q-166 -34 -287 -54q-85 -179 -85 -286q0 -140 48 -140q18 0 32 8
q12 -4 12 -12q0 -14 -60 -28q-133 0 -164 124q-4 35 -4 44q0 77 80 284q-132 24 -132 132q11 84 28 84q8 -1 8 -8v-28q0 -68 168 -68q57 105 196 276q193 220 264 220q52 0 136 -44q96 189 146 189zM350 507q169 20 254 33l148 332l-8 4q-111 -34 -284 -224
q-104 -124 -110 -145zM584 11q16 107 66 225q56 102 92 156.5t36 77.5q-58 0 -102 -10q-40 -71 -73 -238q-13 -83 -19 -211z" />
    <glyph glyph-name="B" unicode="B" horiz-adv-x="993" 
d="M874 945q151 -1 155 -132q-5 -230 -349 -415q63 8 83 8q153 -1 164 -138q-1 -139 -70.5 -243t-259.5 -218q-246 -119 -417 -121q-82 11 -129.5 99.5t-50.5 133.5q2 90 189 191q4 -10 4 -15q-127 -147 -134 -208q39 -51 115 -51q275 1 539 199q152 150 160 229
q-1 31 -29 57.5t-102 28.5q-180 0 -249 -69q-69 -286 -98 -323q-38 0 -84.5 25t-49.5 56q52 146 81 234q-2 176 -55 252q-43 42 -61 44l-28 -29l-14 1q-16 12 -25 51q77 96 301 234q211 114 414 119zM238 589q56 -18 97 -97q31 -79 33 -175l5 -1q102 292 179 402
q107 -22 118 -55q-62 -108 -87 -179l9 -1q202 111 290 210.5t89 159.5q-8 36 -77 36q-219 -2 -495 -164q-153 -107 -161 -136z" />
    <glyph glyph-name="C" unicode="C" horiz-adv-x="628" 
d="M224 -71q-120 0 -182 82q-42 63 -42 134q0 232 284 552q189 191 304 204q127 -10 187.5 -40.5t60.5 -51.5q0 -72 -152 -176q-12 0 -12 8q0 7 44 80q28 70 28 88q0 20 -12 20q-93 0 -368 -260q-243 -286 -244 -460q1 -134 120 -136q110 0 213 70t143 122t56 81l16 -15
q-61 -104 -187.5 -203t-256.5 -99z" />
    <glyph glyph-name="D" unicode="D" horiz-adv-x="1223" 
d="M1174 377q-212 -348 -609 -508q-110 -28 -191 -32q-130 11 -171 56t-41 96q0 102 215 269q41 126 138 271q221 289 322 289q145 -19 145 -37q-5 -14 -88 -44q-231 -150 -335 -385q143 85 297 141l30 10l5 -28q-55 -19 -115 -42q-121 -57 -259 -140q-51 -129 -95 -296
l-8 -4q-105 29 -105 82q0 14 57 137q-84 -75 -110 -120t-26 -67q0 -48 132 -48q95 1 226.5 53.5t249.5 150.5q231 189 319 369q32 102 32 159q0 73 -91 132q-90 36 -156 36q-444 0 -788 -364q-51 -78 -52 -104q6 -16 16 -16q72 0 72 -12q-65 -48 -108 -48q-36 0 -82 174
q32 152 343 314q111 61 256.5 109.5t278.5 48.5q135 0 254 -75t119 -234q-5 -187 -77 -293z" />
    <glyph glyph-name="E" unicode="E" horiz-adv-x="800" 
d="M538 -81q-167 -109 -392 -110q-98 14 -146 229q5 47 15 77q65 202 405 405q-43 6 -83 22q-109 36 -114 140q4 134 137 207t319 73q84 0 127 -16q59 -18 102 -98t43 -112q-49 -88 -134 -98q-10 8 -11 23q62 75 67 88l3 12q0 33 -28.5 58t-145.5 25q-223 -2 -308.5 -60.5
t-99.5 -106.5q3 -24 36 -36q115 -49 281 -49q76 0 128 14q53 -18 62 -122l-2 -9q-36 -3 -105 -10q-213 -16 -461 -233q-104 -110 -136 -206l-17 -50q2 -28 33.5 -41.5t88.5 -14.5q248 0 543 238l9 -11q-56 -120 -216 -228z" />
    <glyph glyph-name="F" unicode="F" horiz-adv-x="937" 
d="M1094 1040q201 0 320 -127q60 -82 71 -141q-1 -12 -18 -17q-11 25 -35 66q-36 45 -146.5 73t-204.5 28q-119 -5 -198 -13q76 -61 76 -115q0 -31 -81 -228q94 29 178 30q18 -6 32 -20q0 -11 -250 -85q-23 -29 -140 -342l-93 -285q-5 -8 -13 -9q-109 18 -122 68l215 524
q-141 -46 -176 -90.5t-35 -71.5q0 -13 22 -91q0 -12 -8 -15q-71 31 -90 180q0 62 120.5 116.5t202.5 70.5q105 197 105 288q-6 53 -31 53q-392 -71 -663 -299q-79 -83 -79 -114q33 -9 66 -9q79 0 215 39v-4q-116 -83 -237 -83q-97 0 -97 109q0 186 496 402q276 112 598 112z
" />
    <glyph glyph-name="G" unicode="G" horiz-adv-x="685" 
d="M623 1016q79 0 114 -40q-109 -116 -109 -234l17 -23q0 -13 -28 -17q-98 0 -109 143q-147 0 -312 -385q-59 -163 -59 -328q4 -80 29 -80q129 48 314 349l85 142q10 6 23 6q114 -3 114 -28q0 -12 -68.5 -188t-68.5 -429q0 -154 75 -154l5 -12q-2 -15 -37 -18
q-85 2 -129.5 78t-44.5 169q0 195 55 389h-6q-208 -372 -329 -372q-131 0 -154 160q0 387 251 684q93 85 160 85q62 0 120 -11q29 58 54.5 86t37.5 28z" />
    <glyph glyph-name="H" unicode="H" horiz-adv-x="1210" 
d="M55 383q31 -75 212 -75q133 0 395 93q200 472 200 540q0 23 -34 23q-70 0 -421.5 -258.5t-351.5 -322.5zM649 351q-270 -91 -433 -91q-83 0 -114 18.5t-48 33.5q-50 80 -54 188q45 80 168.5 183t316 218.5t323.5 118.5q28 0 83 -35.5t60 -78.5q-18 -123 -48 -210
l-90 -271l244 86q117 265 296 565q34 29 63 29q88 -19 88 -36v-4q-172 -289 -304 -532q93 34 138 34q47 -2 86 -31q-20 -25 -42 -29q-17 13 -50 19q-61 0 -144 -30q-208 -448 -300 -938q-4 -15 -4 -34l2 -40q-5 -8 -20 -11q-87 26 -121 68q32 188 104 439t192 490
q-102 -40 -245 -84l-130 -360l-10 -8q-41 0 -100 59v10q66 218 93 264z" />
    <glyph glyph-name="I" unicode="I" horiz-adv-x="333" 
d="M290 1000q129 -62 131 -120q-8 -74 -196 -625q-65 -196 -76 -272q0 -27 6 -43q-2 -15 -37 -22q-92 14 -118 59q51 216 160 523q118 324 127 408q-1 29 -23 69l2 15q13 6 24 8z" />
    <glyph glyph-name="J" unicode="J" horiz-adv-x="921" 
d="M878 412q-208 -378 -525 -584q-144 -73 -210 -73q-41 9 -85 58t-47 108q71 195 653 469q37 14 79 23q134 259 175 397q0 63 -55 63q-193 -28 -431 -169q-117 -85 -137 -141q3 -6 13 -8q27 0 115 4q0 -12 -5 -21q-85 -36 -133 -38q-29 7 -44 59.5t-17 98.5q38 97 260 197
t350 104q53 -3 121.5 -73.5t68.5 -111.5q-6 -85 -131 -332q78 23 111 30l2 -26q-49 -5 -128 -34zM57 -77q0 -34 66 -43q143 0 401 246q106 123 191 248q-209 -86 -411 -208q-227 -166 -247 -243z" />
    <glyph glyph-name="K" unicode="K" horiz-adv-x="631" 
d="M841 820q-3 -121 -188 -330t-379 -306q145 -180 288.5 -282t248.5 -102q12 3 20 24q0 69 -14 114l12 8q48 -36 54 -114q-9 -79 -124 -142q-191 0 -508 332l-103 110q-28 -73 -29 -113q0 -30 10 -104l-12 -6q-56 5 -86.5 48t-30.5 75q0 44 47 198q-7 19 -14 40
q0 16 100 282t100 302q0 52 -24 52l9 19q135 -28 135 -102q-9 -84 -171 -541l15 -21q141 77 337 265.5t277 335.5q0 20 -8 39l11 18q26 -46 27 -99z" />
    <glyph glyph-name="L" unicode="L" horiz-adv-x="843" 
d="M1226 -253q-3 -15 -17 -15q-79 47 -206 47q-321 0 -800 -141q-75 -24 -112 -24q-24 0 -57.5 36.5t-33.5 60.5q0 39 11 59h10q22 -59 63 -59l251 76q0 135 46 326q-42 -22 -91 -23q-133 9 -148 205q6 367 297 625q72 67 195 69q55 -2 84 -38l-4 -14q-33 9 -71 9
q-76 -1 -231 -194.5t-155 -493.5q18 -123 57 -123q52 0 91 45q99 339 279 591q188 255 338 255q29 0 64 -25t35 -43q-26 -147 -292 -474q-119 -125 -279 -275q-81 -218 -86 -389q273 63 531 69q118 -10 170 -53.5t61 -88.5zM569 266q255 243 353 393q147 201 147 304
q0 5 -11 5q-98 -25 -304 -319q-127 -220 -185 -383z" />
    <glyph glyph-name="M" unicode="M" horiz-adv-x="1295" 
d="M543 1055q119 0 179 -69.5t60 -148.5q0 -206 -98 -414l188 243q112 128 133 128q85 -23 85 -47q0 -19 -92 -237t-92 -276h4q122 215 189 300q126 175 141 175q111 -26 111 -64q-87 -85 -162 -313q-83 -282 -83 -469q0 -116 61 -146q60 -30 111 -30v-13l-30 -4
q-265 40 -265 252q0 145 98 484q-17 -7 -136 -236q-13 -16 -31 -25q-72 13 -102 42l-34 43q0 64 154 445q0 4 -5 4q-185 -206 -282 -377l-197 -339q-20 -25 -56 -29q-49 3 -91 86q121 166 202 321q155 343 155 534q0 150 -111 150q-161 0 -354 -328q-95 -245 -95 -369
q0 -111 65 -167q-3 -17 -13 -20q-89 17 -117.5 59t-32.5 119q0 357 264 613q140 123 279 123z" />
    <glyph glyph-name="N" unicode="N" horiz-adv-x="1159" 
d="M2 426q-2 14 -2 32q55 141 318 288q261 146 417 148q37 -1 92 -46q44 -41 45 -87q-9 -44 -166 -411l2 -2q371 613 478 614q92 -12 117 -55q-25 -54 -101 -193q-197 -453 -201 -748q0 -130 65 -196q18 -15 62 -15q29 0 109 61q8 -2 8 -9q-13 -54 -77 -89.5t-119 -37.5
q-76 7 -124.5 82.5t-49.5 224.5q20 418 269 889h-3q-67 -67 -230 -305q-188 -309 -316 -577q-19 -45 -40.5 -67t-47.5 -22q-87 34 -88 88l183 406q129 307 138 373q-4 13 -15 15q-94 -9 -240 -74.5t-284 -145.5q-149 -95 -156 -127q0 -32 54 -80l-8 -21q-65 28 -89 87z" />
    <glyph glyph-name="O" unicode="O" horiz-adv-x="946" 
d="M672 936q110 0 158.5 -53.5t48.5 -135.5q79 -27 79 -121q0 -217 -183.5 -492t-376.5 -275q-123 0 -182.5 69.5t-59.5 154.5q0 175 95 439q-34 -14 -96 -15q-81 12 -117.5 58.5t-37.5 98.5q0 37 14 37q7 -42 33.5 -96.5t85.5 -54.5q57 2 161 34q177 352 378 352zM453 626
q183 88 358 115q0 72 -13.5 112t-58.5 40q-126 0 -286 -267zM283 59q0 -63 26 -110.5t109 -47.5q171 0 334.5 264t163.5 446q0 83 -39 83q-36 -135 -160 -289q-94 -106 -181 -106q-43 0 -75 31q119 45 206 152.5t137 221.5q-175 -29 -369 -122q-152 -308 -152 -523z" />
    <glyph glyph-name="P" unicode="P" horiz-adv-x="946" 
d="M1027 786q-52 106 -230 106q-241 0 -567 -233q-157 -126 -157 -273l-10 -10q-63 53 -63 137q0 190 394 396q157 75 340 75q300 -1 342 -184q-2 -280 -231 -477q-164 -111 -277 -111q-42 0 -77 4q-13 0 -25 -281q-5 -8 -14 -10q-93 29 -93 121q0 27 30 229q-29 23 -39 50
t-10 61q0 61 117 180q98 258 204 258q68 -4 68 -25q-63 -28 -95 -82t-39 -85q104 53 260 104l11 -28q-141 -48 -279 -109q-77 -221 -77 -266l16 -6q192 1 369 181q131 152 132 278zM384 408q0 -29 25 -43q9 73 33 145q-58 -73 -58 -102z" />
    <glyph glyph-name="Q" unicode="Q" horiz-adv-x="815" 
d="M684 975q165 -19 165 -145q0 -290 -115.5 -507t-203.5 -288q61 -137 112 -200t76 -63l33 77l27 18q0 -135 -70 -135q-118 0 -181 80.5t-100 150.5q-134 -82 -197 -82q-148 0 -189 65t-41 140q0 281 249 575q56 73 140 115q109 199 295 199zM500 780q49 -21 57 -33
q-19 -24 -93 -66q-20 -159 -20 -205q0 -261 60 -394q94 89 193.5 299t100.5 434q-14 135 -79 135q-100 -17 -185 -105q-21 -33 -34 -65zM120 61q0 -149 95 -149q45 0 89.5 25.5t106.5 73.5q-76 146 -76 433q0 94 21 172q-126 -135 -181 -262.5t-55 -292.5z" />
    <glyph glyph-name="R" unicode="R" horiz-adv-x="1092" 
d="M1210 -219q-253 0 -345 209q-73 167 -171 444q-89 -109 -220 -378q-49 -122 -81 -122q-54 0 -109 68q348 740 368 792t20 79q0 24 -18 27q-181 -25 -451 -261q-108 -113 -108 -158q4 -40 4 -46l-9 -4q-54 0 -90 90q3 85 239 266q244 182 352 190q58 0 181 -117
q9 -17 9 -36q0 -46 -190 -438v-5l230 339q208 267 393 390q34 23 50 25q108 -20 108 -95q-18 -160 -199 -383q-247 -244 -334 -244l-4 -9q127 -313 181 -429q97 -149 203 -149q84 0 158 77l14 -12q-110 -107 -181 -110zM729 503q123 0 273 154q193 173 253 334q19 74 19 99
q-52 0 -292 -245q-129 -151 -253 -342z" />
    <glyph glyph-name="S" unicode="S" horiz-adv-x="773" 
d="M941 923q0 19 -22 20q-146 -11 -385 -167.5t-359.5 -309t-120.5 -205.5q4 -63 152 -76q148 -7 238.5 -21.5t149.5 -50.5t61 -80q-26 -95 -190 -196q-137 -67 -255 -67q-119 0 -168 190l19 5q19 -79 65 -107q120 0 267.5 80t147.5 125q-60 27 -165 37.5t-183 17.5
q-175 16 -193 173q11 155 92 262.5t248 237t285 179.5q144 63 220 68q76 0 146 -114q15 -26 22 -62q-13 -85 -122 -182q-239 -241 -396 -282q-99 0 -101 96l9 4q5 -6 16 -9q139 38 316 190.5t206 243.5z" />
    <glyph glyph-name="T" unicode="T" horiz-adv-x="581" 
d="M40 1033q4 0 4 -8q-24 -62 -24 -76q8 -56 138 -56q138 0 403 41t415 41q122 0 172 -44q24 -32 24 -92q0 -24 -16 -24q-51 52 -186 52q-137 0 -296 -30q-263 -463 -335 -844q0 -12 4 -12q17 0 56 36q8 -1 8 -8q-8 -92 -68 -92q-118 27 -128 124q72 314 318 784
q-295 -46 -385 -46q-97 0 -120 78q-24 59 -24 96q0 40 40 80z" />
    <glyph glyph-name="U" unicode="U" horiz-adv-x="850" 
d="M630 520q-59 -107 -174 -334q-83 -142 -184 -269q-44 1 -95 44q-59 43 -59 79q0 95 232 650q34 99 35 161l-10 14q-61 -9 -154 -66q-77 -60 -104.5 -117.5t-27.5 -105.5q2 -15 15 -15q35 7 125 67l6 -10q-77 -102 -139 -111q-58 15 -96 127q0 152 149 252q91 67 164 67
q80 0 162 -92q13 -26 13 -66q0 -119 -161 -517q-84 -222 -84 -296l9 -4q18 0 117 154q250 469 333 651q10 14 31 17q110 -14 110 -75q-77 -201 -130.5 -378.5t-54.5 -376.5q29 15 73 71t123 172l13 -17q-80 -120 -139 -198q-55 -68 -81 -69q-50 0 -111 118q0 114 30.5 241
t63.5 232z" />
    <glyph glyph-name="V" unicode="V" horiz-adv-x="521" 
d="M832 1067q57 -6 87.5 -30.5t30.5 -51.5q-2 -17 -21 -22q-17 22 -39 33q-130 -95 -417 -559l-301 -492q-15 -15 -30 -15q-112 69 -142 126q29 128 63 384t34 380q-8 37 -20 68q3 13 14 13q75 0 164 -120q-113 -736 -113 -756t12 -21q8 2 271 475q187 348 391 581q5 6 16 7
z" />
    <glyph glyph-name="W" unicode="W" horiz-adv-x="836" 
d="M1278 1189q100 -10 134 -48l-5 -10q-45 3 -90 5q-172 -157 -381 -497q-111 -182 -361 -678q-9 -18 -35 -19q-128 78 -132 135q19 235 138 639q0 7 -7 10q-175 -275 -386 -753l-35 -36h-7q-111 51 -111 111q162 591 162 753q0 72 -36 115q0 8 29 15q155 -28 155 -157
q0 -106 -146 -666l9 -4q299 670 359 670q22 0 74.5 -30t52.5 -63q0 -8 -58 -235.5t-60 -374.5q0 -54 8 -58l148.5 295l186.5 359q148 237 247 371.5t147 150.5z" />
    <glyph glyph-name="X" unicode="X" horiz-adv-x="673" 
d="M94 135q110 150 188 277l-188 540l5 25q57 -4 125 -36q45 0 45 -25l114 -378q189 258 347 425t198 171q41 -28 54 -55l-8 -10q-33 12 -46 12q-20 0 -103 -82.5t-225 -259.5l-187 -255q147 -399 240.5 -525.5t159.5 -126.5q12 0 58 80q7 0 7 -7q0 -101 -168 -132
q-165 0 -401 591l-138 -198t-220 -302l-33 32z" />
    <glyph glyph-name="Y" unicode="Y" horiz-adv-x="597" 
d="M226 -5q94 306 242.5 546t276.5 411l-5 -1q-334 -364 -460 -596q-91 -130 -130 -214q-6 -13 -15 -15q-105 38 -135 87q235 582 236 701q-2 36 -58 76q0 9 9 10q83 -2 124.5 -39.5t44.5 -93.5q-1 -120 -191 -577l10 -5q123 211 484 637q135 140 165 142l90 -44
q9 -5 11 -25q-75 -93 -248 -337q-248 -447 -304 -661q-57 -184 -128 -521q-23 -16 -44 -17q-89 23 -92 73q17 154 117 463z" />
    <glyph glyph-name="Z" unicode="Z" horiz-adv-x="656" 
d="M705 876q36 8 65 10q27 -6 50 -107l-6 -7q-148 -189 -313.5 -424.5t-286.5 -450.5q97 18 235 20q105 0 222 -19t170 -39t93 -48q73 -72 76 -163q-4 -34 -47 -54l-3 4q29 43 32 65q-38 101 -180 125t-293 25q-134 0 -270 -20.5t-278 -71.5q-33 5 -35 106q3 22 116 45
q81 147 299 465l311 445q-93 -30 -177 -48q-108 -24 -211 -25q-114 8 -132.5 65.5t-21.5 115.5l12 5q54 -92 153 -92q92 0 252.5 36t167.5 37z" />
    <glyph glyph-name="bracketleft" unicode="[" horiz-adv-x="451" 
d="M163 -307q47 -8 156 -13q-6 -28 -27 -45q-63 6 -145 6q-94 4 -104 44q5 190 46 520q67 377 143 592.5t134 333t98 155.5l15 2q67 -25 84 -32q166 -55 176 -73q0 -34 -15 -41q-14 21 -171 79q-5 3 -11 4q-63 -100 -141 -297q-161 -426 -202 -741q-24 -230 -36 -494z" />
    <glyph glyph-name="backslash" unicode="\" horiz-adv-x="538" 
d="M58 1013q-16 0 -28 -8q-4 0 -12 4q0 45 108 60q77 -195 170 -521.5t206 -682.5q0 -63 -72 -92q-16 98 -176.5 632.5t-195.5 607.5z" />
    <glyph glyph-name="bracketright" unicode="]" horiz-adv-x="590" 
d="M375 1198q-47 8 -156 13q6 28 27 45q63 -6 145 -6q94 -4 104 -44q-5 -190 -46 -520q-67 -377 -143 -592.5t-134 -333t-98 -155.5l-15 -2q-67 25 -84 32q-166 55 -176 73q0 34 15 41q13 -21 171 -79q5 -3 11 -4q63 100 141 297q161 426 202 741q23 230 36 494z" />
    <glyph glyph-name="asciicircum" unicode="^" horiz-adv-x="447" 
d="M196 856q0 5 -6 6q-4 -3 -57 -216q-39 6 -58 25q34 95 73 249q7 13 31 19q91 -7 119 -54q5 -92 46 -319q-2 -11 -11 -14q-93 28 -103 47q-32 248 -34 257z" />
    <glyph glyph-name="underscore" unicode="_" horiz-adv-x="741" 
d="M226 -86q-138 5 -189 5q5 71 37 85q81 0 165 -4q325 -11 457 -28q-19 -62 -33 -72q-52 4 -109 7q-72 3 -328 7z" />
    <glyph glyph-name="grave" unicode="`" horiz-adv-x="598" 
d="M296 893q-121 90 -128 104q0 22 52 75q7 0 16 -3q60 -77 183 -208q0 -14 -3 -18.5t-17 -7.5q-31 1 -103 58z" />
    <glyph glyph-name="a" unicode="a" horiz-adv-x="554" 
d="M477 67q-69 -85 -133 -87q-97 37 -97 124q-122 -154 -204 -154q-84 62 -84 109q1 62 41.5 143t97.5 145q178 207 290 207q20 -2 65 -34.5t49 -76.5q-2 -16 -26 -56q30 -38 30 -55q0 -14 -150 -295q1 -15 11 -16q70 4 193 197l15 -16q-37 -59 -98 -135zM73 15
q79 0 226 218q86 122 152 189q5 6 5 24q-2 10 -15 10q-151 -40 -259.5 -204t-108.5 -237z" />
    <glyph glyph-name="b" unicode="b" horiz-adv-x="537" 
d="M317 -1q-57 -55 -124 -59q-37 0 -116 59q-16 -39 -31 -54q-47 0 -102 102q97 297 407 824q8 16 27 16q78 -42 90 -77q-19 -17 -56 -82q-206 -372 -284 -536l-30 -81q50 87 170 259t175 172q86 -19 87 -101q0 -140 -213 -442zM97 31q0 -10 4 -15q131 0 332 461
q0 20 -10 20q-90 -38 -306 -415q-11 -24 -20 -51z" />
    <glyph glyph-name="c" unicode="c" horiz-adv-x="360" 
d="M104 -65q-41 0 -81 51.5t-40 77.5q0 108 23.5 173t52.5 110q124 188 253 188q71 -40 76 -92q-9 -62 -20 -64l-12 4q-9 0 -20 60q-57 0 -164 -174q-69 -119 -70 -267q6 -11 40 -11q78 9 222 224l16 -18q-175 -262 -276 -262z" />
    <glyph glyph-name="d" unicode="d" horiz-adv-x="611" 
d="M109 64q0 -40 9 -40q78 1 258 391q-3 22 -31 22q-95 -25 -165.5 -164t-70.5 -209zM267 126q-41 -56 -75 -94q-43 -48 -72 -48q-107 0 -137 102q0 87 33 162t109.5 174t153.5 107q49 -6 108 -64q152 280 202 345.5t55 65.5q77 -23 82 -71q-24 -46 -82 -137
q-166 -269 -221.5 -412t-55.5 -245q6 -29 25 -29q12 0 30 9q84 55 192 224l16 -18q-175 -252 -246 -252q-41 0 -105 108q-11 24 -12 73z" />
    <glyph glyph-name="e" unicode="e" horiz-adv-x="394" 
d="M103 -36q-72 7 -131 115q20 187 152 361q82 111 111 111q157 -34 163 -114q-39 -210 -145 -210q-45 4 -98 29q-60 -129 -69 -237q2 -11 37 -21q128 6 279 222l17 -14q-163 -240 -316 -242zM169 280q14 -13 42 -17q44 25 126 205q-1 11 -30 16q-74 -88 -138 -204z" />
    <glyph glyph-name="f" unicode="f" horiz-adv-x="305" 
d="M40 218q-8 -8 -46 -59l-19 14q57 67 91 131q145 354 258 460q45 49 96 49q35 -3 51 -26q18 23 56 87q13 0 21 -10t10 -32q-61 -124 -77 -159q-20 1 -21 13l18 55q-4 16 -24 17q-153 -173 -328 -648l1 -10q115 34 176 102l16 -15q-67 -80 -163 -100q17 -34 17 -91
q-14 -251 -197 -546q-16 -20 -46 -20q-88 24 -107 91q9 117 66.5 291.5t95.5 270.5t55 135zM-55 -496q4 -12 21 -13q158 278 177 509q0 66 -34 70q-43 -109 -100.5 -286.5t-63.5 -279.5z" />
    <glyph glyph-name="g" unicode="g" horiz-adv-x="481" 
d="M263 543q102 -23 116 -119q-5 -20 -30 -28l-12 3q0 69 -17 72q-74 -40 -140 -138q-92 -152 -99 -293q2 -42 24 -43q72 14 161 201q77 151 113 153q38 -7 75 -48l-1 -4q-52 -86 -88 -186q-18 -48 -54 -178q57 14 143 15q147 -11 154 -112q-1 -8 -16 -10q-12 29 -40 60
t-92 33q-78 -3 -160 -30q-38 -140 -90.5 -252t-131 -172t-175.5 -64q-68 3 -106.5 41t-41.5 91q5 79 104 178t329 190l6 6q28 97 42 168q-62 -103 -122 -117q-111 40 -134 129q3 80 30 165q59 137 130.5 211.5t122.5 77.5zM-193 -466q1 -65 30 -78t70 -13q69 32 148 148
t130 271q-89 -36 -231 -125.5t-147 -202.5z" />
    <glyph glyph-name="h" unicode="h" horiz-adv-x="482" 
d="M393 767q-143 -233 -208.5 -416t-85.5 -305q65 200 199 376q83 123 131 123q70 0 94 -30q-200 -423 -200 -600q0 -41 17 -41l13 8q14 -3 17 -21q-11 -21 -43 -21q-102 22 -102 166q0 123 115 409v4q-156 -203 -233 -436q-13 -68 -29 -68q-39 0 -95 74q-10 14 -10 37
q26 239 126.5 462t193.5 355q51 -6 75.5 -30t24.5 -46z" />
    <glyph glyph-name="i" unicode="i" horiz-adv-x="291" 
d="M369 840q89 -21 89 -47v-21l-126 -209l-22 -1q-39 23 -44 78q0 59 103 200zM103 -50q-84 22 -106 76q-13 25 -13 87q3 60 28.5 139.5t90.5 191t93 111.5q88 -42 88 -68q-65 -91 -127 -226q-57 -156 -57 -245q2 -16 17 -16q28 0 182 217l13 -21q-171 -241 -209 -246z" />
    <glyph glyph-name="j" unicode="j" horiz-adv-x="278" 
d="M179 540q38 13 67 13q58 -2 62 -27q-19 -87 -72 -163q-104 -384 -203 -548q-148 -273 -360 -373q-104 -39 -190 -39q-137 0 -299 104l-4 10q0 5 6 5q130 -64 213 -64q223 0 429 252q121 170 177 318.5t75 238.5l-93 -115l-12 21q37 46 66 89.5t57 101.5q38 124 81 176z
M320 872q107 -32 107 -58v-21q-66 -102 -107 -173l-22 -1q-45 16 -66 70q22 67 88 183z" />
    <glyph glyph-name="k" unicode="k" horiz-adv-x="521" 
d="M408 -326q-115 0 -178 71q-31 49 -53 113.5t-58 245.5l-62 -164q-11 -8 -21 -9q-33 4 -78 76l-1 8q4 86 51 180q116 304 243.5 488.5t152.5 188.5q58 -13 93 -67l-4 -18q-260 -323 -318 -531l4 -4q185 262 245 269q102 -12 109 -79q-11 -128 -162 -284q-58 -45 -131 -65
q53 -361 214 -361q33 0 110 72.5t138 232.5l11 -18q-9 -60 -69 -170q-48 -86 -128 -141q-56 -29 -108 -34zM159 172q42 0 76 25q111 97 209 264q-1 19 -13 19q-77 -37 -166.5 -153.5t-105.5 -154.5z" />
    <glyph glyph-name="l" unicode="l" horiz-adv-x="386" 
d="M130 433q100 204 157 277q95 120 116 120q66 0 101 -53q-95 -87 -187 -244q-150 -284 -150 -538q32 11 78.5 46t146.5 177l15 -16q-81 -128 -143.5 -186t-104.5 -65q-110 35 -124 111q0 105 57 257q-28 -56 -83 -136l-18 13q65 94 139 237z" />
    <glyph glyph-name="m" unicode="m" horiz-adv-x="830" 
d="M185 533q77 -29 77 -83q-155 -337 -155 -387h6q159 262 322 437q13 13 28 23h6q107 -44 107 -78q0 -27 -106 -258v-6l262 314q20 11 39 11q45 0 93 -67q0 -11 -79 -136t-119 -263t-40 -354q8 -111 39 -111q28 0 67 17h5q-3 -29 -61 -45q-163 14 -163 270q8 338 234 638
q-63 -56 -277 -351q-65 -102 -101 -106q-32 11 -55.5 50t-23.5 62q117 233 161 341q0 6 -5 6q-74 -67 -234 -297q-108 -181 -151 -184q-91 50 -91 85q0 65 44.5 165l95 203.5t75.5 103.5z" />
    <glyph glyph-name="n" unicode="n" horiz-adv-x="568" 
d="M595 211q-157 -235 -246 -239q-96 44 -96 108q10 96 184 396q0 4 -9 4q-165 -135 -303 -400q-61 -125 -84 -125q-27 0 -89 87q13 103 116 294.5t127 196.5q90 -26 90 -65q-109 -182 -179 -349l6 -4q89 173 217 312.5t187 141.5q85 -32 85 -82q-100 -122 -190 -321
q-44 -95 -45 -150q78 1 215 212z" />
    <glyph glyph-name="o" unicode="o" horiz-adv-x="526" 
d="M102 379q111 131 161 137q64 -49 66 -71l1 -5q-71 -59 -114 -117q-122 -167 -122 -308q0 -35 20 -42q116 13 256 334q27 63 27 150q-8 77 -58 77l-14 3q7 10 14 12q141 -14 156 -120q-6 -142 -61 -243q-122 -217 -278 -238q-153 0 -169 143q1 140 115 288z" />
    <glyph glyph-name="p" unicode="p" horiz-adv-x="509" 
d="M284 508q-41 -33 -77 -96q-72 -120 -135 -349h5q20 46 80.5 170.5t104.5 196.5q41 63 121 66q74 0 80 -113q-16 -182 -129 -327q-74 -73 -122 -75q-66 6 -132 40q-35 -94 -92 -325q-33 -188 -56 -194q-55 6 -109 64q44 263 218 758q96 237 168 237q71 -20 75 -53zM97 48
q13 -13 45 -24q80 14 155 201q55 137 56 228q-3 6 -15 6q-27 -1 -86.5 -107t-154.5 -304z" />
    <glyph glyph-name="q" unicode="q" 
d="M205 -557q-2 -17 -19 -17q-122 38 -125 83q0 1 -1 1q25 140 70 288t96 286q-45 -47 -75 -73.5t-64 -37.5q-72 11 -108 55q-16 22 -16 56q17 130 129 315q89 134 172 147q98 -15 108 -71q59 -17 77 -55q-55 -163 -93 -292q-127 -410 -151 -685zM89 33q0 -13 12 -13
q106 78 161 226q78 190 78 216q-3 20 -18 20q-108 -71 -208 -324q-25 -69 -25 -125z" />
    <glyph glyph-name="r" unicode="r" horiz-adv-x="521" 
d="M166 451q24 52 42 70q15 0 48.5 -26.5t35.5 -45.5l-105 -209q80 113 187 237q55 64 81 64h15q33 -16 55 -49l2 -15q-128 -263 -128 -313q3 -14 24 -14q54 0 98 57l18 -13q-48 -71 -123 -72q-81 4 -96 64q0 116 77 272q0 4 -5 5q-171 -196 -307 -479l-18 -15
q-71 15 -92 53l97 234l22 48q-35 -45 -93 -132l-15 15q80 120 120 175.5t60 88.5z" />
    <glyph glyph-name="s" unicode="s" horiz-adv-x="384" 
d="M205 31q60 -57 60 -130q0 -118 -106 -281q-60 -91 -136 -97q-76 16 -120 120q0 133 242 376q-106 119 -142 171q-15 26 -15 65q0 102 118 181t195 81q86 -42 91 -90q-14 -50 -31 -50q-15 0 -15 35q0 12 -20 15q-109 -61 -168 -119t-59 -143q0 -35 88 -115q29 21 95 63.5
t103 93.5l14 -15q-35 -54 -104 -100t-90 -61zM-64 -357q1 -25 26 -41q75 16 145 169.5t70 189.5q-2 17 -16 35q-204 -196 -225 -353z" />
    <glyph glyph-name="t" unicode="t" horiz-adv-x="329" 
d="M212 673q89 149 133 173l10 2q83 -22 85 -43l4 -6q-30 -25 -106 -146q105 -13 149 -13l34 7l14 -36q-28 -13 -60 -14q-31 2 -71.5 8.5t-88.5 15.5q-54 -80 -100 -194q-100 -223 -102 -377q1 -31 28 -49q42 0 195 217h4q10 -5 10 -16q-150 -246 -238 -247q-54 12 -87 49.5
t-33 88.5q1 184 133 427l67 125l-97 21q-22 5 -30 17q2 17 14 22q70 -19 133 -32z" />
    <glyph glyph-name="u" unicode="u" horiz-adv-x="663" 
d="M683 199q-159 -229 -258 -232q-94 23 -100 96q0 41 5 68t5 32q-52 -70 -151 -166q-39 -26 -70 -30q-86 50 -86 151q0 66 45 157q-23 -31 -69 -99l-15 15q178 270 290 361l11 5q74 -41 85 -85v-5q-241 -268 -241 -425q2 -34 5 -35q29 0 241 277q95 152 199 256q9 5 15 5
q48 -18 62 -46.5t14 -38.5q-50 -53 -138 -171q-102 -161 -102 -287q51 0 106.5 50.5t133.5 165.5z" />
    <glyph glyph-name="v" unicode="v" horiz-adv-x="411" 
d="M92 383q13 64 13 98q-6 44 -14 59l7 10q55 -5 114 -49q10 -33 13 -64q0 -99 -59 -305l6 -1q56 138 326 466q78 68 107 72q25 0 35 -16l1 -12q-160 -54 -434 -534q-43 -87 -89 -194l-11 -2q-58 31 -95 122l-1 10q48 177 69 268q-28 -62 -74 -131l-19 10q56 86 105 193z
" />
    <glyph glyph-name="w" unicode="w" horiz-adv-x="795" 
d="M653 516q-132 35 -133 96q0 26 10 40l10 2q6 -31 33 -43q153 -66 331 -98l-5 -12q-60 2 -188 17l-2 -7q31 -41 32 -91q-1 -143 -61 -288q-103 -236 -254 -244q-44 0 -107.5 46t-63.5 83q1 102 25 172t76 164q0 5 -5 7q-77 -76 -289 -399q-62 0 -85 23q-31 31 -33 64
l116 270q67 149 67 202q0 35 -46 40v6q16 12 36 12q103 -51 105 -144q-51 -169 -127 -340q0 -8 8 -11q275 393 312 396l30 -20q47 -39 48 -63l-5 -18q-64 -98 -96 -186.5t-32 -194.5q1 -49 22 -49q133 71 230 322q40 101 41 246z" />
    <glyph glyph-name="x" unicode="x" horiz-adv-x="439" 
d="M141 149q-109 -124 -189 -204q-35 9 -37 27l39 34q35 27 67 63.5t98 120.5q-9 29 -31.5 115.5t-46.5 239.5l13 16q72 -12 121 -66q6 -27 11.5 -65.5t35.5 -152.5q207 224 288 275l12 -23q-85 -64 -196 -186l-90 -110q43 -165 99 -236q18 -24 30 -24l24 18q7 -6 8 -11
q-2 -42 -65 -52q-71 3 -131 80q-34 43 -60 141z" />
    <glyph glyph-name="y" unicode="y" horiz-adv-x="533" 
d="M447 540q79 -20 108 -51l-2 -10q-15 -34 -38 -102q-85 -197 -177 -447q-143 -372 -269 -453q-20 -15 -46 -15q-116 8 -152 42l4 12q23 -5 58 -5q118 1 282 424l138 367q-153 -287 -266 -325q-20 0 -68.5 31.5t-53.5 85.5q2 79 103.5 240t105.5 183q-2 23 -9 34l3 9
q89 -4 106 -92q-8 -74 -106.5 -223.5t-99.5 -207.5q3 -17 17 -19q114 37 330 501q8 19 32 21z" />
    <glyph glyph-name="z" unicode="z" horiz-adv-x="406" 
d="M-8 -29q-42 55 -46 72q0 27 87.5 144.5t263.5 315.5l-2 5q-77 1 -136 21q-47 20 -57 48q5 12 13 14q29 -27 72 -41.5t189 -19.5q30 -29 32 -62v-13q-197 -218 -318 -394q91 26 155 26q62 0 90 -30q16 -21 18 -40q-2 -31 -15 -58l-7 1q-5 17 -18 28q-21 18 -72 18
q-126 0 -241 -43z" />
    <glyph glyph-name="braceleft" unicode="{" horiz-adv-x="667" 
d="M219 198q-1 71 -44.5 143t-172.5 114l-2 13q34 68 137 99q84 -36 169 -65q13 155 86 354q66 177 156.5 227.5t194.5 51.5q65 0 80 -62q-3 -81 -76 -197q-10 2 -14 12q0 18 10 90q0 76 -7 92q-2 14 -19 14q-128 -10 -241 -380q-29 -141 -33 -209q-8 -55 -56 -112
q-34 -8 -65 -8q-59 6 -106 30q51 -109 52 -201q0 -74 -19 -165.5t-19 -198.5q3 -86 30 -143.5t81 -57.5q51 0 118 87l22 -22q-76 -107 -148 -110q-73 0 -111 72t-40 180q2 109 19.5 197.5t17.5 154.5z" />
    <glyph glyph-name="bar" unicode="|" horiz-adv-x="324" 
d="M218 988q88 -64 90 -124q-6 -77 -147 -706q-44 -203 -52 -282q0 -28 4 -44q-1 -16 -25 -23q-63 14 -81 61q35 224 110 542q93 393 99 481q0 30 -16 71l2 16q8 6 16 8z" />
    <glyph glyph-name="braceright" unicode="}" horiz-adv-x="530" 
d="M226 462q68 160 72 362q-3 256 -149 263q-22 -24 -23 -65l-16 -14q-27 37 -29 98q24 41 82 42q109 -8 182.5 -82.5t75.5 -270.5q-5 -204 -44 -360q53 -7 129 -25q24 -45 24 -94q-149 -19 -242.5 -115.5t-98.5 -258.5q-6 -162 -60.5 -229.5t-132.5 -69.5q-73 2 -112 139
l30 15q30 -109 91 -109q51 3 92 63.5t42 217.5q0 156 157 341q-50 17 -59.5 52t-10.5 100z" />
    <glyph glyph-name="asciitilde" unicode="~" horiz-adv-x="737" 
d="M254 511q-37 -5 -71.5 -40.5t-55.5 -82.5q-14 -19 -29 -22q-17 -2 -31 -2l-5 8q1 14 19 44q35 70 75 112q44 42 96 51q49 0 144 -50q19 -15 39 -71.5t54 -82.5q48 7 71.5 43.5t35.5 78.5q6 19 39 27q13 0 17 -11l-9 -26q-35 -88 -69.5 -132.5t-94.5 -58.5q-107 6 -147 40
q-18 25 -42 95.5t-36 79.5z" />
    <glyph glyph-name="Adieresis" unicode="&#xc4;" horiz-adv-x="748" 
d="M752 1284q107 -32 107 -58v-21q-47 -65 -88 -136l-22 -1q-45 16 -66 70q22 67 69 146zM949 1252q107 -18 107 -44v-21l-82 -138l-22 -1q-45 16 -66 70q8 71 63 134zM609 -182q0 -10 -14 -10q-57 10 -125 73q-17 39 -17 130q14 134 66 291q-65 -10 -181 -60
q-126 -176 -238 -379q-3 -5 -10 -5q-53 16 -82 40q-8 4 -8 15q18 5 52 52q143 194 190 275q-99 63 -99 161q3 25 12 40h6q25 -43 56.5 -68t97.5 -29l197 273.5l255 359.5q8 7 17 7q51 -16 93 -73v-12q-269 -593 -282 -926q0 -72 7 -110t7 -45zM418 365q109 30 138 30
q39 116 139 366l-4 3q-43 -41 -222 -315z" />
    <glyph glyph-name="Aring" unicode="&#xc5;" horiz-adv-x="748" 
d="M992 1350q37 0 72 -34.5t35 -58.5q0 -40 -59 -123t-138 -88q-71 3 -104 39q0 67 28.5 126t69 92t96.5 47zM878 1092q78 3 129.5 76.5t51.5 112.5q-40 0 -78.5 -24.5t-70.5 -78.5t-32 -86zM609 -182q0 -10 -14 -10q-57 10 -125 73q-17 39 -17 130q14 134 66 291
q-65 -10 -181 -60q-126 -176 -238 -379q-3 -5 -10 -5q-53 16 -82 40q-8 4 -8 15q18 5 52 52q143 194 190 275q-99 63 -99 161q3 25 12 40h6q25 -43 56.5 -68t97.5 -29l197 273.5l255 359.5q8 7 17 7q51 -16 93 -73v-12q-269 -593 -282 -926q0 -72 7 -110t7 -45zM418 365
q109 30 138 30q39 116 139 366l-4 3q-43 -41 -222 -315z" />
    <glyph glyph-name="Ccedilla" unicode="&#xc7;" horiz-adv-x="628" 
d="M213 -71q-95 6 -189 116q-24 29 -24 100q0 232 284 552q189 191 304 204q127 -10 187.5 -40.5t60.5 -51.5q0 -72 -152 -176q-12 0 -12 8q0 7 44 80q28 70 28 88q0 20 -12 20q-93 0 -368 -260q-209 -251 -244 -460q1 -134 90 -136q180 0 377 181q49 63 78 111l17 -30
l-98 -122q-171 -165 -325 -182q47 -66 47 -139q-6 -91 -46.5 -130t-104.5 -46q-111 5 -113 53q15 87 57 109q7 0 7 -3q-16 -76 -18 -106q111 0 136 158q0 69 -11 102z" />
    <glyph glyph-name="Eacute" unicode="&#xc9;" horiz-adv-x="821" 
d="M538 -81q-167 -109 -392 -110q-98 14 -146 229q5 47 15 77q65 202 405 405q-43 6 -83 22q-109 36 -114 140q4 134 137 207t319 73q84 0 127 -16q59 -18 102 -98t43 -112q-49 -88 -134 -98q-10 8 -11 23q62 75 67 88l3 12q0 33 -28.5 58t-145.5 25q-223 -2 -308.5 -60.5
t-99.5 -106.5q3 -24 36 -36q115 -49 281 -49q76 0 128 14q53 -18 62 -122l-2 -9q-36 -3 -105 -10q-213 -16 -461 -233q-104 -110 -136 -206l-17 -50q2 -28 33.5 -41.5t88.5 -14.5q248 0 543 238l9 -11q-56 -120 -216 -228zM651 1067q-10 3 -15 22q123 111 188 180q8 3 16 3
q44 -40 47 -67q-7 -14 -107 -69q-98 -68 -129 -69z" />
    <glyph glyph-name="Ntilde" unicode="&#xd1;" horiz-adv-x="888" 
d="M611 1174q-27 0 -55.5 -22t-48.5 -54q-5 -13 -23 -13q-12 0 -22 2l-3 6q2 10 18 30q32 47 65 73q36 26 74 27q82 -18 101 -43q10 -20 19 -62.5t31 -64.5q35 0 55.5 24t33.5 53q6 13 24 13q11 0 18 -7l-9 -18q-34 -60 -63.5 -88.5t-73.5 -32.5q-77 15 -102 43
q-11 20 -21 73t-18 61zM453 661q-176 -405 -227 -593q13 3 147 220q274 519 376 598q12 7 23 12q74 -3 128 -61l1 -6q-5 -64 -107 -379q-33 -141 -46.5 -247.5t-14.5 -251.5q2 -146 63 -242q31 -33 64 -42l-7 -15q-41 4 -85 25q-160 109 -168 350q5 188 44.5 371t127.5 430
l-4 2q-118 -115 -357 -560l-231 -378q-100 35 -119 90q4 75 167.5 440t176.5 439q-1 20 -27 21q-52 0 -194 -160q-82 -106 -86 -180q0 -38 33 -56q4 -3 10 -6l-12 -11q-125 39 -129 108q2 121 147 265q109 105 171 110q146 -26 182 -129l-2 -17q-3 -44 -45 -147z" />
    <glyph glyph-name="Odieresis" unicode="&#xd6;" horiz-adv-x="692" 
d="M577 1261q107 -32 107 -58v-21q-47 -65 -88 -136l-22 -1q-45 16 -66 70q22 67 69 146zM774 1229q107 -18 107 -44v-21l-82 -138l-22 -1q-45 16 -66 70q8 71 63 134zM490 976q93 -2 175 -53q-18 -15 -53 -23q107 -48 114 -115q-3 -204 -146 -495q-202 -354 -352 -359
q-202 25 -228 202q5 237 189 573q153 248 301 270zM134 135q5 -129 47 -147q93 0 299 358q135 249 138 466q-5 53 -35 66l7 13q-115 -2 -212.5 -138t-170.5 -321t-73 -297z" />
    <glyph glyph-name="Udieresis" unicode="&#xdc;" horiz-adv-x="850" 
d="M630 520q-59 -107 -174 -334q-83 -142 -184 -269q-44 1 -95 44q-59 43 -59 79q0 95 232 650q34 99 35 161l-10 14q-61 -9 -154 -66q-77 -60 -104.5 -117.5t-27.5 -105.5q2 -15 15 -15q35 7 125 67l6 -10q-77 -102 -139 -111q-58 15 -96 127q0 152 149 252q91 67 164 67
q80 0 162 -92q13 -26 13 -66q0 -119 -161 -517q-84 -222 -84 -296l9 -4q18 0 117 154q250 469 333 651q10 14 31 17q110 -14 110 -75q-77 -201 -130.5 -378.5t-54.5 -376.5q29 15 73 71t123 172l13 -17q-80 -120 -139 -198q-55 -68 -81 -69q-50 0 -111 118q0 114 30.5 241
t63.5 232zM593 1176q92 -28 92 -50v-18q-40 -57 -76 -118l-19 -1q-39 14 -57 61q19 58 60 126zM763 1148q93 -15 93 -38v-18l-71 -119l-19 -1q-39 14 -57 60q7 62 54 116z" />
    <glyph glyph-name="aacute" unicode="&#xe1;" horiz-adv-x="631" 
d="M80 38q0 -25 12 -25q267 277 334 427q-4 18 -30 18q-95 -2 -194.5 -157.5t-121.5 -262.5zM448 -24q-103 0 -115 130q0 83 12 130q-226 -264 -284 -266q-97 38 -97 86q34 209 209 396q86 87 177 89q41 -6 98 -71q95 -34 95 -43v-12q-100 -258 -100 -352q0 -38 25 -38
q48 6 172 195l14 -15q-83 -130 -144 -197q-24 -30 -62 -32zM414 609q-10 3 -15 22q123 111 188 180q8 3 16 3q44 -40 47 -67q-7 -14 -107 -69q-98 -68 -129 -69z" />
    <glyph glyph-name="agrave" unicode="&#xe0;" horiz-adv-x="631" 
d="M502 624q-121 90 -128 104q0 22 52 75q7 0 16 -3q60 -77 183 -208q0 -14 -3 -18.5t-17 -7.5q-31 1 -103 58zM80 38q0 -25 12 -25q267 277 334 427q-4 18 -30 18q-95 -2 -194.5 -157.5t-121.5 -262.5zM448 -24q-103 0 -115 130q0 83 12 130q-226 -264 -284 -266
q-97 38 -97 86q34 209 209 396q86 87 177 89q41 -6 98 -71q95 -34 95 -43v-12q-100 -258 -100 -352q0 -38 25 -38q48 6 172 195l14 -15q-83 -130 -144 -197q-24 -30 -62 -32z" />
    <glyph glyph-name="acircumflex" unicode="&#xe2;" horiz-adv-x="574" 
d="M480 864q38 59 59 61q18 -6 39.5 -28.5t21.5 -36.5q-68 -134 -89 -229q-4 -8 -11 -9h-3q-78 25 -78 45q0 16 72 149l-9 7l-183 -185q-11 -6 -22 -6q-10 0 -13 12q59 49 216 220zM320 561q133 -27 138 -86l-19 -10q-25 31 -61 31q-127 -33 -279 -356q-48 -115 -48 -149
q20 0 76.5 65.5t131 172.5t124.5 201q11 15 30 15q12 0 37.5 -30t27.5 -50q-73 -229 -75 -237q-23 -86 -26 -140q30 0 203 230q14 -1 16 -14q-184 -258 -212 -258q-96 5 -117 71q2 68 46 242q-31 -65 -67 -116q-144 -197 -192 -197q-70 0 -108 108q1 63 119.5 275t254.5 232
z" />
    <glyph glyph-name="adieresis" unicode="&#xe4;" horiz-adv-x="571" 
d="M295 853q107 -32 107 -58v-21q-47 -65 -88 -136l-22 -1q-45 16 -66 70q22 67 69 146zM492 821q107 -18 107 -44v-21l-82 -138l-22 -1q-45 16 -66 70q8 71 63 134zM320 561q133 -27 138 -86l-19 -10q-25 31 -61 31q-127 -33 -279 -356q-48 -115 -48 -149q20 0 76.5 65.5
t131 172.5t124.5 201q11 15 30 15q12 0 37.5 -30t27.5 -50q-73 -229 -75 -237q-23 -86 -26 -140q30 0 203 230q14 -1 16 -14q-184 -258 -212 -258q-96 5 -117 71q2 68 46 242q-31 -65 -67 -116q-144 -197 -192 -197q-70 0 -108 108q1 63 119.5 275t254.5 232z" />
    <glyph glyph-name="atilde" unicode="&#xe3;" horiz-adv-x="572" 
d="M356 779q-27 0 -55.5 -22t-48.5 -54q-5 -13 -23 -13q-12 0 -22 2l-3 6q2 10 18 30q32 47 65 73q36 26 74 27q82 -18 101 -43q10 -20 19 -62.5t31 -64.5q35 0 55.5 24t33.5 53q6 13 24 13q11 0 18 -7l-9 -18q-34 -60 -63.5 -88.5t-73.5 -32.5q-77 15 -102 43
q-11 20 -21 73t-18 61zM320 561q133 -27 138 -86l-19 -10q-25 31 -61 31q-127 -33 -279 -356q-48 -115 -48 -149q20 0 76.5 65.5t131 172.5t124.5 201q11 15 30 15q12 0 37.5 -30t27.5 -50q-73 -229 -75 -237q-23 -86 -26 -140q30 0 203 230q14 -1 16 -14
q-184 -258 -212 -258q-96 5 -117 71q2 68 46 242q-31 -65 -67 -116q-144 -197 -192 -197q-70 0 -108 108q1 63 119.5 275t254.5 232z" />
    <glyph glyph-name="aring" unicode="&#xe5;" horiz-adv-x="573" 
d="M561 918q37 0 72 -34.5t35 -58.5q0 -40 -59 -123t-138 -88q-71 3 -104 39q0 67 28.5 126t69 92t96.5 47zM447 660q78 3 129.5 76.5t51.5 112.5q-40 0 -78.5 -24.5t-70.5 -78.5t-32 -86zM320 561q133 -27 138 -86l-19 -10q-25 31 -61 31q-127 -33 -279 -356
q-48 -115 -48 -149q20 0 76.5 65.5t131 172.5t124.5 201q11 15 30 15q12 0 37.5 -30t27.5 -50q-73 -229 -75 -237q-23 -86 -26 -140q30 0 203 230q14 -1 16 -14q-184 -258 -212 -258q-96 5 -117 71q2 68 46 242q-31 -65 -67 -116q-144 -197 -192 -197q-70 0 -108 108
q1 63 119.5 275t254.5 232z" />
    <glyph glyph-name="ccedilla" unicode="&#xe7;" horiz-adv-x="383" 
d="M138 -35q-37 12 -80 51q-63 57 -63 130q0 173 154 342q57 44 82 44q23 0 83.5 -29.5t65.5 -69.5q0 -9 -21 -24q-18 40 -37 41q-52 0 -127.5 -112t-75.5 -250q0 -82 30 -82q72 0 146 90.5t107 135.5l13 -21q-154 -218 -226 -247q39 -61 39 -127q-6 -91 -46.5 -130
t-104.5 -46q-111 5 -113 53q15 87 57 109q7 0 7 -3q-16 -76 -18 -106q111 0 136 158q0 60 -8 93z" />
    <glyph glyph-name="eacute" unicode="&#xe9;" horiz-adv-x="466" 
d="M155 -37q-90 0 -128.5 47t-38.5 80q0 174 184 363q110 97 182 98q60 -5 127 -96q0 -71 -92 -170t-147 -102q-23 1 -81 51q-45 -69 -62 -117.5t-17 -91.5q2 -33 62 -33q161 0 326 221l16 -16q-180 -234 -331 -234zM175 257q15 -16 24 -20q32 4 115 91.5t99 144.5l-7 6
q-73 -18 -231 -222zM412 616q-10 3 -15 22q123 111 188 180q8 3 16 3q44 -40 47 -67q-7 -14 -107 -69q-98 -68 -129 -69z" />
    <glyph glyph-name="egrave" unicode="&#xe8;" horiz-adv-x="466" 
d="M155 -37q-90 0 -128.5 47t-38.5 80q0 174 184 363q110 97 182 98q60 -5 127 -96q0 -71 -92 -170t-147 -102q-23 1 -81 51q-45 -69 -62 -117.5t-17 -91.5q2 -33 62 -33q161 0 326 221l16 -16q-180 -234 -331 -234zM175 257q15 -16 24 -20q32 4 115 91.5t99 144.5l-7 6
q-73 -18 -231 -222zM448 654q-121 90 -128 104q0 22 52 75q7 0 16 -3q60 -77 183 -208q0 -14 -3 -18.5t-17 -7.5q-31 1 -103 58z" />
    <glyph glyph-name="ecircumflex" unicode="&#xea;" horiz-adv-x="466" 
d="M155 -37q-90 0 -128.5 47t-38.5 80q0 174 184 363q110 97 182 98q60 -5 127 -96q0 -71 -92 -170t-147 -102q-23 1 -81 51q-45 -69 -62 -117.5t-17 -91.5q2 -33 62 -33q161 0 326 221l16 -16q-180 -234 -331 -234zM175 257q15 -16 24 -20q32 4 115 91.5t99 144.5l-7 6
q-73 -18 -231 -222zM500 860q38 59 59 61q18 -6 39.5 -28.5t21.5 -36.5q-68 -134 -89 -229q-4 -8 -11 -9h-3q-78 25 -78 45q0 16 72 149l-9 7l-183 -185q-11 -6 -22 -6q-10 0 -13 12q59 49 216 220z" />
    <glyph glyph-name="edieresis" unicode="&#xeb;" horiz-adv-x="466" 
d="M155 -37q-90 0 -128.5 47t-38.5 80q0 174 184 363q110 97 182 98q60 -5 127 -96q0 -71 -92 -170t-147 -102q-23 1 -81 51q-45 -69 -62 -117.5t-17 -91.5q2 -33 62 -33q161 0 326 221l16 -16q-180 -234 -331 -234zM175 257q15 -16 24 -20q32 4 115 91.5t99 144.5l-7 6
q-73 -18 -231 -222zM367 813q93 -28 93 -50v-18q-41 -57 -76 -118l-19 -1q-39 14 -57 61q19 58 59 126zM538 785q92 -15 92 -38v-18l-71 -119l-19 -1q-39 14 -57 60q7 62 55 116z" />
    <glyph glyph-name="iacute" unicode="&#xed;" horiz-adv-x="282" 
d="M106 -28q-63 0 -103 40q-23 39 -23 102q3 65 47 185.5t121 222.5q10 14 27 16q79 -43 79 -69q-27 -46 -91 -172q-48 -106 -58 -221q0 -57 31 -57q18 7 150 195l16 -13q-140 -229 -196 -229zM254 673q-10 3 -15 22q123 111 188 180q8 3 16 3q44 -40 47 -67
q-7 -14 -107 -69q-98 -68 -129 -69z" />
    <glyph glyph-name="igrave" unicode="&#xec;" horiz-adv-x="319" 
d="M115 -78q-36 6 -85 60q-47 61 -47 126q0 145 166 406q13 16 24 17q77 -19 100 -75v-4q-89 -100 -138 -220.5t-49 -221.5q0 -34 20 -37q59 0 224 252l17 -11q-37 -60 -114.5 -174t-117.5 -118zM226 675q-121 90 -128 104q0 22 52 75q7 0 16 -3q60 -77 183 -208
q0 -14 -3 -18.5t-17 -7.5q-31 1 -103 58z" />
    <glyph glyph-name="icircumflex" unicode="&#xee;" horiz-adv-x="281" 
d="M313 838q38 59 59 61q18 -6 39.5 -28.5t21.5 -36.5q-68 -134 -89 -229q-4 -8 -11 -9h-3q-78 25 -78 45q0 16 72 149l-9 7l-183 -185q-11 -6 -22 -6q-10 0 -13 12q59 49 216 220zM106 -28q-63 0 -103 40q-23 39 -23 102q3 65 47 185.5t121 222.5q10 14 27 16
q79 -43 79 -69q-27 -46 -91 -172q-48 -106 -58 -221q0 -57 31 -57q18 7 150 195l16 -13q-140 -229 -196 -229z" />
    <glyph glyph-name="idieresis" unicode="&#xef;" horiz-adv-x="318" 
d="M204 853q107 -32 107 -58v-21q-47 -65 -88 -136l-22 -1q-45 16 -66 70q22 67 69 146zM401 821q107 -18 107 -44v-21l-82 -138l-22 -1q-45 16 -66 70q8 71 63 134zM115 -78q-36 6 -85 60q-47 61 -47 126q0 145 166 406q13 16 24 17q77 -19 100 -75v-4
q-89 -100 -138 -220.5t-49 -221.5q0 -34 20 -37q59 0 224 252l17 -11q-37 -60 -114.5 -174t-117.5 -118z" />
    <glyph glyph-name="ntilde" unicode="&#xf1;" horiz-adv-x="615" 
d="M393 843q-27 0 -55.5 -22t-48.5 -54q-5 -13 -23 -13q-12 0 -22 2l-3 6q2 10 18 30q32 47 65 73q36 26 74 27q82 -18 101 -43q10 -20 19 -62.5t31 -64.5q35 0 55.5 24t33.5 53q6 13 24 13q11 0 18 -7l-9 -18q-34 -60 -63.5 -88.5t-73.5 -32.5q-77 15 -102 43
q-11 20 -21 73t-18 61zM174 447q89 97 106 105q34 -1 63.5 -32.5t30.5 -51.5q-79 -144 -185 -387h5l186 245t176 195q103 -40 103 -72q-18 -46 -129 -208q-108 -173 -111 -267q3 -7 10 -8q107 118 189 245l15 -15q-52 -87 -123.5 -174t-90.5 -87q-95 27 -95 132
q0 75 194 371l-5 6q-71 -68 -345 -455l-23 -24h-12q-54 0 -90 72q0 61 225 468v5q-72 -68 -193 -242q-21 -31 -75 -98l-18 14q140 201 192 263z" />
    <glyph glyph-name="oacute" unicode="&#xf3;" horiz-adv-x="447" 
d="M428 426q0 -82 -68 -217.5t-114 -185.5q-60 -56 -86 -57q-164 31 -164 167q0 176 185 371q53 39 99 52q42 -5 112 -39q21 -19 28.5 -46t7.5 -45zM104 87q0 -89 47 -89q77 16 185 230q11 23 34 84t23 112q0 37 -25 62h-14q-88 -27 -169 -152t-81 -247zM344 648
q-10 3 -15 22q123 111 188 180q8 3 16 3q44 -40 47 -67q-7 -14 -107 -69q-98 -68 -129 -69z" />
    <glyph glyph-name="ograve" unicode="&#xf2;" horiz-adv-x="444" 
d="M366 682q-121 90 -128 104q0 22 52 75q7 0 16 -3q60 -77 183 -208q0 -14 -3 -18.5t-17 -7.5q-31 1 -103 58zM428 426q0 -82 -68 -217.5t-114 -185.5q-60 -56 -86 -57q-164 31 -164 167q0 176 185 371q53 39 99 52q42 -5 112 -39q21 -19 28.5 -46t7.5 -45zM104 87
q0 -89 47 -89q77 16 185 230q11 23 34 84t23 112q0 37 -25 62h-14q-88 -27 -169 -152t-81 -247z" />
    <glyph glyph-name="ocircumflex" unicode="&#xf4;" horiz-adv-x="450" 
d="M473 864q38 59 59 61q18 -6 39.5 -28.5t21.5 -36.5q-68 -134 -89 -229q-4 -8 -11 -9h-3q-78 25 -78 45q0 16 72 149l-9 7l-183 -185q-11 -6 -22 -6q-10 0 -13 12q59 49 216 220zM428 426q0 -82 -68 -217.5t-114 -185.5q-60 -56 -86 -57q-164 31 -164 167q0 176 185 371
q53 39 99 52q42 -5 112 -39q21 -19 28.5 -46t7.5 -45zM104 87q0 -89 47 -89q77 16 185 230q11 23 34 84t23 112q0 37 -25 62h-14q-88 -27 -169 -152t-81 -247z" />
    <glyph glyph-name="odieresis" unicode="&#xf6;" horiz-adv-x="438" 
d="M249 847q107 -32 107 -58v-21q-47 -65 -88 -136l-22 -1q-45 16 -66 70q22 67 69 146zM446 815q107 -18 107 -44v-21l-82 -138l-22 -1q-45 16 -66 70q8 71 63 134zM428 426q0 -82 -68 -217.5t-114 -185.5q-60 -56 -86 -57q-164 31 -164 167q0 176 185 371q53 39 99 52
q42 -5 112 -39q21 -19 28.5 -46t7.5 -45zM104 87q0 -89 47 -89q77 16 185 230q11 23 34 84t23 112q0 37 -25 62h-14q-88 -27 -169 -152t-81 -247z" />
    <glyph glyph-name="otilde" unicode="&#xf5;" horiz-adv-x="447" 
d="M330 785q-27 0 -55.5 -22t-48.5 -54q-5 -13 -23 -13q-12 0 -22 2l-3 6q2 10 18 30q32 47 65 73q36 26 74 27q82 -18 101 -43q10 -20 19 -62.5t31 -64.5q35 0 55.5 24t33.5 53q6 13 24 13q11 0 18 -7l-9 -18q-34 -60 -63.5 -88.5t-73.5 -32.5q-77 15 -102 43
q-11 20 -21 73t-18 61zM428 426q0 -82 -68 -217.5t-114 -185.5q-60 -56 -86 -57q-164 31 -164 167q0 176 185 371q53 39 99 52q42 -5 112 -39q21 -19 28.5 -46t7.5 -45zM104 87q0 -89 47 -89q77 16 185 230q11 23 34 84t23 112q0 37 -25 62h-14q-88 -27 -169 -152t-81 -247z
" />
    <glyph glyph-name="uacute" unicode="&#xfa;" horiz-adv-x="548" 
d="M367 -11q-59 0 -88 103q-5 35 -5 80q-132 -209 -200 -214q-107 30 -107 102q0 163 205 459q6 4 13 4q98 -28 98 -58q-76 -104 -169 -276q-49 -105 -49 -186q0 -14 18 -14q61 31 164 190q168 322 205 362q11 9 27 9q93 -16 93 -36q0 -13 -104.5 -176t-104.5 -291
q0 -27 18 -27q31 0 168 188l19 -12q-155 -207 -201 -207zM357 679q-10 3 -15 22q123 111 188 180q8 3 16 3q44 -40 47 -67q-7 -14 -107 -69q-98 -68 -129 -69z" />
    <glyph glyph-name="ugrave" unicode="&#xf9;" horiz-adv-x="549" 
d="M402 696q-121 90 -128 104q0 22 52 75q7 0 16 -3q60 -77 183 -208q0 -14 -3 -18.5t-17 -7.5q-31 1 -103 58zM367 -11q-59 0 -88 103q-5 35 -5 80q-132 -209 -200 -214q-107 30 -107 102q0 163 205 459q6 4 13 4q98 -28 98 -58q-76 -104 -169 -276q-49 -105 -49 -186
q0 -14 18 -14q61 31 164 190q168 322 205 362q11 9 27 9q93 -16 93 -36q0 -13 -104.5 -176t-104.5 -291q0 -27 18 -27q31 0 168 188l19 -12q-155 -207 -201 -207z" />
    <glyph glyph-name="ucircumflex" unicode="&#xfb;" horiz-adv-x="548" 
d="M367 -11q-59 0 -88 103q-5 35 -5 80q-132 -209 -200 -214q-107 30 -107 102q0 163 205 459q6 4 13 4q98 -28 98 -58q-76 -104 -169 -276q-49 -105 -49 -186q0 -14 18 -14q61 31 164 190q168 322 205 362q11 9 27 9q93 -16 93 -36q0 -13 -104.5 -176t-104.5 -291
q0 -27 18 -27q31 0 168 188l19 -12q-155 -207 -201 -207zM493 864q38 59 59 61q18 -6 39.5 -28.5t21.5 -36.5q-68 -134 -89 -229q-4 -8 -11 -9h-3q-78 25 -78 45q0 16 72 149l-9 7l-183 -185q-11 -6 -22 -6q-10 0 -13 12q59 49 216 220z" />
    <glyph glyph-name="udieresis" unicode="&#xfc;" horiz-adv-x="548" 
d="M354 851q107 -32 107 -58v-21q-47 -65 -88 -136l-22 -1q-45 16 -66 70q22 67 69 146zM551 819q107 -18 107 -44v-21l-82 -138l-22 -1q-45 16 -66 70q8 71 63 134zM367 -11q-59 0 -88 103q-5 35 -5 80q-132 -209 -200 -214q-107 30 -107 102q0 163 205 459q6 4 13 4
q98 -28 98 -58q-76 -104 -169 -276q-49 -105 -49 -186q0 -14 18 -14q61 31 164 190q168 322 205 362q11 9 27 9q93 -16 93 -36q0 -13 -104.5 -176t-104.5 -291q0 -27 18 -27q31 0 168 188l19 -12q-155 -207 -201 -207z" />
    <glyph glyph-name="degree" unicode="&#xb0;" horiz-adv-x="600" 
d="M364 1083q37 0 72 -34.5t35 -58.5q0 -40 -59 -123t-138 -88q-71 3 -104 39q0 67 28.5 126t69 92t96.5 47zM250 825q78 3 129.5 76.5t51.5 112.5q-40 0 -78.5 -24.5t-70.5 -78.5t-32 -86z" />
    <glyph glyph-name="cent" unicode="&#xa2;" horiz-adv-x="532" 
d="M358 524q46 147 82 166q60 -7 67 -33q-5 -4 -7 -5q-9 4 -18 4q-32 -39 -73 -155q58 -29 63 -68q0 -9 -21 -24q-18 40 -37 41q-52 0 -127.5 -112t-75.5 -250q0 -82 30 -82q72 0 179 137l22 -21q-112 -161 -180 -163q-15 0 -32 5q-2 -36 -22.5 -101.5t-58.5 -88.5
q-58 6 -65 32q1 5 6 5q9 -3 19 -4q29 32 46 81.5t24 103.5q-14 10 -29 24q-63 57 -63 130q0 173 154 342q57 44 82 44q12 0 35 -8z" />
    <glyph glyph-name="sterling" unicode="&#xa3;" horiz-adv-x="712" 
d="M345 452q136 54 266 199t130 187q0 5 -7 5q-282 -201 -389 -391zM204 222q-34 -68 -65 -146q212 26 303 26q100 0 234 -28q-7 -64 -38 -116q-103 39 -190 39q-144 0 -356 -78q-33 0 -52 115q-37 38 -37 63q150 274 176 315q-124 63 -124 156q0 82 47 172q55 100 145 170
q69 50 133 50q74 0 125 -42q-103 -13 -174 -79q-87 -85 -139 -179q-48 -99 -48 -155q0 -58 58 -58q69 109 131 183q225 253 345 272q68 0 94 -52q0 -94 -241 -317q-125 -94 -207 -124q-13 -16 -40 -54q52 25 87 25q44 0 73 -40t29 -84q0 -30 -28 -38q-4 1 -6 6q10 20 10 32
q0 28 -59 30q-106 0 -186 -64z" />
    <glyph glyph-name="section" unicode="&#xa7;" horiz-adv-x="609" 
d="M134 228q7 110 192 264l-60.5 122t-43.5 163q0 105 102 200q71 67 166 67q103 -7 104 -64q0 -42 -56 -88q-10 0 -18 13q26 49 26 71q0 24 -32 24q-89 0 -164 -152q-20 -48 -20 -88q0 -58 10.5 -96t60.5 -150.5t53 -197.5q0 -163 -154 -249q75 -73 75 -156
q0 -140 -252 -342q-149 -104 -268 -108q-139 39 -196 124q-8 18 -8 36q3 5 11 5q12 -13 29 -29q19 -12 76 -12q119 0 276 100q248 170 248 316q0 34 -30 55q-64 0 -111 60v4q21 -16 44 -16q16 0 28 2q-88 84 -88 122zM259 122q63 42 95 178q4 23 4 64q0 24 -4 44
q-28 -19 -90 -92.5t-62 -114.5q22 -47 57 -79z" />
    <glyph glyph-name="bullet" unicode="&#x2022;" horiz-adv-x="600" 
d="M358 544q37 0 72 -34.5t35 -58.5q0 -40 -59 -123t-138 -88q-71 3 -104 39q0 67 28.5 126t69 92t96.5 47z" />
    <glyph glyph-name="germandbls" unicode="&#xdf;" horiz-adv-x="684" 
d="M565 694q88 99 89 159q-8 36 -77 36q-87 -5 -183 -151t-137 -243.5t-81 -213.5q-69 -286 -98 -323q-38 0 -84.5 25t-49.5 56q52 146 104 276q110 293 187 403h1q133 222 321 227q151 -1 155 -132q-5 -230 -360 -420q48 19 98 19q61 -2 99 -50.5t39 -124.5
q-3 -205 -92.5 -334.5t-306.5 -267.5q-205 -107 -376 -109q-82 11 -129.5 99.5t-50.5 133.5q2 90 189 191q4 -10 4 -15q-127 -147 -134 -208q39 -51 115 -51q275 1 491 189.5t224 367.5q-1 71 -53 98.5t-99 27.5q-43 -1 -75 -17l-49 77q227 157 319 275z" />
    <glyph glyph-name="registered" unicode="&#xae;" horiz-adv-x="1365" 
d="M714 533q78 -19 78 -67q-6 -55 -67 -256q92 50 193.5 130t137.5 144q-1 29 -23 52t-116 23q-123 0 -203 -26zM674 -60q82 -41 86 -84q0 -52 -38.5 -83t-114.5 -32q-167 0 -311 108t-156 324q7 272 185 459t463 189q184 -3 299 -124.5t118 -334.5q-2 -103 -42 -194
t-110 -148q-19 -15 -38 -27l-9 26q60 56 102.5 142.5t50.5 201.5q-1 188 -119.5 291.5t-227.5 103.5q-241 -3 -399 -168.5t-158 -407.5q3 -167 117 -255.5t300 -88.5q0 21 -25 51t-50 49q-5 33 -5 54q0 29 36 198q-5 12 -16 31q0 10 45.5 128.5t45.5 142.5q0 33 -15 33
q-326 -173 -326 -263q0 -34 18 -48q-1 -6 -10 -9q-48 0 -55 70q0 137 180 247.5t396 112.5q109 0 166 -78q33 -40 34 -88q-2 -78 -95.5 -162t-206.5 -149q140 -159 210.5 -200.5t125.5 -41.5q8 2 13 16q0 45 -9 74l8 5q31 -23 35 -74q-6 -58 -81 -99q-124 0 -330 216l-60 63
q-21 -97 -27 -177z" />
    <glyph glyph-name="copyright" unicode="&#xa9;" horiz-adv-x="1365" 
d="M818 -101q-4 -91 -69.5 -124t-141.5 -34q-167 0 -311 108t-156 324q7 272 185 459t463 189q184 -3 299 -124.5t118 -334.5q-2 -103 -42 -210t-154 -206l-9 26q66 71 108.5 173.5t50.5 217.5q-1 188 -119.5 291.5t-227.5 103.5q-241 -3 -394 -168.5t-153 -407.5
q3 -167 110 -254t271 -88q98 2 172 59zM590 -52q-89 0 -173 138q-18 52 -18 85q3 202 137.5 339.5t262.5 141.5q84 0 172 -73q10 -9 12 -29q-13 -57 -22 -57h-3q0 88 -78 88q-101 0 -229.5 -145.5t-128.5 -300.5q0 -117 59 -139q121 0 218.5 93.5t136.5 202.5l27 -16
q-38 -104 -139.5 -212.5t-233.5 -115.5z" />
    <glyph glyph-name="trademark" unicode="&#x2122;" horiz-adv-x="1001" 
d="M471 1059q34 -26 36 -68q-2 -10 -22 -12q-24 0 -56 4q-35 0 -103 -6q12 -6 14 -23q-68 -131 -94 -350q-3 -200 -3 -251l2 -14q-2 -18 -76 -18q-21 4 -28 25q45 375 90 560l21 61q-43 -9 -103 -35q-25 3 -46 61q3 24 167 48q73 12 121 14.5t80 3.5zM779 954q85 -16 96 -31
q-23 -135 -24 -276q1 -100 19 -185t36 -121l-2 -7q-25 -10 -69 -30l-16 12q-26 33 -38 281l1 237q-18 -4 -41.5 -42t-55.5 -127t-40 -153q-2 -45 -4 -61q-7 -16 -78 -18h-50q-11 8 -15 100q0 211 -2 252q-20 -32 -54 -104.5t-50.5 -123.5t-39.5 -163q-16 -2 -37 -2
q-26 5 -32 24q21 68 50 152q32 90 117 244q35 60 54 64q84 -18 91 -41l1 -19q-18 -20 -23 -68l-1 -160l9 -1q61 144 114 253t78 115z" />
    <glyph glyph-name="acute" unicode="&#xb4;" horiz-adv-x="598" 
d="M196 840q-10 3 -15 22q123 111 188 180q8 3 16 3q44 -40 47 -67q-7 -14 -107 -69q-98 -68 -129 -69z" />
    <glyph glyph-name="dieresis" unicode="&#xa8;" horiz-adv-x="599" 
d="M197 1045q92 -28 92 -50v-18q-40 -57 -76 -118l-19 -1q-39 14 -57 61q19 58 60 126zM367 1017q93 -15 93 -38v-18l-71 -119l-19 -1q-39 14 -57 60q7 62 54 116z" />
    <glyph glyph-name="AE" unicode="&#xc6;" horiz-adv-x="1225" 
d="M345 502q114 22 262 48l145 322l-8 4q-111 -34 -284 -224q-104 -124 -115 -150zM603 -21q-3 -30 -3 -59l-16 -8q-15 0 -56 40q-11 4 -41 41.5t-30 66.5q8 98 103 388q-166 -33 -278 -51q-94 -182 -94 -289q0 -140 48 -140q18 0 32 8q12 -4 12 -12q0 -14 -60 -28
q-133 0 -164 124q-4 35 -4 44q0 77 80 284q-132 24 -132 132q11 84 28 84q8 -1 8 -8v-28q0 -68 168 -68q57 105 196 276q193 220 264 220q52 0 136 -44q162 296 212 296q108 -15 108 -60q-8 -4 -12 -4q-12 8 -28 8q-64 -47 -128 -148q-40 -63 -80 -140l96 79q298 -7 408 -89
q50 -42 50 -96q0 -53 -50 -78l-29 2q-5 2 -6 8q16 11 16 33q0 31 -108.5 70t-215.5 40q-84 -40 -189 -189q-39 -60 -65 -114q63 16 196 18q74 0 137 -124l-6 -10q-90 34 -175 34q-76 0 -208 -28q-93 -241 -114 -378q106 19 192 20q150 -3 205.5 -16t98.5 -36q96 -64 96 -152
q0 -35 -40 -60q-4 0 -4 4q24 46 24 68q-50 96 -308 96h-12q-98 0 -258 -27z" />
    <glyph glyph-name="Oslash" unicode="&#xd8;" horiz-adv-x="751" 
d="M373 93q89 65 186 188q216 297 216 448q0 83 -62 118q-16 0 -34 -6q-106 -189 -231 -537zM260 32q98 289 224 584q34 81 68 150q-26 -20 -55 -45q-144 -127 -250.5 -317.5t-106.5 -321.5q0 -53 45 -62q36 0 75 12zM342 -1q-46 -142 -55 -195q-72 29 -72 92l23 72
q-24 -4 -48 -4q-187 44 -187 157q0 274 308 613q191 214 318 214q11 0 21 -1q63 100 121 153q108 -15 108 -60q-8 -4 -12 -4q-12 8 -28 8q-56 -41 -113 -124q34 -21 66 -55q-20 -11 -56 -13q107 -56 107 -129q0 -181 -253 -506q-118 -159 -248 -218z" />
    <glyph glyph-name="plusminus" unicode="&#xb1;" horiz-adv-x="763" 
d="M370 459q-20 -121 -31 -288q-62 17 -66 38l8 81q10 92 24 171q-161 4 -220 4q6 65 43 78q95 0 192 -4q32 143 80 227q82 -3 93 -39q-2 -5 -9 -7l-29 -4q-35 -49 -61 -146q-4 -16 -8 -34q150 -7 304 -22q-22 -57 -38 -66q-61 4 -128 6q-84 3 -154 5zM265 16q-138 5 -189 5
q5 71 37 85q81 0 165 -4q185 -11 317 -28q-19 -62 -33 -72q-52 4 -109 7q-72 3 -188 7z" />
    <glyph glyph-name="ae" unicode="&#xe6;" horiz-adv-x="906" 
d="M616 257q15 -16 24 -20q32 4 115 91.5t99 144.5l-7 6q-73 -18 -231 -222zM440 50q-78 -104 -96 -104q-56 5 -77 71q2 68 46 242q-31 -65 -67 -116q-144 -197 -192 -197q-70 0 -108 108q1 63 119.5 275t254.5 232q133 -27 138 -86l-19 -10q-25 31 -61 31
q-127 -33 -279 -356q-48 -115 -48 -149q20 0 76.5 65.5t131 172.5t124.5 201q11 15 30 15q12 0 37.5 -30t27.5 -50q-73 -229 -75 -237q-23 -86 -26 -110q5 0 53 61q-1 6 -1 11q0 174 184 363q110 97 182 98q60 -5 127 -96q0 -71 -92 -170t-147 -102q-23 1 -81 51
q-45 -69 -62 -117.5t-17 -91.5q2 -33 62 -33q161 0 326 221l16 -16q-180 -234 -331 -234q-90 0 -128 47q-18 21 -28 40z" />
    <glyph glyph-name="oslash" unicode="&#xf8;" horiz-adv-x="454" 
d="M190 2q65 47 148 212q11 23 34 84t23 112q0 34 -21 57q-65 -133 -139 -339zM123 12q63 176 139 354q8 19 17 38q-94 -100 -149 -253q-14 -36 -14 -78q0 -39 7 -61zM393 505q23 -25 30 -48q7 -27 7 -45q0 -82 -68 -217.5t-114 -185.5q-48 -45 -74 -54q-54 -158 -62 -209
q-55 22 -55 70q24 77 51 154q-120 49 -120 129q0 206 202 392q46 38 92 51l56 -15q76 146 144 209q82 -12 82 -46q-6 -3 -9 -3q-9 6 -22 6q-48 -36 -97 -113q-21 -33 -43 -75z" />
    <glyph glyph-name="questiondown" unicode="&#xbf;" horiz-adv-x="706" 
d="M566.014 481.009q32.998 -40.998 34.998 -91.9951q-24.998 -91.9941 -183.989 -272.982q-156.99 -199.988 -184.988 -297.982q0 -24.998 13.999 -24.998q52.9971 1 157.99 30.998q89.9951 36.9971 131.992 84.9941t56.9961 98.9941q-1 12.999 -11.999 13.999
q-45.9971 -1.99902 -138.991 -30.998l-3 11q88.9941 68.9951 153.99 70.9951q61.9971 -31.998 67.9961 -149.99q-40.9971 -145.991 -210.987 -201.988q-73.9951 -27.998 -131.991 -28.998q-94.9941 1 -140.992 67.4961q-45.9971 66.4961 -45.9971 86.4941
q1 24.999 7 55.9971q31.998 114.993 197.987 313.98q140.992 190.988 160.99 261.984l-7.99902 5.99902q-13.999 4 -44.9971 5l-6 23.999q35.998 26.998 59.9961 30.998q34.998 -15.999 67.9961 -62.9961zM592.012 575.003q-106.993 31.998 -106.993 57.9961v20.999
q37.998 35.998 78.9951 106.993l21.999 1q44.9971 -15.999 65.9961 -69.9951q-21.999 -66.9961 -59.9971 -116.993z" />
    <glyph glyph-name="exclamdown" unicode="&#xa1;" horiz-adv-x="587" 
d="M101.036 -290.94q-77.9961 40.9971 -83.9951 90.9941q177.989 270.983 259.984 463.972q36.9971 84.9951 40.9971 209.987q5 9.99902 37.998 11.999q69.9951 -50.9971 76.9951 -136.991q0 -72.9961 -52.9971 -189.988q-202.987 -437.974 -278.982 -449.973z
M346.021 669.001q11.999 45.9971 87.9951 48.9971q56.9961 -10 63.9961 -81.9951q-1 -52.9971 -96.9941 -65.9961q-44.9971 6.99902 -54.9971 98.9941z" />
    <glyph glyph-name="guillemotleft" unicode="&#xab;" horiz-adv-x="661" 
d="M203 276l-48 117l33 61q91 143 127 209q55 -15 62 -83q-13 -41 -60.5 -126.5t-91.5 -142.5q48 -136 57 -255l-31 -26q-18 171 -48 246zM368 204l-48 117l33 61q91 143 127 209q55 -15 62 -83q-13 -41 -60.5 -126.5t-91.5 -142.5q48 -136 57 -255l-31 -26q-18 171 -48 246
z" />
    <glyph glyph-name="guillemotright" unicode="&#xbb;" horiz-adv-x="664" 
d="M197 -41l-26 31q30 116 101 241q-33 64 -64.5 156.5t-37.5 135.5q19 66 76 71q23 -72 88 -228l21 -66l-67 -107q-43 -69 -91 -234zM374 32l-26 31q30 116 101 241q-33 64 -64.5 156.5t-37.5 135.5q19 66 76 71q23 -72 88 -228l21 -66l-67 -107q-43 -69 -91 -234z" />
    <glyph glyph-name="ellipsis" unicode="&#x2026;" horiz-adv-x="1007" 
d="M204 147q107 -32 107 -58v-21l-70 -123l-22 -1q-45 16 -66 70q22 67 51 133zM495 137q107 -32 107 -58v-21q-59 -40 -100 -111l-22 -1q-45 16 -66 70q22 67 81 121zM751 128q107 -32 107 -58v-21q-38 -48 -79 -119l-22 -1q-45 16 -66 70q11 52 60 129z" />
    <glyph glyph-name="Agrave" unicode="&#xc0;" horiz-adv-x="749" 
d="M863 1081q-121 90 -128 104q0 22 52 75q7 0 16 -3q60 -77 183 -208q0 -14 -3 -18.5t-17 -7.5q-31 1 -103 58zM609 -182q0 -10 -14 -10q-57 10 -125 73q-17 39 -17 130q14 134 66 291q-65 -10 -181 -60q-126 -176 -238 -379q-3 -5 -10 -5q-53 16 -82 40q-8 4 -8 15
q18 5 52 52q143 194 190 275q-99 63 -99 161q3 25 12 40h6q25 -43 56.5 -68t97.5 -29l197 273.5l255 359.5q8 7 17 7q51 -16 93 -73v-12q-269 -593 -282 -926q0 -72 7 -110t7 -45zM418 365q109 30 138 30q39 116 139 366l-4 3q-43 -41 -222 -315z" />
    <glyph glyph-name="Atilde" unicode="&#xc3;" horiz-adv-x="745" 
d="M820 1204q-27 0 -55.5 -22t-48.5 -54q-5 -13 -23 -13q-12 0 -22 2l-3 6q2 10 18 30q32 47 65 73q36 26 74 27q82 -18 101 -43q10 -20 19 -62.5t31 -64.5q35 0 55.5 24t33.5 53q6 13 24 13q11 0 18 -7l-9 -18q-34 -60 -63.5 -88.5t-73.5 -32.5q-77 15 -102 43
q-11 20 -21 73t-18 61zM609 -182q0 -10 -14 -10q-57 10 -125 73q-17 39 -17 130q14 134 66 291q-65 -10 -181 -60q-126 -176 -238 -379q-3 -5 -10 -5q-53 16 -82 40q-8 4 -8 15q18 5 52 52q143 194 190 275q-99 63 -99 161q3 25 12 40h6q25 -43 56.5 -68t97.5 -29l197 273.5
l255 359.5q8 7 17 7q51 -16 93 -73v-12q-269 -593 -282 -926q0 -72 7 -110t7 -45zM418 365q109 30 138 30q39 116 139 366l-4 3q-43 -41 -222 -315z" />
    <glyph glyph-name="Otilde" unicode="&#xd5;" horiz-adv-x="664" 
d="M666 1174q-27 0 -55.5 -22t-48.5 -54q-5 -13 -23 -13q-12 0 -22 2l-3 6q2 10 18 30q32 47 65 73q36 26 74 27q82 -18 101 -43q10 -20 19 -62.5t31 -64.5q35 0 55.5 24t33.5 53q6 13 24 13q11 0 18 -7l-9 -18q-34 -60 -63.5 -88.5t-73.5 -32.5q-77 15 -102 43
q-11 20 -21 73t-18 61zM493 976q93 -2 175 -53q-18 -15 -53 -23q107 -48 114 -115q-3 -204 -146 -495q-202 -354 -352 -359q-202 25 -228 202q5 237 189 573q153 248 301 270zM137 135q5 -129 47 -147q93 0 299 358q135 249 138 466q-5 53 -35 66l7 13q-115 -2 -212.5 -138
t-170.5 -321t-73 -297z" />
    <glyph glyph-name="OE" unicode="&#x152;" horiz-adv-x="1314" 
d="M691 490l5 15q2 0 4 1q72 136 72 223q0 83 -62 118q-72 0 -216 -126.5t-250.5 -317t-106.5 -321.5q0 -53 45 -62q169 0 374 261q84 116 135 209zM840 712q55 79 125 168q33 56 65 77q322 -1 439 -91q50 -42 50 -96q0 -53 -50 -78l-29 2q-5 2 -6 8q16 11 16 33
q0 31 -107.5 71t-214.5 41q-84 -40 -189 -189q-39 -60 -65 -114q63 16 196 18q74 0 137 -124l-6 -10q-90 34 -175 34q-137 0 -208 -27q-93 -242 -114 -379q106 19 192 20q150 -3 205.5 -16t98.5 -36q96 -64 96 -152q0 -35 -40 -60q-4 0 -4 4q24 46 24 68q-50 96 -308 96h-12
q-121 0 -336 -41q-26 -5 -51 -11q-27 28 -33 74q32 127 94 272q-20 -28 -43 -57q-184 -249 -400 -253q-187 44 -187 157q0 274 308 613q191 214 318 214q86 0 163 -83q-20 -11 -56 -13q107 -56 107 -129v-11z" />
    <glyph glyph-name="oe" unicode="&#x153;" horiz-adv-x="798" 
d="M270 289q1 -29 6.5 -67.5t41.5 -52.5q66 131 78 279q-2 33 -30 33q-26 -9 -86 -152q-5 -15 -10 -40zM83 55q6 -82 26 -82q29 0 91.5 43.5t86.5 109.5q-80 21 -130 146h-4q-60 -95 -70 -217zM446 146q-10 -18 -14 -29q-17 -49 -17 -92q2 -33 62 -33q161 0 326 221l16 -16
q-180 -234 -331 -234q-90 0 -128.5 47t-38.5 80v3q-110 -140 -205 -140q-126 0 -131 155q12 156 135 317q43 12 79 15q21 46 55.5 74t83.5 28q92 0 94 -110q-3 -38 -10 -77q35 49 83 98q110 97 182 98q60 -5 127 -96q0 -71 -68.5 -151.5t-153 -115.5t-146.5 -42zM470 190
q74 18 186 133q74 93 90 150l-7 6q-73 -18 -181 -166q-50 -67 -88 -123z" />
    <glyph glyph-name="endash" unicode="&#x2013;" horiz-adv-x="741" 
d="M290 343q-138 5 -189 5q5 71 37 85q81 0 165 -4q185 -11 317 -28q-19 -62 -33 -72q-52 4 -109 7q-72 3 -188 7z" />
    <glyph glyph-name="emdash" unicode="&#x2014;" horiz-adv-x="741" 
d="M240 343q-138 5 -189 5q5 71 37 85q81 0 165 -4q315 -11 447 -28q-19 -62 -33 -72q-52 4 -109 7q-72 3 -318 7z" />
    <glyph glyph-name="quotedblleft" unicode="&#x201c;" horiz-adv-x="569" 
d="M241 834q25 -26 26 -46q-11 -78 -59 -127q-100 32 -100 58v21q26 57 71 117h2q65 79 128 79q35 0 67 -46q-1 -8 -9 -9q-35 23 -57 23q-50 -17 -69 -70zM430 838q25 -26 26 -46q-11 -78 -59 -127q-100 32 -100 58v21q26 57 71 117h2q65 79 128 79q35 0 67 -46q-1 -8 -9 -9
q-35 23 -57 23q-50 -17 -69 -70z" />
    <glyph glyph-name="quotedblright" unicode="&#x201d;" horiz-adv-x="584" 
d="M437 728q-30 21 -40 52q1 67 39 124q104 -12 109 -38l4 -20q-14 -61 -47 -129h-2q-49 -90 -116 -102q-42 1 -70 31q0 9 8 12q28 -11 60 -12q46 26 55 82zM252 746q-30 21 -41 68q2 51 40 108q104 -12 109 -38l4 -20q-14 -61 -47 -129h-2q-49 -90 -116 -105q-36 2 -69 35
q0 8 7 11q39 -11 61 -12q45 26 54 82z" />
    <glyph glyph-name="quoteleft" unicode="&#x2018;" horiz-adv-x="396" 
d="M241 834q25 -26 26 -46q-11 -78 -59 -127q-100 32 -100 58v21q26 57 71 117h2q65 79 128 79q35 0 67 -46q-1 -8 -9 -9q-35 23 -57 23q-50 -17 -69 -70z" />
    <glyph glyph-name="quoteright" unicode="&#x2019;" horiz-adv-x="387" 
d="M252 746q-30 21 -41 68q2 51 40 108q104 -12 109 -38l4 -20q-14 -61 -47 -129h-2q-49 -90 -116 -105q-36 2 -69 35q0 8 7 11q39 -11 61 -12q45 26 54 82z" />
    <glyph glyph-name="divide" unicode="&#xf7;" horiz-adv-x="741" 
d="M290 343q-138 5 -189 5q5 71 37 85q81 0 165 -4q185 -11 317 -28q-19 -62 -33 -72q-52 4 -109 7q-72 3 -188 7zM319 237q107 -32 107 -58v-21q-66 -102 -107 -173l-22 -1q-45 16 -66 70q22 67 88 183zM373 713q107 -32 107 -58v-21q-38 -36 -79 -107l-22 -1
q-45 16 -66 70q22 67 60 117z" />
    <glyph glyph-name="ydieresis" unicode="&#xff;" horiz-adv-x="484" 
d="M138 524q7 9 16 10q48 0 88 -76q-59 -104 -105.5 -240t-46.5 -245h12q80 101 147.5 222t157.5 315q8 12 34 12q68 -24 72 -72v-16q-21 -34 -77 -143q-94 -213 -121.5 -314t-41.5 -169q60 26 138 54.5t154 28.5q87 0 134 -21q35 -18 38 -38l-8 -4q-52 19 -152 19
q-129 0 -316 -108q-118 -385 -196 -448q-47 -40 -112 -40q-47 0 -96 12q-48 29 -48 72q0 41 55 127.5t253 252.5q36 59 93 360q-25 -40 -71 -104q-25 -30 -57 -30q-100 53 -108 122q3 97 52.5 226.5t111.5 234.5zM-135 -685q0 -26 12 -32q43 0 92 52q76 97 146 325
q-46 -39 -101 -95q-149 -155 -149 -250zM295 853q107 -32 107 -58v-21q-47 -65 -88 -136l-22 -1q-45 16 -66 70q22 67 69 146zM492 821q107 -18 107 -44v-21l-82 -138l-22 -1q-45 16 -66 70q8 71 63 134z" />
    <glyph glyph-name="Ydieresis" unicode="&#x178;" horiz-adv-x="597" 
d="M226 -5q94 306 242.5 546t276.5 411l-5 -1q-334 -364 -460 -596q-91 -130 -130 -214q-6 -13 -15 -15q-105 38 -135 87q235 582 236 701q-2 36 -58 76q0 9 9 10q83 -2 124.5 -39.5t44.5 -93.5q-1 -120 -191 -577l10 -5q123 211 484 637q135 140 165 142l90 -44
q9 -5 11 -25q-75 -93 -248 -337q-248 -447 -304 -661q-57 -184 -128 -521q-23 -16 -44 -17q-89 23 -92 73q17 154 117 463zM495 1302q92 -28 92 -50v-18q-40 -57 -76 -118l-19 -1q-39 14 -57 61q19 58 60 126zM665 1274q93 -15 93 -38v-18l-71 -119l-19 -1q-39 14 -57 60
q7 62 54 116z" />
    <glyph glyph-name="Euro" unicode="&#x20ac;" horiz-adv-x="902" 
d="M324 310q-22 -70 -22 -141q1 -146 74 -188q124 0 235 78l19 -24q-109 -92 -243 -99q-111 0 -185 171q-12 65 -12 105q1 51 12 102q-90 3 -129 3q5 76 36 91q61 0 123 -3q16 37 38 74q-133 5 -182 5q5 76 36 91q80 0 162 -5q22 -1 43 -3q16 21 34 41q170 196 313 201
q74 0 184 -90q11 -12 14 -36q-16 -71 -26 -71h-5q0 109 -96 109q-121 0 -272 -166q66 -6 123 -14q-8 -53 -32 -77q-51 5 -108 7q-23 1 -50 3q-27 -39 -47 -77q125 -10 222 -23q-8 -53 -32 -77q-51 5 -108 7q-49 3 -119 6z" />
    <glyph glyph-name="guilsinglleft" unicode="&#x2039;" horiz-adv-x="455" 
d="M183 276l-48 117l33 61q91 143 127 209q55 -15 62 -83q-13 -41 -60.5 -126.5t-91.5 -142.5q48 -136 57 -255l-31 -26q-18 171 -48 246z" />
    <glyph glyph-name="guilsinglright" unicode="&#x203a;" horiz-adv-x="455" 
d="M205 32l-26 31q30 116 101 241q-33 64 -64.5 156.5t-37.5 135.5q19 66 76 71q23 -72 88 -228l21 -66l-67 -107q-43 -69 -91 -234z" />
    <glyph glyph-name="quotesinglbase" unicode="&#x201a;" horiz-adv-x="450" 
d="M215 -68q-30 21 -41 68q2 51 40 108q104 -12 109 -38l4 -20q-14 -61 -47 -129h-2q-49 -90 -116 -105q-36 2 -69 35q0 8 7 11q39 -11 61 -12q45 26 54 82z" />
    <glyph glyph-name="quotedblbase" unicode="&#x201e;" horiz-adv-x="619" 
d="M362 -35q-30 21 -40 52q1 67 39 124q104 -12 109 -38l4 -20q-14 -61 -47 -129h-2q-49 -90 -116 -102q-42 1 -70 31q0 9 8 12q28 -11 60 -12q46 26 55 82zM177 -17q-30 21 -41 68q2 51 40 108q104 -12 109 -38l4 -20q-14 -61 -47 -129h-2q-49 -90 -116 -105q-36 2 -69 35
q0 8 7 11q39 -11 61 -12q45 26 54 82z" />
    <glyph glyph-name="Acircumflex" unicode="&#xc2;" horiz-adv-x="745" 
d="M926 1274q38 59 59 61q18 -6 39.5 -28.5t21.5 -36.5q-68 -134 -89 -229q-4 -8 -11 -9h-3q-78 25 -78 45q0 16 72 149l-9 7l-183 -185q-11 -6 -22 -6q-10 0 -13 12q59 49 216 220zM609 -182q0 -10 -14 -10q-57 10 -125 73q-17 39 -17 130q14 134 66 291q-65 -10 -181 -60
q-126 -176 -238 -379q-3 -5 -10 -5q-53 16 -82 40q-8 4 -8 15q18 5 52 52q143 194 190 275q-99 63 -99 161q3 25 12 40h6q25 -43 56.5 -68t97.5 -29l197 273.5l255 359.5q8 7 17 7q51 -16 93 -73v-12q-269 -593 -282 -926q0 -72 7 -110t7 -45zM418 365q109 30 138 30
q39 116 139 366l-4 3q-43 -41 -222 -315z" />
    <glyph glyph-name="Ecircumflex" unicode="&#xca;" horiz-adv-x="821" 
d="M538 -81q-167 -109 -392 -110q-98 14 -146 229q5 47 15 77q65 202 405 405q-43 6 -83 22q-109 36 -114 140q4 134 137 207t319 73q84 0 127 -16q59 -18 102 -98t43 -112q-49 -88 -134 -98q-10 8 -11 23q62 75 67 88l3 12q0 33 -28.5 58t-145.5 25q-223 -2 -308.5 -60.5
t-99.5 -106.5q3 -24 36 -36q115 -49 281 -49q76 0 128 14q53 -18 62 -122l-2 -9q-36 -3 -105 -10q-213 -16 -461 -233q-104 -110 -136 -206l-17 -50q2 -28 33.5 -41.5t88.5 -14.5q248 0 543 238l9 -11q-56 -120 -216 -228zM793 1290q38 59 59 61q18 -6 39.5 -28.5
t21.5 -36.5q-68 -134 -89 -229q-4 -8 -11 -9h-3q-78 25 -78 45q0 16 72 149l-9 7l-183 -185q-11 -6 -22 -6q-10 0 -13 12q59 49 216 220z" />
    <glyph glyph-name="Aacute" unicode="&#xc1;" horiz-adv-x="745" 
d="M855 1009q-10 3 -15 22q123 111 188 180q8 3 16 3q44 -40 47 -67q-7 -14 -107 -69q-98 -68 -129 -69zM609 -182q0 -10 -14 -10q-57 10 -125 73q-17 39 -17 130q14 134 66 291q-65 -10 -181 -60q-126 -176 -238 -379q-3 -5 -10 -5q-53 16 -82 40q-8 4 -8 15q18 5 52 52
q143 194 190 275q-99 63 -99 161q3 25 12 40h6q25 -43 56.5 -68t97.5 -29l197 273.5l255 359.5q8 7 17 7q51 -16 93 -73v-12q-269 -593 -282 -926q0 -72 7 -110t7 -45zM418 365q109 30 138 30q39 116 139 366l-4 3q-43 -41 -222 -315z" />
    <glyph glyph-name="Edieresis" unicode="&#xcb;" horiz-adv-x="821" 
d="M538 -81q-167 -109 -392 -110q-98 14 -146 229q5 47 15 77q65 202 405 405q-43 6 -83 22q-109 36 -114 140q4 134 137 207t319 73q84 0 127 -16q59 -18 102 -98t43 -112q-49 -88 -134 -98q-10 8 -11 23q62 75 67 88l3 12q0 33 -28.5 58t-145.5 25q-223 -2 -308.5 -60.5
t-99.5 -106.5q3 -24 36 -36q115 -49 281 -49q76 0 128 14q53 -18 62 -122l-2 -9q-36 -3 -105 -10q-213 -16 -461 -233q-104 -110 -136 -206l-17 -50q2 -28 33.5 -41.5t88.5 -14.5q248 0 543 238l9 -11q-56 -120 -216 -228zM652 1273q92 -28 92 -50v-18q-40 -57 -76 -118
l-19 -1q-39 14 -57 61q19 58 60 126zM822 1245q93 -15 93 -38v-18l-71 -119l-19 -1q-39 14 -57 60q7 62 54 116z" />
    <glyph glyph-name="Egrave" unicode="&#xc8;" horiz-adv-x="821" 
d="M538 -81q-167 -109 -392 -110q-98 14 -146 229q5 47 15 77q65 202 405 405q-43 6 -83 22q-109 36 -114 140q4 134 137 207t319 73q84 0 127 -16q59 -18 102 -98t43 -112q-49 -88 -134 -98q-10 8 -11 23q62 75 67 88l3 12q0 33 -28.5 58t-145.5 25q-223 -2 -308.5 -60.5
t-99.5 -106.5q3 -24 36 -36q115 -49 281 -49q76 0 128 14q53 -18 62 -122l-2 -9q-36 -3 -105 -10q-213 -16 -461 -233q-104 -110 -136 -206l-17 -50q2 -28 33.5 -41.5t88.5 -14.5q248 0 543 238l9 -11q-56 -120 -216 -228zM654 1140q-121 90 -128 104q0 22 52 75q7 0 16 -3
q60 -77 183 -208q0 -14 -3 -18.5t-17 -7.5q-31 1 -103 58z" />
    <glyph glyph-name="Iacute" unicode="&#xcd;" 
d="M0 -56l2 13q74 0 98 19q3 27 342 867q12 36 31 74q-51 -2 -115 -7q-16 8 -23 46q58 12 134 12q90 1 212 5q34 -11 35 -42q-14 -13 -28 -15q-60 0 -101 -3q12 -9 24 -20l-2 -12q-87 -102 -364 -869l-4 -23l5 -4q53 -1 93 -11q35 -9 39 -26q-2 -17 -21 -25q-19 10 -42 10
q-119 0 -273 -30q-24 8 -42 41zM510 1084q-10 3 -15 22q123 111 188 180q8 3 16 3q44 -40 47 -67q-7 -14 -107 -69q-98 -68 -129 -69z" />
    <glyph glyph-name="Icircumflex" unicode="&#xce;" 
d="M0 -56l2 13q74 0 98 19q3 27 342 867q12 36 31 74q-51 -2 -115 -7q-16 8 -23 46q58 12 134 12q90 1 212 5q34 -11 35 -42q-14 -13 -28 -15q-60 0 -101 -3q12 -9 24 -20l-2 -12q-87 -102 -364 -869l-4 -23l5 -4q53 -1 93 -11q35 -9 39 -26q-2 -17 -21 -25q-19 10 -42 10
q-119 0 -273 -30q-24 8 -42 41zM666 1319q38 59 59 61q18 -6 39.5 -28.5t21.5 -36.5q-68 -134 -89 -229q-4 -8 -11 -9h-3q-78 25 -78 45q0 16 72 149l-9 7l-183 -185q-11 -6 -22 -6q-10 0 -13 12q59 49 216 220z" />
    <glyph glyph-name="Idieresis" unicode="&#xcf;" 
d="M0 -56l2 13q74 0 98 19q3 27 342 867q12 36 31 74q-51 -2 -115 -7q-16 8 -23 46q58 12 134 12q90 1 212 5q34 -11 35 -42q-14 -13 -28 -15q-60 0 -101 -3q12 -9 24 -20l-2 -12q-87 -102 -364 -869l-4 -23l5 -4q53 -1 93 -11q35 -9 39 -26q-2 -17 -21 -25q-19 10 -42 10
q-119 0 -273 -30q-24 8 -42 41zM473 1296q107 -32 107 -58v-21q-47 -65 -88 -136l-22 -1q-45 16 -66 70q22 67 69 146zM670 1264q107 -18 107 -44v-21l-82 -138l-22 -1q-45 16 -66 70q8 71 63 134z" />
    <glyph glyph-name="Igrave" unicode="&#xcc;" 
d="M0 -56l2 13q74 0 98 19q3 27 342 867q12 36 31 74q-51 -2 -115 -7q-16 8 -23 46q58 12 134 12q90 1 212 5q34 -11 35 -42q-14 -13 -28 -15q-60 0 -101 -3q12 -9 24 -20l-2 -12q-87 -102 -364 -869l-4 -23l5 -4q53 -1 93 -11q35 -9 39 -26q-2 -17 -21 -25q-19 10 -42 10
q-119 0 -273 -30q-24 8 -42 41zM552 1080q-121 90 -128 104q0 22 52 75q7 0 16 -3q60 -77 183 -208q0 -14 -3 -18.5t-17 -7.5q-31 1 -103 58z" />
    <glyph glyph-name="Oacute" unicode="&#xd3;" horiz-adv-x="664" 
d="M600 1051q-10 3 -15 22q123 111 188 180q8 3 16 3q44 -40 47 -67q-7 -14 -107 -69q-98 -68 -129 -69zM490 976q93 -2 175 -53q-18 -15 -53 -23q107 -48 114 -115q-3 -204 -146 -495q-202 -354 -352 -359q-202 25 -228 202q5 237 189 573q153 248 301 270zM134 135
q5 -129 47 -147q93 0 299 358q135 249 138 466q-5 53 -35 66l7 13q-115 -2 -212.5 -138t-170.5 -321t-73 -297z" />
    <glyph glyph-name="Ocircumflex" unicode="&#xd4;" horiz-adv-x="670" 
d="M686 1287q38 59 59 61q18 -6 39.5 -28.5t21.5 -36.5q-68 -134 -89 -229q-4 -8 -11 -9h-3q-78 25 -78 45q0 16 72 149l-9 7l-183 -185q-11 -6 -22 -6q-10 0 -13 12q59 49 216 220zM490 976q93 -2 175 -53q-18 -15 -53 -23q107 -48 114 -115q-3 -204 -146 -495
q-202 -354 -352 -359q-202 25 -228 202q5 237 189 573q153 248 301 270zM134 135q5 -129 47 -147q93 0 299 358q135 249 138 466q-5 53 -35 66l7 13q-115 -2 -212.5 -138t-170.5 -321t-73 -297z" />
    <glyph glyph-name="Ograve" unicode="&#xd2;" horiz-adv-x="661" 
d="M688 1081q-121 90 -128 104q0 22 52 75q7 0 16 -3q60 -77 183 -168q0 -14 -3 -33.5t-17 -32.5q-31 1 -103 58zM490 976q93 -2 175 -53q-18 -15 -53 -23q107 -48 114 -115q-3 -204 -146 -495q-202 -354 -352 -359q-202 25 -228 202q5 237 189 573q153 248 301 270z
M134 135q5 -129 47 -147q93 0 299 358q135 249 138 466q-5 53 -35 66l7 13q-115 -2 -212.5 -138t-170.5 -321t-73 -297z" />
    <glyph glyph-name="Uacute" unicode="&#xda;" horiz-adv-x="850" 
d="M630 520q-59 -107 -174 -334q-83 -142 -184 -269q-44 1 -95 44q-59 43 -59 79q0 95 232 650q34 99 35 161l-10 14q-61 -9 -154 -66q-77 -60 -104.5 -117.5t-27.5 -105.5q2 -15 15 -15q35 7 125 67l6 -10q-77 -102 -139 -111q-58 15 -96 127q0 152 149 252q91 67 164 67
q80 0 162 -92q13 -26 13 -66q0 -119 -161 -517q-84 -222 -84 -296l9 -4q18 0 117 154q250 469 333 651q10 14 31 17q110 -14 110 -75q-77 -201 -130.5 -378.5t-54.5 -376.5q29 15 73 71t123 172l13 -17q-80 -120 -139 -198q-55 -68 -81 -69q-50 0 -111 118q0 114 30.5 241
t63.5 232zM588 933q-10 3 -15 22q123 111 188 180q8 3 16 3q44 -40 47 -67q-7 -14 -107 -69q-98 -68 -129 -69z" />
    <glyph glyph-name="Ucircumflex" unicode="&#xdb;" horiz-adv-x="850" 
d="M630 520q-59 -107 -174 -334q-83 -142 -184 -269q-44 1 -95 44q-59 43 -59 79q0 95 232 650q34 99 35 161l-10 14q-61 -9 -154 -66q-77 -60 -104.5 -117.5t-27.5 -105.5q2 -15 15 -15q35 7 125 67l6 -10q-77 -102 -139 -111q-58 15 -96 127q0 152 149 252q91 67 164 67
q80 0 162 -92q13 -26 13 -66q0 -119 -161 -517q-84 -222 -84 -296l9 -4q18 0 117 154q250 469 333 651q10 14 31 17q110 -14 110 -75q-77 -201 -130.5 -378.5t-54.5 -376.5q29 15 73 71t123 172l13 -17q-80 -120 -139 -198q-55 -68 -81 -69q-50 0 -111 118q0 114 30.5 241
t63.5 232zM736 1156q38 59 59 61q18 -6 39.5 -28.5t21.5 -36.5q-68 -134 -89 -229q-4 -8 -11 -9h-3q-78 25 -78 45q0 16 72 149l-9 7l-183 -185q-11 -6 -22 -6q-10 0 -13 12q59 49 216 220z" />
    <glyph glyph-name="Ugrave" unicode="&#xd9;" horiz-adv-x="850" 
d="M630 520q-59 -107 -174 -334q-83 -142 -184 -269q-44 1 -95 44q-59 43 -59 79q0 95 232 650q34 99 35 161l-10 14q-61 -9 -154 -66q-77 -60 -104.5 -117.5t-27.5 -105.5q2 -15 15 -15q35 7 125 67l6 -10q-77 -102 -139 -111q-58 15 -96 127q0 152 149 252q91 67 164 67
q80 0 162 -92q13 -26 13 -66q0 -119 -161 -517q-84 -222 -84 -296l9 -4q18 0 117 154q250 469 333 651q10 14 31 17q110 -14 110 -75q-77 -201 -130.5 -378.5t-54.5 -376.5q29 15 73 71t123 172l13 -17q-80 -120 -139 -198q-55 -68 -81 -69q-50 0 -111 118q0 114 30.5 241
t63.5 232zM641 986q-121 90 -128 104q0 22 52 75q7 0 16 -3q60 -77 183 -208q0 -14 -3 -18.5t-17 -7.5q-31 1 -103 58z" />
    <glyph glyph-name="dotlessi" unicode="&#x131;" horiz-adv-x="291" 
d="M106 -28q-77 0 -109 54q-13 25 -13 87q3 60 33.5 139.5t100.5 176t98 96.5q74 -33 74 -59q-71 -70 -144 -199q-56 -122 -56 -241q2 -16 27 -16q28 0 182 207l13 -21q-159 -224 -206 -224z" />
    <glyph glyph-name="circumflex" unicode="&#x2c6;" horiz-adv-x="599" 
d="M313 1024q38 59 59 61q18 -6 39.5 -28.5t21.5 -36.5q-68 -134 -89 -229q-4 -8 -11 -9h-3q-78 25 -78 45q0 16 72 149l-9 7l-183 -185q-11 -6 -22 -6q-10 0 -13 12q59 49 216 220z" />
    <glyph glyph-name="tilde" unicode="&#x2dc;" horiz-adv-x="599" 
d="M247 1010q-27 0 -55.5 -22t-48.5 -54q-5 -13 -23 -13q-12 0 -22 2l-3 6q2 10 18 30q32 47 65 73q36 26 74 27q82 -18 101 -43q10 -20 19 -62.5t31 -64.5q35 0 55.5 24t33.5 53q6 13 24 13q11 0 18 -7l-9 -18q-34 -60 -63.5 -88.5t-73.5 -32.5q-77 15 -102 43
q-11 20 -21 73t-18 61z" />
    <glyph glyph-name="macron" unicode="&#xaf;" horiz-adv-x="599" 
d="M404 987q120 -54 122 -77q0 -51 -35 -75q-14 0 -91 44q-114 65 -203 67q-62 -7 -77 -20q-7 -29 -17 -29q-25 11 -25 47q0 32 12 57q12 32 134 32q50 0 180 -46z" />
    <glyph glyph-name="breve" unicode="&#x2d8;" horiz-adv-x="601" 
d="M116 976q33 59 66 59q94 -111 233 -111q59 2 59 30q0 12 -10 32q2 5 6 6q28 -8 28 -38q0 -94 -100 -121q-18 -3 -42 -3q-93 0 -222 117q-17 15 -18 29z" />
    <glyph glyph-name="dotaccent" unicode="&#x2d9;" horiz-adv-x="599" 
d="M286 1045q107 -32 107 -58v-21q-47 -65 -88 -136l-22 -1q-45 16 -66 70q22 67 69 146z" />
    <glyph glyph-name="ring" unicode="&#x2da;" horiz-adv-x="600" 
d="M364 1083q37 0 72 -34.5t35 -58.5q0 -40 -59 -123t-138 -88q-71 3 -104 39q0 67 28.5 126t69 92t96.5 47zM250 825q78 3 129.5 76.5t51.5 112.5q-40 0 -78.5 -24.5t-70.5 -78.5t-32 -86z" />
    <glyph glyph-name="cedilla" unicode="&#xb8;" horiz-adv-x="601" 
d="M225 -281q-111 5 -113 53q15 87 57 109q7 0 7 -3q-16 -76 -18 -106q111 0 136 158q0 83 -16 114l40 4q58 -72 58 -153q-6 -91 -46.5 -130t-104.5 -46z" />
    <glyph glyph-name="hungarumlaut" unicode="&#x2dd;" horiz-adv-x="598" 
d="M180 837q-14 13 -17 32.5t-3 33.5q123 91 183 168q8 3 16 3q52 -53 52 -75q-7 -14 -129 -104q-71 -57 -102 -58zM309 779q-14 13 -17 32.5t-3 33.5q123 91 183 168q8 3 16 3q52 -53 52 -75q-7 -14 -129 -104q-71 -57 -102 -58z" />
    <glyph glyph-name="ogonek" unicode="&#x2db;" horiz-adv-x="600" 
d="M295 62q49 -6 72 -23q-38 -58 -68.5 -133t-30.5 -160q0 -53 23 -63q38 0 64.5 26.5t42.5 53.5q19 -2 19 -17q-26 -53 -56.5 -75t-60.5 -24q-128 20 -131 131q0 51 30.5 126t95.5 158z" />
    <glyph glyph-name="caron" unicode="&#x2c7;" horiz-adv-x="599" 
d="M288 836q-38 -59 -59 -61q-18 6 -39.5 28.5t-21.5 36.5q68 134 89 229q4 8 11 9h3q78 -25 78 -45q0 -16 -72 -149l9 -7l183 185q11 6 22 6q10 0 13 -12q-59 -49 -216 -220z" />
    <glyph glyph-name="Lslash" unicode="&#x141;" horiz-adv-x="804" 
d="M185 387q47 85 107 180q135 206 278 331l19 4q147 -26 147 -51q0 -14 -73 -35q-149 -112 -302 -379q145 37 266 51q184 20 236 21l2 -27q-123 -33 -360 -106q-110 -34 -226 -78q-70 -143 -111 -275v-4q212 55 304 71.5t171 16.5q84 0 117 -127q-5 -19 -12 -19h-4
q-37 42 -101 42q-201 0 -445 -104l-46 -31q-30 0 -78 116q-50 15 -50 44q25 86 90 221q-50 -24 -129 -72h-17q-23 49 -23 77q18 62 240 133z" />
    <glyph glyph-name="lslash" unicode="&#x142;" horiz-adv-x="372" 
d="M318 544q-38 -33 -122.5 -175.5t-85.5 -280.5q0 -50 15 -78.5t56 -28.5q29 0 192 228q15 0 15 -15q-165 -245 -220 -246q-76 10 -125.5 57.5t-51.5 110.5q3 143 88 301q17 32 38 65l-136 -42l-2 32l161 48q74 111 180 232q144 148 192 150q84 -21 86 -47q-3 -10 -94 -86
q-72 -74 -158 -188l133 39l9 -27z" />
    <glyph glyph-name="Scaron" unicode="&#x160;" horiz-adv-x="765" 
d="M506 1068q-38 -59 -59 -61q-18 6 -39.5 28.5t-21.5 36.5q68 134 89 229q4 8 11 9h3q78 -25 78 -45q0 -16 -72 -149l9 -7l183 185q11 6 22 6q10 0 13 -12q-59 -49 -216 -220zM478 899q92 -2 147.5 -49.5t55.5 -99.5q-1 -41 -60 -88l-10 8q14 46 14 86q-47 38 -116 38
q-106 0 -232.5 -102t-131.5 -216q0 -27 14 -34q16 0 153.5 43t178.5 43q113 0 213 -163q9 -18 9 -55q0 -116 -161 -282t-332 -170q-105 0 -220 162q3 14 18 18q28 -23 67.5 -43t82.5 -20q149 0 294.5 158.5t145.5 263.5q-14 68 -68 83q-85 0 -185 -39.5t-174 -41.5
q-142 19 -142 136q0 137 150.5 249.5t288.5 114.5z" />
    <glyph glyph-name="scaron" unicode="&#x161;" horiz-adv-x="438" 
d="M363 720q-38 -59 -59 -61q-18 6 -39.5 28.5t-21.5 36.5q68 134 89 229q4 8 11 9h3q78 -25 78 -45q0 -16 -72 -149l9 -7l183 185q11 6 22 6q10 0 13 -12q-59 -49 -216 -220zM315 172q-5 32 -125.5 86.5t-140 87t-21.5 64.5q4 68 117 116.5t152 48.5q37 0 80.5 -36
t44.5 -56q-20 -68 -71 -75l-8 14q27 20 27 47q0 9 -29 9q-28 0 -129.5 -49t-101.5 -91q2 -14 103 -54.5t122 -81.5q27 -45 33 -108q-3 -57 -107 -102t-185 -46q-68 6 -86 40.5t-18 62.5q16 68 67 75l8 -14q-28 -21 -28 -47q8 -9 41 -9q40 0 139.5 42.5t115.5 75.5z" />
    <glyph glyph-name="Zcaron" unicode="&#x17d;" horiz-adv-x="664" 
d="M607 998q-38 -59 -59 -61q-18 6 -39.5 28.5t-21.5 36.5q68 134 89 229q4 8 11 9h3q78 -25 78 -45q0 -16 -72 -149l9 -7l183 185q11 6 22 6q10 0 13 -12q-59 -49 -216 -220zM431 850q-115 -2 -167 -34t-52 -64q1 -53 12 -80l11 2q55 79 209 79q93 0 153 -16
q-34 -63 -227 -277q-191 -212 -290 -335q2 -36 10 -49q-52 -10 -90 -36q2 -75 18 -90q155 30 267 30q199 0 255 -60q8 -11 10 -37l8 -3q21 26 36 71q0 54 -76 92q-74 39 -198 41q-67 0 -112 -4q83 106 260 299q177 192 226 255q52 65 55 87q-4 45 -52 88q-128 41 -266 41z
" />
    <glyph glyph-name="zcaron" unicode="&#x17e;" horiz-adv-x="406" 
d="M-8 -29q-42 55 -46 72q0 27 87.5 144.5t263.5 315.5l-2 5q-77 1 -136 21q-47 20 -57 48q5 12 13 14q29 -27 72 -41.5t189 -19.5q30 -29 32 -62v-13q-197 -218 -318 -394q91 26 155 26q62 0 90 -30q16 -21 18 -40q-2 -31 -15 -58l-7 1q-5 17 -18 28q-21 18 -72 18
q-126 0 -241 -43zM371 690q-38 -59 -59 -61q-18 6 -39.5 28.5t-21.5 36.5q68 134 89 229q4 8 11 9h3q78 -25 78 -45q0 -16 -72 -149l9 -7l183 185q11 6 22 6q10 0 13 -12q-59 -49 -216 -220z" />
    <glyph glyph-name="brokenbar" unicode="&#xa6;" horiz-adv-x="324" 
d="M218 988q88 -64 90 -124q-6 -77 -147 -706q-44 -203 -52 -282q0 -28 4 -44q-1 -16 -25 -23q-63 14 -81 61q35 224 110 542q93 393 99 481q0 30 -16 71l2 16q8 6 16 8z" />
    <glyph glyph-name="Eth" unicode="&#xd0;" horiz-adv-x="1196" 
d="M776 383q-121 -57 -259 -140q-51 -129 -95 -296l-8 -4q-105 29 -105 82q0 14 57 137q-84 -75 -110 -120t-26 -67q0 -48 132 -48q95 1 226.5 53.5t249.5 150.5q231 189 291 310t60 218q0 73 -91 132q-90 36 -156 36q-444 0 -788 -364q-51 -78 -52 -104q6 -16 16 -16
q72 0 72 -12q-65 -48 -108 -48q-36 0 -82 174q32 152 343 314q111 61 256.5 109.5t278.5 48.5q135 0 254 -75t119 -234q0 -157 -77 -293q-212 -348 -609 -508q-110 -28 -191 -32q-130 11 -171 56t-41 96q0 102 215 269q35 106 109 226q-22 -7 -44 -16q-113 -44 -134 -44
q-51 24 -51 75q3 23 179 77q81 19 140 31q175 211 261 211q145 -19 145 -37q-5 -14 -88 -44q-81 -53 -147 -116q104 -5 151 -31q18 -15 18 -47q-9 -22 -17 -35l-17 -32q-37 -17 -106 -43zM664 479q-63 -82 -105 -177q143 85 297 141q4 1 8 3q-4 15 -10 19q-22 13 -113 20
q-37 -1 -77 -6z" />
    <glyph glyph-name="eth" unicode="&#xf0;" horiz-adv-x="590" 
d="M573 941q141 0 142 -127q-10 -187 -182 -482q-170 -372 -399 -382q-34 2 -87 55t-54 118q4 91 86 216.5t130 160.5q57 36 82 36q123 -24 158 -101q136 254 155 410q-3 31 -18 35q-86 -16 -180 -66l-23 26q88 77 190 101zM98 33q2 -29 24 -40q63 2 136.5 83t76.5 100
q-22 -5 -67 -11q-11 0 -14 15q73 107 102 161t29 94q-2 40 -14 41q-52 0 -174 -188q-99 -163 -99 -255z" />
    <glyph glyph-name="Yacute" unicode="&#xdd;" horiz-adv-x="597" 
d="M226 -5q94 306 242.5 546t276.5 411l-5 -1q-334 -364 -460 -596q-91 -130 -130 -214q-6 -13 -15 -15q-105 38 -135 87q235 582 236 701q-2 36 -58 76q0 9 9 10q83 -2 124.5 -39.5t44.5 -93.5q-1 -120 -191 -577l10 -5q123 211 484 637q135 140 165 142l90 -44
q9 -5 11 -25q-75 -93 -248 -337q-248 -447 -304 -661q-57 -184 -128 -521q-23 -16 -44 -17q-89 23 -92 73q17 154 117 463zM528 1129q-10 3 -15 22q123 111 188 180q8 3 16 3q44 -40 47 -67q-7 -14 -107 -69q-98 -68 -129 -69z" />
    <glyph glyph-name="yacute" unicode="&#xfd;" horiz-adv-x="603" 
d="M452 519q-10 3 -15 22q123 111 188 180q8 3 16 3q44 -40 47 -67q-7 -14 -107 -69q-98 -68 -129 -69zM240 550q73 -37 73 -93q-239 -340 -247 -419q3 -18 8 -18q77 0 342 342q55 0 104 -88v-5q-25 -264 -142 -488.5t-247 -338.5q-244 -233 -517 -233q-187 0 -320 165
q0 16 10 16q143 -103 217 -103q502 0 807 708q55 122 67 279h-10q-229 -295 -336 -295q-27 0 -47 45.5t-25 105.5q2 50 115.5 224t147.5 196z" />
    <glyph glyph-name="Thorn" unicode="&#xde;" horiz-adv-x="994" 
d="M607 692q-66 -265 -95 -477l15 -6q172 3 344 179q125 138 129 230q-51 103 -224 103q-89 0 -169 -29zM374 290q0 -28 24 -42q9 71 32 142q-56 -72 -56 -100zM512 786q82 234 148 234q85 -6 85 -26q-48 -19 -108 -188q31 5 78 5q292 -1 333 -179q-3 -271 -225 -425
q-161 -103 -325 -104q-20 -104 -44 -273q-5 -8 -14 -10q-90 28 -90 118q0 26 29 223q-29 22 -38.5 48.5t-9.5 59.5q0 59 104 168q17 112 49 219q-119 -61 -260 -161q-153 -123 -153 -266l-10 -10q-61 52 -61 133q0 185 384 386q68 33 128 48z" />
    <glyph glyph-name="thorn" unicode="&#xfe;" horiz-adv-x="509" 
d="M409 787q-41 -33 -77 -96q-72 -120 -260 -628h5q20 46 80.5 170.5t104.5 196.5q41 63 121 66q74 0 80 -113q-16 -182 -129 -327q-74 -73 -122 -75q-66 6 -132 40q-35 -94 -68 -226q-33 -188 -56 -194q-55 6 -109 64q115 516 319 938q96 237 168 237q71 -20 75 -53zM97 48
q13 -13 45 -24q80 14 155 201q55 137 56 228q-3 6 -15 6q-27 -1 -86.5 -107t-154.5 -304z" />
    <glyph glyph-name="Gbreve" unicode="&#x11e;" horiz-adv-x="685" 
d="M623 1016q79 0 114 -40q-109 -116 -109 -234l17 -23q0 -13 -28 -17q-98 0 -109 143q-147 0 -312 -385q-59 -163 -59 -328q4 -80 29 -80q129 48 314 349l85 142q10 6 23 6q114 -3 114 -28q0 -12 -68.5 -188t-68.5 -429q0 -154 75 -154l5 -12q-2 -15 -37 -18
q-85 2 -129.5 78t-44.5 169q0 195 55 389h-6q-208 -372 -329 -372q-131 0 -154 160q0 387 251 684q93 85 160 85q62 0 120 -11q29 58 54.5 86t37.5 28zM340 1187q33 59 66 59q94 -111 233 -111q59 2 59 30q0 12 -10 32q2 5 6 6q28 -8 28 -38q0 -94 -100 -121q-18 -3 -42 -3
q-93 0 -222 117q-17 15 -18 29z" />
    <glyph glyph-name="gbreve" unicode="&#x11f;" horiz-adv-x="494" 
d="M171 757q33 59 66 59q94 -111 233 -111q59 2 59 30q0 12 -10 32q2 5 6 6q28 -8 28 -38q0 -94 -100 -121q-18 -3 -42 -3q-93 0 -222 117q-17 15 -18 29zM267 537q102 -23 116 -119q-5 -20 -30 -28l-12 3q0 69 -17 72q-74 -40 -140 -138q-92 -152 -99 -293q2 -42 24 -43
q72 14 161 201q77 151 113 153q38 -7 75 -48l-1 -4q-52 -85 -88 -186q-17 -44 -54 -178q58 14 143 15q147 -11 154 -112q-1 -8 -16 -10q-12 29 -40 60t-92 33q-79 -3 -160 -30q-38 -139 -90 -252q-53 -112 -132 -172t-175 -64q-68 3 -107 41q-38 38 -41 91q5 79 104 178
t329 190l6 6q27 94 42 168q-62 -103 -122 -117q-111 40 -134 129q3 80 30 165q59 136 130 212q72 74 123 77zM-189 -472q1 -65 30 -78t70 -13q69 32 148 148t130 271q-89 -36 -231 -125q-142 -90 -147 -203z" />
    <glyph glyph-name="Idotaccent" unicode="&#x130;" horiz-adv-x="333" 
d="M290 1000q129 -62 131 -120q-8 -74 -196 -625q-65 -196 -76 -272q0 -27 6 -43q-2 -15 -37 -22q-92 14 -118 59q51 216 160 523q118 324 127 408q-1 29 -23 69l2 15q13 6 24 8zM422 1281q107 -32 107 -58v-21q-47 -65 -88 -136l-22 -1q-45 16 -66 70q22 67 69 146z" />
    <glyph glyph-name="Scedilla" unicode="&#x15e;" horiz-adv-x="765" 
d="M289 -134q-34 -7 -69 -8q-105 0 -220 162q3 14 18 18q28 -23 67.5 -43t82.5 -20q149 0 294.5 158.5t145.5 263.5q-14 68 -68 83q-85 0 -185 -39.5t-174 -41.5q-142 19 -142 136q0 137 150.5 249.5t288.5 114.5q92 -2 147.5 -49.5t55.5 -99.5q-1 -41 -60 -88l-10 8
q14 46 14 86q-47 38 -116 38q-106 0 -232.5 -102t-131.5 -216q0 -27 14 -34q16 0 153.5 43t178.5 43q113 0 213 -163q9 -18 9 -55q0 -116 -161 -282q-108 -111 -220 -150q47 -65 47 -138q-6 -91 -46.5 -130t-104.5 -46q-111 5 -113 53q15 87 57 109q7 0 7 -3
q-16 -76 -18 -106q111 0 136 158q0 59 -8 91z" />
    <glyph glyph-name="scedilla" unicode="&#x15f;" horiz-adv-x="441" 
d="M103 -53q-14 -1 -27 -1q-68 6 -86 40.5t-18 62.5q16 68 67 75l8 -14q-28 -21 -28 -47q8 -9 41 -9q40 0 139.5 42.5t115.5 75.5q-5 32 -125.5 86.5t-140 87t-21.5 64.5q4 68 117 116.5t152 48.5q37 0 80.5 -36t44.5 -56q-20 -68 -71 -75l-8 14q27 20 27 47q0 9 -29 9
q-28 0 -129.5 -49t-101.5 -91q2 -14 103 -54.5t122 -81.5q27 -45 33 -108q-3 -57 -107 -102q-61 -26 -113 -37q46 -66 46 -138q-6 -91 -46.5 -130t-104.5 -46q-111 5 -113 53q15 87 57 109q7 0 7 -3q-16 -76 -18 -106q111 0 136 158q0 62 -9 95z" />
    <glyph glyph-name="Cacute" unicode="&#x106;" horiz-adv-x="628" 
d="M224 -71q-120 0 -182 82q-42 63 -42 134q0 232 284 552q189 191 304 204q127 -10 187.5 -40.5t60.5 -51.5q0 -72 -152 -176q-12 0 -12 8q0 7 44 80q28 70 28 88q0 20 -12 20q-93 0 -368 -260q-243 -286 -244 -460q1 -134 120 -136q110 0 213 70t143 122t56 81l16 -15
q-61 -104 -187.5 -203t-256.5 -99zM682 984q-10 3 -15 22q123 111 188 180q8 3 16 3q44 -40 47 -67q-7 -14 -107 -69q-98 -68 -129 -69z" />
    <glyph glyph-name="cacute" unicode="&#x107;" horiz-adv-x="365" 
d="M108 -32q-52 0 -86.5 50t-40.5 84q0 78 44 175t110 170q90 89 132 91q125 -33 125 -116q0 -14 -22 -18q-16 30 -35 43q-121 -95 -177 -217.5t-56 -211.5q2 -14 13 -14q98 0 258 217l18 -16q-180 -237 -283 -237zM331 596q-10 3 -15 22q123 111 188 180q8 3 16 3
q44 -40 47 -67q-7 -14 -107 -69q-98 -68 -129 -69z" />
    <glyph glyph-name="Ccaron" unicode="&#x10c;" horiz-adv-x="628" 
d="M224 -71q-120 0 -182 82q-42 63 -42 134q0 232 284 552q189 191 304 204q127 -10 187.5 -40.5t60.5 -51.5q0 -72 -152 -176q-12 0 -12 8q0 7 44 80q28 70 28 88q0 20 -12 20q-93 0 -368 -260q-243 -286 -244 -460q1 -134 120 -136q110 0 213 70t143 122t56 81l16 -15
q-61 -104 -187.5 -203t-256.5 -99zM806 1044q-38 -59 -59 -61q-18 6 -39.5 28.5t-21.5 36.5q68 134 89 229q4 8 11 9h3q78 -25 78 -45q0 -16 -72 -149l9 -7l183 185q11 6 22 6q10 0 13 -12q-59 -49 -216 -220z" />
    <glyph glyph-name="ccaron" unicode="&#x10d;" horiz-adv-x="383" 
d="M415 211q-177 -250 -245 -252q-50 0 -112.5 57t-62.5 130q0 173 154 342q57 44 82 44q23 0 83.5 -29.5t65.5 -69.5q0 -9 -21 -24q-18 40 -37 41q-52 0 -127.5 -112t-75.5 -250q0 -82 30 -82q72 0 146 90.5t107 135.5zM410 663q-38 -59 -59 -61q-18 6 -39.5 28.5
t-21.5 36.5q68 134 89 229q4 8 11 9h3q78 -25 78 -45q0 -16 -72 -149l9 -7l183 185q11 6 22 6q10 0 13 -12q-59 -49 -216 -220z" />
    <glyph glyph-name="dcroat" unicode="&#x111;" horiz-adv-x="549" 
d="M109 64q0 -40 9 -40q78 1 258 391q-3 22 -31 22q-95 -25 -165.5 -164t-70.5 -209zM1076 -158l1 -8h9l-1 8h-9zM648 669q-218 -360 -273 -591q-13 -86 -13 -133q0 -71 27 -97t87 -42q-2 -13 -10 -19q-105 5 -157.5 61.5t-54.5 93.5q0 107 34 214q-54 -77 -96.5 -124.5
t-71.5 -47.5q-107 0 -137 102q0 87 33 162t109.5 174t153.5 107q49 -6 108 -64q71 131 148 258q-79 60 -96 76q-17 15 -18 29q5 17 38 17q17 -20 97 -83q20 31 33 49q50 65 55 65q77 -23 82 -71q-20 -38 -62 -105l103 -62l-22 -30q-55 33 -97 61z" />
    <glyph glyph-name="periodcentered" unicode="&#xb7;" horiz-adv-x="301" 
d="M135.996 571.697q90.9482 -27.1992 90.9482 -49.2988v-17.8486q-39.0996 -48.4492 -73.9482 -108.797l-18.6992 -0.850586q-38.249 13.5996 -56.0986 59.498q18.6992 56.9492 57.7979 117.297z" />
    <glyph glyph-name="Amacron" unicode="&#x100;" horiz-adv-x="745" 
d="M948 1172q120 -54 122 -77q0 -51 -35 -75q-14 0 -91 44q-114 65 -203 67q-62 -7 -77 -20q-7 -29 -17 -29q-25 11 -25 47q0 32 12 57q12 32 134 32q50 0 180 -46zM609 -182q0 -10 -14 -10q-57 10 -125 73q-17 39 -17 130q14 134 66 291q-65 -10 -181 -60
q-126 -176 -238 -379q-3 -5 -10 -5q-53 16 -82 40q-8 4 -8 15q18 5 52 52q143 194 190 275q-99 63 -99 161q3 25 12 40h6q25 -43 56.5 -68t97.5 -29l197 273.5l255 359.5q8 7 17 7q51 -16 93 -73v-12q-269 -593 -282 -926q0 -72 7 -110t7 -45zM418 365q109 30 138 30
q39 116 139 366l-4 3q-43 -41 -222 -315z" />
    <glyph glyph-name="amacron" unicode="&#x101;" horiz-adv-x="573" 
d="M512 744q120 -54 122 -77q0 -51 -35 -75q-14 0 -91 44q-114 65 -203 67q-62 -7 -77 -20q-7 -29 -17 -29q-25 11 -25 47q0 32 12 57q12 32 134 32q50 0 180 -46zM320 561q133 -27 138 -86l-19 -10q-25 31 -61 31q-127 -33 -279 -356q-48 -115 -48 -149q20 0 76.5 65.5
t131 172.5t124.5 201q11 15 30 15q12 0 37.5 -30t27.5 -50q-73 -229 -75 -237q-23 -86 -26 -140q30 0 203 230q14 -1 16 -14q-184 -258 -212 -258q-96 5 -117 71q2 68 46 242q-31 -65 -67 -116q-144 -197 -192 -197q-70 0 -108 108q1 63 119.5 275t254.5 232z" />
    <glyph glyph-name="Abreve" unicode="&#x102;" horiz-adv-x="745" 
d="M683 1173q33 59 66 59q94 -111 233 -111q59 2 59 30q0 12 -10 32q2 5 6 6q28 -8 28 -38q0 -94 -100 -121q-18 -3 -42 -3q-93 0 -222 117q-17 15 -18 29zM609 -182q0 -10 -14 -10q-57 10 -125 73q-17 39 -17 130q14 134 66 291q-65 -10 -181 -60q-126 -176 -238 -379
q-3 -5 -10 -5q-53 16 -82 40q-8 4 -8 15q18 5 52 52q143 194 190 275q-99 63 -99 161q3 25 12 40h6q25 -43 56.5 -68t97.5 -29l197 273.5l255 359.5q8 7 17 7q51 -16 93 -73v-12q-269 -593 -282 -926q0 -72 7 -110t7 -45zM418 365q109 30 138 30q39 116 139 366l-4 3
q-43 -41 -222 -315z" />
    <glyph glyph-name="abreve" unicode="&#x103;" horiz-adv-x="573" 
d="M258 777q33 59 66 59q94 -111 233 -111q59 2 59 30q0 12 -10 32q2 5 6 6q28 -8 28 -38q0 -94 -100 -121q-18 -3 -42 -3q-93 0 -222 117q-17 15 -18 29zM320 561q133 -27 138 -86l-19 -10q-25 31 -61 31q-127 -33 -279 -356q-48 -115 -48 -149q20 0 76.5 65.5t131 172.5
t124.5 201q11 15 30 15q12 0 37.5 -30t27.5 -50q-73 -229 -75 -237q-23 -86 -26 -140q30 0 203 230q14 -1 16 -14q-184 -258 -212 -258q-96 5 -117 71q2 68 46 242q-31 -65 -67 -116q-144 -197 -192 -197q-70 0 -108 108q1 63 119.5 275t254.5 232z" />
    <glyph glyph-name="Aogonek" unicode="&#x104;" horiz-adv-x="745" 
d="M418 365q109 30 138 30q39 116 139 366l-4 3q-43 -41 -222 -315zM497 -142q-13 10 -27 23q-17 39 -17 130q14 134 66 291q-65 -10 -181 -60q-126 -176 -238 -379q-3 -5 -10 -5q-53 16 -82 40q-8 4 -8 15q18 5 52 52q143 194 190 275q-99 63 -99 161q3 25 12 40h6
q25 -43 56.5 -68t97.5 -29l197 273.5l255 359.5q8 7 17 7q51 -16 93 -73v-12q-269 -593 -282 -926q0 -72 7 -110t7 -45q0 -10 -14 -10q-21 4 -43 14q-33 -53 -59 -119q-31 -75 -31 -160q0 -53 23 -63q38 0 64.5 26.5t42.5 53.5q19 -2 19 -17q-26 -53 -56.5 -75t-60.5 -24
q-128 20 -131 131q0 51 30.5 126t95.5 158q4 0 8 -1z" />
    <glyph glyph-name="aogonek" unicode="&#x105;" horiz-adv-x="591" 
d="M280 -12q-8 13 -13 29q2 68 46 242q-31 -65 -67 -116q-144 -197 -192 -197q-70 0 -98 108q1 63 114.5 275t222.5 232q157 -36 165 -86l-19 -10q-25 31 -61 31q-127 -33 -279 -356q-48 -115 -48 -149q20 0 76.5 65.5t131 172.5t124.5 201q11 15 30 15q12 0 37.5 -30
t27.5 -50q-73 -229 -75 -237q-23 -86 -24 -140q68 22 221 232q14 -3 15 -16q-183 -258 -271 -258h-4q-30 -50 -54 -111q-31 -75 -31 -160q0 -53 23 -63q38 0 64.5 26.5t42.5 53.5q19 -2 19 -17q-26 -53 -56.5 -75t-60.5 -24q-128 20 -131 131q0 51 31 126q29 74 93 155z" />
    <glyph glyph-name="Ccircumflex" unicode="&#x108;" horiz-adv-x="628" 
d="M224 -71q-120 0 -182 82q-42 63 -42 134q0 232 284 552q189 191 304 204q127 -10 187.5 -40.5t60.5 -51.5q0 -72 -152 -176q-12 0 -12 8q0 7 44 80q28 70 28 88q0 20 -12 20q-93 0 -368 -260q-243 -286 -244 -460q1 -134 120 -136q110 0 213 70t143 122t56 81l16 -15
q-61 -104 -187.5 -203t-256.5 -99zM806 1226q38 59 59 61q18 -6 39.5 -28.5t21.5 -36.5q-68 -134 -89 -229q-4 -8 -11 -9h-3q-78 25 -78 45q0 16 72 149l-9 7l-183 -185q-11 -6 -22 -6q-10 0 -13 12q59 49 216 220z" />
    <glyph glyph-name="ccircumflex" unicode="&#x109;" horiz-adv-x="362" 
d="M443 846q38 59 59 61q18 -6 39.5 -28.5t21.5 -36.5q-68 -134 -89 -229q-4 -8 -11 -9h-3q-78 25 -78 45q0 16 72 149l-9 7l-183 -185q-11 -6 -22 -6q-10 0 -13 12q59 49 216 220zM108 -32q-52 0 -86.5 50t-40.5 84q0 78 44 175t110 170q90 89 132 91q125 -33 125 -116
q0 -14 -22 -18q-16 30 -35 43q-121 -95 -177 -217.5t-56 -211.5q2 -14 13 -14q98 0 258 217l18 -16q-180 -237 -283 -237z" />
    <glyph glyph-name="Cdotaccent" unicode="&#x10a;" horiz-adv-x="628" 
d="M224 -71q-120 0 -182 82q-42 63 -42 134q0 232 284 552q189 191 304 204q127 -10 187.5 -40.5t60.5 -51.5q0 -72 -152 -176q-12 0 -12 8q0 7 44 80q28 70 28 88q0 20 -12 20q-93 0 -368 -260q-243 -286 -244 -460q1 -134 120 -136q110 0 213 70t143 122t56 81l16 -15
q-61 -104 -187.5 -203t-256.5 -99zM752 1227q107 -32 107 -58v-21q-47 -65 -88 -136l-22 -1q-45 16 -66 70q22 67 69 146z" />
    <glyph glyph-name="cdotaccent" unicode="&#x10b;" horiz-adv-x="365" 
d="M364 815q107 -32 107 -58v-21q-47 -65 -88 -136l-22 -1q-45 16 -66 70q22 67 69 146zM108 -32q-52 0 -86.5 50t-40.5 84q0 78 44 175t110 170q90 89 132 91q125 -33 125 -116q0 -14 -22 -18q-16 30 -35 43q-121 -95 -177 -217.5t-56 -211.5q2 -14 13 -14q98 0 258 217
l18 -16q-180 -237 -283 -237z" />
    <glyph glyph-name="Dcaron" unicode="&#x10e;" horiz-adv-x="1223" 
d="M1174 377q-212 -348 -609 -508q-110 -28 -191 -32q-130 11 -171 56t-41 96q0 102 215 269q41 126 138 271q221 289 322 289q145 -19 145 -37q-5 -14 -88 -44q-231 -150 -335 -385q143 85 297 141l30 10l5 -28q-55 -19 -115 -42q-121 -57 -259 -140q-51 -129 -95 -296
l-8 -4q-105 29 -105 82q0 14 57 137q-84 -75 -110 -120t-26 -67q0 -48 132 -48q95 1 226.5 53.5t249.5 150.5q231 189 319 369q32 102 32 159q0 73 -91 132q-90 36 -156 36q-444 0 -788 -364q-51 -78 -52 -104q6 -16 16 -16q72 0 72 -12q-65 -48 -108 -48q-36 0 -82 174
q32 152 343 314q111 61 256.5 109.5t278.5 48.5q135 0 254 -75t119 -234q-5 -187 -77 -293zM1063 1128q-38 -59 -59 -61q-18 6 -39.5 28.5t-21.5 36.5q68 134 89 229q4 8 11 9h3q78 -25 78 -45q0 -16 -72 -149l9 -7l183 185q11 6 22 6q10 0 13 -12q-59 -49 -216 -220z" />
    <glyph glyph-name="dcaron" unicode="&#x10f;" horiz-adv-x="567" 
d="M895 819q-25 26 -26 46q38 65 86 114q73 -19 73 -45v-21q-26 -57 -71 -117h-2q-58 -73 -106 -81q-16 6 -19 27q46 24 65 77zM76 27q5 -24 17 -27q76 14 285 419q-1 6 -23 20q-78 -9 -170.5 -152t-108.5 -260zM233 76l4 38q-84 -147 -140 -156q-44 3 -83 47t-41 84
q3 106 125.5 274t184.5 175q65 -20 120 -81h4q59 136 256 419q59 -3 100 -76l1 -5q-43 -57 -164 -246l-163 -293q-45 -82 -68.5 -133.5t-24.5 -102.5q0 -28 17 -38q50 8 214 240l15 -17q-185 -264 -227 -265q-65 0 -97 43q-30 41 -33 93z" />
    <glyph glyph-name="Dcroat" unicode="&#x110;" horiz-adv-x="1196" 
d="M776 383q-121 -57 -259 -140q-51 -129 -95 -296l-8 -4q-105 29 -105 82q0 14 57 137q-84 -75 -110 -120t-26 -67q0 -48 132 -48q95 1 226.5 53.5t249.5 150.5q231 189 291 310t60 218q0 73 -91 132q-90 36 -156 36q-444 0 -788 -364q-51 -78 -52 -104q6 -16 16 -16
q72 0 72 -12q-65 -48 -108 -48q-36 0 -82 174q32 152 343 314q111 61 256.5 109.5t278.5 48.5q135 0 254 -75t119 -234q0 -157 -77 -293q-212 -348 -609 -508q-110 -28 -191 -32q-130 11 -171 56t-41 96q0 102 215 269q35 106 109 226q-22 -7 -44 -16q-113 -44 -134 -44
q-51 24 -51 75q3 23 179 77q81 19 140 31q175 211 261 211q145 -19 145 -37q-5 -14 -88 -44q-81 -53 -147 -116q104 -5 151 -31q18 -15 18 -47q-9 -22 -17 -35l-17 -32q-37 -17 -106 -43zM664 479q-63 -82 -105 -177q143 85 297 141q4 1 8 3q-4 15 -10 19q-22 13 -113 20
q-37 -1 -77 -6z" />
    <glyph glyph-name="Emacron" unicode="&#x112;" horiz-adv-x="800" 
d="M538 -81q-167 -109 -392 -110q-98 14 -146 229q5 47 15 77q65 202 405 405q-43 6 -83 22q-109 36 -114 140q4 134 137 207t319 73q84 0 127 -16q59 -18 102 -98t43 -112q-49 -88 -134 -98q-10 8 -11 23q62 75 67 88l3 12q0 33 -28.5 58t-145.5 25q-223 -2 -308.5 -60.5
t-99.5 -106.5q3 -24 36 -36q115 -49 281 -49q76 0 128 14q53 -18 62 -122l-2 -9q-36 -3 -105 -10q-213 -16 -461 -233q-104 -110 -136 -206l-17 -50q2 -28 33.5 -41.5t88.5 -14.5q248 0 543 238l9 -11q-56 -120 -216 -228zM814 1169q120 -54 122 -77q0 -51 -35 -75
q-14 0 -91 44q-114 65 -203 67q-62 -7 -77 -20q-7 -29 -17 -29q-25 11 -25 47q0 32 12 57q12 32 134 32q50 0 180 -46z" />
    <glyph glyph-name="emacron" unicode="&#x113;" horiz-adv-x="466" 
d="M155 -37q-90 0 -128.5 47t-38.5 80q0 174 184 363q110 97 182 98q60 -5 127 -96q0 -71 -92 -170t-147 -102q-23 1 -81 51q-45 -69 -62 -117.5t-17 -91.5q2 -33 62 -33q161 0 326 221l16 -16q-180 -234 -331 -234zM175 257q15 -16 24 -20q32 4 115 91.5t99 144.5l-7 6
q-73 -18 -231 -222zM499 719q120 -54 122 -77q0 -51 -35 -75q-14 0 -91 44q-114 65 -203 67q-62 -7 -77 -20q-7 -29 -17 -29q-25 11 -25 47q0 32 12 57q12 32 134 32q50 0 180 -46z" />
    <glyph glyph-name="Ebreve" unicode="&#x114;" horiz-adv-x="800" 
d="M538 -81q-167 -109 -392 -110q-98 14 -146 229q5 47 15 77q65 202 405 405q-43 6 -83 22q-109 36 -114 140q4 134 137 207t319 73q84 0 127 -16q59 -18 102 -98t43 -112q-49 -88 -134 -98q-10 8 -11 23q62 75 67 88l3 12q0 33 -28.5 58t-145.5 25q-223 -2 -308.5 -60.5
t-99.5 -106.5q3 -24 36 -36q115 -49 281 -49q76 0 128 14q53 -18 62 -122l-2 -9q-36 -3 -105 -10q-213 -16 -461 -233q-104 -110 -136 -206l-17 -50q2 -28 33.5 -41.5t88.5 -14.5q248 0 543 238l9 -11q-56 -120 -216 -228zM484 1212q33 59 66 59q94 -111 233 -111
q59 2 59 30q0 12 -10 32q2 5 6 6q28 -8 28 -38q0 -94 -100 -121q-18 -3 -42 -3q-93 0 -222 117q-17 15 -18 29z" />
    <glyph glyph-name="ebreve" unicode="&#x115;" horiz-adv-x="466" 
d="M155 -37q-90 0 -128.5 47t-38.5 80q0 174 184 363q110 97 182 98q60 -5 127 -96q0 -71 -92 -170t-147 -102q-23 1 -81 51q-45 -69 -62 -117.5t-17 -91.5q2 -33 62 -33q161 0 326 221l16 -16q-180 -234 -331 -234zM175 257q15 -16 24 -20q32 4 115 91.5t99 144.5l-7 6
q-73 -18 -231 -222zM269 762q33 59 66 59q94 -111 233 -111q59 2 59 30q0 12 -10 32q2 5 6 6q28 -8 28 -38q0 -94 -100 -121q-18 -3 -42 -3q-93 0 -222 117q-17 15 -18 29z" />
    <glyph glyph-name="Edotaccent" unicode="&#x116;" horiz-adv-x="800" 
d="M538 -81q-167 -109 -392 -110q-98 14 -146 229q5 47 15 77q65 202 405 405q-43 6 -83 22q-109 36 -114 140q4 134 137 207t319 73q84 0 127 -16q59 -18 102 -98t43 -112q-49 -88 -134 -98q-10 8 -11 23q62 75 67 88l3 12q0 33 -28.5 58t-145.5 25q-223 -2 -308.5 -60.5
t-99.5 -106.5q3 -24 36 -36q115 -49 281 -49q76 0 128 14q53 -18 62 -122l-2 -9q-36 -3 -105 -10q-213 -16 -461 -233q-104 -110 -136 -206l-17 -50q2 -28 33.5 -41.5t88.5 -14.5q248 0 543 238l9 -11q-56 -120 -216 -228zM725 1280q107 -32 107 -58v-21q-47 -65 -88 -136
l-22 -1q-45 16 -66 70q22 67 69 146z" />
    <glyph glyph-name="edotaccent" unicode="&#x117;" horiz-adv-x="466" 
d="M155 -37q-90 0 -128.5 47t-38.5 80q0 174 184 363q110 97 182 98q60 -5 127 -96q0 -71 -92 -170t-147 -102q-23 1 -81 51q-45 -69 -62 -117.5t-17 -91.5q2 -33 62 -33q161 0 326 221l16 -16q-180 -234 -331 -234zM175 257q15 -16 24 -20q32 4 115 91.5t99 144.5l-7 6
q-73 -18 -231 -222zM477 833q107 -32 107 -58v-21q-47 -65 -88 -136l-22 -1q-45 16 -66 70q22 67 69 146z" />
    <glyph glyph-name="Eogonek" unicode="&#x118;" horiz-adv-x="800" 
d="M261 -183q-55 -8 -115 -8q-98 14 -146 229q5 47 15 77q65 202 405 405q-43 6 -83 22q-109 36 -114 140q4 134 137 207t319 73q84 0 127 -16q59 -18 102 -98t43 -112q-49 -88 -134 -98q-10 8 -11 23q62 75 67 88l3 12q0 33 -28.5 58t-145.5 25q-223 -2 -308.5 -60.5
t-99.5 -106.5q3 -24 36 -36q115 -49 281 -49q76 0 128 14q53 -18 62 -122l-2 -9q-36 -3 -105 -10q-213 -16 -461 -233q-104 -110 -136 -206l-17 -50q2 -28 33.5 -41.5t88.5 -14.5q248 0 543 238l9 -11q-56 -120 -216 -228q-81 -53 -175 -80l2 -2q-38 -58 -68.5 -133
t-30.5 -160q0 -53 23 -63q38 0 64.5 26.5t42.5 53.5q19 -2 19 -17q-26 -53 -56.5 -75t-60.5 -24q-128 20 -131 131q0 51 31 126q22 55 63 115z" />
    <glyph glyph-name="eogonek" unicode="&#x119;" horiz-adv-x="389" 
d="M166 255q15 -10 41 -10q49 0 104.5 89.5t55.5 143.5q-146 -116 -201 -223zM47 -37q-41 23 -81 112q4 91 93 251q115 189 218 225q119 -28 119 -74q0 -61 -58 -158t-132 -97q-24 0 -50 6q-70 -131 -70 -209q1 -28 18 -28q108 0 292 223l15 -18q-153 -195 -276 -233l1 -1
q-38 -58 -68.5 -133t-30.5 -160q0 -53 23 -63q38 0 64.5 26.5t42.5 53.5q19 -2 19 -17q-26 -53 -56.5 -75t-60.5 -24q-128 20 -131 131q0 51 31 126q26 65 78 136z" />
    <glyph glyph-name="Ecaron" unicode="&#x11a;" horiz-adv-x="800" 
d="M538 -81q-167 -109 -392 -110q-98 14 -146 229q5 47 15 77q65 202 405 405q-43 6 -83 22q-109 36 -114 140q4 134 137 207t319 73q84 0 127 -16q59 -18 102 -98t43 -112q-49 -88 -134 -98q-10 8 -11 23q62 75 67 88l3 12q0 33 -28.5 58t-145.5 25q-223 -2 -308.5 -60.5
t-99.5 -106.5q3 -24 36 -36q115 -49 281 -49q76 0 128 14q53 -18 62 -122l-2 -9q-36 -3 -105 -10q-213 -16 -461 -233q-104 -110 -136 -206l-17 -50q2 -28 33.5 -41.5t88.5 -14.5q248 0 543 238l9 -11q-56 -120 -216 -228zM759 1105q-38 -59 -59 -61q-18 6 -39.5 28.5
t-21.5 36.5q68 134 89 229q4 8 11 9h3q78 -25 78 -45q0 -16 -72 -149l9 -7l183 185q11 6 22 6q10 0 13 -12q-59 -49 -216 -220z" />
    <glyph glyph-name="ecaron" unicode="&#x11b;" horiz-adv-x="466" 
d="M155 -37q-90 0 -128.5 47t-38.5 80q0 174 184 363q110 97 182 98q60 -5 127 -96q0 -71 -92 -170t-147 -102q-23 1 -81 51q-45 -69 -62 -117.5t-17 -91.5q2 -33 62 -33q161 0 326 221l16 -16q-180 -234 -331 -234zM175 257q15 -16 24 -20q32 4 115 91.5t99 144.5l-7 6
q-73 -18 -231 -222zM528 657q-38 -59 -59 -61q-18 6 -39.5 28.5t-21.5 36.5q68 134 89 229q4 8 11 9h3q78 -25 78 -45q0 -16 -72 -149l9 -7l183 185q11 6 22 6q10 0 13 -12q-59 -49 -216 -220z" />
    <glyph glyph-name="Gcircumflex" unicode="&#x11c;" horiz-adv-x="685" 
d="M623 1016q79 0 114 -40q-109 -116 -109 -234l17 -23q0 -13 -28 -17q-98 0 -109 143q-147 0 -312 -385q-59 -163 -59 -328q4 -80 29 -80q129 48 314 349l85 142q10 6 23 6q114 -3 114 -28q0 -12 -68.5 -188t-68.5 -429q0 -154 75 -154l5 -12q-2 -15 -37 -18
q-85 2 -129.5 78t-44.5 169q0 195 55 389h-6q-208 -372 -329 -372q-131 0 -154 160q0 387 251 684q93 85 160 85q62 0 120 -11q29 58 54.5 86t37.5 28zM616 1271q38 59 59 61q18 -6 39.5 -28.5t21.5 -36.5q-68 -134 -89 -229q-4 -8 -11 -9h-3q-78 25 -78 45q0 16 72 149
l-9 7l-183 -185q-11 -6 -22 -6q-10 0 -13 12q59 49 216 220z" />
    <glyph glyph-name="gcircumflex" unicode="&#x11d;" 
d="M258 537q102 -23 116 -119q-5 -20 -30 -28l-12 3q0 69 -17 72q-74 -40 -140 -138q-92 -152 -99 -293q2 -42 24 -43q72 14 161 201q77 151 113 153q38 -7 75 -48l-1 -4q-52 -85 -88 -186q-17 -44 -54 -178q58 14 143 15q147 -11 154 -112q-1 -8 -16 -10q-12 29 -40 60
t-92 33q-79 -3 -160 -30q-38 -139 -90 -252q-53 -112 -132 -172t-175 -64q-68 3 -107 41q-38 38 -41 91q5 79 104 178t329 190l6 6q27 94 42 168q-62 -103 -122 -117q-111 40 -134 129q3 80 30 165q59 136 130 212q72 74 123 77zM-198 -472q1 -65 30 -78t70 -13
q69 32 148 148t130 271q-89 -36 -231 -125q-142 -90 -147 -203zM441 838q38 59 59 61q18 -6 39.5 -28.5t21.5 -36.5q-68 -134 -89 -229q-4 -8 -11 -9h-3q-78 25 -78 45q0 16 72 149l-9 7l-183 -185q-11 -6 -22 -6q-10 0 -13 12q59 49 216 220z" />
    <glyph glyph-name="Gdotaccent" unicode="&#x120;" horiz-adv-x="685" 
d="M623 1016q79 0 114 -40q-109 -116 -109 -234l17 -23q0 -13 -28 -17q-98 0 -109 143q-147 0 -312 -385q-59 -163 -59 -328q4 -80 29 -80q129 48 314 349l85 142q10 6 23 6q114 -3 114 -28q0 -12 -68.5 -188t-68.5 -429q0 -154 75 -154l5 -12q-2 -15 -37 -18
q-85 2 -129.5 78t-44.5 169q0 195 55 389h-6q-208 -372 -329 -372q-131 0 -154 160q0 387 251 684q93 85 160 85q62 0 120 -11q29 58 54.5 86t37.5 28zM523 1247q107 -32 107 -58v-21q-47 -65 -88 -136l-22 -1q-45 16 -66 70q22 67 69 146z" />
    <glyph glyph-name="gdotaccent" unicode="&#x121;" 
d="M258 537q102 -23 116 -119q-5 -20 -30 -28l-12 3q0 69 -17 72q-74 -40 -140 -138q-92 -152 -99 -293q2 -42 24 -43q72 14 161 201q77 151 113 153q38 -7 75 -48l-1 -4q-52 -85 -88 -186q-17 -44 -54 -178q58 14 143 15q147 -11 154 -112q-1 -8 -16 -10q-12 29 -40 60
t-92 33q-79 -3 -160 -30q-38 -139 -90 -252q-53 -112 -132 -172t-175 -64q-68 3 -107 41q-38 38 -41 91q5 79 104 178t329 190l6 6q27 94 42 168q-62 -103 -122 -117q-111 40 -134 129q3 80 30 165q59 136 130 212q72 74 123 77zM-198 -472q1 -65 30 -78t70 -13
q69 32 148 148t130 271q-89 -36 -231 -125q-142 -90 -147 -203zM377 820q107 -32 107 -58v-21q-47 -65 -88 -136l-22 -1q-45 16 -66 70q22 67 69 146z" />
    <glyph glyph-name="uni0122" unicode="&#x122;" horiz-adv-x="685" 
d="M623 966q79 0 114 -40q-109 -116 -109 -234l17 -23q0 -13 -28 -17q-98 0 -109 143q-147 0 -337 -434q-34 -104 -34 -229q4 -80 29 -80q129 48 314 349l85 142q10 6 23 6q114 -3 114 -28q0 -12 -68.5 -188t-68.5 -429q0 -154 75 -154l5 -12q-2 -15 -37 -18
q-85 2 -129.5 78t-44.5 169q0 195 55 389h-6q-208 -372 -329 -372q-131 0 -154 160q0 337 251 634q93 85 160 85q62 0 120 -11q29 58 54.5 86t37.5 28zM205 -231q-25 26 -26 46q38 65 86 114q73 -19 73 -45v-21q-26 -57 -71 -117h-2q-58 -73 -128 -79q-35 0 -67 46q1 8 9 9
q51 -29 73 -29q34 23 53 76z" />
    <glyph glyph-name="uni0123" unicode="&#x123;" 
d="M258 537q102 -23 116 -119q-5 -20 -30 -28l-12 3q0 69 -17 72q-74 -40 -140 -138q-92 -152 -99 -293q2 -42 24 -43q72 14 161 201q77 151 113 153q38 -7 75 -48l-1 -4q-52 -85 -88 -186q-17 -44 -54 -178q58 14 143 15q147 -11 154 -112q-1 -8 -16 -10q-12 29 -40 60
t-92 33q-79 -3 -160 -30q-38 -139 -90 -252q-53 -112 -132 -172t-175 -64q-68 3 -107 41q-38 38 -41 91q5 79 104 178t329 190l6 6q27 94 42 168q-62 -103 -122 -117q-111 40 -134 129q3 80 30 165q59 136 130 212q72 74 123 77zM-198 -472q1 -65 30 -78t70 -13
q69 32 148 148t130 271q-89 -36 -231 -125q-142 -90 -147 -203zM507 750q25 -26 26 -46q-38 -65 -86 -114q-73 19 -73 45v21q26 57 71 117h2q58 73 128 79q35 0 67 -46q-1 -8 -9 -9q-51 29 -73 29q-34 -23 -53 -76z" />
    <glyph glyph-name="Hcircumflex" unicode="&#x124;" horiz-adv-x="677" 
d="M544 -149q-6 -14 -29 -15q-116 23 -116 78q0 85 106 506q-96 -12 -140 -18q-116 -271 -116 -406q-1 -28 -27 -28q-120 35 -120 89q54 165 114 305q-24 -5 -73 -19q-36 41 -36 100q0 13 16 20l38 10q-161 35 -161 110q5 147 140 294q125 129 175 129q159 -18 204 -126v-17
q0 -85 -123 -372q77 7 132 13q88 262 244 492q71 105 126 106q116 -27 116 -68t-55 -72q-6 8 -6 14q25 24 25 35q-59 -1 -155 -165q-162 -245 -246 -628q-27 -104 -33 -367zM92 559q0 -39 45 -60.5t129 -21.5q22 22 99 246q41 111 50 191q0 21 -30 21q-61 0 -211 -175
q-82 -121 -82 -201zM730 1332q38 59 59 61q18 -6 39.5 -28.5t21.5 -36.5q-68 -134 -89 -229q-4 -8 -11 -9h-3q-78 25 -78 45q0 16 72 149l-9 7l-183 -185q-11 -6 -22 -6q-10 0 -13 12q59 49 216 220z" />
    <glyph glyph-name="hcircumflex" unicode="&#x125;" 
d="M299 808q71 -9 80 -48q-104 -152 -217 -446q-48 -152 -78 -239q80 144 128 222q122 186 171 186q97 -22 102 -52q-68 -99 -127 -286q-77 -236 -78 -341q8 -11 22 -15q26 1 40 22t21 35q13 -8 15 -22q-40 -67 -72 -67q-112 24 -127 110q6 132 57 285t65 210l-9 3
q-123 -184 -210 -381q-23 -44 -55 -47q-58 0 -105 56q30 64 128 356q75 218 138 333t111 126zM821 353l-1 -9h4l2 9h-5zM512 1108q38 59 59 61q18 -6 39.5 -28.5t21.5 -36.5q-68 -134 -89 -229q-4 -8 -11 -9h-3q-78 25 -78 45q0 16 72 149l-9 7l-183 -185q-11 -6 -22 -6
q-10 0 -13 12q59 49 216 220z" />
    <glyph glyph-name="Hbar" unicode="&#x126;" horiz-adv-x="683" 
d="M1347 -601l-1 -9h4l2 9h-5zM348 651q4 10 9 21q46 104 60 180q-1 21 -28 22q-54 0 -200 -165q-84 -109 -88 -185q0 -39 33.5 -57.5t113.5 -23.5q19 17 85 172q-39 4 -50 4q-42 -2 -57 -11q-7 -20 -17 -20q-25 8 -25 32q8 29 116 34q9 0 48 -3zM447 602q-30 -67 -73 -153
q73 2 126 5q28 69 61 135q-3 1 -7 1q-60 7 -107 12zM685 575q-91 -172 -155 -398q-32 -133 -53 -349q-7 -13 -24 -17q-105 37 -111 86q44 270 131 477q-74 -3 -135 -8q-128 -261 -132 -396q-3 -24 -28 -25q-95 56 -100 104q61 155 129 291q-37 -7 -84 -18q-25 30 -29 98
q1 13 16 18l37 7q-143 40 -147 115q2 125 151 273q112 108 176 113q150 -27 187 -133l-2 -17q-2 -47 -49 -157l95 -9q11 -2 23 -3q78 148 181 282q70 91 128 93q93 -23 106 -71q-2 -40 -57 -66q-4 5 -4 14q26 19 26 32q-57 0 -158 -148q-52 -69 -99 -152q101 -15 125 -31
l-20 -18q-10 0 -124 13z" />
    <glyph glyph-name="hbar" unicode="&#x127;" 
d="M821 353l-1 -9h4l2 9h-5zM195 688q63 111 104 120q71 -9 80 -48q-23 -34 -62 -109q72 -24 110 -49l-20 -18q-14 0 -91 30q-10 4 -19 7q-66 -127 -135 -307q-48 -152 -78 -239q80 144 128 222q122 186 171 186q97 -22 102 -52q-68 -99 -127 -286q-77 -236 -78 -341
q8 -11 22 -15q26 1 40 22t21 35q13 -8 15 -22q-40 -67 -72 -67q-112 24 -127 110q6 132 57 285t65 210l-9 3q-123 -184 -210 -381q-23 -44 -55 -47q-58 0 -105 56q30 64 128 356q66 193 123 305q-31 5 -60 6q-42 -2 -57 -11q-7 -20 -17 -20q-25 8 -25 32q8 29 116 34
q24 0 65 -7z" />
    <glyph glyph-name="Itilde" unicode="&#x128;" 
d="M0 -56l2 13q74 0 98 19q3 27 342 867q12 36 31 74q-51 -2 -115 -7q-16 8 -23 46q58 12 134 12q90 1 212 5q34 -11 35 -42q-14 -13 -28 -15q-60 0 -101 -3q12 -9 24 -20l-2 -12q-87 -102 -364 -869l-4 -23l5 -4q53 -1 93 -11q35 -9 39 -26q-2 -17 -21 -25q-19 10 -42 10
q-119 0 -273 -30q-24 8 -42 41zM517 1228q-27 0 -55.5 -22t-48.5 -54q-5 -13 -23 -13q-12 0 -22 2l-3 6q2 10 18 30q32 47 65 73q36 26 74 27q82 -18 101 -43q10 -20 19 -62.5t31 -64.5q35 0 55.5 24t33.5 53q6 13 24 13q11 0 18 -7l-9 -18q-34 -60 -63.5 -88.5t-73.5 -32.5
q-77 15 -102 43q-11 20 -21 73t-18 61z" />
    <glyph glyph-name="itilde" unicode="&#x129;" horiz-adv-x="293" 
d="M263 765q-27 0 -55.5 -22t-48.5 -54q-5 -13 -23 -13q-12 0 -22 2l-3 6q2 10 18 30q32 47 65 73q36 26 74 27q82 -18 101 -43q10 -20 19 -62.5t31 -64.5q35 0 55.5 24t33.5 53q6 13 24 13q11 0 18 -7l-9 -18q-34 -60 -63.5 -88.5t-73.5 -32.5q-77 15 -102 43
q-11 20 -21 73t-18 61zM106 -28q-77 0 -109 54q-13 25 -13 87q3 60 33.5 139.5t100.5 176t98 96.5q74 -33 74 -59q-71 -70 -144 -199q-56 -122 -56 -241q2 -16 27 -16q28 0 182 207l13 -21q-159 -224 -206 -224z" />
    <glyph glyph-name="Imacron" unicode="&#x12a;" 
d="M0 -56l2 13q74 0 98 19q3 27 342 867q12 36 31 74q-51 -2 -115 -7q-16 8 -23 46q58 12 134 12q90 1 212 5q34 -11 35 -42q-14 -13 -28 -15q-60 0 -101 -3q12 -9 24 -20l-2 -12q-87 -102 -364 -869l-4 -23l5 -4q53 -1 93 -11q35 -9 39 -26q-2 -17 -21 -25q-19 10 -42 10
q-119 0 -273 -30q-24 8 -42 41zM667 1205q120 -54 122 -77q0 -51 -35 -75q-14 0 -91 44q-114 65 -203 67q-62 -7 -77 -20q-7 -29 -17 -29q-25 11 -25 47q0 32 12 57q12 32 134 32q50 0 180 -46z" />
    <glyph glyph-name="imacron" unicode="&#x12b;" horiz-adv-x="293" 
d="M345 706q120 -54 122 -77q0 -51 -35 -75q-14 0 -91 44q-61 50 -150 52q-62 -7 -77 -20q-7 -29 -17 -29q-25 11 -25 47q0 32 12 57q12 32 134 32q50 0 127 -31zM106 -28q-77 0 -109 54q-13 25 -13 87q3 60 33.5 139.5t100.5 176t98 96.5q74 -33 74 -59q-71 -70 -144 -199
q-56 -122 -56 -241q2 -16 27 -16q28 0 182 207l13 -21q-159 -224 -206 -224z" />
    <glyph glyph-name="Ibreve" unicode="&#x12c;" 
d="M0 -56l2 13q74 0 98 19q3 27 342 867q12 36 31 74q-51 -2 -115 -7q-16 8 -23 46q58 12 134 12q90 1 212 5q34 -11 35 -42q-14 -13 -28 -15q-60 0 -101 -3q12 -9 24 -20l-2 -12q-87 -102 -364 -869l-4 -23l5 -4q53 -1 93 -11q35 -9 39 -26q-2 -17 -21 -25q-19 10 -42 10
q-119 0 -273 -30q-24 8 -42 41zM360 1207q33 59 66 59q94 -111 233 -111q59 2 59 30q0 12 -10 32q2 5 6 6q28 -8 28 -38q0 -94 -100 -121q-18 -3 -42 -3q-93 0 -222 117q-17 15 -18 29z" />
    <glyph glyph-name="ibreve" unicode="&#x12d;" horiz-adv-x="292" 
d="M141 712q33 59 66 59q94 -111 233 -111q59 2 59 30q0 12 -10 32q2 5 6 6q28 -8 28 -38q0 -94 -100 -121q-18 -3 -42 -3q-93 0 -222 117q-17 15 -18 29zM106 -28q-77 0 -109 54q-13 25 -13 87q3 60 33.5 139.5t100.5 176t98 96.5q74 -33 74 -59q-71 -70 -144 -199
q-56 -122 -56 -241q2 -16 27 -16q28 0 182 207l13 -21q-159 -224 -206 -224z" />
    <glyph glyph-name="Iogonek" unicode="&#x12e;" 
d="M147 -79q-50 -7 -105 -18q-24 8 -42 41l2 13q74 0 98 19q3 27 342 867q12 36 31 74q-51 -2 -115 -7q-16 8 -23 46q58 12 134 12q90 1 212 5q34 -11 35 -42q-14 -13 -28 -15q-60 0 -101 -3q12 -9 24 -20l-2 -12q-87 -102 -364 -869l-4 -23l5 -4q53 -1 93 -11q35 -9 39 -26
q-2 -17 -21 -25q-19 10 -42 10q-34 0 -70 -2q-34 -54 -61 -122q-31 -75 -31 -160q0 -53 23 -63q38 0 64.5 26.5t42.5 53.5q19 -2 19 -17q-26 -53 -56.5 -75t-60.5 -24q-128 20 -131 131q0 51 31 126q22 55 62 114z" />
    <glyph glyph-name="iogonek" unicode="&#x12f;" horiz-adv-x="291" 
d="M369 840q89 -21 89 -47v-21l-126 -209l-22 -1q-39 23 -44 78q0 59 103 200zM41 -24q-32 20 -44 50q-13 25 -13 87q3 60 28.5 139.5t90.5 191t93 111.5q88 -42 88 -68q-65 -91 -127 -226q-57 -156 -57 -245q2 -16 17 -16q28 0 182 217l13 -21q-144 -203 -194 -239
q-34 -54 -61 -122q-31 -75 -31 -160q0 -53 23 -63q38 0 64.5 26.5t42.5 53.5q19 -2 19 -17q-26 -53 -56.5 -75t-60.5 -24q-128 20 -131 131q0 51 31 126q27 68 83 143z" />
    <glyph glyph-name="Jcircumflex" unicode="&#x134;" horiz-adv-x="921" 
d="M878 412q-208 -378 -525 -584q-144 -73 -210 -73q-41 9 -85 58t-47 108q71 195 653 469q37 14 79 23q134 259 175 397q0 63 -55 63q-193 -28 -431 -169q-117 -85 -137 -141q3 -6 13 -8q27 0 115 4q0 -12 -5 -21q-85 -36 -133 -38q-29 7 -44 59.5t-17 98.5q38 97 260 197
t350 104q53 -3 121.5 -73.5t68.5 -111.5q-6 -85 -131 -332q78 23 111 30l2 -26q-49 -5 -128 -34zM57 -77q0 -34 66 -43q143 0 401 246q106 123 191 248q-209 -86 -411 -208q-227 -166 -247 -243zM893 1266q38 59 59 61q18 -6 39.5 -28.5t21.5 -36.5q-68 -134 -89 -229
q-4 -8 -11 -9h-3q-78 25 -78 45q0 16 72 149l-9 7l-183 -185q-11 -6 -22 -6q-10 0 -13 12q59 49 216 220z" />
    <glyph glyph-name="jcircumflex" unicode="&#x135;" horiz-adv-x="278" 
d="M365 915q38 59 59 61q18 -6 39.5 -28.5t21.5 -36.5q-68 -134 -89 -229q-4 -8 -11 -9h-3q-78 25 -78 45q0 16 72 149l-9 7l-183 -185q-11 -6 -22 -6q-10 0 -13 12q59 49 216 220zM179 540q38 13 67 13q58 -2 62 -27q-19 -87 -72 -163q-104 -384 -203 -548
q-148 -273 -360 -373q-104 -39 -190 -39q-137 0 -299 104l-4 10q0 5 6 5q130 -64 213 -64q223 0 424 259q129 183 183.5 321.5t73.5 228.5l-93 -115l-12 21q37 46 66 89.5t57 101.5q38 124 81 176z" />
    <glyph glyph-name="uni0136" unicode="&#x136;" horiz-adv-x="539" 
d="M154 -295q-25 26 -26 46q38 65 86 114q73 -19 73 -45v-21q-26 -57 -71 -117h-2q-58 -73 -128 -79q-35 0 -67 46q1 8 9 9q51 -29 73 -29q34 23 53 76zM0 25q0 58 77 279q114 355 162 444t91 103q101 48 182 50q24 0 47 -28v-9q-28 -1 -89 -36q-78 -82 -131 -193
q-92 -213 -159 -443l129 191q153 221 323.5 410.5t308 321.5t159.5 134q149 -53 166 -144q0 -14 -11 -18q-106 48 -168 49q-56 -10 -377 -357q-144 -155 -285 -353q41 -12 41 -27q-49 -126 -49 -293q0 -202 87 -238q26 0 41.5 19t18.5 19q5 0 5 -11q-37 -60 -92 -60
q-153 0 -179 228q-5 38 -5 65l3 102q-96 -175 -136 -237q-17 -35 -23 -96q-8 -13 -35 -16q-81 66 -102 144z" />
    <glyph glyph-name="uni0137" unicode="&#x137;" horiz-adv-x="496" 
d="M408 -326q-115 0 -178 71q-31 49 -53 113.5t-55 225.5q-23 -38 -65 -144q-11 -8 -21 -9q-33 4 -78 76l-1 8q4 86 51 180q116 304 259 500t155 198q58 -13 93 -67q-282 -362 -340 -570l4 -4q185 262 245 269q102 -12 109 -79q-11 -128 -162 -284q-58 -45 -131 -65
q53 -361 214 -361q33 0 110 72.5t138 232.5l11 -18q-9 -60 -69 -170q-48 -86 -128 -141q-56 -29 -108 -34zM159 172q42 0 76 25q111 97 209 264q-1 19 -13 19q-77 -37 -166.5 -153.5t-105.5 -154.5zM-19 -321q-25 26 -26 46q38 65 86 114q73 -19 73 -45v-21
q-26 -57 -71 -117h-2q-58 -73 -128 -79q-35 0 -67 46q1 8 9 9q51 -29 73 -29q34 23 53 76z" />
    <glyph glyph-name="kgreenlandic" unicode="&#x138;" horiz-adv-x="521" 
d="M408 -326q-115 0 -178 71q-31 49 -53 113.5t-55 225.5q-23 -38 -65 -144q-11 -8 -21 -9q-33 4 -78 76l-1 8q4 86 51 180q89 186 181.5 337.5t104.5 153.5q58 -13 93 -67q-181 -273 -212 -363l4 -4q185 262 245 269q102 -12 109 -79q-11 -128 -162 -284q-58 -45 -131 -65
q53 -361 214 -361q33 0 110 72.5t138 232.5l11 -18q-9 -60 -69 -170q-48 -86 -128 -141q-56 -29 -108 -34zM159 172q42 0 76 25q111 97 209 264q-1 19 -13 19q-77 -37 -166.5 -153.5t-105.5 -154.5z" />
    <glyph glyph-name="Lacute" unicode="&#x139;" horiz-adv-x="977" 
d="M783 145q92 0 127 -127q-5 -21 -13 -21h-4q-40 46 -110 46q-219 0 -593 -131l-50 -34q-33 0 -85 127q-55 16 -55 47q61 215 292 588q104 153 220 254l21 4q161 -28 161 -55q0 -15 -80 -38q-144 -123 -229 -258q-155 -266 -228 -500v-4q231 60 385.5 81t240.5 21zM645 949
q-10 3 -15 22q123 111 188 180q8 3 16 3q44 -40 47 -67q-7 -14 -107 -69q-98 -68 -129 -69z" />
    <glyph glyph-name="lacute" unicode="&#x13a;" horiz-adv-x="386" 
d="M130 433q100 204 157 277q95 120 116 120q66 0 101 -53q-95 -87 -187 -244q-150 -284 -150 -538q32 11 78.5 46t146.5 177l15 -16q-81 -128 -143.5 -186t-104.5 -65q-110 35 -124 111q0 105 57 257q-28 -56 -83 -136l-18 13q65 94 139 237zM458 900q-10 3 -15 22
q123 111 188 180q8 3 16 3q44 -40 47 -67q-7 -14 -107 -69q-98 -68 -129 -69z" />
    <glyph glyph-name="uni013B" unicode="&#x13b;" horiz-adv-x="977" 
d="M783 145q92 0 127 -127q-5 -21 -13 -21h-4q-40 46 -110 46q-219 0 -593 -131l-50 -34q-33 0 -85 127q-55 16 -55 47q61 215 292 588q104 153 220 254l21 4q161 -28 161 -55q0 -15 -80 -38q-144 -123 -229 -258q-155 -266 -228 -500v-4q231 60 385.5 81t240.5 21z
M391 -263q-25 26 -26 46q38 65 86 114q73 -19 73 -45v-21q-26 -57 -71 -117h-2q-58 -73 -128 -79q-35 0 -67 46q1 8 9 9q51 -29 73 -29q34 23 53 76z" />
    <glyph glyph-name="uni013C" unicode="&#x13c;" horiz-adv-x="386" 
d="M130 433q100 204 157 277q95 120 116 120q66 0 101 -53q-95 -87 -187 -244q-150 -284 -150 -538q32 11 78.5 46t146.5 177l15 -16q-81 -128 -143.5 -186t-104.5 -65q-110 35 -124 111q0 105 57 257q-28 -56 -83 -136l-18 13q65 94 139 237zM179 -251q-25 26 -26 46
q38 65 86 114q73 -19 73 -45v-21q-26 -57 -71 -117h-2q-58 -73 -128 -79q-35 0 -67 46q1 8 9 9q51 -29 73 -29q34 23 53 76z" />
    <glyph glyph-name="Lcaron" unicode="&#x13d;" horiz-adv-x="977" 
d="M783 145q92 0 127 -127q-5 -21 -13 -21h-4q-40 46 -110 46q-219 0 -593 -131l-50 -34q-33 0 -85 127q-55 16 -55 47q61 215 292 588q104 153 220 254l21 4q161 -28 161 -55q0 -15 -80 -38q-144 -123 -229 -258q-155 -266 -228 -500v-4q231 60 385.5 81t240.5 21zM796 770
q-25 26 -26 46q38 65 86 114q73 -19 73 -45v-21q-26 -57 -71 -117h-2q-58 -73 -106 -81q-16 6 -19 27q46 24 65 77z" />
    <glyph glyph-name="lcaron" unicode="&#x13e;" horiz-adv-x="435" 
d="M130 433q100 204 157 277q95 120 116 120q66 0 101 -53q-95 -87 -187 -244q-150 -284 -150 -538q32 11 78.5 46t146.5 177l15 -16q-81 -128 -143.5 -186t-104.5 -65q-110 35 -124 111q0 105 57 257q-28 -56 -83 -136l-18 13q65 94 139 237zM588 770q-25 26 -26 46
q38 65 86 114q73 -19 73 -45v-21q-26 -57 -71 -117h-2q-58 -73 -106 -81q-16 6 -19 27q46 24 65 77z" />
    <glyph glyph-name="Ldot" unicode="&#x13f;" horiz-adv-x="977" 
d="M783 145q92 0 127 -127q-5 -21 -13 -21h-4q-40 46 -110 46q-219 0 -593 -131l-50 -34q-33 0 -85 127q-55 16 -55 47q61 215 292 588q104 153 220 254l21 4q161 -28 161 -55q0 -15 -80 -38q-144 -123 -229 -258q-155 -266 -228 -500v-4q231 60 385.5 81t240.5 21zM481 545
q107 -32 107 -58v-21q-47 -65 -88 -136l-22 -1q-45 16 -66 70q22 67 69 146z" />
    <glyph glyph-name="ldot" unicode="&#x140;" horiz-adv-x="450" 
d="M130 433q100 204 157 277q95 120 116 120q66 0 101 -53q-95 -87 -187 -244q-150 -284 -150 -538q32 11 78.5 46t146.5 177l15 -16q-81 -128 -143.5 -186t-104.5 -65q-110 35 -124 111q0 105 57 257q-28 -56 -83 -136l-18 13q65 94 139 237zM362 488q74 -22 74 -40v-15
q-46 -70 -74 -119l-15 -1q-31 11 -46 48q15 47 61 127z" />
    <glyph glyph-name="Nacute" unicode="&#x143;" horiz-adv-x="902" 
d="M627 992q-10 3 -15 22q123 111 188 180q8 3 16 3q44 -40 47 -67q-7 -14 -107 -69q-98 -68 -129 -69zM453 661q-176 -405 -227 -593q13 3 147 220q274 519 376 598q12 7 23 12q74 -3 128 -61l1 -6q-5 -64 -107 -379q-33 -141 -46.5 -247.5t-14.5 -251.5q2 -146 63 -242
q31 -33 64 -42l-7 -15q-41 4 -85 25q-160 109 -168 350q5 188 44.5 371t127.5 430l-4 2q-118 -115 -357 -560l-231 -378q-100 35 -119 90q4 75 167.5 440t176.5 439q-1 20 -27 21q-52 0 -194 -160q-82 -106 -86 -180q0 -38 33 -56q4 -3 10 -6l-12 -11q-125 39 -129 108
q2 121 147 265q109 105 171 110q146 -26 182 -129l-2 -17q-3 -44 -45 -147z" />
    <glyph glyph-name="nacute" unicode="&#x144;" horiz-adv-x="546" 
d="M576 213q-166 -237 -225 -241q-96 44 -96 108q10 96 184 396q0 4 -9 4q-165 -135 -303 -400q-61 -125 -84 -125q-27 0 -89 87q13 103 116 294.5t127 196.5q90 -26 90 -65q-109 -182 -179 -349l6 -4q89 173 217 312.5t187 141.5q85 -32 85 -82q-100 -122 -190 -321
q-44 -95 -45 -150q54 11 192 218zM371 629q-10 3 -15 22q123 111 188 180q8 3 16 3q44 -40 47 -67q-7 -14 -107 -69q-98 -68 -129 -69z" />
    <glyph glyph-name="uni0145" unicode="&#x145;" horiz-adv-x="908" 
d="M335 -296q-25 26 -26 46q38 65 86 114q73 -19 73 -45v-21q-26 -57 -71 -117h-2q-58 -73 -128 -79q-35 0 -67 46q1 8 9 9q51 -29 73 -29q34 23 53 76zM453 661q-176 -405 -227 -593q13 3 147 220q274 519 376 598q12 7 23 12q74 -3 128 -61l1 -6q-5 -64 -107 -379
q-33 -141 -46.5 -247.5t-14.5 -251.5q2 -146 63 -242q31 -33 64 -42l-7 -15q-41 4 -85 25q-160 109 -168 350q5 188 44.5 371t127.5 430l-4 2q-118 -115 -357 -560l-231 -378q-100 35 -119 90q4 75 167.5 440t176.5 439q-1 20 -27 21q-52 0 -194 -160q-82 -106 -86 -180
q0 -38 33 -56q4 -3 10 -6l-12 -11q-125 39 -129 108q2 121 147 265q109 105 171 110q146 -26 182 -129l-2 -17q-3 -44 -45 -147z" />
    <glyph glyph-name="uni0146" unicode="&#x146;" horiz-adv-x="577" 
d="M361 -49q-68 0 -104 84q-4 7 -4 20q0 38 242 413q12 20 14 45q-99 -13 -311 -312l-173 -234h-8q-34 0 -76 76q-14 24 -14 63q77 85 248 310q57 68 64 72q39 -7 86 -60h8q115 120 170 120q31 0 69.5 -38t38.5 -70q0 -46 -129 -233t-129 -212l28 -4q33 0 204 230l18 -11
q-179 -255 -242 -259zM633 -857h4v-12h-4v12zM45 -238q-25 26 -26 46q38 65 86 114q73 -19 73 -45v-21q-26 -57 -71 -117h-2q-58 -73 -128 -79q-35 0 -67 46q1 8 9 9q51 -29 73 -29q34 23 53 76z" />
    <glyph glyph-name="Ncaron" unicode="&#x147;" horiz-adv-x="885" 
d="M729 1036q-38 -59 -59 -61q-18 6 -39.5 28.5t-21.5 36.5q68 134 89 229q4 8 11 9h3q78 -25 78 -45q0 -16 -72 -149l9 -7l183 185q11 6 22 6q10 0 13 -12q-59 -49 -216 -220zM453 661q-176 -405 -227 -593q13 3 147 220q274 519 376 598q12 7 23 12q74 -3 128 -61l1 -6
q-5 -64 -107 -379q-33 -141 -46.5 -247.5t-14.5 -251.5q2 -146 63 -242q31 -33 64 -42l-7 -15q-41 4 -85 25q-160 109 -168 350q5 188 44.5 371t127.5 430l-4 2q-118 -115 -357 -560l-231 -378q-100 35 -119 90q4 75 167.5 440t176.5 439q-1 20 -27 21q-52 0 -194 -160
q-82 -106 -86 -180q0 -38 33 -56q4 -3 10 -6l-12 -11q-125 39 -129 108q2 121 147 265q109 105 171 110q146 -26 182 -129l-2 -17q-3 -44 -45 -147z" />
    <glyph glyph-name="ncaron" unicode="&#x148;" horiz-adv-x="577" 
d="M633 -857h4v-12h-4v12zM577 714q-38 -59 -59 -61q-18 6 -39.5 28.5t-21.5 36.5q68 134 89 229q4 8 11 9h3q78 -25 78 -45q0 -16 -72 -149l9 -7l183 185q11 6 22 6q10 0 13 -12q-59 -49 -216 -220zM361 -49q-68 0 -104 84q-4 7 -4 20q0 38 242 413q12 20 14 45
q-99 -13 -311 -312l-173 -234h-8q-34 0 -76 76q-14 24 -14 63q77 85 248 310q57 68 64 72q39 -7 86 -60h8q115 120 170 120q31 0 69.5 -38t38.5 -70q0 -46 -129 -233t-129 -212l28 -4q33 0 204 230l18 -11q-179 -255 -242 -259z" />
    <glyph glyph-name="napostrophe" unicode="&#x149;" horiz-adv-x="557" 
d="M592 213q-176 -237 -235 -241q-86 44 -86 108q10 96 184 396q0 4 -9 4q-222 -222 -333 -400q-67 -113 -113 -113q-27 0 -72 72q0 48 119.5 246t147.5 211q77 -20 77 -59q0 -15 -166 -305l6 -4q107 160 169 228q194 211 253 213q95 -32 95 -82q-110 -122 -200 -321
q-54 -95 -55 -150q54 11 202 218zM301 776q-25 26 -26 46q38 65 86 114q73 -19 73 -45v-21q-26 -57 -71 -117h-2q-58 -73 -128 -79q-35 0 -67 46q1 8 9 9q51 -29 73 -29q34 23 53 76z" />
    <glyph glyph-name="Omacron" unicode="&#x14c;" horiz-adv-x="661" 
d="M748 1161q120 -54 122 -77q0 -51 -35 -75q-14 0 -91 44q-114 65 -203 67q-62 -7 -77 -20q-7 -29 -17 -29q-25 11 -25 47q0 32 12 57q12 32 134 32q50 0 180 -46zM490 976q93 -2 175 -53q-18 -15 -53 -23q107 -48 114 -115q-3 -204 -146 -495q-202 -354 -352 -359
q-202 25 -228 202q5 237 189 573q153 248 301 270zM134 135q5 -129 47 -147q93 0 299 358q135 249 138 466q-5 53 -35 66l7 13q-115 -2 -212.5 -138t-170.5 -321t-73 -297z" />
    <glyph glyph-name="omacron" unicode="&#x14d;" horiz-adv-x="435" 
d="M468 736q120 -54 122 -77q0 -51 -35 -75q-14 0 -91 44q-114 65 -203 67q-62 -7 -77 -20q-7 -29 -17 -29q-25 11 -25 47q0 32 12 57q12 32 134 32q50 0 180 -46zM428 426q0 -82 -68 -217.5t-114 -185.5q-60 -56 -86 -57q-164 31 -164 167q0 176 185 371q53 39 99 52
q42 -5 112 -39q21 -19 28.5 -46t7.5 -45zM104 87q0 -89 47 -89q77 16 185 230q11 23 34 84t23 112q0 37 -25 62h-14q-88 -27 -169 -152t-81 -247z" />
    <glyph glyph-name="Obreve" unicode="&#x14e;" horiz-adv-x="655" 
d="M500 1189q33 59 66 59q94 -111 233 -111q59 2 59 30q0 12 -10 32q2 5 6 6q28 -8 28 -38q0 -94 -100 -121q-18 -3 -42 -3q-93 0 -222 117q-17 15 -18 29zM490 976q93 -2 175 -53q-18 -15 -53 -23q107 -48 114 -115q-3 -204 -146 -495q-202 -354 -352 -359
q-202 25 -228 202q5 237 189 573q153 248 301 270zM134 135q5 -129 47 -147q93 0 299 358q135 249 138 466q-5 53 -35 66l7 13q-115 -2 -212.5 -138t-170.5 -321t-73 -297z" />
    <glyph glyph-name="obreve" unicode="&#x14f;" horiz-adv-x="432" 
d="M200 781q33 59 66 59q94 -111 233 -111q59 2 59 30q0 12 -10 32q2 5 6 6q28 -8 28 -38q0 -94 -100 -121q-18 -3 -42 -3q-93 0 -222 117q-17 15 -18 29zM428 426q0 -82 -68 -217.5t-114 -185.5q-60 -56 -86 -57q-164 31 -164 167q0 176 185 371q53 39 99 52q42 -5 112 -39
q21 -19 28.5 -46t7.5 -45zM104 87q0 -89 47 -89q77 16 185 230q11 23 34 84t23 112q0 37 -25 62h-14q-88 -27 -169 -152t-81 -247z" />
    <glyph glyph-name="Ohungarumlaut" unicode="&#x150;" horiz-adv-x="649" 
d="M552 1081q-14 13 -17 32.5t-3 33.5q123 91 183 168q8 3 16 3q52 -53 52 -75q-7 -14 -129 -104q-71 -57 -102 -58zM681 1023q-14 13 -17 32.5t-3 33.5q123 91 183 168q8 3 16 3q52 -53 52 -75q-7 -14 -129 -104q-71 -57 -102 -58zM490 976q93 -2 175 -53q-18 -15 -53 -23
q107 -48 114 -115q-3 -204 -146 -495q-202 -354 -352 -359q-202 25 -228 202q5 237 189 573q153 248 301 270zM134 135q5 -129 47 -147q93 0 299 358q135 249 138 466q-5 53 -35 66l7 13q-115 -2 -212.5 -138t-170.5 -321t-73 -297z" />
    <glyph glyph-name="ohungarumlaut" unicode="&#x151;" horiz-adv-x="450" 
d="M261 640q-14 13 -17 32.5t-3 33.5q123 91 183 168q8 3 16 3q52 -53 52 -75q-7 -14 -129 -104q-71 -57 -102 -58zM402 576q-14 13 -17 32.5t-3 33.5q123 91 183 168q8 3 16 3q52 -53 52 -75q-7 -14 -129 -104q-71 -57 -102 -58zM428 426q0 -82 -68 -217.5t-114 -185.5
q-60 -56 -86 -57q-164 31 -164 167q0 176 185 371q53 39 99 52q42 -5 112 -39q21 -19 28.5 -46t7.5 -45zM104 87q0 -89 47 -89q77 16 185 230q11 23 34 84t23 112q0 37 -25 62h-14q-88 -27 -169 -152t-81 -247z" />
    <glyph glyph-name="Racute" unicode="&#x154;" horiz-adv-x="920" 
d="M83 407q-11 -5 -25 -5q-38 41 -42 123q125 147 489 319q198 83 381 87q128 -7 163 -149q0 -43 -20 -85q-125 -245 -546 -324l-2 -10q272 -302 426 -427q84 -59 124 -59l46 5l2 -10l-4 -19q-71 -84 -141 -84q-142 0 -503 481q-88 -309 -88 -374l27 -102q-1 -7 -25 -24
q-115 43 -118 127q0 73 43.5 209t98.5 258q-31 48 -53 98l2 10q3 13 98 19q50 131 96 231q-159 -66 -264.5 -145t-164.5 -150zM489 491h5q166 22 404 182q83 71 83 107q0 20 -64 25q-153 0 -315 -74q-103 -197 -113 -240zM690 1026q-10 3 -15 22q123 111 188 180q8 3 16 3
q44 -40 47 -67q-7 -14 -107 -69q-98 -68 -129 -69z" />
    <glyph glyph-name="racute" unicode="&#x155;" horiz-adv-x="491" 
d="M166 451q24 52 42 70q15 0 48.5 -26.5t35.5 -45.5l-105 -209q80 113 187 237q55 64 81 64h15q33 -16 55 -49l2 -15q-128 -263 -128 -313q3 -14 24 -14q24 0 68 57l18 -13q-57 -72 -93 -72q-81 4 -96 64q0 116 77 272q0 4 -5 5q-171 -196 -307 -479l-18 -15q-71 15 -92 53
l97 234l22 48q-35 -45 -93 -132l-15 15q80 120 120 175.5t60 88.5zM369 623q-10 3 -15 22q123 111 188 180q8 3 16 3q44 -40 47 -67q-7 -14 -107 -69q-98 -68 -129 -69z" />
    <glyph glyph-name="uni0156" unicode="&#x156;" horiz-adv-x="920" 
d="M83 407q-11 -5 -25 -5q-38 41 -42 123q125 147 489 319q198 83 381 87q128 -7 163 -149q0 -43 -20 -85q-125 -245 -546 -324l-2 -10q272 -302 426 -427q84 -59 124 -59l46 5l2 -10l-4 -19q-71 -84 -141 -84q-142 0 -503 481q-88 -309 -88 -374l27 -102q-1 -7 -25 -24
q-115 43 -118 127q0 73 43.5 209t98.5 258q-31 48 -53 98l2 10q3 13 98 19q50 131 96 231q-159 -66 -264.5 -145t-164.5 -150zM489 491h5q166 22 404 182q83 71 83 107q0 20 -64 25q-153 0 -315 -74q-103 -197 -113 -240zM526 -372q-25 26 -26 46q38 65 86 114
q73 -19 73 -45v-21q-26 -57 -71 -117h-2q-58 -73 -128 -79q-35 0 -67 46q1 8 9 9q51 -29 73 -29q34 23 53 76z" />
    <glyph glyph-name="uni0157" unicode="&#x157;" horiz-adv-x="491" 
d="M109 -225q-25 26 -26 46q38 65 86 114q73 -19 73 -45v-21q-26 -57 -71 -117h-2q-58 -73 -128 -79q-35 0 -67 46q1 8 9 9q51 -29 73 -29q34 23 53 76zM166 451q24 52 42 70q15 0 48.5 -26.5t35.5 -45.5l-105 -209q80 113 187 237q55 64 81 64h15q33 -16 55 -49l2 -15
q-128 -263 -128 -313q3 -14 24 -14q24 0 68 57l18 -13q-57 -72 -93 -72q-81 4 -96 64q0 116 77 272q0 4 -5 5q-171 -196 -307 -479l-18 -15q-71 15 -92 53l97 234l22 48q-35 -45 -93 -132l-15 15q80 120 120 175.5t60 88.5z" />
    <glyph glyph-name="Rcaron" unicode="&#x158;" horiz-adv-x="920" 
d="M83 407q-11 -5 -25 -5q-38 41 -42 123q125 147 489 319q198 83 381 87q128 -7 163 -149q0 -43 -20 -85q-125 -245 -546 -324l-2 -10q272 -302 426 -427q84 -59 124 -59l46 5l2 -10l-4 -19q-71 -84 -141 -84q-142 0 -503 481q-88 -309 -88 -374l27 -102q-1 -7 -25 -24
q-115 43 -118 127q0 73 43.5 209t98.5 258q-31 48 -53 98l2 10q3 13 98 19q50 131 96 231q-159 -66 -264.5 -145t-164.5 -150zM489 491h5q166 22 404 182q83 71 83 107q0 20 -64 25q-153 0 -315 -74q-103 -197 -113 -240zM924 1079q-38 -59 -59 -61q-18 6 -39.5 28.5
t-21.5 36.5q68 134 89 229q4 8 11 9h3q78 -25 78 -45q0 -16 -72 -149l9 -7l183 185q11 6 22 6q10 0 13 -12q-59 -49 -216 -220z" />
    <glyph glyph-name="rcaron" unicode="&#x159;" horiz-adv-x="491" 
d="M166 451q24 52 42 70q15 0 48.5 -26.5t35.5 -45.5l-105 -209q80 113 187 237q55 64 81 64h15q33 -16 55 -49l2 -15q-128 -263 -128 -313q3 -14 24 -14q54 0 98 57l18 -13q-48 -71 -123 -72q-81 4 -96 64q0 116 77 272q0 4 -5 5q-171 -196 -307 -479l-18 -15
q-71 15 -92 53l97 234l22 48q-35 -45 -93 -132l-15 15q80 120 120 175.5t60 88.5zM477 693q-38 -59 -59 -61q-18 6 -39.5 28.5t-21.5 36.5q68 134 89 229q4 8 11 9h3q78 -25 78 -45q0 -16 -72 -149l9 -7l183 185q11 6 22 6q10 0 13 -12q-59 -49 -216 -220z" />
    <glyph glyph-name="Sacute" unicode="&#x15a;" horiz-adv-x="745" 
d="M407 1010q-10 3 -15 22q123 111 188 180q8 3 16 3q44 -40 47 -67q-7 -14 -107 -69q-98 -68 -129 -69zM478 939q92 -2 147.5 -49.5t55.5 -99.5q-1 -41 -60 -88l-10 8q14 46 14 86q-47 38 -116 38q-106 0 -232.5 -102t-131.5 -216q0 -27 14 -34q16 0 153.5 43t178.5 43
q113 0 213 -163q9 -18 9 -55q0 -116 -161 -282t-332 -170q-105 0 -220 162q3 14 18 18q28 -23 67.5 -43t82.5 -20q149 0 294.5 158.5t145.5 263.5q-14 68 -68 83q-85 0 -185 -39.5t-174 -41.5q-142 19 -142 136q0 137 150.5 249.5t288.5 114.5z" />
    <glyph glyph-name="sacute" unicode="&#x15b;" horiz-adv-x="438" 
d="M228 673q-10 3 -15 22q123 111 188 180q8 3 16 3q44 -40 47 -67q-7 -14 -107 -69q-98 -68 -129 -69zM315 172q-5 32 -125.5 86.5t-140 87t-21.5 64.5q4 68 117 116.5t152 48.5q37 0 80.5 -36t44.5 -56q-20 -68 -71 -75l-8 14q27 20 27 47q0 9 -29 9q-28 0 -129.5 -49
t-101.5 -91q2 -14 103 -54.5t122 -81.5q27 -45 33 -108q-3 -57 -107 -102t-185 -46q-68 6 -86 40.5t-18 62.5q16 68 67 75l8 -14q-28 -21 -28 -47q8 -9 41 -9q40 0 139.5 42.5t115.5 75.5z" />
    <glyph glyph-name="Scircumflex" unicode="&#x15c;" horiz-adv-x="753" 
d="M568 1248q38 59 59 61q18 -6 39.5 -28.5t21.5 -36.5q-68 -134 -89 -229q-4 -8 -11 -9h-3q-78 25 -78 45q0 16 72 149l-9 7l-183 -185q-11 -6 -22 -6q-10 0 -13 12q59 49 216 220zM478 929q92 -2 147.5 -49.5t55.5 -99.5q-1 -41 -60 -88l-10 8q14 46 14 86q-47 38 -116 38
q-106 0 -232.5 -102t-131.5 -216q0 -27 14 -34q16 0 153.5 43t178.5 43q113 0 213 -163q9 -18 9 -55q0 -116 -161 -282t-332 -170q-105 0 -220 162q3 14 18 18q28 -23 67.5 -43t82.5 -20q149 0 294.5 158.5t145.5 263.5q-14 68 -68 83q-85 0 -185 -39.5t-174 -41.5
q-142 19 -142 136q0 137 150.5 249.5t288.5 114.5z" />
    <glyph glyph-name="scircumflex" unicode="&#x15d;" horiz-adv-x="438" 
d="M354 902q38 59 59 61q18 -6 39.5 -28.5t21.5 -36.5q-68 -134 -89 -229q-4 -8 -11 -9h-3q-78 25 -78 45q0 16 72 149l-9 7l-183 -185q-11 -6 -22 -6q-10 0 -13 12q59 49 216 220zM315 172q-5 32 -125.5 86.5t-140 87t-21.5 64.5q4 68 117 116.5t152 48.5q37 0 80.5 -36
t44.5 -56q-20 -68 -71 -75l-8 14q27 20 27 47q0 9 -29 9q-28 0 -129.5 -49t-101.5 -91q2 -14 103 -54.5t122 -81.5q27 -45 33 -108q-3 -57 -107 -102t-185 -46q-68 6 -86 40.5t-18 62.5q16 68 67 75l8 -14q-28 -21 -28 -47q8 -9 41 -9q40 0 139.5 42.5t115.5 75.5z" />
    <glyph glyph-name="uni0162" unicode="&#x162;" horiz-adv-x="664" 
d="M314 -308q-25 26 -26 46q38 65 86 114q73 -19 73 -45v-21q-26 -57 -71 -117h-2q-58 -73 -128 -79q-35 0 -67 46q1 8 9 9q51 -29 73 -29q34 23 53 76zM632 841l29 -17q44 -29 44 -59q-9 -136 -244 -691q-46 -130 -70 -130q-87 40 -87 78q23 65 215 551q57 131 57 203
l-9 48q-173 -41 -303 -92q-188 -99 -249 -141l-15 4q1 82 20 119q40 58 179.5 125.5t317.5 112.5q158 40 312 41q181 0 292.5 -67t115.5 -144q-2 -40 -31 -65q-26 2 -31 18q12 21 13 49q-5 13 -85.5 47t-240.5 34q-116 0 -230 -24z" />
    <glyph glyph-name="uni0163" unicode="&#x163;" horiz-adv-x="353" 
d="M25 -269q-25 26 -26 46q38 65 86 114q73 -19 73 -45v-21q-26 -57 -71 -117h-2q-58 -73 -128 -79q-35 0 -67 46q1 8 9 9q51 -29 73 -29q34 23 53 76zM221 611q108 156 161 180q90 -37 92 -63q-3 -10 -95 -109l-29 -35q63 -12 127 -22l-5 -16q-68 0 -143 8
q-197 -265 -229 -466q0 -105 41 -105q49 0 217 231q13 0 13 -18q-168 -245 -243 -246q-36 8 -85.5 55.5t-51.5 110.5q3 143 163 394l41 63q-16 3 -63 14t-100 39l11 18q58 -14 93.5 -21t84.5 -12z" />
    <glyph glyph-name="Tcaron" unicode="&#x164;" horiz-adv-x="664" 
d="M761 1094q-38 -59 -59 -61q-18 6 -39.5 28.5t-21.5 36.5q68 134 89 229q4 8 11 9h3q78 -25 78 -45q0 -16 -72 -149l9 -7l183 185q11 6 22 6q10 0 13 -12q-59 -49 -216 -220zM632 841l29 -17q44 -29 44 -59q-9 -136 -244 -691q-46 -130 -70 -130q-87 40 -87 78
q23 65 215 551q57 131 57 203l-9 48q-173 -41 -303 -92q-188 -99 -249 -141l-15 4q1 82 20 119q40 58 179.5 125.5t317.5 112.5q158 40 312 41q181 0 292.5 -67t115.5 -144q-2 -40 -31 -65q-26 2 -31 18q12 21 13 49q-5 13 -85.5 47t-240.5 34q-116 0 -230 -24z" />
    <glyph glyph-name="tcaron" unicode="&#x165;" horiz-adv-x="353" 
d="M585 812q-25 26 -26 46q38 65 86 114q73 -19 73 -45v-21q-26 -57 -71 -117h-2q-58 -73 -106 -81q-16 6 -19 27q46 24 65 77zM221 611q108 156 161 180q90 -37 92 -63q-3 -10 -95 -109l-29 -35q63 -12 127 -22l-5 -16q-68 0 -143 8q-197 -265 -229 -466q0 -105 41 -105
q49 0 217 231q13 0 13 -18q-168 -245 -243 -246q-36 8 -85.5 55.5t-51.5 110.5q3 143 163 394l41 63q-16 3 -63 14t-100 39l11 18q58 -14 93.5 -21t84.5 -12z" />
    <glyph glyph-name="Tbar" unicode="&#x166;" horiz-adv-x="705" 
d="M551 554q48 119 48 172l-12 66q-342 -20 -527 -174q-8 -6 -10 -20q0 -19 25 -45q0 -21 -25 -25q-50 20 -50 110q0 111 99 167.5t248 94t312 37.5q183 0 335 -30.5t216 -104.5q24 -34 29 -96l-29 -10q-45 31 -252 81q-93 20 -269 20q39 -50 39 -82q-4 -56 -64 -212
q118 -56 121 -82q-10 -21 -23 -40q-18 0 -121 58q-63 -163 -157 -365q-46 -130 -70 -130q-87 40 -87 78q22 61 204 474q-81 31 -151 32q-43 0 -78 -28q0 -19 6 -33l-4 -7q-41 18 -41 66q25 64 125 64q50 0 163 -36z" />
    <glyph glyph-name="tbar" unicode="&#x167;" horiz-adv-x="414" 
d="M331 542q1 -1 2 -1q103 -42 148 -78q-8 -13 -30 -22q-17 0 -94 48l-46 23q-42 -63 -75 -120q-115 -195 -115 -282q3 -93 40 -109q72 0 225 217h4q10 -5 10 -22q-170 -240 -248 -241q-94 12 -131 72q-29 45 -29 86q1 154 190 434q2 4 5 7q-37 8 -71 9q-103 -2 -116 -33
q0 -11 9 -24l-4 -5q-32 12 -33 37q0 20 36 35.5t109 15.5q37 0 86 -10l67 95q-34 6 -66 7q-66 -1 -106 -22q0 -11 9 -24l-4 -5q-39 13 -39 49q0 32 14 57q14 32 157 32q33 0 95 -14q79 99 127 133l10 2q83 -22 85 -43l4 -6l-97 -123q129 -50 131 -72q0 -51 -41 -75
q-17 0 -107 44q-23 11 -45 20z" />
    <glyph glyph-name="Utilde" unicode="&#x168;" horiz-adv-x="850" 
d="M630 520q-59 -107 -174 -334q-83 -142 -184 -269q-44 1 -95 44q-59 43 -59 79q0 95 232 650q34 99 35 161l-10 14q-61 -9 -154 -66q-77 -60 -104.5 -117.5t-27.5 -105.5q2 -15 15 -15q35 7 125 67l6 -10q-77 -102 -139 -111q-58 15 -96 127q0 152 149 252q91 67 164 67
q80 0 162 -92q13 -26 13 -66q0 -119 -161 -517q-84 -222 -84 -296l9 -4q18 0 117 154q250 469 333 651q10 14 31 17q110 -14 110 -75q-77 -201 -130.5 -378.5t-54.5 -376.5q29 15 73 71t123 172l13 -17q-80 -120 -139 -198q-55 -68 -81 -69q-50 0 -111 118q0 114 30.5 241
t63.5 232zM584 1129q-27 0 -55.5 -22t-48.5 -54q-5 -13 -23 -13q-12 0 -22 2l-3 6q2 10 18 30q32 47 65 73q36 26 74 27q82 -18 101 -43q10 -20 19 -62.5t31 -64.5q35 0 55.5 24t33.5 53q6 13 24 13q11 0 18 -7l-9 -18q-34 -60 -63.5 -88.5t-73.5 -32.5q-77 15 -102 43
q-11 20 -21 73t-18 61z" />
    <glyph glyph-name="utilde" unicode="&#x169;" horiz-adv-x="548" 
d="M367 -11q-59 0 -88 103q-5 35 -5 80q-132 -209 -200 -214q-107 30 -107 102q0 163 205 459q6 4 13 4q98 -28 98 -58q-76 -104 -169 -276q-49 -105 -49 -186q0 -14 18 -14q61 31 164 190q168 322 205 362q11 9 27 9q93 -16 93 -36q0 -13 -104.5 -176t-104.5 -291
q0 -27 18 -27q31 0 168 188l19 -12q-155 -207 -201 -207zM359 795q-27 0 -55.5 -22t-48.5 -54q-5 -13 -23 -13q-12 0 -22 2l-3 6q2 10 18 30q32 47 65 73q36 26 74 27q82 -18 101 -43q10 -20 19 -62.5t31 -64.5q35 0 55.5 24t33.5 53q6 13 24 13q11 0 18 -7l-9 -18
q-34 -60 -63.5 -88.5t-73.5 -32.5q-77 15 -102 43q-11 20 -21 73t-18 61z" />
    <glyph glyph-name="Umacron" unicode="&#x16a;" horiz-adv-x="850" 
d="M630 520q-59 -107 -174 -334q-83 -142 -184 -269q-44 1 -95 44q-59 43 -59 79q0 95 232 650q34 99 35 161l-10 14q-61 -9 -154 -66q-77 -60 -104.5 -117.5t-27.5 -105.5q2 -15 15 -15q35 7 125 67l6 -10q-77 -102 -139 -111q-58 15 -96 127q0 152 149 252q91 67 164 67
q80 0 162 -92q13 -26 13 -66q0 -119 -161 -517q-84 -222 -84 -296l9 -4q18 0 117 154q250 469 333 651q10 14 31 17q110 -14 110 -75q-77 -201 -130.5 -378.5t-54.5 -376.5q29 15 73 71t123 172l13 -17q-80 -120 -139 -198q-55 -68 -81 -69q-50 0 -111 118q0 114 30.5 241
t63.5 232zM713 1102q120 -54 122 -77q0 -51 -35 -75q-14 0 -91 44q-114 65 -203 67q-62 -7 -77 -20q-7 -29 -17 -29q-25 11 -25 47q0 32 12 57q12 32 134 32q50 0 180 -46z" />
    <glyph glyph-name="umacron" unicode="&#x16b;" horiz-adv-x="548" 
d="M367 -11q-59 0 -88 103q-5 35 -5 80q-132 -209 -200 -214q-107 30 -107 102q0 163 205 459q6 4 13 4q98 -28 98 -58q-76 -104 -169 -276q-49 -105 -49 -186q0 -14 18 -14q61 31 164 190q168 322 205 362q11 9 27 9q93 -16 93 -36q0 -13 -104.5 -176t-104.5 -291
q0 -27 18 -27q31 0 168 188l19 -12q-155 -207 -201 -207zM487 774q120 -54 122 -77q0 -51 -35 -75q-14 0 -91 44q-114 65 -203 67q-62 -7 -77 -20q-7 -29 -17 -29q-25 11 -25 47q0 32 12 57q12 32 134 32q50 0 180 -46z" />
    <glyph glyph-name="Ubreve" unicode="&#x16c;" horiz-adv-x="850" 
d="M630 520q-59 -107 -174 -334q-83 -142 -184 -269q-44 1 -95 44q-59 43 -59 79q0 95 232 650q34 99 35 161l-10 14q-61 -9 -154 -66q-77 -60 -104.5 -117.5t-27.5 -105.5q2 -15 15 -15q35 7 125 67l6 -10q-77 -102 -139 -111q-58 15 -96 127q0 152 149 252q91 67 164 67
q80 0 162 -92q13 -26 13 -66q0 -119 -161 -517q-84 -222 -84 -296l9 -4q18 0 117 154q250 469 333 651q10 14 31 17q110 -14 110 -75q-77 -201 -130.5 -378.5t-54.5 -376.5q29 15 73 71t123 172l13 -17q-80 -120 -139 -198q-55 -68 -81 -69q-50 0 -111 118q0 114 30.5 241
t63.5 232zM485 1115q33 59 66 59q94 -111 233 -111q59 2 59 30q0 12 -10 32q2 5 6 6q28 -8 28 -38q0 -94 -100 -121q-18 -3 -42 -3q-93 0 -222 117q-17 15 -18 29z" />
    <glyph glyph-name="ubreve" unicode="&#x16d;" horiz-adv-x="548" 
d="M367 -11q-59 0 -88 103q-5 35 -5 80q-132 -209 -200 -214q-107 30 -107 102q0 163 205 459q6 4 13 4q98 -28 98 -58q-76 -104 -169 -276q-49 -105 -49 -186q0 -14 18 -14q61 31 164 190q168 322 205 362q11 9 27 9q93 -16 93 -36q0 -13 -104.5 -176t-104.5 -291
q0 -27 18 -27q31 0 168 188l19 -12q-155 -207 -201 -207zM218 785q33 59 66 59q94 -111 233 -111q59 2 59 30q0 12 -10 32q2 5 6 6q28 -8 28 -38q0 -94 -100 -121q-18 -3 -42 -3q-93 0 -222 117q-17 15 -18 29z" />
    <glyph glyph-name="Uring" unicode="&#x16e;" horiz-adv-x="850" 
d="M630 520q-59 -107 -174 -334q-83 -142 -184 -269q-44 1 -95 44q-59 43 -59 79q0 95 232 650q34 99 35 161l-10 14q-61 -9 -154 -66q-77 -60 -104.5 -117.5t-27.5 -105.5q2 -15 15 -15q35 7 125 67l6 -10q-77 -102 -139 -111q-58 15 -96 127q0 152 149 252q91 67 164 67
q80 0 162 -92q13 -26 13 -66q0 -119 -161 -517q-84 -222 -84 -296l9 -4q18 0 117 154q250 469 333 651q10 14 31 17q110 -14 110 -75q-77 -201 -130.5 -378.5t-54.5 -376.5q29 15 73 71t123 172l13 -17q-80 -120 -139 -198q-55 -68 -81 -69q-50 0 -111 118q0 114 30.5 241
t63.5 232zM770 1203q37 0 72 -34.5t35 -58.5q0 -40 -59 -123t-138 -88q-71 3 -104 39q0 67 28.5 126t69 92t96.5 47zM656 945q78 3 129.5 76.5t51.5 112.5q-40 0 -78.5 -24.5t-70.5 -78.5t-32 -86z" />
    <glyph glyph-name="uring" unicode="&#x16f;" horiz-adv-x="548" 
d="M367 -11q-59 0 -88 103q-5 35 -5 80q-132 -209 -200 -214q-107 30 -107 102q0 163 205 459q6 4 13 4q98 -28 98 -58q-76 -104 -169 -276q-49 -105 -49 -186q0 -14 18 -14q61 31 164 190q168 322 205 362q11 9 27 9q93 -16 93 -36q0 -13 -104.5 -176t-104.5 -291
q0 -27 18 -27q31 0 168 188l19 -12q-155 -207 -201 -207zM480 923q37 0 72 -34.5t35 -58.5q0 -40 -59 -123t-138 -88q-71 3 -104 39q0 67 28.5 126t69 92t96.5 47zM366 665q78 3 129.5 76.5t51.5 112.5q-40 0 -78.5 -24.5t-70.5 -78.5t-32 -86z" />
    <glyph glyph-name="Uhungarumlaut" unicode="&#x170;" horiz-adv-x="850" 
d="M630 520q-59 -107 -174 -334q-83 -142 -184 -269q-44 1 -95 44q-59 43 -59 79q0 95 232 650q34 99 35 161l-10 14q-61 -9 -154 -66q-77 -60 -104.5 -117.5t-27.5 -105.5q2 -15 15 -15q35 7 125 67l6 -10q-77 -102 -139 -111q-58 15 -96 127q0 152 149 252q91 67 164 67
q80 0 162 -92q13 -26 13 -66q0 -119 -161 -517q-84 -222 -84 -296l9 -4q18 0 117 154q250 469 333 651q10 14 31 17q110 -14 110 -75q-77 -201 -130.5 -378.5t-54.5 -376.5q29 15 73 71t123 172l13 -17q-80 -120 -139 -198q-55 -68 -81 -69q-50 0 -111 118q0 114 30.5 241
t63.5 232zM557 985q-14 13 -17 32.5t-3 33.5q123 91 183 168q8 3 16 3q52 -53 52 -75q-7 -14 -129 -104q-71 -57 -102 -58zM686 927q-14 13 -17 32.5t-3 33.5q123 91 183 168q8 3 16 3q52 -53 52 -75q-7 -14 -129 -104q-71 -57 -102 -58z" />
    <glyph glyph-name="uhungarumlaut" unicode="&#x171;" horiz-adv-x="548" 
d="M367 -11q-59 0 -88 103q-5 35 -5 80q-132 -209 -200 -214q-107 30 -107 102q0 163 205 459q6 4 13 4q98 -28 98 -58q-76 -104 -169 -276q-49 -105 -49 -186q0 -14 18 -14q61 31 164 190q168 322 205 362q11 9 27 9q93 -16 93 -36q0 -13 -104.5 -176t-104.5 -291
q0 -27 18 -27q31 0 168 188l19 -12q-155 -207 -201 -207zM284 645q-14 13 -17 32.5t-3 33.5q123 91 183 168q8 3 16 3q52 -53 52 -75q-7 -14 -129 -104q-71 -57 -102 -58zM451 613q-14 13 -17 32.5t-3 33.5q123 91 183 168q8 3 16 3q52 -53 52 -75q-7 -14 -129 -104
q-71 -57 -102 -58z" />
    <glyph glyph-name="Uogonek" unicode="&#x172;" horiz-adv-x="850" 
d="M592 -39q-27 29 -56 86q0 114 30.5 241t63.5 232q-59 -107 -174 -334q-83 -142 -184 -269q-44 1 -95 44q-59 43 -59 79q0 95 232 650q34 99 35 161l-10 14q-61 -9 -154 -66q-77 -60 -104.5 -117.5t-27.5 -105.5q2 -15 15 -15q35 7 125 67l6 -10q-77 -102 -139 -111
q-58 15 -96 127q0 152 149 252q91 67 164 67q80 0 162 -92q13 -26 13 -66q0 -119 -161 -517q-84 -222 -84 -296l9 -4q18 0 117 154q250 469 333 651q10 14 31 17q110 -14 110 -75q-77 -201 -130.5 -378.5t-54.5 -376.5q29 15 73 71t123 172l13 -17q-80 -120 -139 -198
q-41 -51 -66 -64q-34 -55 -62 -124q-31 -75 -31 -160q0 -53 23 -63q38 0 64.5 26.5t42.5 53.5q19 -2 19 -17q-26 -53 -56.5 -75t-60.5 -24q-128 20 -131 131q0 51 31 126q29 73 91 153z" />
    <glyph glyph-name="uogonek" unicode="&#x173;" horiz-adv-x="663" 
d="M365 -7q-36 26 -40 70q0 41 5 68t5 32q-52 -70 -151 -166q-39 -26 -70 -30q-86 50 -86 151q0 66 45 157q-23 -31 -69 -99l-15 15q178 270 290 361l11 5q74 -41 85 -85v-5q-241 -268 -241 -425q2 -34 5 -35q29 0 241 277q95 152 199 256q9 5 15 5q48 -18 62 -46.5
t14 -38.5q-50 -53 -138 -171q-102 -161 -102 -287q51 0 106.5 50.5t133.5 165.5l13 -19q-149 -215 -245 -231q-33 -52 -59 -118q-31 -75 -31 -160q0 -53 23 -63q38 0 64.5 26.5t42.5 53.5q19 -2 19 -17q-26 -53 -56.5 -75t-60.5 -24q-128 20 -131 131q0 51 31 126
q28 69 85 145z" />
    <glyph glyph-name="Wcircumflex" unicode="&#x174;" horiz-adv-x="836" 
d="M1278 1189q100 -10 134 -48l-5 -10q-45 3 -90 5q-172 -157 -381 -497q-111 -182 -361 -678q-9 -18 -35 -19q-128 78 -132 135q19 235 138 639q0 7 -7 10q-175 -275 -386 -753l-35 -36h-7q-111 51 -111 111q162 591 162 753q0 72 -36 115q0 8 29 15q155 -28 155 -157
q0 -106 -146 -666l9 -4q299 670 359 670q22 0 74.5 -30t52.5 -63q0 -8 -58 -235.5t-60 -374.5q0 -54 8 -58l148.5 295l186.5 359q148 237 247 371.5t147 150.5zM740 1124q38 59 59 61q18 -6 39.5 -28.5t21.5 -36.5q-68 -134 -89 -229q-4 -8 -11 -9h-3q-78 25 -78 45
q0 16 72 149l-9 7l-183 -185q-11 -6 -22 -6q-10 0 -13 12q59 49 216 220z" />
    </font>
</defs>
</svg>
